<?xml version="1.0" encoding="UTF-8"?> <svg xmlns="http://www.w3.org/2000/svg" width="256" height="100" viewBox="0 0 256 100" fill="none"> <g clip-path="url(#clip0_1908_2634)"> <path d="M74.0969 23.5C76.0969 23.5 77.8969 23.9 79.6969 24.6C81.3969 25.3 82.9969 26.3 84.1969 27.6C85.4969 28.9 86.4969 30.4 87.1969 32.1C87.8969 33.8 88.2969 35.7 88.2969 37.7V52H85.3969V46.3C84.0969 48 82.4969 49.4 80.3969 50.4C78.3969 51.4 76.1969 52 73.9969 52C71.9969 52 70.0969 51.6 68.3969 50.9C66.6969 50.2 65.1969 49.2 63.8969 47.9C62.5969 46.6 61.5969 45.1 60.8969 43.4C60.1969 41.7 59.7969 39.8 59.7969 37.8C59.7969 35.8 60.1969 34 60.8969 32.2C61.5969 30.5 62.5969 28.9 63.8969 27.7C65.1969 26.4 66.6969 25.4 68.3969 24.7C70.1969 23.8 71.9969 23.5 74.0969 23.5ZM74.0969 49.1C75.6969 49.1 77.0969 48.8 78.4969 48.2C79.8969 47.6 81.0969 46.8 82.0969 45.7C83.0969 44.6 83.8969 43.5 84.5969 42.1C85.1969 40.7 85.4969 39.2 85.4969 37.7C85.4969 36.1 85.1969 34.7 84.5969 33.3C83.9969 31.9 83.1969 30.7 82.0969 29.7C80.9969 28.7 79.8969 27.9 78.4969 27.2C77.0969 26.6 75.5969 26.3 74.0969 26.3C72.4969 26.3 71.0969 26.6 69.6969 27.2C68.2969 27.8 67.0969 28.6 65.9969 29.7C64.8969 30.8 64.1969 31.9 63.4969 33.3C62.8969 34.7 62.5969 36.2 62.5969 37.7C62.5969 39.3 62.8969 40.7 63.4969 42.1C64.1969 43.5 64.9969 44.7 65.9969 45.7C66.9969 46.7 68.1969 47.5 69.5969 48.2C70.9969 48.8 72.4969 49.1 74.0969 49.1Z" fill="#605348" stroke="#605348" stroke-miterlimit="10"></path> <path d="M125.602 37.5999C125.602 39.5999 125.202 41.4999 124.502 43.1999C123.702 44.8999 122.702 46.3999 121.402 47.6999C120.102 48.9999 118.602 49.9999 116.902 50.6999C115.202 51.3999 113.402 51.7999 111.402 51.7999C109.002 51.7999 106.802 51.2999 104.802 50.1999C102.902 49.1999 101.202 47.7999 100.002 46.0999V60.2999H97.1016V37.5999C97.1016 35.5999 97.5016 33.7999 98.2016 31.9999C98.9016 30.2999 99.9016 28.6999 101.202 27.4999C102.502 26.1999 104.002 25.1999 105.702 24.4999C107.402 23.7999 109.302 23.3999 111.302 23.3999C113.202 23.3999 115.102 23.7999 116.802 24.4999C118.502 25.1999 120.002 26.1999 121.302 27.4999C122.602 28.7999 123.602 30.2999 124.402 31.9999C125.202 33.7999 125.602 35.5999 125.602 37.5999ZM122.702 37.5999C122.702 35.9999 122.402 34.5999 121.802 33.1999C121.202 31.7999 120.402 30.5999 119.302 29.5999C118.202 28.5999 117.102 27.7999 115.702 27.0999C114.302 26.4999 112.802 26.1999 111.302 26.1999C109.702 26.1999 108.302 26.4999 106.902 27.0999C105.502 27.6999 104.302 28.4999 103.302 29.5999C102.302 30.6999 101.502 31.7999 100.802 33.1999C100.202 34.5999 99.9016 36.0999 99.9016 37.5999C99.9016 39.1999 100.202 40.5999 100.802 41.9999C101.402 43.3999 102.202 44.5999 103.302 45.5999C104.402 46.5999 105.502 47.3999 106.902 48.0999C108.302 48.6999 109.802 48.9999 111.302 48.9999C112.902 48.9999 114.302 48.6999 115.702 48.0999C117.102 47.4999 118.302 46.6999 119.302 45.5999C120.302 44.4999 121.102 43.3999 121.802 41.9999C122.402 40.5999 122.702 39.1999 122.702 37.5999Z" fill="#605348" stroke="#605348" stroke-miterlimit="10"></path> <path d="M147.3 49.2002C149.7 49.2002 151.9 48.6002 153.7 47.3002C155.6 46.0002 156.9 44.3002 157.6 42.8002H160.7C160.4 43.6002 159.7 44.9002 158.8 46.1002C157.9 47.3002 156.9 48.4002 155.7 49.2002C154.5 50.1002 153.2 50.8002 151.7 51.3002C150.3 51.8002 148.8 52.1002 147.2 52.1002C145.2 52.1002 143.3 51.7002 141.6 51.0002C139.9 50.3002 138.4 49.3002 137.1 48.0002C135.8 46.7002 134.8 45.2002 134.1 43.5002C133.4 41.8002 133 39.9002 133 37.9002C133 35.9002 133.4 34.1002 134.1 32.3002C134.8 30.6002 135.8 29.0002 137.1 27.8002C138.4 26.5002 139.9 25.5002 141.6 24.8002C143.3 24.1002 145.2 23.7002 147.2 23.7002C149.2 23.7002 151 24.1002 152.8 24.8002C154.5 25.5002 156.1 26.5002 157.3 27.8002C158.6 29.1002 159.6 30.6002 160.3 32.3002C161 34.0002 161.4 35.9002 161.4 37.9002V39.3002H156.3H135.9C136.1 40.7002 136.6 42.1002 137.2 43.3002C137.9 44.5002 138.7 45.6002 139.7 46.4002C140.7 47.3002 141.9 48.0002 143.1 48.5002C144.5 48.9002 145.9 49.2002 147.3 49.2002ZM147.3 26.4002C145.9 26.4002 144.5 26.7002 143.2 27.2002C141.9 27.7002 140.8 28.4002 139.8 29.3002C138.8 30.2002 137.9 31.2002 137.3 32.5002C136.6 33.7002 136.2 35.1002 136 36.5002H158.8C158.6 35.1002 158.1 33.8002 157.5 32.5002C156.8 31.3002 156 30.2002 155 29.3002C154 28.4002 152.8 27.7002 151.5 27.2002C150.1 26.7002 148.7 26.4002 147.3 26.4002Z" fill="#605348" stroke="#605348" stroke-miterlimit="10"></path> <path d="M183.302 38.0001L195.802 50.5001L193.902 52.4001L181.402 39.9001L169.002 52.3001L167.102 50.4001L179.602 38.0001L167.102 25.5001L169.002 23.6001L181.502 36.1001L194.002 23.6001L195.902 25.5001L183.302 38.0001Z" fill="#605348" stroke="#605348" stroke-miterlimit="10"></path> <path d="M71.4016 73.1004C71.4016 75.1004 71.0016 76.7004 70.2016 77.8004C69.4016 79.0004 68.3016 79.6004 66.8016 79.6004C66.0016 79.6004 65.2016 79.4004 64.6016 79.1004C64.0016 78.7004 63.4016 78.2004 63.0016 77.6004V84.5004H61.6016V66.1004H62.7016L62.9016 68.2004C63.3016 67.5004 63.8016 66.9004 64.5016 66.5004C65.1016 66.1004 65.9016 65.9004 66.8016 65.9004C68.3016 65.9004 69.4016 66.5004 70.2016 67.8004C71.0016 69.1004 71.4016 70.8004 71.4016 72.9004V73.1004ZM70.0016 72.8004C70.0016 71.1004 69.7016 69.7004 69.1016 68.7004C68.5016 67.6004 67.6016 67.1004 66.4016 67.1004C65.5016 67.1004 64.8016 67.3004 64.2016 67.8004C63.6016 68.3004 63.2016 68.9004 62.9016 69.6004V76.0004C63.2016 76.7004 63.6016 77.3004 64.2016 77.7004C64.8016 78.1004 65.5016 78.3004 66.4016 78.3004C67.6016 78.3004 68.5016 77.8004 69.1016 76.9004C69.7016 75.9004 70.0016 74.7004 70.0016 73.1004V72.8004V72.8004Z" fill="#605348"></path> <path d="M78.9031 67.4003L77.9031 67.3003C77.0031 67.3003 76.4031 67.6003 75.8031 68.1003C75.3031 68.6003 74.9031 69.3003 74.6031 70.3003V79.6003H73.2031V66.1003H74.4031L74.6031 68.3003V68.4003C75.0031 67.6003 75.4031 66.9003 76.0031 66.5003C76.6031 66.0003 77.3031 65.8003 78.1031 65.8003C78.3031 65.8003 78.4031 65.8003 78.6031 65.8003C78.8031 65.8003 78.9031 65.9003 79.0031 65.9003L78.9031 67.4003Z" fill="#605348"></path> <path d="M79.8047 72.7002C79.8047 70.8002 80.3047 69.2002 81.2047 68.0002C82.2047 66.8002 83.4047 66.2002 85.0047 66.2002C86.6047 66.2002 87.9047 66.8002 88.8047 68.0002C89.8047 69.2002 90.2047 70.8002 90.2047 72.7002V73.1002C90.2047 75.0002 89.7047 76.6002 88.8047 77.8002C87.8047 79.0002 86.6047 79.6002 85.0047 79.6002C83.4047 79.6002 82.1047 79.0002 81.2047 77.8002C80.2047 76.6002 79.8047 75.0002 79.8047 73.1002V72.7002V72.7002ZM81.1047 73.1002C81.1047 74.6002 81.4047 75.9002 82.1047 76.9002C82.8047 77.9002 83.8047 78.4002 85.0047 78.4002C86.2047 78.4002 87.2047 77.9002 87.9047 76.9002C88.6047 75.9002 88.9047 74.6002 88.9047 73.1002V72.7002C88.9047 71.2002 88.6047 70.0002 87.8047 68.9002C87.1047 67.9002 86.1047 67.4002 84.9047 67.4002C83.7047 67.4002 82.7047 67.9002 82.0047 68.9002C81.3047 69.9002 81.0047 71.2002 81.0047 72.7002V73.1002H81.1047Z" fill="#605348"></path> <path d="M93.7016 65.9004V80.4004C93.7016 81.8004 93.4016 82.8004 92.8016 83.6004C92.2016 84.3004 91.4016 84.7004 90.3016 84.7004C90.1016 84.7004 89.9016 84.7004 89.7016 84.6004C89.5016 84.6004 89.3016 84.5004 89.1016 84.4004L89.2016 83.2004C89.3016 83.2004 89.5016 83.3004 89.7016 83.3004C89.9016 83.3004 90.1016 83.4004 90.3016 83.4004C91.0016 83.4004 91.5016 83.1004 91.8016 82.6004C92.2016 82.1004 92.4016 81.4004 92.4016 80.4004V65.9004H93.7016Z" fill="#605348"></path> <path d="M93.6984 61.6001H92.3984V63.6001H93.6984V61.6001Z" fill="#605348"></path> <path d="M100.503 79.6003C99.0031 79.6003 97.7031 79.0003 96.7031 77.8003C95.7031 76.6003 95.2031 75.0003 95.2031 73.1003V72.4003C95.2031 70.5003 95.7031 68.9003 96.7031 67.7003C97.7031 66.4003 98.9031 65.8003 100.303 65.8003C101.803 65.8003 102.903 66.3003 103.803 67.3003C104.703 68.3003 105.103 69.7003 105.103 71.4003V72.7003H96.6031V73.1003C96.6031 74.6003 97.0031 75.8003 97.7031 76.8003C98.4031 77.8003 99.4031 78.3003 100.603 78.3003C101.403 78.3003 102.103 78.2003 102.703 77.9003C103.303 77.6003 103.803 77.3003 104.203 76.8003L104.803 77.8003C104.303 78.3003 103.803 78.7003 103.103 79.1003C102.303 79.5003 101.503 79.6003 100.503 79.6003ZM100.403 67.1003C99.4031 67.1003 98.6031 67.5003 97.9031 68.3003C97.2031 69.1003 96.8031 70.2003 96.7031 71.4003V71.5003H103.803V71.1003C103.803 70.0003 103.503 69.0003 102.903 68.2003C102.303 67.5003 101.403 67.1003 100.403 67.1003Z" fill="#605348"></path> <path d="M111.998 78.4003C112.898 78.4003 113.698 78.1003 114.298 77.6003C114.998 77.0003 115.298 76.3003 115.298 75.3003H116.498V75.4003C116.498 76.6003 116.098 77.7003 115.198 78.5003C114.298 79.3003 113.198 79.7003 111.998 79.7003C110.398 79.7003 109.098 79.1003 108.198 77.8003C107.298 76.6003 106.898 75.0003 106.898 73.0003V72.5003C106.898 70.6003 107.398 69.0003 108.298 67.7003C109.198 66.5003 110.498 65.8003 112.098 65.8003C113.398 65.8003 114.498 66.2003 115.398 67.1003C116.298 68.0003 116.698 69.1003 116.698 70.5003V70.6003H115.498C115.498 69.5003 115.198 68.7003 114.498 68.1003C113.798 67.5003 113.098 67.1003 112.098 67.1003C110.798 67.1003 109.798 67.6003 109.198 68.6003C108.598 69.6003 108.298 70.9003 108.298 72.4003V73.0003C108.298 74.6003 108.598 75.9003 109.198 76.9003C109.698 77.8003 110.698 78.4003 111.998 78.4003Z" fill="#605348"></path> <path d="M121.403 62.7002V66.0002H124.003V67.2002H121.303V76.0002C121.303 76.9002 121.403 77.5002 121.703 77.8002C122.003 78.2002 122.403 78.3002 122.803 78.3002C123.003 78.3002 123.203 78.3002 123.403 78.3002C123.603 78.3002 123.803 78.2002 124.103 78.2002L124.303 79.3002C124.103 79.4002 123.803 79.5002 123.503 79.5002C123.203 79.6002 122.903 79.6002 122.503 79.6002C121.703 79.6002 121.003 79.3002 120.503 78.7002C120.003 78.1002 119.803 77.2002 119.803 75.9002V67.1002H117.703V66.0002H120.003V62.7002H121.403Z" fill="#605348"></path> <path d="M143.503 73.1002C143.503 75.1002 143.103 76.7002 142.303 77.8002C141.503 79.0002 140.403 79.6002 138.903 79.6002C138.003 79.6002 137.303 79.4002 136.603 79.0002C136.003 78.6002 135.403 78.1002 135.103 77.3002L135.003 79.5002H133.803L133.703 60.2002H135.003V68.1002C135.403 67.4002 135.903 66.8002 136.503 66.4002C137.103 66.0002 137.903 65.8002 138.703 65.8002C140.203 65.8002 141.303 66.4002 142.103 67.7002C142.903 69.0002 143.303 70.7002 143.303 72.8002V73.1002H143.503ZM142.203 72.8002C142.203 71.1002 141.903 69.7002 141.303 68.7002C140.703 67.6002 139.803 67.1002 138.703 67.1002C137.803 67.1002 137.003 67.4002 136.403 67.9002C135.803 68.4002 135.403 69.1002 135.103 69.9002V75.9002C135.403 76.7002 135.803 77.3002 136.403 77.7002C137.003 78.2002 137.703 78.4002 138.603 78.4002C139.803 78.4002 140.603 77.9002 141.203 77.0002C141.803 76.0002 142.103 74.8002 142.103 73.2002V72.8002H142.203Z" fill="#605348"></path> <path d="M152.805 77.2C152.405 78 151.905 78.6 151.205 79C150.505 79.4 149.805 79.6 148.905 79.6C147.605 79.6 146.605 79.1 145.905 78.2C145.205 77.2 144.805 75.8 144.805 73.7V66H146.205V73.8C146.205 75.4 146.505 76.6 147.005 77.3C147.505 78 148.205 78.4 149.205 78.4C150.205 78.4 151.005 78.1 151.705 77.6C152.305 77.1 152.705 76.4 153.005 75.5V66H154.405V79.6H153.205L152.805 77.2Z" fill="#605348"></path> <path d="M161.498 67.4003L160.498 67.3003C159.698 67.3003 158.998 67.6003 158.398 68.1003C157.898 68.6003 157.498 69.3003 157.198 70.2003V79.6003H155.898V66.0003H157.098L157.298 68.3003V68.4003C157.698 67.6003 158.098 66.9003 158.698 66.5003C159.298 66.0003 159.998 65.8003 160.798 65.8003C160.998 65.8003 161.098 65.8003 161.298 65.8003C161.498 65.8003 161.598 65.9003 161.698 65.9003L161.498 67.4003Z" fill="#605348"></path> <path d="M167.8 79.6003C166.3 79.6003 165 79.0003 164 77.8003C163 76.6003 162.5 75.0003 162.5 73.1003V72.4003C162.5 70.5003 163 68.9003 164 67.7003C165 66.4003 166.2 65.8003 167.6 65.8003C169.1 65.8003 170.2 66.3003 171.1 67.3003C172 68.3003 172.4 69.7003 172.4 71.4003V72.7003H163.9V73.1003C163.9 74.6003 164.3 75.8003 165 76.8003C165.7 77.8003 166.7 78.3003 167.8 78.3003C168.6 78.3003 169.3 78.2003 169.9 77.9003C170.5 77.6003 171 77.3003 171.4 76.8003L172 77.8003C171.5 78.3003 171 78.7003 170.3 79.1003C169.6 79.5003 168.8 79.6003 167.8 79.6003ZM167.7 67.1003C166.7 67.1003 165.9 67.5003 165.2 68.3003C164.5 69.1003 164.1 70.2003 164 71.4003V71.5003H171.1V71.1003C171.1 70.0003 170.8 69.0003 170.2 68.2003C169.6 67.5003 168.7 67.1003 167.7 67.1003Z" fill="#605348"></path> <path d="M182.402 79.3003C182.302 78.9003 182.202 78.5003 182.202 78.1003C182.202 77.8003 182.102 77.4003 182.102 77.1003C181.702 77.8003 181.102 78.4003 180.302 78.8003C179.602 79.3003 178.702 79.5003 177.802 79.5003C176.602 79.5003 175.702 79.2003 175.102 78.5003C174.402 77.8003 174.102 76.9003 174.102 75.7003C174.102 74.5003 174.602 73.5003 175.502 72.8003C176.502 72.1003 177.802 71.7003 179.402 71.7003H182.102V70.1003C182.102 69.2003 181.802 68.4003 181.302 67.9003C180.702 67.4003 180.002 67.1003 179.002 67.1003C178.102 67.1003 177.302 67.4003 176.702 67.9003C176.102 68.4003 175.802 69.0003 175.802 69.8003H174.602V69.7003C174.602 68.7003 175.002 67.8003 175.802 67.0003C176.702 66.2003 177.802 65.8003 179.102 65.8003C180.402 65.8003 181.502 66.2003 182.302 66.9003C183.102 67.6003 183.502 68.7003 183.502 70.1003V76.6003C183.502 77.1003 183.502 77.5003 183.602 78.0003C183.602 78.4003 183.702 78.9003 183.802 79.3003H182.402V79.3003ZM178.002 78.3003C179.002 78.3003 179.802 78.1003 180.502 77.6003C181.202 77.1003 181.802 76.5003 182.102 75.7003V72.9003H179.402C178.202 72.9003 177.202 73.2003 176.502 73.7003C175.802 74.3003 175.402 75.0003 175.402 75.8003C175.402 76.5003 175.602 77.1003 176.102 77.6003C176.602 78.1003 177.202 78.3003 178.002 78.3003Z" fill="#605348"></path> <path d="M193.398 77.2001C192.998 78.0001 192.498 78.6001 191.798 79.0001C191.098 79.4001 190.398 79.6001 189.498 79.6001C188.198 79.6001 187.198 79.1001 186.498 78.2001C185.798 77.3001 185.398 75.8001 185.398 73.8001V66.1001H186.698V73.8001C186.698 75.4001 186.998 76.6001 187.498 77.3001C187.998 78.0001 188.698 78.4001 189.598 78.4001C190.598 78.4001 191.398 78.1001 191.998 77.7001C192.598 77.2001 192.998 76.5001 193.298 75.6001V66.1001H194.598V79.4001H193.398V77.2001Z" fill="#605348"></path> </g> <defs> <clipPath id="clip0_1908_2634"> <rect width="139.3" height="62.7" fill="white" transform="translate(58 22)"></rect> </clipPath> </defs> </svg> 