<?xml version="1.0" encoding="UTF-8"?> <svg xmlns="http://www.w3.org/2000/svg" width="20" height="21" viewBox="0 0 20 21" fill="none"> <g clip-path="url(#clip0_793_8423)"> <path d="M15.8333 16.9318H4.16667V17.7651C4.16667 17.9862 4.07887 18.1981 3.92259 18.3544C3.76631 18.5107 3.55435 18.5985 3.33333 18.5985H2.5C2.27899 18.5985 2.06702 18.5107 1.91074 18.3544C1.75446 18.1981 1.66667 17.9862 1.66667 17.7651V10.2651L3.76083 4.68014C3.87994 4.36238 4.09321 4.08856 4.37213 3.89526C4.65105 3.70197 4.98232 3.59843 5.32167 3.59847H14.6783C15.0177 3.59843 15.349 3.70197 15.6279 3.89526C15.9068 4.08856 16.1201 4.36238 16.2392 4.68014L18.3333 10.2651V17.7651C18.3333 17.9862 18.2455 18.1981 18.0893 18.3544C17.933 18.5107 17.721 18.5985 17.5 18.5985H16.6667C16.4457 18.5985 16.2337 18.5107 16.0774 18.3544C15.9211 18.1981 15.8333 17.9862 15.8333 17.7651V16.9318ZM3.44667 10.2651H16.5533L14.6783 5.26514H5.32167L3.44667 10.2651ZM5.41667 14.4318C5.74819 14.4318 6.06613 14.3001 6.30055 14.0657C6.53497 13.8313 6.66667 13.5133 6.66667 13.1818C6.66667 12.8503 6.53497 12.5323 6.30055 12.2979C6.06613 12.0635 5.74819 11.9318 5.41667 11.9318C5.08515 11.9318 4.7672 12.0635 4.53278 12.2979C4.29836 12.5323 4.16667 12.8503 4.16667 13.1818C4.16667 13.5133 4.29836 13.8313 4.53278 14.0657C4.7672 14.3001 5.08515 14.4318 5.41667 14.4318ZM14.5833 14.4318C14.9149 14.4318 15.2328 14.3001 15.4672 14.0657C15.7016 13.8313 15.8333 13.5133 15.8333 13.1818C15.8333 12.8503 15.7016 12.5323 15.4672 12.2979C15.2328 12.0635 14.9149 11.9318 14.5833 11.9318C14.2518 11.9318 13.9339 12.0635 13.6995 12.2979C13.465 12.5323 13.3333 12.8503 13.3333 13.1818C13.3333 13.5133 13.465 13.8313 13.6995 14.0657C13.9339 14.3001 14.2518 14.4318 14.5833 14.4318Z" fill="#605348"></path> </g> <defs> <clipPath id="clip0_793_8423"> <rect width="20" height="20" fill="white" transform="translate(0 0.265137)"></rect> </clipPath> </defs> </svg> 