<?xml version="1.0" encoding="UTF-8"?> <svg xmlns="http://www.w3.org/2000/svg" width="256" height="100" viewBox="0 0 256 100" fill="none"> <g clip-path="url(#clip0_1908_2637)"> <g clip-path="url(#clip1_1908_2637)"> <path d="M55.271 21.4988H48.6172V43.3088H54.6312C57.6983 43.512 60.7209 42.4891 63.04 40.4632C64.0647 39.3606 64.853 38.0585 65.3561 36.6374C65.8592 35.2163 66.0664 33.7066 65.9647 32.2019C66.0599 30.7699 65.8679 29.3334 65.4 27.9774C64.9322 26.6214 64.198 25.3735 63.241 24.3077C62.1733 23.3188 60.9155 22.5595 59.545 22.0764C58.1744 21.5934 56.72 21.3969 55.271 21.4988V21.4988ZM61.0109 38.8844C59.1281 40.5044 56.6832 41.3097 54.2108 41.1241H51.1398V23.7019H54.7958C55.9435 23.62 57.0959 23.7694 58.1852 24.1414C59.2746 24.5135 60.2788 25.1006 61.1389 25.8682C62.6563 27.6403 63.4122 29.9444 63.241 32.2753C63.3359 33.4713 63.187 34.6742 62.8036 35.8105C62.4202 36.9468 61.8102 37.9927 61.0109 38.8844V38.8844Z" fill="#605348"></path> <path d="M85.9294 41.0504H76.3507V33.0093H85.3444V30.788H76.3507V23.7566H85.9294V21.4985H73.8281V43.3085H85.9294V41.0504Z" fill="#605348"></path> <path d="M96.2726 34.2397H100.806L106.071 43.3088H109.068L103.164 33.5054C104.45 33.1854 105.586 32.43 106.382 31.3666C107.178 30.3031 107.584 28.9966 107.533 27.6673C107.611 26.8062 107.487 25.9387 107.169 25.1349C106.851 24.3312 106.35 23.6139 105.705 23.041C103.965 21.8765 101.885 21.3333 99.8006 21.4989H93.75V43.3088H96.2726V34.2397ZM96.2726 23.7203H99.563C100.988 23.6001 102.414 23.9342 103.639 24.6749C104.086 25.0544 104.435 25.5359 104.657 26.079C104.88 26.622 104.97 27.2108 104.919 27.7958C104.971 28.3983 104.884 29.0047 104.665 29.5681C104.446 30.1315 104.102 30.6369 103.658 31.0453C102.519 31.8512 101.134 32.2282 99.7458 32.1101H96.2726V23.7203Z" fill="#605348"></path> <path d="M127.698 41.0504H118.101V33.0093H127.113V30.788H118.101V23.7566H127.698V21.4985H115.578V43.3085H127.698V41.0504Z" fill="#605348"></path> <path d="M147.931 21.4985L142.959 35.5244C142.395 37.0967 141.931 38.7032 141.569 40.3344C141.201 38.7369 140.744 37.1617 140.198 35.6162L135.208 21.4985H132.539L140.326 43.3085H142.812L150.636 21.4985H147.931Z" fill="#605348"></path> <path d="M165.609 41.3813C164.582 41.451 163.553 41.2819 162.602 40.887C161.651 40.4922 160.803 39.8823 160.125 39.1048C158.767 37.1348 158.121 34.7569 158.297 32.3672C158.129 30.0013 158.775 27.6492 160.125 25.7031C160.805 24.9278 161.653 24.3194 162.603 23.9248C163.554 23.5301 164.582 23.3597 165.609 23.4266C166.637 23.3468 167.669 23.5113 168.621 23.9068C169.574 24.3023 170.421 24.9177 171.093 25.7031C172.179 27.1499 172.815 28.8874 172.921 30.6966L174.456 26.3089C174.046 25.519 173.53 24.79 172.921 24.1426C172.002 23.1266 170.868 22.3304 169.603 21.8125C168.338 21.2946 166.973 21.0683 165.609 21.1502C164.23 21.0628 162.849 21.2806 161.564 21.7881C160.278 22.2957 159.119 23.0807 158.169 24.0875C156.3 26.4166 155.368 29.3638 155.555 32.3489C155.368 35.3508 156.3 38.3151 158.169 40.6653C159.115 41.6785 160.273 42.469 161.559 42.98C162.845 43.491 164.228 43.7099 165.609 43.621C166.544 43.6194 167.477 43.5086 168.387 43.2905L169.356 40.5368C168.198 41.1326 166.909 41.4231 165.609 41.3813V41.3813Z" fill="#605348"></path> <path d="M83.5157 58.1792H77.8672V79.9892H80.3898V71.4341H82.949C85.2432 71.5587 87.5135 70.9128 89.4018 69.5982C90.1507 68.9858 90.7448 68.2043 91.1356 67.3173C91.5264 66.4303 91.7027 65.463 91.6502 64.4945C91.6624 60.2843 88.9509 58.1792 83.5157 58.1792ZM87.5555 68.1479C86.0771 68.9842 84.3849 69.3612 82.6931 69.231H80.4081V60.4189H83.2415C84.7791 60.3004 86.3146 60.6731 87.6286 61.4837C88.115 61.8566 88.5004 62.3462 88.7495 62.9075C88.9986 63.4688 89.1035 64.0839 89.0545 64.6965C89.0994 65.3504 88.9866 66.0056 88.7256 66.6065C88.4647 67.2073 88.0633 67.7361 87.5555 68.1479Z" fill="#605348"></path> <path d="M104.826 58.0874L96.2344 79.9891H98.7936L101.462 73.0496H110.164L112.869 79.9891H115.483L106.946 58.0874H104.826ZM102.358 70.7731L104.917 64.0906C105.287 63.0627 105.598 62.0146 105.85 60.9513C106.197 62.1997 106.526 63.2461 106.855 64.0906L109.378 70.8649" fill="#605348"></path> <path d="M135.265 64.3294C135.334 63.469 135.206 62.6041 134.889 61.8018C134.572 60.9994 134.075 60.2813 133.437 59.703C131.692 58.5501 129.614 58.014 127.532 58.1792H121.5V79.9892H124.023V70.9201H128.556L133.821 79.9892H136.8L130.878 70.1857C132.172 69.8719 133.317 69.1162 134.117 68.0478C134.917 66.9795 135.323 65.665 135.265 64.3294V64.3294ZM127.478 68.7354H124.023V60.419H127.222C128.652 60.3012 130.084 60.6349 131.316 61.3736C131.759 61.755 132.105 62.2373 132.324 62.7803C132.544 63.3232 132.631 63.911 132.578 64.4946C132.639 65.0925 132.566 65.6968 132.364 66.2626C132.161 66.8283 131.835 67.3409 131.408 67.7624C130.25 68.5359 128.86 68.88 127.478 68.7354V68.7354Z" fill="#605348"></path> <path d="M149.938 67.6522L158.675 58.1792H155.696L145.843 68.9924V58.1792H143.32V79.9892H145.843V71.4341L148.11 69.4146L155.604 79.42L156.573 76.6663L149.938 67.6522Z" fill="#605348"></path> <path d="M156.578 76.6664L158.296 78.9061L171.092 42.0605C170.226 42.6405 169.258 43.0516 168.241 43.2722L156.578 76.6664Z" fill="#605348"></path> <path d="M170.984 39.105C172.339 37.1337 172.984 34.7568 172.812 32.3674C172.812 31.7799 172.812 31.2292 172.812 30.6968L169.266 40.537C169.925 40.176 170.509 39.6897 170.984 39.105Z" fill="#605348"></path> <path d="M184.398 -1.66943L174.289 26.309C174.846 27.5171 175.21 28.8057 175.368 30.1275L186.884 -1.66943H184.398Z" fill="#605348"></path> <path d="M155.614 79.4204L148.266 100H150.642L157.826 79.9895H156.035L155.614 79.4204Z" fill="#605348"></path> <path d="M172.755 30.6961C172.755 31.2285 172.755 31.7792 172.755 32.3667C172.927 34.7561 172.282 37.133 170.927 39.1043C170.457 39.6871 169.88 40.1734 169.227 40.5363L168.258 43.29C169.271 43.0616 170.232 42.6444 171.091 42.06L175.296 30.1086C175.138 28.7868 174.774 27.4982 174.217 26.29L172.755 30.6961Z" fill="#605348"></path> <path d="M155.609 79.4203L156.03 79.9894H157.821L158.205 78.8879L156.578 76.6665L155.609 79.4203Z" fill="#605348"></path> <path d="M166.94 99.982H165.953L243.588 -1.87109H244.465L166.94 99.982Z" fill="#605348"></path> <path d="M124.681 99.9816H123.164L298.979 -2H300.442L124.681 99.9816Z" fill="#605348"></path> </g> </g> <defs> <clipPath id="clip0_1908_2637"> <rect width="256" height="100" fill="white"></rect> </clipPath> <clipPath id="clip1_1908_2637"> <rect width="196" height="102" fill="white" transform="translate(48 -2)"></rect> </clipPath> </defs> </svg> 