<?xml version="1.0" encoding="UTF-8"?> <svg xmlns="http://www.w3.org/2000/svg" width="638" height="382" viewBox="0 0 638 382" fill="none"> <g clip-path="url(#clip0_2732_104699)"> <rect width="638" height="382" fill="#DAD7D0"></rect> <path d="M937.173 446.831C940.205 444.444 940.2 443.941 936.991 435.223C935.15 430.209 932.16 424.385 930.356 422.281C927.486 418.948 927.352 417.846 929.277 413.764C930.509 411.179 932.313 408.944 933.296 408.788C934.292 408.633 936.601 408.347 938.438 408.163C942.476 407.759 944.26 401.285 941.603 396.666C940.243 394.302 940.293 392.531 941.766 390.614C943.883 387.865 943.814 387.609 937.518 375.307C935.65 371.645 935.53 369.904 937.051 367.937C938.583 365.944 938.412 364.868 936.269 363.194C934.752 362.003 933.435 359.122 933.357 356.777C933.278 354.433 932.616 352.538 931.873 352.562C930.312 352.614 925.456 360.296 925.95 361.914C926.129 362.511 924.328 364.131 921.946 365.513C919.564 366.907 917.212 369.922 916.716 372.224C916.231 374.526 915.173 376.429 914.368 376.456C913.563 376.483 911.798 377.709 910.431 379.167C906.815 383.06 901.182 381.023 897.385 374.438C895.015 370.363 892.725 368.694 889.416 368.656C886.865 368.63 881.731 368.407 878.013 368.174C874.283 367.929 870.88 368.362 870.43 369.139C869.255 371.218 862.763 369.786 857.52 366.298C851.029 361.978 849.376 361.099 845.305 359.796C841.887 358.705 841.908 358.582 845.834 357.395L849.954 356.152L845.178 351.296C842.55 348.631 840.376 345.679 840.345 344.746C840.313 343.813 839.459 343.08 838.435 343.114C837.411 343.148 834.343 341.185 831.613 338.768C826.959 334.646 825.793 334.451 813.327 335.737C794.244 337.697 792.038 338.164 792.081 340.166C792.102 341.148 789.398 343.868 786.059 346.203C779.155 351.04 778.535 354.01 783.775 357.056C787.833 359.429 788.97 367.846 785.708 371.359C784.589 372.563 783.791 378.98 783.918 385.686C784.119 396.371 783.579 398.466 779.372 403.3L774.588 408.78L766.63 406.193C760.102 404.074 758.124 404.029 755.639 405.992C753.166 407.942 751.714 407.953 747.695 406.034C743.279 403.92 742.162 404.08 736.57 407.645C733.165 409.835 729.968 413.492 729.484 415.782C728.85 418.715 726.878 420.317 722.796 421.239C719.61 421.947 715.632 424.156 713.965 426.14C712.299 428.125 710.092 429.267 709.071 428.675C708.038 428.082 702.602 427.918 696.976 428.301C688.478 428.903 686.129 428.379 683.009 425.238C680.571 422.775 677.988 421.828 675.62 422.533C673.167 423.266 671.348 422.527 670.04 420.273C667.628 416.064 655.021 416.064 647.62 420.267C644.877 421.832 641.139 423.161 639.335 423.233C635.605 423.369 625.387 413.839 625.262 410.12C625.173 407.456 616.195 402.494 611.733 402.642C607.332 402.788 595.58 396.295 594.112 392.903C593.027 390.395 592.778 390.6 592.795 394.041C592.8 396.363 590.884 400.728 588.544 403.73C584.097 409.42 583.164 417.599 586.579 420.829C587.991 422.158 587.286 424.062 584.106 427.486C580.478 431.391 578.549 432.119 573.851 431.39C570.673 430.893 567.071 429.747 565.869 428.853C564.656 427.971 562.95 427.708 562.079 428.302C560.277 429.505 555.633 424.952 553.75 420.136C552.816 417.746 551.013 417.117 546.723 417.677C543.552 418.09 540.115 417.491 539.1 416.345C537.679 414.745 534.985 415.203 527.584 418.324C522.277 420.565 515.65 422.383 512.867 422.364C509.229 422.35 508.081 423.039 508.823 424.784C509.977 427.523 507.233 429.052 497.884 430.862C494.392 431.53 490.993 432.442 490.336 432.882C489.68 433.321 487.223 431.756 484.874 429.413C482.311 426.856 478.161 425.015 474.431 424.794C469.173 424.489 467.97 423.571 466.402 418.67C465.38 415.496 463.476 412.93 462.147 412.974C460.647 413.023 459.664 411.004 459.552 407.652C459.404 403.245 458.206 401.737 453.028 399.463C448.507 397.474 446.156 397.245 444.836 398.653C441.927 401.785 436.224 399.516 433.146 393.99C430.184 388.644 425.023 387.23 425.176 391.784C425.226 393.269 424.071 394.512 422.609 394.56C420.512 394.63 419.856 392.194 419.559 383.331C419.35 377.107 417.78 367.794 416.07 362.653C414.359 357.499 413.314 352.9 413.761 352.418C414.197 351.949 412.566 349.545 410.14 347.082C404.669 341.524 404.592 340.323 409.585 338.522C413.034 337.29 412.619 336.947 406.484 335.958C401.391 335.132 398.756 335.514 397.071 337.328C394.728 339.851 387.958 339.977 381.801 337.613C379.217 336.629 379.001 336.01 380.815 334.794C382.63 333.579 382.344 332.691 379.481 330.66C377.48 329.24 374.866 328.085 373.683 328.1C372.487 328.102 371.921 326.88 372.445 325.388C373.122 323.399 372.123 322.707 368.734 322.82C364.308 322.966 362.433 319.821 365.177 316.854C365.86 316.119 366.504 312.742 366.609 309.335C366.757 304.279 366.171 303.18 363.342 303.274C361.44 303.337 358.267 301.869 356.301 300.017C353.44 297.322 351.659 296.988 347.409 298.37C341.602 300.259 325.561 297.94 306.974 292.51C301.046 290.777 295.044 289.403 293.654 289.449C292.264 289.495 289.673 288.291 287.889 286.765C286.105 285.251 283.908 284.513 283.012 285.108C280.327 286.905 279.643 295.973 281.971 298.796C283.829 301.057 283.696 301.11 281.03 299.134C276.163 295.56 269.662 297.496 270.324 302.328C270.965 306.866 266.196 308.057 262.131 304.394C260.18 302.615 259.966 303.532 260.955 309.361C263.627 324.954 263.626 325.286 260.55 326.015C258.892 326.414 255.737 324.785 253.546 322.412C251.342 320.028 248.581 318.485 247.39 318.991C244.598 320.178 241.498 316.544 240.529 310.948C240.06 308.223 238.396 306.3 236.212 305.954C234.249 305.638 231.504 303.849 230.099 301.979C228.667 300.06 226.424 299.053 224.968 299.666C223.536 300.279 220.414 300.346 218.029 299.823C214.722 299.109 213.649 297.682 213.519 293.803C213.311 287.604 210.547 285.618 208.216 289.997C206.908 292.462 206.572 291.182 206.804 284.637C207.058 277.66 206.468 275.726 203.663 274.344C201.777 273.399 200.314 271.653 200.421 270.47C200.903 265.181 199.827 263.669 196.053 264.322C193.08 264.839 191.893 264.018 191.38 261.073C190.761 257.567 189.921 257.263 183.721 258.353C179.632 259.066 176.72 258.831 176.685 257.788C176.652 256.806 173.23 256.292 169.079 256.639C162.909 257.163 161.46 257.973 161.112 261.069C160.877 263.154 159.523 265.35 158.091 265.962C155.227 267.176 152.824 263.2 154.123 259.384C155.702 254.797 152.606 253.081 145.07 254.351C139.342 255.327 137.526 256.493 136.839 259.675C135.943 263.87 128.926 267.52 128.803 263.861C128.765 262.744 127.528 263.707 126.055 265.993C124.001 269.158 123.87 270.71 125.482 272.537C127.118 274.4 126.882 275.367 124.443 276.861C121.489 278.667 121.55 279.021 125.586 282.562C128.504 285.132 129.586 287.554 128.979 290.192C128.489 292.31 128.117 295.05 128.146 296.278C128.163 297.507 126.99 298.553 125.527 298.602C122.308 298.708 122.169 305.116 125.343 306.952C130.396 309.869 118.56 310.655 111.339 307.884C104.811 305.372 103.296 305.336 99.1883 307.66C96.6134 309.122 93.9542 310.255 93.2804 310.179C87.5726 309.569 85.8389 311.003 86.3682 315.864C86.6837 318.717 85.9624 322.318 84.7696 323.869C82.9685 326.202 83.2021 326.981 86.1063 328.421C88.0301 329.377 90.0889 329.628 90.69 328.994C91.2907 328.347 91.805 328.76 91.8437 329.914C91.8853 331.154 89.0733 332.095 84.9405 332.232C77.3822 332.483 77.8081 331.719 75.4272 349.138C74.7318 354.237 73.6654 355.919 71.0322 356.007C63.6201 356.252 60.559 353.048 60.2804 344.75C60.135 340.416 59.1444 336.357 58.0863 335.741C57.0161 335.125 56.2195 332.484 56.2903 329.864C56.6786 317.439 55.7097 314.387 50.5158 311.634C46.2539 309.379 45.1253 307.389 44.0804 300.258C43.3959 295.501 41.9136 291.334 40.804 291.003C38.1041 290.195 33.2182 281.201 33.069 276.758C33.0031 274.793 31.3979 272.168 29.5024 270.928C26.5557 268.985 25.7934 265.471 24.2457 246.708L22.4344 224.745L26.8871 229.267C30.8117 233.254 31.7684 233.505 34.957 231.347C37.8685 229.37 39.2944 229.31 42.2195 231.008C45.4811 232.915 45.8394 232.682 45.7071 228.741C45.6263 226.335 46.3355 223.829 47.3028 223.195C48.2575 222.549 49.0674 222.682 49.106 223.467C49.1672 224.928 57.6314 229.12 60.3135 229.031C63.0077 228.942 61.5655 223.791 58.3979 222.139C55.5904 220.671 55.5427 220.341 57.9975 219.301C61.4505 217.822 70.373 220.759 70.4616 223.398C70.5494 226.013 78.0392 223.355 79.7846 220.09C80.5195 218.714 82.2867 217.549 83.7009 217.502C85.1272 217.455 86.2614 216.705 86.2322 215.833C86.2029 214.961 87.762 213.779 89.7074 213.198C94.057 211.887 94.2108 202.652 89.992 195.136C88.4469 192.373 87.5762 188.248 88.0611 185.97C88.8105 182.48 88.0994 181.656 83.6411 180.82C79.0601 179.964 78.3595 179.091 78.5703 174.463C78.703 171.509 80.47 167.432 82.5005 165.386C86.9165 160.962 86.9637 160.187 83.2061 155.137C80.4589 151.468 80.5457 151.146 84.7334 149.372C87.369 148.265 89.6076 145.511 90.2309 142.627C91.1059 138.518 90.1814 136.791 84.4123 131.809L77.5378 125.892L82.3126 120.523C87.9582 114.191 89.2056 113.904 90.6094 118.638C91.3803 121.242 93.1557 122.142 97.2641 122.006C100.921 121.885 102.434 121.134 101.598 119.871C99.7984 117.153 103.766 103.749 107.836 98.8214C109.7 96.5475 112.684 94.175 114.469 93.5504C117.846 92.3447 118.797 84.6691 115.773 82.9383C114.876 82.415 114.481 80.4495 114.894 78.5801C115.319 76.698 114.774 74.6514 113.692 74.036C110.742 72.3273 111.137 67.7425 114.246 67.6394C115.733 67.5901 117.799 65.5061 118.826 63.0019C119.865 60.4972 121.772 58.4185 123.089 58.3748C124.393 58.3315 125.44 57.5226 125.408 56.5651C125.376 55.6198 127.05 53.8561 129.109 52.6572C132.317 50.7934 132.723 50.9028 131.867 53.3891C130.522 57.3049 133.528 57.0454 136.321 53.0079C137.544 51.2468 142.323 47.8439 146.942 45.4663C156.072 40.7516 160.5 41.4281 164.324 48.085C167.72 53.982 169.91 51.9798 168.433 44.3234C167.473 39.3657 167.692 37.1709 169.155 37.1224C170.325 37.0836 170.698 36.1741 169.991 35.116C169.155 33.8411 169.876 33.4977 172.081 34.1128C179.227 36.1247 195.072 38.057 202.375 37.8148C210.006 37.5617 216.528 33.3513 214.368 30.0802C212.363 27.0498 215.202 21.4746 219.132 20.742C221.279 20.339 222.797 19.0229 222.512 17.8279C222.228 16.6207 223.597 15.5921 225.547 15.5275C227.742 15.4547 229.067 14.2064 229.014 12.2787C228.925 9.25841 235.927 4.41766 240.62 4.26199C241.876 4.22034 244.228 1.93023 245.855 -0.839732C249.943 -7.77137 253.297 -10.3774 258.512 -10.6486C264.738 -10.9657 266.715 -12.7887 267.888 -19.2796C268.741 -24.0393 269.901 -25.1224 275.272 -26.1854C279.939 -27.1144 282.936 -26.5624 286.569 -24.139C289.29 -22.3244 291.901 -21.2558 292.36 -21.7626C292.832 -22.2575 294.324 -21.4222 295.67 -19.8815C297.281 -18.0546 297.523 -16.6617 296.355 -15.8241C294.019 -14.1613 292.375 -6.41359 294.374 -6.4799C295.228 -6.50821 296.946 -4.75865 298.191 -2.58783C300.977 2.2601 301.77 39.6797 299.163 43.0844C298.168 44.3586 294.405 46.4129 290.784 47.639C285.354 49.4659 283.41 49.3828 279.759 47.1444C273.118 43.0756 266.742 25.1233 266.255 9.15092C266.108 4.03111 263.125 5.70309 260.649 12.2986C258.308 18.5456 258.214 19.028 258.119 24.1927C258.069 27.0455 256.67 29.0213 254.076 29.9062C247.271 32.2456 242.342 38.4678 242.545 44.5075C242.648 47.5887 241.814 51.1066 240.671 52.3243C239.317 53.7825 239.268 54.5215 240.536 54.4794C241.597 54.4442 242.943 56.0218 243.521 57.9689C244.692 61.9365 249.29 62.5705 251.393 59.0597C252.144 57.7935 252.689 54.7646 252.608 52.3339C252.515 49.5596 253.597 47.6189 255.498 47.1749C257.932 46.6148 258.542 47.6884 258.521 52.5311C258.479 64.7113 267.044 70.4736 270.171 60.354C271.855 54.9154 271.928 54.8884 281.832 55.8011C287.855 56.3633 292.702 57.8616 294.067 59.6106C295.341 61.2274 295.613 62.7792 294.686 63.154C291.928 64.2532 294.938 67.0291 298.742 66.903C303.021 66.7611 306.66 63.1993 307.403 58.4187C307.703 56.4669 309.668 54.6321 311.876 54.2394C314.035 53.8482 317.276 51.5163 319.073 49.0603C321.138 46.2144 323.402 44.9349 325.217 45.5752C328.601 46.7534 328.773 47.8783 326.563 54.4036C325.307 58.0706 324.343 58.8031 322.564 57.4119C318.44 54.1937 312.87 57.3033 312.213 63.1872C311.424 70.2306 315.513 74.2365 321.69 72.4586C332.714 69.3033 347.191 70.089 351.755 74.0914C354.044 76.0924 356.105 76.7737 356.704 75.7215C357.269 74.7196 359.412 73.8497 361.46 73.7818C365.056 73.6625 365.085 73.7845 362.115 77.3117C359.546 80.3833 359.434 81.4193 361.477 83.7357C362.961 85.407 365.411 86.0508 367.768 85.3827C370.198 84.6754 372.712 85.4154 374.609 87.3802C376.468 89.3217 379.686 90.2842 383.103 89.925C388.066 89.4164 388.53 89.782 387.717 93.5818C386.947 97.1712 387.429 97.7206 390.879 97.2375C396.734 96.4042 399.166 94.345 399.031 90.3062C398.815 83.886 403.772 84.2992 410.584 91.2626C417.042 97.869 420.235 103.539 418.551 105.352C418.068 105.872 419.292 107.81 421.258 109.662C423.225 111.526 425.394 115.424 426.077 118.326C426.748 121.229 428.316 123.573 429.535 123.533C433.204 123.411 435.977 118.379 434.574 114.407C433.846 112.342 434.177 109.492 435.311 108.016C436.761 106.125 436.784 105.362 435.37 105.409C432.237 105.513 432.865 100.22 436.598 95.0943C438.465 92.5253 439.929 88.5196 439.851 86.1872C439.75 83.1796 440.721 81.9185 443.183 81.8368C445.085 81.7737 450.339 77.9618 454.847 73.3758C459.368 68.7894 463.233 65.0358 463.452 65.0285C463.672 65.0212 465.929 65.7329 468.472 66.6071C474.708 68.7599 474.679 74.795 468.395 82.8563C464.792 87.4861 463.709 90.496 464.48 93.8377C465.125 96.6921 464.489 99.5643 462.793 101.39C461.286 103.013 460.084 105.044 460.114 105.916C460.143 106.787 458.659 110.929 456.822 115.107C454.713 119.908 453.947 124.358 454.737 127.158C455.65 130.36 455.19 131.936 453.084 132.829C451.472 133.509 450.637 135.196 451.208 136.554C451.845 138.081 450.583 139.745 447.887 140.879C445.492 141.88 443.556 143.481 443.587 144.414C443.619 145.346 441.104 147.507 437.987 149.196C432.726 152.061 432.177 152.067 429.983 149.252C428.682 147.587 427.646 146.884 427.673 147.682C427.699 148.48 426.481 148.176 424.977 146.997C423.322 145.7 422.257 145.588 422.295 146.717C422.448 151.284 425.204 154.486 430.853 156.634C436.331 158.738 437.705 158.594 444.826 155.126C455.129 150.126 462.151 142.974 462.41 137.239C462.684 131.208 464.54 129.438 469.447 130.554C474.035 131.606 476.959 139.104 474.027 142.273C471.624 144.86 471.714 152.624 474.14 152.544C475.115 152.511 477.659 154.123 479.776 156.117L483.633 159.75L482.175 155.595C481.366 153.312 479.406 150.55 477.807 149.448C475.171 147.643 475.179 147.139 477.878 143.915C479.521 141.968 480.8 138.632 480.729 136.508C480.572 131.819 473.617 123.877 469.739 123.969C468.202 124.008 465.9 123.408 464.605 122.64C461.679 120.906 464.135 112.652 469.364 106.629C471.891 103.731 472.625 100.88 471.966 96.5143C471.055 90.4613 473.305 86.2206 477.486 86.0819C478.669 86.0426 481.255 84.5436 483.232 82.7452C486.739 79.5811 486.763 79.5803 484.186 83.1683C482.728 85.1829 481.407 89.4543 481.246 92.6549C481.015 97.4063 481.82 98.8297 485.62 100.424C488.17 101.495 490.285 103.047 490.312 103.869C490.34 104.704 491.545 105.34 492.984 105.292C496.336 105.181 494.315 99.8532 489.744 96.7727C485.749 94.0786 485.238 89.4133 488.932 89.2907C490.407 89.2418 491.628 90.0001 491.661 90.9822C491.695 91.9765 493.014 92.7316 494.599 92.679C496.561 92.6139 497.159 91.5004 496.458 89.164C495.727 86.6566 496.32 85.7767 498.691 85.8701C500.475 85.9461 501.561 86.6598 501.112 87.4612C500.662 88.2503 501.525 88.8731 503.025 88.8233C504.536 88.7732 506.335 90.729 507.04 93.1881C507.814 95.8784 509.997 98.0058 512.603 98.5707C517.816 99.7128 518.219 101.911 513.446 103.336C511.042 104.054 509.981 105.896 510.09 109.149C510.191 112.145 510.953 113.422 512.159 112.62C513.293 111.857 513.188 113.09 511.883 115.652C510.681 118.039 509.968 120.779 510.318 121.751C511.06 123.877 512.186 128.337 512.432 130.197C512.705 132.167 517.961 131.661 517.894 129.672C517.863 128.751 517.054 127.537 516.095 126.979C514.975 126.34 514.908 124.327 515.907 121.381C516.762 118.858 517.381 114.376 517.281 111.418C517.182 108.472 517.924 104.379 518.929 102.33C520.242 99.6323 520.19 98.0855 518.74 96.7081C517.632 95.6756 516.685 93.6547 516.638 92.243C516.59 90.819 515.326 88.8086 513.839 87.7642C511.889 86.391 511.369 83.9995 511.979 79.2478L512.843 72.6443L525.093 72.5452C533.731 72.4677 537.365 73.1091 537.42 74.7417C537.477 76.4358 538.359 76.5417 540.765 75.1347C543.243 73.7006 543.878 71.5044 543.391 66.1132C542.962 61.3222 543.568 58.6476 545.24 57.9285C546.612 57.3545 547.268 56.1653 546.69 55.2997C545.211 53.0506 556.5 47.5883 563.095 47.3696C566.411 47.2596 569.044 46.0785 569.6 44.4624C570.646 41.4414 575.461 40.5566 575.556 43.3678C575.589 44.3621 577.054 45.1123 578.81 45.0541C582.796 44.9219 591.452 40.6284 591.415 38.8108C591.403 38.0739 593.247 37.3982 595.527 37.3226C599.062 37.2053 599.525 36.4527 598.743 32.0667C597.573 25.5675 605.835 16.101 609.908 19.284C611.914 20.852 611.96 21.5018 610.124 22.7916C608.311 24.0561 608.406 24.7043 610.587 26.0453C612.095 26.9661 614.316 27.6913 615.548 27.675C616.767 27.6468 617.822 29.2341 617.888 31.2105C618.028 35.3965 621.255 35.904 622.611 31.9509C624.057 27.7369 631.953 28.4581 638.905 33.426C643.732 36.8913 644.647 38.3234 642.835 39.6124C640.928 40.9783 641.087 41.7104 643.677 43.5909C648.267 46.892 647.787 49.3411 641.027 57.0128C637.735 60.7473 635.059 64.6458 635.094 65.677C635.116 66.6963 631.664 71.493 627.421 76.3283C623.165 81.1641 619.755 86.0947 619.831 87.2719C619.896 88.4741 620.942 88.0093 622.212 86.2098C623.458 84.4356 626.13 82.946 628.153 82.8789C630.323 82.8069 632.271 81.2062 632.893 78.998C633.502 76.7903 634.951 75.6116 636.421 76.1159C637.792 76.5989 640.034 75.7748 641.412 74.2913C644.675 70.7789 650.601 70.6315 652.021 74.0131C652.643 75.4672 654.013 76.6385 655.085 76.6029C656.146 76.5677 656.549 75.8293 655.983 74.9755C654.466 72.6785 662.758 67.3771 668.134 67.1988C670.682 67.1143 674.014 68.2204 675.526 69.645C679.093 72.9924 687.479 72.6896 694.079 68.9682C698.499 66.4743 698.967 65.5248 697.244 62.5465C694.47 57.7104 696.298 55.4377 702.164 56.4229C705.454 56.9774 707.871 56.2828 709.344 54.3536C711.356 51.743 712.103 51.8043 716.959 55.0474C720.055 57.1199 721.96 59.6989 721.472 61.153C720.971 62.5952 721.714 63.6275 723.213 63.5777C726.212 63.4783 726.807 66.2851 724.169 68.0562C721.626 69.7505 724.248 72.9448 727.171 71.6927C728.772 71.0128 729.668 71.9048 729.746 74.2249C729.82 76.4346 731.757 78.4964 734.834 79.6478C741.855 82.2784 747.066 81.909 746.182 78.8291C745.781 77.4414 745.093 73.6667 744.655 70.4491C743.978 65.5435 744.321 64.8562 746.743 66.1154C750.904 68.2756 756.192 66.1953 756.066 62.4266C755.928 58.3143 759.229 57.0496 764.464 59.2109C769.662 61.3489 774.536 57.4759 770.052 54.7734C767.797 53.4226 767.989 52.9493 771.177 51.9464C774.619 50.8737 774.794 50.2534 772.798 46.0675C771.577 43.4903 769.817 40.8819 768.906 40.2731C767.982 39.6646 767.829 37.6542 768.561 35.8111C769.28 33.9562 769.774 31.9734 769.657 31.3997C769.528 30.8264 772.734 28.508 776.772 26.2726C782.87 22.8751 784.216 22.6338 784.765 24.8154C785.58 28.0082 788.688 28.2246 788.826 25.0862C788.883 23.8554 789.563 24.8406 790.316 27.2858C792.475 34.1577 795.077 32.4246 795.401 23.885C795.64 17.5603 796.485 15.8363 800.096 14.3156C806.546 11.5946 808.168 11.934 807.102 15.7914C806.208 18.9672 806.7 19.0861 813.559 17.2855C817.637 16.2286 822.186 15.7704 823.668 16.2866C826.619 17.3193 834.465 10.3614 834.346 6.81368C834.305 5.58611 836.26 2.03103 838.694 -1.08519C842.368 -5.79101 844.397 -6.79231 850.773 -7.00378C855.93 -7.17482 858.788 -6.39704 859.543 -4.60327C861.944 1.10543 875.62 -3.77236 874.643 -9.99526C873.869 -14.8731 876.856 -20.7728 880.959 -22.5065C883.33 -23.5068 886.112 -26.8066 887.133 -29.8391C888.453 -33.7664 889.908 -35.1542 892.146 -34.6508C893.892 -34.254 895.768 -34.7464 896.345 -35.7364C896.909 -36.7382 898.87 -37.2211 900.69 -36.8022C902.523 -36.3837 904.9 -37.1999 905.987 -38.6124C908.818 -42.2825 904.686 -46.4591 898.432 -46.2516C891.423 -46.0191 890.536 -50.2664 896.234 -56.8459C898.925 -59.9338 900.756 -62.4648 900.317 -62.4502C899.866 -62.4352 900.852 -65.061 902.514 -68.2745C907.098 -77.152 913.801 -82.8923 929.882 -91.7334C932.77 -93.3162 936.433 -95.8341 938.043 -97.3131C939.64 -98.8039 941.739 -99.5617 942.697 -99.0159C943.655 -98.4578 944.884 -99.3096 945.428 -100.901C946.04 -102.666 947.553 -103.405 949.319 -102.799C951.455 -102.047 951.89 -102.541 950.975 -104.71C949.888 -107.292 951.014 -107.563 960.491 -107.017C969.002 -106.512 971.222 -106.918 971.155 -108.906C971.105 -110.392 969.254 -111.363 966.621 -111.275C961.464 -111.104 961.09 -112.075 964.788 -116.057C966.261 -117.642 967.024 -119.99 966.481 -121.274C965.923 -122.62 967.152 -124.185 969.371 -124.959C971.506 -125.706 975.398 -127.948 978.016 -129.94C983.038 -133.757 982.85 -133.91 983.771 -125.744C983.91 -124.519 984.842 -122.928 985.854 -122.224C986.992 -121.414 986.725 -120.274 985.114 -119.164C983.707 -118.184 982.991 -116.968 983.533 -116.457C984.504 -115.531 991.174 -114.265 995.571 -114.165C996.89 -114.135 997.374 -113.168 996.694 -111.966C995.876 -110.525 996.435 -110.237 998.396 -111.076C1000.31 -111.877 1001.35 -111.395 1001.41 -109.676C1001.46 -108.24 1000.69 -107.023 999.717 -106.99C998.742 -106.958 998.128 -106.335 998.348 -105.605C998.58 -104.876 996.477 -101.697 993.666 -98.5435C989.55 -93.909 987.977 -93.1563 985.462 -94.646C983.021 -96.0766 981.814 -95.6925 979.811 -92.8363C978.413 -90.8482 977.308 -87.3951 977.358 -85.1847C977.412 -82.1141 976.396 -81.1096 973.093 -81C970.703 -80.9207 968.226 -81.6497 967.583 -82.6115C965.86 -85.2212 963.597 -84.6545 962.452 -81.323C961.195 -77.6682 966.721 -73.4027 970.884 -74.8189C973.044 -75.5541 974.981 -73.8364 977.815 -68.6705C982.117 -60.8374 981.263 -56.1145 974.859 -52.375C972.704 -51.1237 971.909 -49.3523 972.678 -47.5344C973.793 -44.8799 974.048 -44.9007 975.92 -47.6665C977.036 -49.3257 979.674 -50.7282 981.759 -50.7973C983.856 -50.8668 985.545 -51.7954 985.51 -52.8389C985.435 -55.0731 992.912 -53.4039 994.708 -50.7967C995.439 -49.7272 996.29 -49.8291 996.994 -51.0568C998.422 -53.5744 1010.91 -53.632 1012.64 -51.1332C1014.19 -48.9111 1007.73 -40.9055 1004.29 -40.7915C1001.37 -40.6944 1001.29 -37.6563 1004.2 -36.7819C1005.53 -36.3837 1006.68 -31.2111 1007.26 -23.0946C1007.75 -15.9218 1009.11 -7.45024 1010.27 -4.29331C1011.42 -1.12411 1012.74 3.07222 1013.18 5.06064C1013.63 7.03678 1014.9 11.5539 1016 15.0938C1017.88 21.1881 1017.77 21.5359 1013.74 21.6698C1008.44 21.8456 1004.4 29.6358 1004.34 39.8135C1004.32 46.0081 1003.91 46.7343 1001.57 44.9071C999.189 43.0567 998.993 43.776 1000.09 50.3635C1001.01 55.8756 1000.73 57.9619 999.056 58.0173C995.241 58.1439 994.679 65.7697 998.163 70.2995C999.924 72.5884 1003.48 78.1237 1006.08 82.609C1010.79 90.7484 1017.17 94.4446 1016.99 88.9451C1016.93 87.386 1018.18 86.0788 1019.77 86.0262C1021.72 85.9615 1022.39 87.033 1021.86 89.3979C1021.29 91.9854 1022.29 93.1688 1025.81 94.0475C1028.42 94.6983 1031.23 95.0354 1032.06 94.811C1032.88 94.5994 1035.1 94.8454 1036.97 95.3732C1041 96.5176 1041.73 101.434 1037.89 101.561C1036.41 101.61 1035.27 103.16 1035.33 104.989C1035.49 109.801 1042.53 117.556 1046.62 117.42C1050.79 117.282 1053.22 121.994 1050.49 124.936C1049.42 126.09 1048.63 129.987 1048.75 133.596C1048.91 138.42 1050.13 140.961 1053.35 143.238C1057.51 146.172 1057.62 146.66 1055.55 153.279C1053.81 158.818 1053.83 160.218 1055.62 160.159C1058.59 160.061 1066.22 176.263 1066.45 183.125C1066.69 190.172 1062.11 190.397 1055.36 183.677C1052.6 180.918 1046.88 176.991 1042.65 174.943C1027.55 167.653 999.2 143.006 998.999 137.003C998.838 132.228 994.869 124.507 992.601 124.582C991.48 124.619 991.561 123.769 992.81 122.425C995.86 119.14 994.827 100.36 991.455 97.7185C989.94 96.5521 988.662 94.1121 988.601 92.3198C988.541 90.5275 987.634 88.579 986.588 87.9747C985.257 87.2077 985.222 86.1643 986.473 84.5374C987.759 82.8725 987.316 79.8272 984.921 73.9463C982.128 67.0708 981.925 65.0497 983.712 61.9304C986.169 57.6705 985.014 55.6074 975.83 47.7886C972.513 44.9615 970.418 41.4547 970.32 38.5454C970.139 33.144 967.544 32.5664 964.295 37.1967C961.138 41.6888 961.499 44.4542 965.769 48.7736C967.854 50.892 969.529 54.978 969.638 58.2065C969.743 61.3491 970.412 66.3656 971.11 69.3534C972.124 73.7317 971.803 74.7254 969.451 74.4471C967.846 74.2668 965.244 72.3991 963.672 70.2883C960.375 65.8628 957.417 65.371 957.548 69.2624C957.597 70.7355 956.358 71.9933 954.798 72.045C953.249 72.0964 951.609 73.7607 951.163 75.7418C950.717 77.7352 949.698 79.3789 948.918 79.4048C946.395 79.4885 945.354 90.2886 947.612 92.8559C948.792 94.1809 950.365 99.9539 951.118 105.668C951.871 111.382 953.714 118.302 955.21 121.054C957.825 125.858 958.059 125.937 961.25 122.82C963.2 120.924 964.612 120.447 964.653 121.663C964.691 122.804 962.782 125.559 960.404 127.788C958.025 130.006 956.122 132.944 956.168 134.307C956.223 135.94 955.068 136.457 952.813 135.819C950.916 135.28 948.926 135.616 948.384 136.568C947.842 137.52 945.781 137.933 943.814 137.482C941.317 136.913 940.252 137.551 940.32 139.564C940.373 141.16 939.816 142.383 939.069 142.285C933.762 141.625 931.34 143.278 930.55 148.122C929.65 153.645 927.306 156.537 920.789 160.182C918.728 161.332 917.195 163.657 917.399 165.358C917.654 167.488 917.107 167.936 915.653 166.805C914.225 165.684 911.505 167.188 907.157 171.474C897.494 181.011 894.99 186.035 896.514 192.903C897.234 196.161 897.247 199.454 896.528 200.215C895.821 200.988 895.221 205.629 895.215 210.545C895.208 215.448 894.379 220.539 893.373 221.838C892.367 223.138 891.798 229.461 892.111 235.89C892.425 242.319 891.853 249.27 890.836 251.343C889.819 253.417 889.053 257.142 889.136 259.609C889.219 262.077 888.499 264.62 887.544 265.266C886.589 265.9 885.854 267.989 885.918 269.904C886.007 272.555 887.278 273.337 891.265 273.204C894.142 273.109 896.968 272.216 897.532 271.227C898.109 270.225 900.558 271.544 903.026 274.178C906.596 278.005 907.474 278.332 907.438 275.814C907.371 272.007 910.904 271.447 911.031 275.24C911.081 276.726 912.328 277.889 913.791 277.84C915.254 277.792 916.421 276.548 916.371 275.063C916.321 273.59 917.475 272.335 918.95 272.286C921.986 272.185 922.418 267.599 919.543 265.937C916.008 263.904 921.504 259.273 926.45 260.104C937.313 261.944 942.87 263.517 942.862 264.746C942.85 265.472 945.794 268.84 949.412 272.247C953.533 276.129 955.61 279.476 955.01 281.241C953.732 284.97 957.833 296.976 961.749 300.927C963.455 302.664 967.147 308.306 969.944 313.46C975.006 322.817 975.022 322.939 975.317 355.361C975.616 389.713 975.339 395.658 973.242 399.353C972.516 400.618 972.467 403.52 973.117 405.796C974.639 411.153 968.787 425.861 962.841 431.625C959.047 435.303 957.017 435.899 950.722 435.26L943.166 434.478L942.264 441.783C941.531 447.583 940.594 449.114 937.68 449.21C934.181 449.327 934.153 449.217 937.173 446.831V446.831ZM1019.84 354.892C1017.05 351.949 1015.16 348.374 1015.65 346.957C1016.14 345.54 1015.82 344.395 1014.94 344.424C1013.13 344.485 1007.41 334.523 1007.3 331.098C1007.25 329.858 1004.46 327.247 1001.08 325.295C997.699 323.342 993.8 319.17 992.413 316.021C991.026 312.872 987.049 306.748 983.584 302.427C980.107 298.106 976.094 291.983 974.646 288.824C972.906 284.998 970.817 283.126 968.379 283.207C964.734 283.327 957.421 277.794 957.321 274.823C957.292 273.964 956.04 272.285 954.524 271.106C953.02 269.939 951.749 267.72 951.698 266.198C951.647 264.664 950.176 261.947 948.444 260.137C945.99 257.588 945.784 256.526 947.49 255.376C950.606 253.294 947.725 244.184 943.667 243.262C941.81 242.844 940.824 241.464 941.335 239.984C942.68 236.044 945.283 236.879 947.381 241.935C948.43 244.456 950.904 246.893 952.859 247.345C954.827 247.783 956.464 249.29 956.511 250.689C956.558 252.076 958.015 253.675 959.754 254.231C965.27 256.015 967.622 258.456 965.926 260.663C963.903 263.299 968.805 268.986 975.475 271.726C978.21 272.84 980.465 274.584 980.499 275.591C980.533 276.597 981.438 277.391 982.511 277.355C983.584 277.319 989.533 281.485 995.734 286.601C1001.93 291.716 1009.85 297.033 1013.33 298.417L1019.65 300.936L1011.14 301.365C1000.8 301.893 999.781 303.93 1004.11 315.473C1008.46 327.09 1014.23 335.477 1017.83 335.419C1019.46 335.401 1022.4 336.521 1024.35 337.906C1026.31 339.291 1029.21 339.969 1030.79 339.401C1034.6 338.045 1039.48 347.039 1036.14 349.276C1034.94 350.078 1033.22 350.307 1032.31 349.784C1031.41 349.261 1031.73 348.108 1033.03 347.216C1034.77 346.028 1034.8 345.609 1033.17 345.651C1029.33 345.729 1024.3 352.409 1026.1 355.053C1030.73 361.905 1026.35 361.78 1019.84 354.892ZM1011.61 349.168C1011.46 347.293 1011.86 346.21 1012.46 346.792C1013.08 347.362 1013.19 348.907 1012.72 350.213C1012.2 351.668 1011.77 351.252 1011.61 349.168ZM1061.02 339.86C1060.85 334.766 1061.64 332.159 1063.62 331.332C1066.02 330.306 1066.29 331.12 1065.44 336.9C1063.97 346.829 1061.32 348.613 1061.02 339.86ZM1067.18 327.207C1064.59 324.761 1065.23 309.108 1067.97 307.948C1069.41 307.335 1070.56 305.588 1070.51 304.091C1070.46 302.581 1071.21 301.315 1072.2 301.282C1074.63 301.201 1074.5 303.246 1071.64 310.849C1070.31 314.408 1069.7 318.508 1070.31 319.963C1071.61 323.054 1069.05 328.964 1067.18 327.207ZM1075.54 290.971C1075.36 287.818 1076 284.725 1076.96 284.091C1079.04 282.694 1079.22 287.973 1077.26 293.04C1076.08 296.102 1075.8 295.78 1075.54 290.971ZM1080.1 263.365C1080.02 260.897 1080.39 259.877 1080.93 261.088C1081.46 262.3 1081.53 264.325 1081.08 265.569C1080.62 266.813 1080.19 265.82 1080.1 263.365ZM902.523 260.283C901.88 259.322 902.207 258.5 903.243 258.465C904.279 258.431 905.148 259.213 905.181 260.195C905.213 261.177 904.887 261.999 904.461 262.013C904.034 262.028 903.153 261.246 902.523 260.283ZM1072.46 231.248C1070.74 228.638 1072.01 227.65 1074.92 229.335C1076.48 230.23 1076.69 231.145 1075.52 231.933C1074.53 232.593 1073.15 232.282 1072.46 231.248ZM1069.43 218.875C1069.4 217.893 1070.17 217.056 1071.15 217.023C1072.13 216.991 1072.95 217.775 1072.98 218.757C1073.01 219.751 1072.25 220.576 1071.27 220.608C1070.29 220.641 1069.47 219.869 1069.43 218.875ZM1067.18 209.093C1066.99 208.117 1066.92 206.668 1067.02 205.891C1067.13 205.101 1066.39 203.036 1065.39 201.287C1064.14 199.129 1064.2 197.419 1065.54 195.973C1068.01 193.311 1070.96 193.065 1069.5 195.646C1068.9 196.698 1069.24 198.493 1070.27 199.663C1071.53 201.096 1071.39 203.215 1069.82 206.314C1068.55 208.827 1067.36 210.071 1067.18 209.093V209.093ZM949.277 141.369C949.263 140.939 950.039 140.053 950.994 139.419C951.961 138.773 952.765 139.102 952.8 140.146C952.835 141.189 952.072 142.075 951.084 142.107C950.109 142.14 949.292 141.81 949.277 141.369ZM398.615 77.9322C398.516 74.9738 399.24 72.5287 400.215 72.4964C401.19 72.464 402.076 74.8557 402.175 77.8142C402.275 80.7726 401.551 83.2176 400.576 83.25C399.601 83.2823 398.715 80.8907 398.615 77.9322ZM644.908 62.8076C644.329 61.9296 645.032 60.702 646.476 60.0888C647.92 59.4756 649.124 59.706 649.154 60.6021C649.236 63.0327 646.117 64.6478 644.908 62.8076ZM469.554 61.3973C467.725 60.3397 467.615 59.6183 469.131 58.5971C471.518 57.0064 473.404 58.2833 472.591 60.9648C472.249 62.0576 470.998 62.2343 469.554 61.3973V61.3973ZM390.352 58.6292C386.345 54.1413 385.636 52.3091 387.145 50.3419C389.694 47.0375 387.32 38.8577 383.858 38.9726C381.749 39.0425 381.529 38.2879 382.865 35.5768C383.927 33.3909 385.809 32.3822 387.925 32.865C389.978 33.3254 393.172 31.757 396.089 28.846C401.604 23.3417 403.641 22.9424 408.566 26.4167C411.966 28.8232 411.82 29.1968 404.574 36.1963C397.753 42.7885 396.955 44.474 396.26 53.9353L395.488 64.3947L390.352 58.6292V58.6292ZM345.737 58.7694C343.594 56.7513 344.298 54.8108 347.925 52.6996C350.738 51.0701 351.696 51.235 352.665 53.5624C354.283 57.4045 348.724 61.583 345.737 58.7694ZM759.631 22.4661C757.394 16.9117 762.25 13.9732 769.524 16.5094C773.599 17.9349 773.112 19.7945 767.999 22.3482C762.322 25.1911 760.736 25.2191 759.631 22.4661ZM412.878 25.4502C411.504 23.0625 411.453 21.909 412.697 21.8678C413.709 21.8342 414.309 20.8066 414.024 19.5871C413.726 18.3434 414.883 17.5431 416.636 17.7799C418.353 18.0179 419.738 17.4681 419.707 16.5597C419.677 15.6513 422.019 13.8162 424.917 12.5035C427.813 11.1784 430.164 9.56431 430.142 8.91369C430.12 8.26308 432.157 7.49503 434.673 7.19036C437.189 6.89798 440.524 5.89024 442.079 4.94155C443.765 3.91475 446.63 3.83202 449.199 4.7177C451.557 5.52433 454.247 5.69316 455.166 5.07279C456.086 4.46469 458.053 4.9033 459.545 6.07048C461.324 7.46161 465.543 7.71495 472.055 6.82306C479.745 5.75691 482.11 6.03486 482.972 8.08318C483.569 9.51353 483.577 11.2215 482.964 11.8686C481.316 13.6561 464.53 16.0808 462.39 14.8491C461.369 14.2439 456.353 14.6069 451.261 15.636C446.171 16.6774 439.728 17.8251 436.958 18.1996C434.188 18.5742 431.417 19.6247 430.813 20.5418C430.197 21.4594 427.705 22.4883 425.264 22.8397C422.822 23.1787 419.98 24.6863 418.944 26.1831C416.441 29.7932 415.302 29.6589 412.878 25.4502V25.4502ZM752.758 16.9794C752.743 16.5375 753.52 15.6638 754.474 15.0176C755.442 14.3834 756.246 14.7131 756.281 15.7565C756.316 16.7999 755.552 17.6733 754.565 17.706C753.589 17.7384 752.773 17.409 752.758 16.9794ZM64.741 36.6283C63.7228 35.384 62.336 32.9721 61.6688 31.2737C60.9608 29.4537 58.6378 28.2404 56.0534 28.3261C53.6395 28.4062 51.112 27.642 50.456 26.6438C49.6716 25.4531 50.8702 25.1676 53.8826 25.8296C57.7061 26.6614 58.4963 26.2051 58.397 23.2466C58.1802 16.7895 66.9232 16.561 67.2619 23.014C67.311 23.7498 68.5872 24.3219 70.1111 24.2713C72.2323 24.201 72.8097 25.7672 72.567 30.8999C72.2184 37.9656 68.252 40.8746 64.741 36.6283V36.6283ZM737.047 12.1423C732.639 10.2607 728.667 2.07254 730.123 -2.1542C731.213 -5.33642 733.182 -5.57377 738.109 -3.11956C742.416 -0.988844 744.778 -2.61566 741.652 -5.57205C738.148 -8.87231 738.98 -9.55122 747.269 -10.2071C755.205 -10.8268 760.529 -7.85722 758.339 -4.01173C756.633 -1.01798 750.732 -1.57191 748.446 -4.94943C747.046 -7.02906 746.627 -7.16262 747.151 -5.36117C747.578 -3.90061 749.734 -1.85833 751.928 -0.83735L755.921 1.02112L751.071 4.5247C748.414 6.44396 745.519 7.83036 744.657 7.60088C743.795 7.37139 743.583 8.33699 744.18 9.75506C745.6 13.1367 742.111 14.297 737.047 12.1423ZM593.749 5.82228C595.657 1.94926 597.176 -2.25493 597.135 -3.49478C597.093 -4.74691 597.851 -5.79209 598.838 -5.82484C599.813 -5.85719 600.645 -5.07367 600.678 -4.0916C600.711 -3.10954 601.592 -2.32765 602.64 -2.36243C605.737 -2.46513 610.229 2.65805 609.329 5.28099C608.873 6.61108 606.244 8.27133 603.496 8.96463C600.738 9.6706 596.639 10.8388 594.381 11.5651L590.288 12.8806L593.749 5.82228V5.82228ZM578.967 -0.803012C572.772 -3.92798 572.092 -10.7384 577.555 -14.8767C582.482 -18.6041 584.823 -18.6817 583.59 -15.0646C582.844 -12.9138 583.431 -12.5154 585.976 -13.4232C589.992 -14.8591 592.333 -11.9996 590.647 -7.70381C589.972 -6.01005 589.638 -3.20928 589.916 -1.48568C590.522 2.3777 585.857 2.66759 578.967 -0.803012V-0.803012ZM761.846 -12.5955C760.765 -14.2679 764.184 -17.4905 767.62 -18.0345C769.076 -18.2672 772.245 -19.122 774.659 -19.9271C778.919 -21.3711 778.971 -21.2868 776.448 -17.1599C773.915 -13.0203 763.648 -9.81639 761.846 -12.5955ZM567.714 -13.1617C565.484 -15.2629 566.346 -17.1964 569.1 -16.2431C570.582 -15.7269 571.829 -14.5762 571.858 -13.7046C571.921 -11.8265 569.479 -11.4997 567.714 -13.1617V-13.1617ZM570.995 -20.1403C569.469 -23.7765 572.395 -30.0551 575.675 -30.1639C577.016 -30.2084 578.445 -31.2635 578.842 -32.5056C579.803 -35.5361 581.342 -34.0264 582.806 -28.5939C584.311 -23.0152 582.66 -20.2322 576.809 -18.5511C573.449 -17.5794 571.897 -18.0072 570.995 -20.1403V-20.1403ZM884.447 -39.3112C884.434 -39.7041 885.603 -40.5171 887.059 -41.1307C888.502 -41.7562 889.72 -41.477 889.752 -40.5195C889.784 -39.562 888.603 -38.7486 887.14 -38.7001C885.665 -38.6512 884.46 -38.9307 884.447 -39.3112ZM485.918 -50.6475C485.224 -51.7059 485.342 -53.2829 486.166 -54.1705C488.192 -56.3637 492.928 -53.4362 491.476 -50.881C490.012 -48.3008 487.551 -48.1946 485.918 -50.6475V-50.6475ZM495.81 -50.8281C495.777 -51.8102 497.396 -52.675 499.407 -52.7417C501.431 -52.8088 502.604 -52.0366 502.04 -51.0347C501.463 -50.0324 499.845 -49.1677 498.43 -49.1208C497.016 -49.0739 495.843 -49.846 495.81 -50.8281ZM480.285 -62.8484C479.618 -63.834 480.327 -64.1648 481.932 -63.6035C485.056 -62.5151 485.66 -61.2447 483.1 -61.1598C482.174 -61.1291 480.916 -61.8862 480.285 -62.8484V-62.8484ZM458.673 -69.3209C453.153 -70.5388 454.144 -71.1862 462.484 -71.7823C465.102 -71.9674 467.607 -71.1534 468.036 -69.9879C468.896 -67.6568 466.85 -67.5152 458.673 -69.3209ZM455.198 -75.7805C454.517 -76.4216 453.955 -77.5335 453.931 -78.2578C453.873 -79.9887 460.81 -78.3999 462.134 -76.3915C463.317 -74.6119 457.025 -74.0592 455.198 -75.7805ZM891.719 -97.1654C888.537 -103.622 888.795 -106.494 892.793 -108.827C896.659 -111.069 896.802 -110.815 896.63 -101.777C896.482 -93.4521 894.482 -91.5793 891.719 -97.1654V-97.1654Z" fill="#ECEBE4"></path> <path d="M84.1892 90.972L82.6352 91.434C82.5512 91.1167 82.3366 90.8507 81.9912 90.636C81.6459 90.412 81.2446 90.3 80.7872 90.3C80.2832 90.3 79.8632 90.4214 79.5272 90.664C79.1912 90.8974 79.0232 91.196 79.0232 91.56C78.9672 91.8774 79.2052 92.1947 79.7372 92.512C79.8306 92.568 80.0126 92.6427 80.2832 92.736C80.6286 92.848 80.8292 92.9134 80.8852 92.932L81.6272 93.142C82.3646 93.338 82.9899 93.59 83.5032 93.898C84.1939 94.318 84.5392 94.9947 84.5392 95.928C84.5392 96.8334 84.2032 97.566 83.5312 98.126C82.8499 98.6767 81.9866 98.952 80.9412 98.952C79.9892 98.952 79.1726 98.7327 78.4912 98.294C77.8192 97.846 77.3852 97.286 77.1892 96.614L78.7432 96.124C78.8272 96.4974 79.0699 96.81 79.4712 97.062C79.8819 97.314 80.3719 97.44 80.9412 97.44C81.5199 97.44 82.0006 97.314 82.3832 97.062C82.7659 96.8007 82.9572 96.4647 82.9572 96.054C82.9572 95.7834 82.8499 95.55 82.6352 95.354C82.4486 95.1674 82.2572 95.032 82.0612 94.948C81.8652 94.8547 81.5712 94.7567 81.1792 94.654C79.9939 94.3087 79.2099 94.038 78.8272 93.842C77.9126 93.3474 77.4552 92.624 77.4552 91.672C77.4552 90.8134 77.7632 90.118 78.3792 89.586C78.9952 89.054 79.7886 88.788 80.7592 88.788C81.6179 88.788 82.3599 88.998 82.9852 89.418C83.6012 89.8194 84.0026 90.3374 84.1892 90.972ZM89.3531 91.308C90.2958 91.308 91.1031 91.63 91.7751 92.274V91.49H93.2311V98.77H91.7751V97.986C91.1031 98.63 90.2958 98.952 89.3531 98.952C88.3358 98.952 87.4818 98.588 86.7911 97.86C86.1098 97.1414 85.7691 96.2314 85.7691 95.13C85.7691 94.0287 86.1098 93.1187 86.7911 92.4C87.4818 91.672 88.3358 91.308 89.3531 91.308ZM89.5071 92.764C88.8818 92.764 88.3545 92.9927 87.9251 93.45C87.4958 93.8887 87.2811 94.4487 87.2811 95.13C87.2811 95.802 87.4958 96.3667 87.9251 96.824C88.3638 97.272 88.8911 97.496 89.5071 97.496C90.1418 97.496 90.6738 97.272 91.1031 96.824C91.5325 96.3667 91.7471 95.802 91.7471 95.13C91.7471 94.4487 91.5325 93.8887 91.1031 93.45C90.6738 92.9927 90.1418 92.764 89.5071 92.764ZM96.5802 98.77H95.1242V91.49H96.5802V98.77ZM95.1662 90.412C94.9889 90.2254 94.9002 89.9967 94.9002 89.726C94.9002 89.4554 94.9889 89.2267 95.1662 89.04C95.3529 88.8534 95.5815 88.76 95.8522 88.76C96.1229 88.76 96.3515 88.8534 96.5382 89.04C96.7249 89.2267 96.8182 89.4554 96.8182 89.726C96.8182 89.9967 96.7249 90.2254 96.5382 90.412C96.3515 90.5987 96.1229 90.692 95.8522 90.692C95.5815 90.692 95.3529 90.5987 95.1662 90.412ZM98.4697 98.77V91.49H99.9257V92.554C100.458 91.7234 101.256 91.308 102.32 91.308C103.16 91.308 103.85 91.5787 104.392 92.12C104.942 92.6707 105.218 93.352 105.218 94.164V98.77H103.762V94.584C103.762 94.0427 103.584 93.5947 103.23 93.24C102.875 92.876 102.427 92.694 101.886 92.694C101.326 92.694 100.859 92.876 100.486 93.24C100.112 93.604 99.9257 94.0567 99.9257 94.598V98.77H98.4697ZM106.406 92.764V91.49H107.512V90.048H108.968V91.49H110.9V92.764H108.968V96.348C108.968 96.6374 109.062 96.88 109.248 97.076C109.435 97.272 109.668 97.37 109.948 97.37H110.9V98.77H109.836C109.183 98.77 108.632 98.56 108.184 98.14C107.736 97.7014 107.512 97.1694 107.512 96.544V92.764H106.406ZM117.869 95.158V98.77H116.301V88.97H120.641C121.575 88.97 122.354 89.264 122.979 89.852C123.614 90.44 123.931 91.1774 123.931 92.064C123.931 92.9507 123.614 93.688 122.979 94.276C122.354 94.864 121.575 95.158 120.641 95.158H117.869ZM120.641 90.426H117.869V93.702H120.641C121.108 93.702 121.5 93.548 121.817 93.24C122.135 92.9227 122.293 92.5307 122.293 92.064C122.293 91.5974 122.135 91.21 121.817 90.902C121.5 90.5847 121.108 90.426 120.641 90.426ZM132.242 95.662H126.194C126.306 96.2314 126.581 96.698 127.02 97.062C127.468 97.4167 127.995 97.594 128.602 97.594C129.423 97.594 130.067 97.2907 130.534 96.684L131.962 97.118C131.626 97.6874 131.159 98.1354 130.562 98.462C129.974 98.7887 129.321 98.952 128.602 98.952C127.482 98.952 126.553 98.588 125.816 97.86C125.069 97.132 124.696 96.222 124.696 95.13C124.696 94.0474 125.055 93.1374 125.774 92.4C126.502 91.672 127.407 91.308 128.49 91.308C129.573 91.308 130.469 91.672 131.178 92.4C131.906 93.128 132.27 94.038 132.27 95.13C132.27 95.1674 132.261 95.3447 132.242 95.662ZM126.208 94.5H130.772C130.641 93.9587 130.361 93.52 129.932 93.184C129.503 92.8387 129.008 92.666 128.448 92.666C127.916 92.666 127.44 92.8387 127.02 93.184C126.609 93.52 126.339 93.9587 126.208 94.5ZM132.996 92.764V91.49H134.102V90.048H135.558V91.49H137.49V92.764H135.558V96.348C135.558 96.6374 135.651 96.88 135.838 97.076C136.024 97.272 136.258 97.37 136.538 97.37H137.49V98.77H136.426C135.772 98.77 135.222 98.56 134.774 98.14C134.326 97.7014 134.102 97.1694 134.102 96.544V92.764H132.996ZM146.124 95.662H140.076C140.188 96.2314 140.464 96.698 140.902 97.062C141.35 97.4167 141.878 97.594 142.484 97.594C143.306 97.594 143.95 97.2907 144.416 96.684L145.844 97.118C145.508 97.6874 145.042 98.1354 144.444 98.462C143.856 98.7887 143.203 98.952 142.484 98.952C141.364 98.952 140.436 98.588 139.698 97.86C138.952 97.132 138.578 96.222 138.578 95.13C138.578 94.0474 138.938 93.1374 139.656 92.4C140.384 91.672 141.29 91.308 142.372 91.308C143.455 91.308 144.351 91.672 145.06 92.4C145.788 93.128 146.152 94.038 146.152 95.13C146.152 95.1674 146.143 95.3447 146.124 95.662ZM140.09 94.5H144.654C144.524 93.9587 144.244 93.52 143.814 93.184C143.385 92.8387 142.89 92.666 142.33 92.666C141.798 92.666 141.322 92.8387 140.902 93.184C140.492 93.52 140.221 93.9587 140.09 94.5ZM149.061 91.49V92.554C149.612 91.7234 150.475 91.308 151.651 91.308V92.932C151.483 92.8574 151.273 92.82 151.021 92.82C150.461 92.82 149.995 93.002 149.621 93.366C149.248 93.7114 149.061 94.1594 149.061 94.71V98.77H147.605V91.49H149.061ZM157.935 93.156L156.563 93.394C156.395 92.8527 155.919 92.582 155.135 92.582C154.781 92.582 154.491 92.652 154.267 92.792C154.043 92.932 153.931 93.1234 153.931 93.366C153.931 93.6834 154.165 93.926 154.631 94.094L156.269 94.654C156.895 94.8874 157.347 95.172 157.627 95.508C157.917 95.844 158.061 96.2594 158.061 96.754C158.061 97.454 157.805 97.9954 157.291 98.378C156.778 98.7607 156.101 98.952 155.261 98.952C154.44 98.952 153.773 98.7747 153.259 98.42C152.746 98.056 152.438 97.5567 152.335 96.922L153.707 96.712C153.773 97.0014 153.945 97.2347 154.225 97.412C154.505 97.5894 154.86 97.678 155.289 97.678C155.691 97.678 156.017 97.5987 156.269 97.44C156.531 97.2814 156.661 97.0667 156.661 96.796C156.661 96.4507 156.367 96.1707 155.779 95.956L154.155 95.41C153.586 95.214 153.171 94.962 152.909 94.654C152.657 94.346 152.531 93.954 152.531 93.478C152.531 92.778 152.779 92.2414 153.273 91.868C153.768 91.4947 154.426 91.308 155.247 91.308C155.985 91.308 156.591 91.476 157.067 91.812C157.543 92.1387 157.833 92.5867 157.935 93.156ZM159.574 98.77V88.27H161.03V92.274C161.702 91.63 162.509 91.308 163.452 91.308C164.469 91.308 165.323 91.672 166.014 92.4C166.695 93.1187 167.036 94.0287 167.036 95.13C167.036 96.2314 166.695 97.1414 166.014 97.86C165.323 98.588 164.469 98.952 163.452 98.952C162.509 98.952 161.702 98.63 161.03 97.986V98.77H159.574ZM163.284 92.764C162.658 92.764 162.131 92.9927 161.702 93.45C161.272 93.8887 161.058 94.4487 161.058 95.13C161.058 95.802 161.272 96.3667 161.702 96.824C162.131 97.272 162.658 97.496 163.284 97.496C163.909 97.496 164.441 97.272 164.88 96.824C165.309 96.3667 165.524 95.802 165.524 95.13C165.524 94.4487 165.309 93.8887 164.88 93.45C164.45 92.9927 163.918 92.764 163.284 92.764ZM168.593 96.082V91.49H170.049V95.676C170.049 96.208 170.226 96.6607 170.581 97.034C170.954 97.3887 171.402 97.566 171.925 97.566C172.476 97.566 172.942 97.384 173.325 97.02C173.698 96.656 173.885 96.2034 173.885 95.662V91.49H175.341V98.77H173.885V97.734C173.325 98.546 172.532 98.952 171.505 98.952C170.656 98.952 169.96 98.6814 169.419 98.14C168.868 97.5894 168.593 96.9034 168.593 96.082ZM178.699 91.49V92.554C179.25 91.7234 180.113 91.308 181.289 91.308V92.932C181.121 92.8574 180.911 92.82 180.659 92.82C180.099 92.82 179.633 93.002 179.259 93.366C178.886 93.7114 178.699 94.1594 178.699 94.71V98.77H177.243V91.49H178.699ZM185.519 91.308C186.462 91.308 187.269 91.63 187.941 92.274V91.49H189.397V98.518C189.397 99.5354 189.042 100.385 188.333 101.066C187.624 101.757 186.765 102.102 185.757 102.102C185.01 102.102 184.31 101.911 183.657 101.528C183.022 101.155 182.57 100.665 182.299 100.058L183.769 99.624C183.928 99.9227 184.184 100.165 184.539 100.352C184.894 100.548 185.281 100.646 185.701 100.646C186.326 100.646 186.858 100.441 187.297 100.03C187.726 99.6287 187.941 99.1247 187.941 98.518V97.986C187.269 98.63 186.462 98.952 185.519 98.952C184.502 98.952 183.648 98.588 182.957 97.86C182.276 97.1414 181.935 96.2314 181.935 95.13C181.935 94.0287 182.276 93.1187 182.957 92.4C183.648 91.672 184.502 91.308 185.519 91.308ZM185.673 92.764C185.048 92.764 184.52 92.9927 184.091 93.45C183.662 93.8887 183.447 94.4487 183.447 95.13C183.447 95.802 183.662 96.3667 184.091 96.824C184.53 97.272 185.057 97.496 185.673 97.496C186.308 97.496 186.84 97.272 187.269 96.824C187.698 96.3667 187.913 95.802 187.913 95.13C187.913 94.4487 187.698 93.8887 187.269 93.45C186.84 92.9927 186.308 92.764 185.673 92.764Z" fill="#605348"></path> <circle cx="133.674" cy="73.4863" r="4.48633" fill="#605348"></circle> <path d="M70.6274 288.324L69.2554 288.562C69.0874 288.021 68.6114 287.75 67.8274 287.75C67.4728 287.75 67.1834 287.82 66.9594 287.96C66.7354 288.1 66.6234 288.292 66.6234 288.534C66.6234 288.852 66.8568 289.094 67.3234 289.262L68.9614 289.822C69.5868 290.056 70.0394 290.34 70.3194 290.676C70.6088 291.012 70.7534 291.428 70.7534 291.922C70.7534 292.622 70.4968 293.164 69.9834 293.546C69.4701 293.929 68.7934 294.12 67.9534 294.12C67.1321 294.12 66.4648 293.943 65.9514 293.588C65.4381 293.224 65.1301 292.725 65.0274 292.09L66.3994 291.88C66.4648 292.17 66.6374 292.403 66.9174 292.58C67.1974 292.758 67.5521 292.846 67.9814 292.846C68.3828 292.846 68.7094 292.767 68.9614 292.608C69.2228 292.45 69.3534 292.235 69.3534 291.964C69.3534 291.619 69.0594 291.339 68.4714 291.124L66.8474 290.578C66.2781 290.382 65.8628 290.13 65.6014 289.822C65.3494 289.514 65.2234 289.122 65.2234 288.646C65.2234 287.946 65.4708 287.41 65.9654 287.036C66.4601 286.663 67.1181 286.476 67.9394 286.476C68.6768 286.476 69.2834 286.644 69.7594 286.98C70.2354 287.307 70.5248 287.755 70.6274 288.324ZM75.766 294.12C74.674 294.12 73.764 293.756 73.036 293.028C72.308 292.3 71.944 291.39 71.944 290.298C71.944 289.206 72.308 288.296 73.036 287.568C73.764 286.84 74.674 286.476 75.766 286.476C76.858 286.476 77.768 286.84 78.496 287.568C79.2333 288.296 79.602 289.206 79.602 290.298C79.602 291.39 79.2333 292.3 78.496 293.028C77.768 293.756 76.858 294.12 75.766 294.12ZM75.766 292.664C76.438 292.664 76.9886 292.44 77.418 291.992C77.866 291.535 78.09 290.97 78.09 290.298C78.09 289.626 77.866 289.066 77.418 288.618C76.9886 288.161 76.438 287.932 75.766 287.932C75.1126 287.932 74.562 288.161 74.114 288.618C73.6753 289.076 73.456 289.636 73.456 290.298C73.456 290.961 73.6753 291.526 74.114 291.992C74.562 292.44 75.1126 292.664 75.766 292.664ZM84.676 294.12C83.584 294.12 82.674 293.756 81.946 293.028C81.218 292.3 80.854 291.39 80.854 290.298C80.854 289.206 81.218 288.296 81.946 287.568C82.674 286.84 83.584 286.476 84.676 286.476C85.768 286.476 86.678 286.84 87.406 287.568C88.1433 288.296 88.512 289.206 88.512 290.298C88.512 291.39 88.1433 292.3 87.406 293.028C86.678 293.756 85.768 294.12 84.676 294.12ZM84.676 292.664C85.348 292.664 85.8986 292.44 86.328 291.992C86.776 291.535 87 290.97 87 290.298C87 289.626 86.776 289.066 86.328 288.618C85.8986 288.161 85.348 287.932 84.676 287.932C84.0226 287.932 83.472 288.161 83.024 288.618C82.5853 289.076 82.366 289.636 82.366 290.298C82.366 290.961 82.5853 291.526 83.024 291.992C83.472 292.44 84.0226 292.664 84.676 292.664ZM90.086 293.938V286.658H91.542V287.722C92.074 286.892 92.872 286.476 93.936 286.476C94.776 286.476 95.4666 286.747 96.008 287.288C96.5586 287.839 96.834 288.52 96.834 289.332V293.938H95.378V289.752C95.378 289.211 95.2006 288.763 94.846 288.408C94.4913 288.044 94.0433 287.862 93.502 287.862C92.942 287.862 92.4753 288.044 92.102 288.408C91.7286 288.772 91.542 289.225 91.542 289.766V293.938H90.086Z" fill="#605348" fill-opacity="0.45"></path> <circle cx="80.8848" cy="269.177" r="4.48633" fill="#605348" fill-opacity="0.45"></circle> <path d="M505.19 333.693L503.818 333.931C503.65 333.389 503.174 333.119 502.39 333.119C502.035 333.119 501.746 333.189 501.522 333.329C501.298 333.469 501.186 333.66 501.186 333.903C501.186 334.22 501.419 334.463 501.886 334.631L503.524 335.191C504.149 335.424 504.602 335.709 504.882 336.045C505.171 336.381 505.316 336.796 505.316 337.291C505.316 337.991 505.059 338.532 504.546 338.915C504.033 339.297 503.356 339.489 502.516 339.489C501.695 339.489 501.027 339.311 500.514 338.957C500.001 338.593 499.693 338.093 499.59 337.459L500.962 337.249C501.027 337.538 501.2 337.771 501.48 337.949C501.76 338.126 502.115 338.215 502.544 338.215C502.945 338.215 503.272 338.135 503.524 337.977C503.785 337.818 503.916 337.603 503.916 337.333C503.916 336.987 503.622 336.707 503.034 336.493L501.41 335.947C500.841 335.751 500.425 335.499 500.164 335.191C499.912 334.883 499.786 334.491 499.786 334.015C499.786 333.315 500.033 332.778 500.528 332.405C501.023 332.031 501.681 331.845 502.502 331.845C503.239 331.845 503.846 332.013 504.322 332.349C504.798 332.675 505.087 333.123 505.19 333.693ZM510.328 339.489C509.236 339.489 508.326 339.125 507.598 338.397C506.87 337.669 506.506 336.759 506.506 335.667C506.506 334.575 506.87 333.665 507.598 332.937C508.326 332.209 509.236 331.845 510.328 331.845C511.42 331.845 512.33 332.209 513.058 332.937C513.796 333.665 514.164 334.575 514.164 335.667C514.164 336.759 513.796 337.669 513.058 338.397C512.33 339.125 511.42 339.489 510.328 339.489ZM510.328 338.033C511 338.033 511.551 337.809 511.98 337.361C512.428 336.903 512.652 336.339 512.652 335.667C512.652 334.995 512.428 334.435 511.98 333.987C511.551 333.529 511 333.301 510.328 333.301C509.675 333.301 509.124 333.529 508.676 333.987C508.238 334.444 508.018 335.004 508.018 335.667C508.018 336.329 508.238 336.894 508.676 337.361C509.124 337.809 509.675 338.033 510.328 338.033ZM519.238 339.489C518.146 339.489 517.236 339.125 516.508 338.397C515.78 337.669 515.416 336.759 515.416 335.667C515.416 334.575 515.78 333.665 516.508 332.937C517.236 332.209 518.146 331.845 519.238 331.845C520.33 331.845 521.24 332.209 521.968 332.937C522.706 333.665 523.074 334.575 523.074 335.667C523.074 336.759 522.706 337.669 521.968 338.397C521.24 339.125 520.33 339.489 519.238 339.489ZM519.238 338.033C519.91 338.033 520.461 337.809 520.89 337.361C521.338 336.903 521.562 336.339 521.562 335.667C521.562 334.995 521.338 334.435 520.89 333.987C520.461 333.529 519.91 333.301 519.238 333.301C518.585 333.301 518.034 333.529 517.586 333.987C517.148 334.444 516.928 335.004 516.928 335.667C516.928 336.329 517.148 336.894 517.586 337.361C518.034 337.809 518.585 338.033 519.238 338.033ZM524.648 339.307V332.027H526.104V333.091C526.636 332.26 527.434 331.845 528.498 331.845C529.338 331.845 530.029 332.115 530.57 332.657C531.121 333.207 531.396 333.889 531.396 334.701V339.307H529.94V335.121C529.94 334.579 529.763 334.131 529.408 333.777C529.054 333.413 528.606 333.231 528.064 333.231C527.504 333.231 527.038 333.413 526.664 333.777C526.291 334.141 526.104 334.593 526.104 335.135V339.307H524.648Z" fill="#605348" fill-opacity="0.45"></path> <circle cx="515.447" cy="315.027" r="4.48633" fill="#605348" fill-opacity="0.45"></circle> <path d="M188.823 180H187.255V170.2H188.823L192.547 176.738L196.257 170.2H197.839V180H196.257V173.182L193.065 178.838H192.029L188.823 173.182V180ZM203.313 180.182C202.221 180.182 201.311 179.818 200.583 179.09C199.855 178.362 199.491 177.452 199.491 176.36C199.491 175.268 199.855 174.358 200.583 173.63C201.311 172.902 202.221 172.538 203.313 172.538C204.405 172.538 205.315 172.902 206.043 173.63C206.78 174.358 207.149 175.268 207.149 176.36C207.149 177.452 206.78 178.362 206.043 179.09C205.315 179.818 204.405 180.182 203.313 180.182ZM203.313 178.726C203.985 178.726 204.536 178.502 204.965 178.054C205.413 177.597 205.637 177.032 205.637 176.36C205.637 175.688 205.413 175.128 204.965 174.68C204.536 174.223 203.985 173.994 203.313 173.994C202.66 173.994 202.109 174.223 201.661 174.68C201.222 175.137 201.003 175.697 201.003 176.36C201.003 177.023 201.222 177.587 201.661 178.054C202.109 178.502 202.66 178.726 203.313 178.726ZM213.889 174.386L212.517 174.624C212.349 174.083 211.873 173.812 211.089 173.812C210.734 173.812 210.445 173.882 210.221 174.022C209.997 174.162 209.885 174.353 209.885 174.596C209.885 174.913 210.118 175.156 210.585 175.324L212.223 175.884C212.848 176.117 213.301 176.402 213.581 176.738C213.87 177.074 214.015 177.489 214.015 177.984C214.015 178.684 213.758 179.225 213.245 179.608C212.732 179.991 212.055 180.182 211.215 180.182C210.394 180.182 209.726 180.005 209.213 179.65C208.7 179.286 208.392 178.787 208.289 178.152L209.661 177.942C209.726 178.231 209.899 178.465 210.179 178.642C210.459 178.819 210.814 178.908 211.243 178.908C211.644 178.908 211.971 178.829 212.223 178.67C212.484 178.511 212.615 178.297 212.615 178.026C212.615 177.681 212.321 177.401 211.733 177.186L210.109 176.64C209.54 176.444 209.124 176.192 208.863 175.884C208.611 175.576 208.485 175.184 208.485 174.708C208.485 174.008 208.732 173.471 209.227 173.098C209.722 172.725 210.38 172.538 211.201 172.538C211.938 172.538 212.545 172.706 213.021 173.042C213.497 173.369 213.786 173.817 213.889 174.386ZM222.57 174.834L221.1 175.268C220.913 174.876 220.638 174.568 220.274 174.344C219.91 174.111 219.494 173.994 219.028 173.994C218.374 173.994 217.824 174.223 217.376 174.68C216.937 175.137 216.718 175.697 216.718 176.36C216.718 177.023 216.937 177.587 217.376 178.054C217.824 178.502 218.374 178.726 219.028 178.726C219.494 178.726 219.91 178.614 220.274 178.39C220.638 178.157 220.913 177.844 221.1 177.452L222.57 177.886C222.28 178.586 221.818 179.146 221.184 179.566C220.558 179.977 219.84 180.182 219.028 180.182C217.936 180.182 217.026 179.818 216.298 179.09C215.57 178.362 215.206 177.452 215.206 176.36C215.206 175.268 215.57 174.358 216.298 173.63C217.026 172.902 217.936 172.538 219.028 172.538C219.84 172.538 220.558 172.748 221.184 173.168C221.818 173.579 222.28 174.134 222.57 174.834ZM227.5 180.182C226.408 180.182 225.498 179.818 224.77 179.09C224.042 178.362 223.678 177.452 223.678 176.36C223.678 175.268 224.042 174.358 224.77 173.63C225.498 172.902 226.408 172.538 227.5 172.538C228.592 172.538 229.502 172.902 230.23 173.63C230.967 174.358 231.336 175.268 231.336 176.36C231.336 177.452 230.967 178.362 230.23 179.09C229.502 179.818 228.592 180.182 227.5 180.182ZM227.5 178.726C228.172 178.726 228.723 178.502 229.152 178.054C229.6 177.597 229.824 177.032 229.824 176.36C229.824 175.688 229.6 175.128 229.152 174.68C228.723 174.223 228.172 173.994 227.5 173.994C226.847 173.994 226.296 174.223 225.848 174.68C225.409 175.137 225.19 175.697 225.19 176.36C225.19 177.023 225.409 177.587 225.848 178.054C226.296 178.502 226.847 178.726 227.5 178.726ZM235.66 180H234.372L231.95 172.72H233.42L235.002 177.746L236.584 172.72H237.9L239.468 177.746L241.064 172.72H242.534L240.112 180H238.81L237.242 175.142L235.66 180Z" fill="#605348"></path> <circle cx="214.768" cy="155.196" r="4.48633" fill="#605348"></circle> <path d="M292.265 245.731L288.499 239.907H290.305L293.035 244.233L295.821 239.907H297.627L293.833 245.661V249.707H292.265V245.731ZM304.854 246.599H298.806C298.918 247.168 299.193 247.635 299.632 247.999C300.08 248.354 300.607 248.531 301.214 248.531C302.035 248.531 302.679 248.228 303.146 247.621L304.574 248.055C304.238 248.624 303.771 249.072 303.174 249.399C302.586 249.726 301.933 249.889 301.214 249.889C300.094 249.889 299.165 249.525 298.428 248.797C297.681 248.069 297.308 247.159 297.308 246.067C297.308 244.984 297.667 244.074 298.386 243.337C299.114 242.609 300.019 242.245 301.102 242.245C302.185 242.245 303.081 242.609 303.79 243.337C304.518 244.065 304.882 244.975 304.882 246.067C304.882 246.104 304.873 246.282 304.854 246.599ZM298.82 245.437H303.384C303.253 244.896 302.973 244.457 302.544 244.121C302.115 243.776 301.62 243.603 301.06 243.603C300.528 243.603 300.052 243.776 299.632 244.121C299.221 244.457 298.951 244.896 298.82 245.437ZM306.335 249.707V239.207H307.791V245.787L310.535 242.427H312.313L309.457 245.941L312.621 249.707H310.829L307.791 246.095V249.707H306.335ZM316.716 242.245C317.658 242.245 318.466 242.567 319.138 243.211V242.427H320.594V249.707H319.138V248.923C318.466 249.567 317.658 249.889 316.716 249.889C315.698 249.889 314.844 249.525 314.154 248.797C313.472 248.078 313.132 247.168 313.132 246.067C313.132 244.966 313.472 244.056 314.154 243.337C314.844 242.609 315.698 242.245 316.716 242.245ZM316.87 243.701C316.244 243.701 315.717 243.93 315.288 244.387C314.858 244.826 314.644 245.386 314.644 246.067C314.644 246.739 314.858 247.304 315.288 247.761C315.726 248.209 316.254 248.433 316.87 248.433C317.504 248.433 318.036 248.209 318.466 247.761C318.895 247.304 319.11 246.739 319.11 246.067C319.11 245.386 318.895 244.826 318.466 244.387C318.036 243.93 317.504 243.701 316.87 243.701ZM321.787 243.701V242.427H322.893V240.985H324.349V242.427H326.281V243.701H324.349V247.285C324.349 247.574 324.442 247.817 324.629 248.013C324.815 248.209 325.049 248.307 325.329 248.307H326.281V249.707H325.217C324.563 249.707 324.013 249.497 323.565 249.077C323.117 248.638 322.893 248.106 322.893 247.481V243.701H321.787ZM334.916 246.599H328.868C328.98 247.168 329.255 247.635 329.694 247.999C330.142 248.354 330.669 248.531 331.276 248.531C332.097 248.531 332.741 248.228 333.208 247.621L334.636 248.055C334.3 248.624 333.833 249.072 333.236 249.399C332.648 249.726 331.994 249.889 331.276 249.889C330.156 249.889 329.227 249.525 328.49 248.797C327.743 248.069 327.37 247.159 327.37 246.067C327.37 244.984 327.729 244.074 328.448 243.337C329.176 242.609 330.081 242.245 331.164 242.245C332.246 242.245 333.142 242.609 333.852 243.337C334.58 244.065 334.944 244.975 334.944 246.067C334.944 246.104 334.934 246.282 334.916 246.599ZM328.882 245.437H333.446C333.315 244.896 333.035 244.457 332.606 244.121C332.176 243.776 331.682 243.603 331.122 243.603C330.59 243.603 330.114 243.776 329.694 244.121C329.283 244.457 329.012 244.896 328.882 245.437ZM337.853 242.427V243.491C338.403 242.66 339.267 242.245 340.443 242.245V243.869C340.275 243.794 340.065 243.757 339.813 243.757C339.253 243.757 338.786 243.939 338.413 244.303C338.039 244.648 337.853 245.096 337.853 245.647V249.707H336.397V242.427H337.853ZM343.181 249.707H341.725V242.427H343.181V249.707ZM341.767 241.349C341.589 241.162 341.501 240.934 341.501 240.663C341.501 240.392 341.589 240.164 341.767 239.977C341.953 239.79 342.182 239.697 342.453 239.697C342.723 239.697 342.952 239.79 343.139 239.977C343.325 240.164 343.419 240.392 343.419 240.663C343.419 240.934 343.325 241.162 343.139 241.349C342.952 241.536 342.723 241.629 342.453 241.629C342.182 241.629 341.953 241.536 341.767 241.349ZM345.07 249.707V242.427H346.526V243.491C347.058 242.66 347.856 242.245 348.92 242.245C349.76 242.245 350.451 242.516 350.992 243.057C351.543 243.608 351.818 244.289 351.818 245.101V249.707H350.362V245.521C350.362 244.98 350.185 244.532 349.83 244.177C349.476 243.813 349.028 243.631 348.486 243.631C347.926 243.631 347.46 243.813 347.086 244.177C346.713 244.541 346.526 244.994 346.526 245.535V249.707H345.07ZM353.707 249.707V239.207H355.163V243.211C355.835 242.567 356.642 242.245 357.585 242.245C358.602 242.245 359.456 242.609 360.147 243.337C360.828 244.056 361.169 244.966 361.169 246.067C361.169 247.168 360.828 248.078 360.147 248.797C359.456 249.525 358.602 249.889 357.585 249.889C356.642 249.889 355.835 249.567 355.163 248.923V249.707H353.707ZM357.417 243.701C356.791 243.701 356.264 243.93 355.835 244.387C355.405 244.826 355.191 245.386 355.191 246.067C355.191 246.739 355.405 247.304 355.835 247.761C356.264 248.209 356.791 248.433 357.417 248.433C358.042 248.433 358.574 248.209 359.013 247.761C359.442 247.304 359.657 246.739 359.657 246.067C359.657 245.386 359.442 244.826 359.013 244.387C358.583 243.93 358.051 243.701 357.417 243.701ZM362.726 247.019V242.427H364.182V246.613C364.182 247.145 364.359 247.598 364.714 247.971C365.087 248.326 365.535 248.503 366.058 248.503C366.608 248.503 367.075 248.321 367.458 247.957C367.831 247.593 368.018 247.14 368.018 246.599V242.427H369.474V249.707H368.018V248.671C367.458 249.483 366.664 249.889 365.638 249.889C364.788 249.889 364.093 249.618 363.552 249.077C363.001 248.526 362.726 247.84 362.726 247.019ZM372.832 242.427V243.491C373.383 242.66 374.246 242.245 375.422 242.245V243.869C375.254 243.794 375.044 243.757 374.792 243.757C374.232 243.757 373.766 243.939 373.392 244.303C373.019 244.648 372.832 245.096 372.832 245.647V249.707H371.376V242.427H372.832ZM379.652 242.245C380.595 242.245 381.402 242.567 382.074 243.211V242.427H383.53V249.455C383.53 250.472 383.175 251.322 382.466 252.003C381.757 252.694 380.898 253.039 379.89 253.039C379.143 253.039 378.443 252.848 377.79 252.465C377.155 252.092 376.703 251.602 376.432 250.995L377.902 250.561C378.061 250.86 378.317 251.102 378.672 251.289C379.027 251.485 379.414 251.583 379.834 251.583C380.459 251.583 380.991 251.378 381.43 250.967C381.859 250.566 382.074 250.062 382.074 249.455V248.923C381.402 249.567 380.595 249.889 379.652 249.889C378.635 249.889 377.781 249.525 377.09 248.797C376.409 248.078 376.068 247.168 376.068 246.067C376.068 244.966 376.409 244.056 377.09 243.337C377.781 242.609 378.635 242.245 379.652 242.245ZM379.806 243.701C379.181 243.701 378.653 243.93 378.224 244.387C377.795 244.826 377.58 245.386 377.58 246.067C377.58 246.739 377.795 247.304 378.224 247.761C378.663 248.209 379.19 248.433 379.806 248.433C380.441 248.433 380.973 248.209 381.402 247.761C381.831 247.304 382.046 246.739 382.046 246.067C382.046 245.386 381.831 244.826 381.402 244.387C380.973 243.93 380.441 243.701 379.806 243.701Z" fill="#605348"></path> <circle cx="336.096" cy="224.946" r="4.48633" fill="#605348"></circle> <path d="M410.29 270.178H406.832V268.722H415.316V270.178H411.858V278.522H410.29V270.178ZM417.301 279.138L417.623 278.34L414.781 271.242H416.279L418.351 276.534L420.493 271.242H421.991L418.561 279.628C418.271 280.338 417.893 280.856 417.427 281.182C416.96 281.509 416.363 281.672 415.635 281.672H415.327V280.272H415.635C416.064 280.272 416.409 280.184 416.671 280.006C416.932 279.829 417.142 279.54 417.301 279.138ZM423.174 275.834V271.242H424.63V275.428C424.63 275.96 424.807 276.413 425.162 276.786C425.535 277.141 425.983 277.318 426.506 277.318C427.056 277.318 427.523 277.136 427.906 276.772C428.279 276.408 428.466 275.956 428.466 275.414V271.242H429.922V278.522H428.466V277.486C427.906 278.298 427.112 278.704 426.086 278.704C425.236 278.704 424.541 278.434 424 277.892C423.449 277.342 423.174 276.656 423.174 275.834ZM433.28 278.522H431.824V271.242H433.28V272.166C433.784 271.429 434.526 271.06 435.506 271.06C436.01 271.06 436.468 271.177 436.878 271.41C437.289 271.634 437.62 271.947 437.872 272.348C437.984 272.171 438.12 271.994 438.278 271.816C438.474 271.62 438.759 271.448 439.132 271.298C439.506 271.14 439.902 271.06 440.322 271.06C441.153 271.06 441.839 271.317 442.38 271.83C442.931 272.353 443.206 272.997 443.206 273.762V278.522H441.75V274.168C441.75 273.683 441.587 273.277 441.26 272.95C440.934 272.614 440.528 272.446 440.042 272.446C439.529 272.446 439.1 272.614 438.754 272.95C438.418 273.268 438.25 273.678 438.25 274.182V278.522H436.794V274.168C436.794 273.683 436.631 273.277 436.304 272.95C435.978 272.614 435.572 272.446 435.086 272.446C434.573 272.446 434.144 272.614 433.798 272.95C433.453 273.268 433.28 273.678 433.28 274.182V278.522ZM452.32 275.414H446.272C446.384 275.984 446.659 276.45 447.098 276.814C447.546 277.169 448.073 277.346 448.68 277.346C449.501 277.346 450.145 277.043 450.612 276.436L452.04 276.87C451.704 277.44 451.237 277.888 450.64 278.214C450.052 278.541 449.398 278.704 448.68 278.704C447.56 278.704 446.631 278.34 445.894 277.612C445.147 276.884 444.774 275.974 444.774 274.882C444.774 273.8 445.133 272.89 445.852 272.152C446.58 271.424 447.485 271.06 448.568 271.06C449.65 271.06 450.546 271.424 451.256 272.152C451.984 272.88 452.348 273.79 452.348 274.882C452.348 274.92 452.338 275.097 452.32 275.414ZM446.286 274.252H450.85C450.719 273.711 450.439 273.272 450.01 272.936C449.58 272.591 449.086 272.418 448.526 272.418C447.994 272.418 447.518 272.591 447.098 272.936C446.687 273.272 446.416 273.711 446.286 274.252ZM453.8 278.522V271.242H455.256V272.306C455.788 271.476 456.586 271.06 457.65 271.06C458.49 271.06 459.181 271.331 459.722 271.872C460.273 272.423 460.548 273.104 460.548 273.916V278.522H459.092V274.336C459.092 273.795 458.915 273.347 458.56 272.992C458.206 272.628 457.758 272.446 457.216 272.446C456.656 272.446 456.19 272.628 455.816 272.992C455.443 273.356 455.256 273.809 455.256 274.35V278.522H453.8Z" fill="#605348"></path> <circle cx="434.205" cy="253.887" r="4.48633" fill="#605348"></circle> </g> <defs> <clipPath id="clip0_2732_104699"> <rect width="638" height="382" fill="white"></rect> </clipPath> </defs> </svg> 