<?xml version="1.0" encoding="UTF-8"?> <svg xmlns="http://www.w3.org/2000/svg" width="84" height="24" viewBox="0 0 84 24" fill="none"> <path d="M13.7345 8.80542L17.7175 21.1102H21.601L27.476 2.13379H23.5499L19.6095 14.0403L15.3988 2.13379H12.0772L7.86655 14.0403L3.92616 2.13379H0L5.87502 21.1102H9.75851L13.7345 8.80542Z" fill="#605348"></path> <path d="M70.2655 8.80542L74.2415 21.1102H78.1249L84 2.13379H80.0738L76.1334 14.0403L71.9227 2.13379H68.6011L64.3976 14.0403L60.4501 2.13379H56.5239L62.3989 21.1102H66.2824L70.2655 8.80542Z" fill="#605348"></path> <path d="M54.3188 11.622C54.3188 9.23218 53.7071 6.84234 52.5406 4.78679C51.3742 2.74547 49.6956 1.00999 47.6543 0C47.7965 0.248942 47.953 0.483658 48.1023 0.718374C48.2446 0.960203 48.3869 1.19492 48.5291 1.42252C48.6571 1.66435 48.7994 1.89196 48.9274 2.13379C49.0483 2.37562 49.1764 2.60322 49.2973 2.84505C49.4182 3.08688 49.532 3.32871 49.6458 3.57054C48.0454 2.03421 45.997 0.974429 43.7139 0.618798C43.6996 0.618798 43.6783 0.611685 43.6641 0.611685C43.3227 0.561896 42.9813 0.526333 42.6327 0.504995C42.5901 0.504995 42.5545 0.497883 42.5118 0.497883C42.3411 0.490771 42.1704 0.483657 41.9997 0.483657C41.829 0.483657 41.6583 0.490771 41.4876 0.497883C41.4449 0.497883 41.4094 0.504995 41.3667 0.504995C41.0182 0.526333 40.6768 0.561896 40.3354 0.611685C40.3211 0.611685 40.2998 0.618798 40.2856 0.618798C38.0024 0.974429 35.9469 2.03421 34.3537 3.57054C34.4675 3.32871 34.5813 3.08688 34.7022 2.84505C34.8231 2.61033 34.9511 2.37562 35.072 2.13379C35.2001 1.89907 35.3423 1.67147 35.4703 1.42252C35.6126 1.18781 35.7548 0.95309 35.8971 0.718374C36.0465 0.483658 36.1958 0.248942 36.3452 0C34.3039 1.00999 32.6253 2.73836 31.4588 4.78679C30.2923 6.83523 29.6807 9.23218 29.6807 11.622C29.6807 14.0119 30.2923 16.4017 31.4588 18.4501C32.6253 20.4915 34.3039 22.2269 36.3452 23.2369C35.7406 22.2767 35.1787 21.3521 34.7022 20.399C34.5813 20.1572 34.4603 19.9082 34.3537 19.6664C35.954 21.2027 38.0095 22.2625 40.2927 22.6252C40.3069 22.6252 40.3211 22.6324 40.3425 22.6324C40.6839 22.6821 41.0253 22.7177 41.3738 22.739C41.4165 22.739 41.4521 22.7462 41.4947 22.7462C41.6654 22.7533 41.8361 22.7604 42.0068 22.7604C42.1775 22.7604 42.3482 22.7533 42.5189 22.7462C42.5616 22.7462 42.5972 22.739 42.6399 22.739C42.9884 22.7177 43.3369 22.6821 43.6712 22.6324C43.6854 22.6324 43.6996 22.6252 43.721 22.6252C46.0112 22.2696 48.0668 21.2098 49.66 19.6664C49.5462 19.9082 49.4324 20.1572 49.3115 20.399C48.8421 21.3521 48.2802 22.2767 47.6685 23.2369C49.7027 22.2269 51.3884 20.4915 52.5548 18.4501C53.7071 16.4017 54.3188 14.0119 54.3188 11.622ZM43.9415 21.281C39.1191 21.3165 34.3394 17.0205 33.2654 11.686C32.1985 6.35157 35.2427 1.99865 40.0651 1.96308C44.8874 1.92752 49.6671 6.22354 50.7411 11.558C51.808 16.8925 48.7638 21.2454 43.9415 21.281Z" fill="#605348"></path> <path d="M56.3099 6.1733C55.492 4.49472 54.29 3.00818 52.7679 2.01953C53.7494 3.53452 54.5104 5.07796 55.0012 6.69252C55.4991 8.29997 55.7409 9.95721 55.748 11.6216C55.748 13.2859 55.5062 14.9432 55.0012 16.5506C54.5033 18.1652 53.7494 19.7086 52.7607 21.2236C54.2828 20.2349 55.492 18.7413 56.3028 17.0698C57.1137 15.3913 57.5333 13.4993 57.5333 11.6216C57.5404 9.74383 57.1208 7.85188 56.3099 6.1733Z" fill="#605348"></path> <path d="M28.2509 11.6216C28.258 9.95721 28.4998 8.29997 28.9977 6.69252C29.4956 5.07796 30.2495 3.53452 31.2311 2.01953C29.709 3.00818 28.4998 4.49472 27.689 6.1733C26.8781 7.85899 26.4585 9.74383 26.4585 11.6216C26.4585 13.4993 26.8781 15.3913 27.689 17.0698C28.5069 18.7484 29.709 20.2349 31.2311 21.2236C30.2424 19.7086 29.4885 18.1652 28.9906 16.5506C28.4998 14.9432 28.258 13.2859 28.2509 11.6216Z" fill="#605348"></path> </svg> 