<?xml version="1.0" encoding="UTF-8"?> <svg xmlns="http://www.w3.org/2000/svg" width="384" height="372" viewBox="0 0 384 372" fill="none"> <path d="M305.545 276.659C323.08 254.604 334.97 228.06 339.287 200.53C343.5 173.132 340.742 144.799 329.314 120.5C328.8 123.841 328.522 127.156 328.178 130.418C327.716 133.693 327.307 136.903 326.95 140.048C326.357 143.219 326 146.363 325.407 149.534C324.749 152.653 324.26 155.693 323.602 158.812C322.943 161.931 322.219 164.998 321.495 168.065C317.998 142.144 306.869 117.333 288.408 97.2987C288.276 97.1943 288.131 96.9721 288 96.8677C285.215 93.9032 282.325 91.07 279.265 88.3158C278.871 88.0027 278.595 87.6761 278.201 87.363C276.678 86.0448 275.155 84.7266 273.579 83.4741C272.004 82.2216 270.376 81.0347 268.749 79.8479C268.355 79.5347 267.974 79.3394 267.581 79.0263C264.208 76.666 260.796 74.4892 257.28 72.4437C257.148 72.3393 256.899 72.2484 256.768 72.144C233.088 58.6737 206.341 53.372 180.365 55.8606C183.189 54.4638 186.014 53.067 188.904 51.7223C191.742 50.4433 194.646 49.2165 197.536 47.8719C200.44 46.6451 203.423 45.5883 206.431 44.2302C209.466 43.1078 212.501 41.9854 215.536 40.8629C218.637 39.7927 221.738 38.7225 224.943 37.5209C198.693 31.8641 170.519 35.4987 144.724 45.8448C118.929 56.1909 95.696 73.824 78.1608 95.8798C60.6256 117.935 48.7356 144.479 44.4707 171.943C40.258 199.341 43.0157 227.674 54.4442 251.973C55.9101 238.676 57.5088 226.019 60.104 213.727C60.7625 210.608 61.4731 207.423 62.2629 204.408C65.7597 230.329 76.9542 255.193 95.3637 275.293C95.495 275.397 95.5741 275.567 95.7711 275.724C98.5566 278.688 101.446 281.521 104.506 284.276C104.9 284.589 105.176 284.915 105.57 285.228C107.093 286.547 108.616 287.865 110.192 289.117C111.767 290.37 113.395 291.557 115.022 292.743C115.416 293.057 115.797 293.252 116.191 293.565C119.564 295.925 123.041 298.154 126.492 300.148C126.623 300.252 126.806 300.291 127.003 300.447C150.749 313.97 177.496 319.271 203.525 316.717C200.7 318.114 197.823 319.577 194.933 320.921C183.607 326.273 171.637 330.683 158.946 335.057C185.131 340.662 213.422 337.013 239.165 326.733C264.829 316.283 288.01 298.715 305.545 276.659ZM138.902 289.659C94.1354 254.603 81.5456 179.885 110.775 122.773C140.069 65.7136 200.103 47.8772 244.87 82.9325C289.636 117.988 302.226 192.706 272.997 249.818C243.702 306.878 183.668 324.714 138.902 289.659Z" fill="#DAD7D0"></path> <path d="M363.901 240.99C368.669 219.496 368.482 196.958 361.689 176.665C359.632 197.849 355.331 217.677 348.013 236.179C340.814 254.667 330.886 271.736 318.739 287.149C306.527 302.509 292.136 316.029 275.681 327.159C259.239 338.406 240.956 347.119 220.716 353.846C242.017 355.89 264.136 350.978 283.883 341.501C303.683 331.959 321.438 317.577 335.215 300.248C349.059 282.97 359.068 262.431 363.901 240.99Z" fill="#DAD7D0"></path> <path d="M64.9673 85.3889C77.245 70.0808 91.6367 56.5606 108.026 45.3787C124.468 34.1311 142.751 25.4187 162.925 18.6389C141.624 16.5949 119.557 21.4421 99.7577 30.9842C79.9059 40.5919 62.2032 54.9079 48.4255 72.2374C34.6479 89.5669 24.6387 110.107 19.8055 131.548C15.038 153.041 15.2242 175.58 22.0174 195.872C24.0092 174.637 28.376 154.86 35.6278 136.306C42.893 117.87 52.821 100.801 64.9673 85.3889Z" fill="#DAD7D0"></path> </svg> 