<?xml version="1.0" encoding="UTF-8"?> <svg xmlns="http://www.w3.org/2000/svg" width="256" height="100" viewBox="0 0 256 100" fill="none"> <path d="M172.167 20.1386C166.686 20.8442 163.069 23.717 161.935 28.2908C161.633 29.5256 161.633 32.7512 161.948 33.86C162.465 35.75 163.75 37.5644 165.35 38.711C167.719 40.3868 170.755 41.3066 176.073 41.9744C181.226 42.6296 183.708 43.5116 185.359 45.2882C186.405 46.4222 186.846 47.6948 186.846 49.61C186.846 53.6042 184.2 56.288 179.563 56.981C176.262 57.485 172.28 56.9684 169.773 55.7336C167.215 54.461 165.64 52.2812 164.909 48.9926C164.783 48.4004 164.67 47.72 164.67 47.4932V47.09H162.843H161.016V47.7074C161.016 49.4714 161.595 51.815 162.465 53.579C164.241 57.1826 167.643 59.4758 172.57 60.3956C174.044 60.6602 178.53 60.7862 179.941 60.5846C184.515 59.9294 187.753 57.8756 189.378 54.5996C190.273 52.7852 190.55 51.3866 190.462 49.043C190.386 47.0648 190.172 46.0694 189.555 44.759C188.206 41.9366 185.245 40.034 180.621 39.0386C179.928 38.8874 178.227 38.6228 176.841 38.4464C171.574 37.7912 168.954 36.9596 167.152 35.372C165.829 34.2002 165.274 32.9402 165.262 31.088C165.262 28.9208 165.892 27.3458 167.303 26.0102C167.769 25.5818 168.475 25.0526 168.891 24.8258C172.116 23.1248 178.29 23.1752 182.02 24.9392C184.981 26.3378 186.581 28.8578 187.287 33.2552L187.362 33.734H189.139H190.915L190.827 32.4992C190.411 26.4008 186.871 22.2176 180.823 20.6804C178.441 20.0756 174.573 19.8362 172.167 20.1386Z" fill="#605348"></path> <path d="M65 40.3488V60.1938H66.4868L67.961 60.1812L73.316 51.9408C76.2644 47.4048 78.6962 43.6878 78.734 43.6878C78.7718 43.6878 81.3422 47.4048 84.467 51.9408L90.1244 60.1938H92.3168H94.4966L93.8162 59.211C90.7796 54.8892 80.9516 40.563 80.9138 40.4118C80.8886 40.311 83.6732 35.8002 87.1004 30.3948L93.3374 20.5668L91.3718 20.529C90.2756 20.5164 89.3306 20.5164 89.255 20.5542C89.192 20.5794 84.5426 27.7488 78.923 36.4806L68.717 52.3692L68.6792 36.4302L68.654 20.5038H66.827H65V40.3488Z" fill="#605348"></path> <path d="M118.805 38.7234C113.916 48.7404 109.569 57.6612 109.141 58.5558L108.359 60.1938H110.413H112.454L120.065 44.6328C124.235 36.0774 127.7 29.0718 127.738 29.0718C127.852 29.0718 141.46 56.5146 141.384 56.5902C141.346 56.628 138.436 56.6658 134.908 56.6658H128.507V58.4298V60.1938H137.843C142.972 60.1938 147.142 60.156 147.117 60.093C147.092 60.0426 142.745 51.1596 137.465 40.3488C132.173 29.538 127.814 20.6551 127.763 20.6173C127.726 20.5669 123.694 28.719 118.805 38.7234Z" fill="#605348"></path> <path d="M100.193 39.2904C99.5881 39.5928 98.9455 40.2606 98.6935 40.8654C98.4667 41.4072 98.4667 42.5664 98.6935 43.1082C98.9455 43.7004 99.6133 44.4186 100.206 44.721C100.911 45.0864 102.171 45.099 102.864 44.7336C105.17 43.524 105.069 40.185 102.713 39.1896C102.083 38.9376 100.823 38.9754 100.193 39.2904Z" fill="#605348"></path> <path d="M149.33 39.2907C147.881 40.0089 147.263 41.7855 147.956 43.2471C148.473 44.3811 149.431 44.9985 150.678 44.9985C152.429 44.9985 153.702 43.7133 153.702 41.9619C153.689 40.7397 152.996 39.6813 151.913 39.2277C151.22 38.9379 149.972 38.9631 149.33 39.2907Z" fill="#605348"></path> <path d="M99.3984 78.1994V82.874H99.9654H100.532V80.921V78.968H100.948C101.326 78.968 101.49 79.1318 102.989 80.921L104.627 82.874H105.358H106.089L105.736 82.4456C105.547 82.2188 104.829 81.362 104.136 80.5556C103.456 79.7492 102.914 79.0688 102.939 79.0436C102.964 79.031 103.216 78.9428 103.506 78.8672C104.779 78.5018 105.446 77.645 105.446 76.3472C105.446 75.0872 105.031 74.432 103.871 73.9028C103.33 73.6634 102.977 73.613 101.326 73.5752L99.3984 73.5248V78.1994ZM103.342 74.8604C104.249 75.251 104.653 76.1582 104.262 76.9772C103.922 77.6828 103.443 77.8844 101.893 77.9348L100.532 77.9852V76.3346V74.684H101.729C102.473 74.684 103.09 74.747 103.342 74.8604Z" fill="#605348"></path> <path d="M115.271 73.7264C113.356 74.1548 112.083 75.5156 111.743 77.4812C111.377 79.5728 112.448 81.6518 114.364 82.5716C114.994 82.8866 115.233 82.9244 116.279 82.937C117.312 82.937 117.577 82.8866 118.194 82.5968C119.152 82.1558 119.996 81.3494 120.475 80.417C120.853 79.7114 120.878 79.5728 120.878 78.338C120.878 77.0906 120.853 76.9646 120.462 76.1708C120.235 75.7172 119.819 75.1376 119.542 74.873C118.421 73.8524 116.695 73.3988 115.271 73.7264ZM117.589 74.9486C119.026 75.4778 120.084 77.2292 119.87 78.7034C119.681 80.0516 118.736 81.2738 117.564 81.6644C116.783 81.9416 115.586 81.9164 114.943 81.6266C113.23 80.8454 112.385 78.9302 112.952 77.1284C113.129 76.5614 113.343 76.2212 113.834 75.7298C114.855 74.7092 116.203 74.4194 117.589 74.9486Z" fill="#605348"></path> <path d="M123.211 78.212V82.874H123.778H124.345V80.921V78.968H124.773C125.177 78.968 125.315 79.1066 126.815 80.921L128.44 82.8614L129.183 82.874C129.876 82.874 129.914 82.8614 129.738 82.6472C128.188 80.8454 126.726 79.0688 126.764 79.0436C126.777 79.0184 127.067 78.9428 127.382 78.8546C128.112 78.653 128.78 78.1238 129.07 77.5064C129.372 76.8638 129.372 75.5786 129.057 75.0494C128.415 73.9532 127.281 73.55 124.824 73.55H123.211V78.212ZM127.331 74.9486C128.188 75.3644 128.49 76.2464 128.062 77.078C127.747 77.6954 127.218 77.8844 125.706 77.9348L124.345 77.9852V76.3346V74.684H125.567C126.55 74.684 126.89 74.7344 127.331 74.9486Z" fill="#605348"></path> <path d="M160.673 73.676C159.224 73.9658 158.392 75.0494 158.518 76.448C158.644 77.7836 159.526 78.4388 161.681 78.779C163.243 79.0184 163.71 79.22 163.974 79.7366C164.655 81.047 163.243 82.2188 161.416 81.866C160.282 81.6518 159.703 81.1478 159.514 80.1776C159.438 79.8248 159.375 79.787 158.896 79.7492C158.392 79.7114 158.367 79.724 158.367 80.0642C158.367 80.732 158.644 81.3872 159.148 81.9416C159.854 82.7102 160.522 82.937 162.097 82.937C163.294 82.937 163.395 82.9118 163.987 82.559C164.831 82.0298 165.171 81.4124 165.171 80.3666C165.171 79.3208 164.844 78.7286 164.05 78.3002C163.395 77.9474 163.168 77.8844 161.895 77.708C160.597 77.519 159.917 77.1914 159.69 76.6496C159.262 75.6164 160.156 74.684 161.58 74.684C163.004 74.684 163.798 75.1754 164.113 76.2716C164.302 76.952 164.314 76.952 164.806 76.952C165.285 76.952 165.297 76.952 165.297 76.4732C165.297 75.9314 164.907 75.0116 164.503 74.5832C164.088 74.1296 163.407 73.8272 162.513 73.676C161.605 73.5374 161.416 73.5374 160.673 73.676Z" fill="#605348"></path> <path d="M174.723 73.676C173.904 73.8146 172.669 74.5076 172.14 75.1124C171.888 75.4022 171.548 75.944 171.359 76.322C171.069 76.9268 171.031 77.1788 171.031 78.275C171.031 79.4468 171.056 79.598 171.434 80.3666C171.926 81.362 172.72 82.1306 173.715 82.5968C174.332 82.8866 174.597 82.937 175.63 82.937C176.676 82.937 176.915 82.8992 177.52 82.5968C178.591 82.0676 179.221 81.4628 179.713 80.4548C180.091 79.7114 180.166 79.4342 180.166 78.7664V77.96H178.717H177.268V78.464V78.968H178.15C179.133 78.968 179.171 79.0184 178.856 79.7744C178.352 80.9714 177.004 81.866 175.681 81.866C173.879 81.866 172.606 80.858 172.153 79.0814C171.825 77.7962 172.241 76.5236 173.312 75.5786C174.572 74.4698 176.5 74.4068 177.76 75.4148L178.226 75.7802L178.654 75.4148L179.095 75.0494L178.717 74.7218C177.709 73.8776 176.059 73.4366 174.723 73.676Z" fill="#605348"></path> <path d="M65.125 78.275V82.874H65.629H66.133V78.275V73.676H65.629H65.125V78.275Z" fill="#605348"></path> <path d="M68.7812 78.2624V82.874H69.2853H69.7893V79.3334C69.7893 77.0276 69.8271 75.8306 69.9153 75.881C69.9783 75.9188 71.3517 77.519 72.9519 79.4216C75.7113 82.685 75.8877 82.874 76.2909 82.874H76.7193V78.275V73.676H76.2153H75.7113V77.2166C75.7113 79.5224 75.6735 80.7446 75.5853 80.7068C75.5097 80.6816 74.1363 79.1066 72.5235 77.204C69.9153 74.1296 69.5499 73.739 69.1845 73.7012L68.7812 73.6634V78.2624Z" fill="#605348"></path> <path d="M79.2344 74.243V74.81H81.1244H83.0144V78.842V82.874H83.5184H84.0224V78.842V74.81H85.9124H87.8024V74.243V73.676H83.5184H79.2344V74.243Z" fill="#605348"></path> <path d="M90.2031 78.275V82.874H93.4161H96.6291V82.37V81.866H93.9201H91.2111V80.417V78.968H93.2901H95.3691V78.464V77.96H93.2901H91.2111V76.385V74.81H93.9201H96.6291V74.243V73.676H93.4161H90.2031V78.275Z" fill="#605348"></path> <path d="M108.344 78.275V82.874H108.848H109.352V78.275V73.676H108.848H108.344V78.275Z" fill="#605348"></path> <path d="M140.852 78.2624V82.874H142.716C143.75 82.874 144.921 82.811 145.325 82.7228C146.345 82.5212 147.126 81.9668 147.593 81.11C147.945 80.4422 147.971 80.3414 148.008 78.5774C148.071 76.259 147.908 75.5534 147.101 74.7596C146.282 73.9406 145.715 73.7894 143.094 73.7138L140.852 73.6382V78.2624ZM145.841 75.1754C146.648 75.629 146.912 76.2212 146.988 77.7458C147.076 79.4342 146.887 80.354 146.333 80.9714C145.766 81.5888 145.249 81.74 143.409 81.8282L141.86 81.9038V78.338V74.7848L143.598 74.8352C145.136 74.873 145.375 74.9108 145.841 75.1754Z" fill="#605348"></path> <path d="M150.305 78.275V82.874H153.581H156.857V82.37V81.866H154.148H151.439V80.417V78.968H153.455H155.471V78.464V77.96H153.455H151.439V76.385V74.81H154.148H156.857V74.243V73.676H153.581H150.305V78.275Z" fill="#605348"></path> <path d="M167.562 78.275V82.874H168.129H168.696V78.275V73.676H168.129H167.562V78.275Z" fill="#605348"></path> <path d="M183.062 78.275V82.874H183.567H184.071V79.3334C184.071 77.204 184.121 75.8306 184.184 75.881C184.247 75.9188 185.62 77.5064 187.221 79.409C189.993 82.6976 190.156 82.874 190.572 82.874H191.001V78.275V73.676H190.497H189.993L189.967 77.2922L189.93 80.8958L186.868 77.2922C184.134 74.054 183.768 73.676 183.441 73.676H183.062V78.275Z" fill="#605348"></path> </svg> 