<?xml version="1.0" encoding="UTF-8"?> <svg xmlns="http://www.w3.org/2000/svg" width="167" height="153" viewBox="0 0 167 153" fill="none"> <rect width="167" height="153" fill="white"></rect> <path d="M0.63 9.298C0.63 8.794 0.765333 8.332 1.036 7.912C1.30667 7.492 1.68467 7.15133 2.17 6.89C1.29267 6.358 0.854 5.63467 0.854 4.72C0.854 3.95467 1.176 3.31533 1.82 2.802C2.48267 2.27933 3.29467 2.018 4.256 2.018C5.208 2.018 6.01067 2.27933 6.664 2.802C7.31733 3.31533 7.644 3.95933 7.644 4.734C7.644 5.64867 7.20533 6.36733 6.328 6.89C6.81333 7.15133 7.19133 7.492 7.462 7.912C7.742 8.332 7.882 8.794 7.882 9.298C7.882 10.1193 7.53667 10.8053 6.846 11.356C6.15533 11.9067 5.292 12.182 4.256 12.182C3.22 12.182 2.35667 11.9067 1.666 11.356C0.975333 10.8053 0.63 10.1193 0.63 9.298ZM2.198 9.158C2.198 9.606 2.38933 9.97933 2.772 10.278C3.164 10.5767 3.65867 10.726 4.256 10.726C4.844 10.726 5.32933 10.5813 5.712 10.292C6.104 9.99333 6.3 9.62 6.3 9.172C6.3 8.73333 6.104 8.36467 5.712 8.066C5.32933 7.76733 4.844 7.618 4.256 7.618C3.67733 7.618 3.18733 7.76733 2.786 8.066C2.394 8.35533 2.198 8.71933 2.198 9.158ZM2.436 4.832C2.436 5.23333 2.60867 5.56467 2.954 5.826C3.29933 6.08733 3.73333 6.218 4.256 6.218C4.77867 6.218 5.21267 6.08733 5.558 5.826C5.90333 5.56467 6.076 5.23333 6.076 4.832C6.076 4.45867 5.89867 4.13667 5.544 3.866C5.19867 3.60467 4.76933 3.474 4.256 3.474C3.73333 3.474 3.29933 3.60467 2.954 3.866C2.60867 4.12733 2.436 4.44933 2.436 4.832ZM17.6547 2.018C18.6347 2.018 19.5213 2.256 20.3147 2.732C21.1173 3.208 21.7333 3.85667 22.1627 4.678L20.6367 5.238C20.3287 4.706 19.9133 4.29067 19.3907 3.992C18.868 3.684 18.2893 3.53 17.6547 3.53C16.6653 3.53 15.844 3.87067 15.1907 4.552C14.528 5.24267 14.1967 6.092 14.1967 7.1C14.1967 8.108 14.528 8.95733 15.1907 9.648C15.844 10.3293 16.6653 10.67 17.6547 10.67C18.2893 10.67 18.868 10.5207 19.3907 10.222C19.9133 9.914 20.3287 9.494 20.6367 8.962L22.1627 9.522C21.7333 10.3433 21.1173 10.992 20.3147 11.468C19.5213 11.944 18.6347 12.182 17.6547 12.182C16.208 12.182 14.9993 11.6967 14.0287 10.726C13.058 9.75533 12.5727 8.54667 12.5727 7.1C12.5727 5.65333 13.058 4.44467 14.0287 3.474C14.9993 2.50333 16.208 2.018 17.6547 2.018ZM23.5281 2.2H30.6681V3.656H25.0961V6.316H29.9261V7.772H25.0961V10.544H30.7381V12H23.5281V2.2ZM32.0697 12V2.2H33.6377V6.89L37.7397 2.2H39.7417L35.5557 6.988L40.0217 12H38.0197L33.6377 7.086V12H32.0697ZM41.0215 12V2.2H42.5895V10.544H47.7135V2.2H49.2815V10.544H50.8635V14.38H49.2815V12H41.0215ZM58.8994 4.888L53.4114 12H51.9694V2.2H53.5374V9.354L59.0394 2.2H60.4814V12H58.8994V4.888ZM65.8454 8.374L63.6614 12H61.8974L64.1934 8.192C63.5494 7.97733 63.0314 7.60867 62.6394 7.086C62.2567 6.554 62.0654 5.952 62.0654 5.28C62.0654 4.40267 62.3781 3.67 63.0034 3.082C63.6381 2.494 64.4174 2.2 65.3414 2.2H69.8214V12H68.2534V8.374H65.8454ZM63.6894 5.28C63.6894 5.74667 63.8481 6.13867 64.1654 6.456C64.4827 6.764 64.8747 6.918 65.3414 6.918H68.2534V3.656H65.3414C64.8747 3.656 64.4827 3.81467 64.1654 4.132C63.8481 4.44 63.6894 4.82267 63.6894 5.28Z" fill="#605348"></path> <path d="M4.944 39.468C5.76 39.468 6.5 39.664 7.164 40.056C7.836 40.44 8.364 40.972 8.748 41.652L7.692 42.048C7.404 41.568 7.02 41.192 6.54 40.92C6.06 40.648 5.528 40.512 4.944 40.512C4.024 40.512 3.26 40.828 2.652 41.46C2.036 42.092 1.728 42.872 1.728 43.8C1.728 44.728 2.036 45.512 2.652 46.152C3.268 46.776 4.032 47.088 4.944 47.088C5.528 47.088 6.06 46.952 6.54 46.68C7.02 46.408 7.404 46.032 7.692 45.552L8.748 45.948C8.364 46.628 7.836 47.164 7.164 47.556C6.5 47.94 5.76 48.132 4.944 48.132C3.704 48.132 2.672 47.72 1.848 46.896C1.024 46.072 0.612 45.04 0.612 43.8C0.612 42.568 1.024 41.54 1.848 40.716C2.68 39.884 3.712 39.468 4.944 39.468ZM11.5529 48V42.732H9.21291V41.76H14.9009V42.732H12.5609V48H11.5529ZM17.2627 48.732L17.6347 47.82L15.1507 41.76H16.1947L18.1507 46.608L20.1667 41.76H21.2107L18.1387 49.068C17.9067 49.636 17.6067 50.048 17.2387 50.304C16.8787 50.568 16.4187 50.7 15.8587 50.7H15.5707V49.728H15.8587C16.5147 49.728 16.9827 49.396 17.2627 48.732ZM22.0878 48V49.8H21.0798V47.028H22.0158C22.3758 46.7 22.5558 46.004 22.5558 44.94V41.76H27.4518V47.028H28.5918V49.8H27.5838V48H22.0878ZM23.1318 47.028H26.4438V42.732H23.5638V44.964C23.5638 45.82 23.4198 46.508 23.1318 47.028ZM34.3268 43.452L30.4388 48H29.5868V41.76H30.5948V46.332L34.4828 41.76H35.3348V48H34.3268V43.452ZM41.6717 43.452L37.7837 48H36.9317V41.76H37.9397V46.332L41.8277 41.76H42.6797V48H41.6717V43.452Z" fill="#605348"></path> <path d="M78.9553 48.156C78.0193 48.156 77.2393 47.844 76.6153 47.22C75.9913 46.596 75.6793 45.816 75.6793 44.88C75.6793 43.944 75.9913 43.164 76.6153 42.54C77.2393 41.916 78.0193 41.604 78.9553 41.604C79.8913 41.604 80.6713 41.916 81.2953 42.54C81.9273 43.164 82.2433 43.944 82.2433 44.88C82.2433 45.816 81.9273 46.596 81.2953 47.22C80.6713 47.844 79.8913 48.156 78.9553 48.156ZM78.9553 46.908C79.5313 46.908 80.0033 46.716 80.3713 46.332C80.7553 45.94 80.9473 45.456 80.9473 44.88C80.9473 44.304 80.7553 43.824 80.3713 43.44C80.0033 43.048 79.5313 42.852 78.9553 42.852C78.3953 42.852 77.9233 43.048 77.5393 43.44C77.1633 43.832 76.9753 44.312 76.9753 44.88C76.9753 45.448 77.1633 45.932 77.5393 46.332C77.9233 46.716 78.3953 46.908 78.9553 46.908ZM84.756 48V42.96H82.548V41.76H88.212V42.96H86.004V48H84.756ZM96.2601 42.024C96.2601 41.656 96.1081 41.344 95.8041 41.088C95.5001 40.824 95.1361 40.692 94.7121 40.692C94.3121 40.692 93.9601 40.808 93.6561 41.04C93.3521 41.272 93.1161 41.592 92.9481 42L91.7361 41.424C92.0001 40.816 92.3961 40.336 92.9241 39.984C93.4521 39.624 94.0481 39.444 94.7121 39.444C95.5201 39.444 96.2041 39.696 96.7641 40.2C97.3321 40.696 97.6161 41.292 97.6161 41.988C97.6161 42.428 97.4721 42.876 97.1841 43.332C96.9041 43.78 96.4521 44.3 95.8281 44.892L93.8841 46.752H97.7001V48H91.8801V47.028L95.0001 44.016C95.8401 43.2 96.2601 42.536 96.2601 42.024ZM98.7808 45.168V42.432C98.7808 41.568 99.0848 40.856 99.6928 40.296C100.309 39.728 101.077 39.444 101.997 39.444C102.901 39.444 103.661 39.732 104.277 40.308C104.893 40.876 105.201 41.584 105.201 42.432V45.168C105.201 46.016 104.893 46.728 104.277 47.304C103.661 47.872 102.901 48.156 101.997 48.156C101.077 48.156 100.309 47.872 99.6928 47.304C99.0848 46.744 98.7808 46.032 98.7808 45.168ZM100.077 42.408V45.18C100.077 45.668 100.261 46.08 100.629 46.416C101.005 46.744 101.461 46.908 101.997 46.908C102.533 46.908 102.985 46.744 103.353 46.416C103.721 46.08 103.905 45.668 103.905 45.18V42.408C103.905 41.912 103.721 41.504 103.353 41.184C102.985 40.856 102.533 40.692 101.997 40.692C101.461 40.692 101.005 40.856 100.629 41.184C100.261 41.504 100.077 41.912 100.077 42.408ZM109.369 45.168V42.432C109.369 41.568 109.673 40.856 110.281 40.296C110.897 39.728 111.665 39.444 112.585 39.444C113.489 39.444 114.249 39.732 114.865 40.308C115.481 40.876 115.789 41.584 115.789 42.432V45.168C115.789 46.016 115.481 46.728 114.865 47.304C114.249 47.872 113.489 48.156 112.585 48.156C111.665 48.156 110.897 47.872 110.281 47.304C109.673 46.744 109.369 46.032 109.369 45.168ZM110.665 42.408V45.18C110.665 45.668 110.849 46.08 111.217 46.416C111.593 46.744 112.049 46.908 112.585 46.908C113.121 46.908 113.573 46.744 113.941 46.416C114.309 46.08 114.493 45.668 114.493 45.18V42.408C114.493 41.912 114.309 41.504 113.941 41.184C113.573 40.856 113.121 40.692 112.585 40.692C112.049 40.692 111.593 40.856 111.217 41.184C110.849 41.504 110.665 41.912 110.665 42.408ZM116.89 45.168V42.432C116.89 41.568 117.194 40.856 117.802 40.296C118.418 39.728 119.186 39.444 120.106 39.444C121.01 39.444 121.77 39.732 122.386 40.308C123.002 40.876 123.31 41.584 123.31 42.432V45.168C123.31 46.016 123.002 46.728 122.386 47.304C121.77 47.872 121.01 48.156 120.106 48.156C119.186 48.156 118.418 47.872 117.802 47.304C117.194 46.744 116.89 46.032 116.89 45.168ZM118.186 42.408V45.18C118.186 45.668 118.37 46.08 118.738 46.416C119.114 46.744 119.57 46.908 120.106 46.908C120.642 46.908 121.094 46.744 121.462 46.416C121.83 46.08 122.014 45.668 122.014 45.18V42.408C122.014 41.912 121.83 41.504 121.462 41.184C121.094 40.856 120.642 40.692 120.106 40.692C119.57 40.692 119.114 40.856 118.738 41.184C118.37 41.504 118.186 41.912 118.186 42.408ZM124.41 45.168V42.432C124.41 41.568 124.714 40.856 125.322 40.296C125.938 39.728 126.706 39.444 127.626 39.444C128.53 39.444 129.29 39.732 129.906 40.308C130.522 40.876 130.83 41.584 130.83 42.432V45.168C130.83 46.016 130.522 46.728 129.906 47.304C129.29 47.872 128.53 48.156 127.626 48.156C126.706 48.156 125.938 47.872 125.322 47.304C124.714 46.744 124.41 46.032 124.41 45.168ZM125.706 42.408V45.18C125.706 45.668 125.89 46.08 126.258 46.416C126.634 46.744 127.09 46.908 127.626 46.908C128.162 46.908 128.614 46.744 128.982 46.416C129.35 46.08 129.534 45.668 129.534 45.18V42.408C129.534 41.912 129.35 41.504 128.982 41.184C128.614 40.856 128.162 40.692 127.626 40.692C127.09 40.692 126.634 40.856 126.258 41.184C125.89 41.504 125.706 41.912 125.706 42.408ZM134.998 45.168V42.432C134.998 41.568 135.302 40.856 135.91 40.296C136.526 39.728 137.294 39.444 138.214 39.444C139.118 39.444 139.878 39.732 140.494 40.308C141.11 40.876 141.418 41.584 141.418 42.432V45.168C141.418 46.016 141.11 46.728 140.494 47.304C139.878 47.872 139.118 48.156 138.214 48.156C137.294 48.156 136.526 47.872 135.91 47.304C135.302 46.744 134.998 46.032 134.998 45.168ZM136.294 42.408V45.18C136.294 45.668 136.478 46.08 136.846 46.416C137.222 46.744 137.678 46.908 138.214 46.908C138.75 46.908 139.202 46.744 139.57 46.416C139.938 46.08 140.122 45.668 140.122 45.18V42.408C140.122 41.912 139.938 41.504 139.57 41.184C139.202 40.856 138.75 40.692 138.214 40.692C137.678 40.692 137.222 40.856 136.846 41.184C136.478 41.504 136.294 41.912 136.294 42.408ZM142.519 45.168V42.432C142.519 41.568 142.823 40.856 143.431 40.296C144.047 39.728 144.815 39.444 145.735 39.444C146.639 39.444 147.399 39.732 148.015 40.308C148.631 40.876 148.939 41.584 148.939 42.432V45.168C148.939 46.016 148.631 46.728 148.015 47.304C147.399 47.872 146.639 48.156 145.735 48.156C144.815 48.156 144.047 47.872 143.431 47.304C142.823 46.744 142.519 46.032 142.519 45.168ZM143.815 42.408V45.18C143.815 45.668 143.999 46.08 144.367 46.416C144.743 46.744 145.199 46.908 145.735 46.908C146.271 46.908 146.723 46.744 147.091 46.416C147.459 46.08 147.643 45.668 147.643 45.18V42.408C147.643 41.912 147.459 41.504 147.091 41.184C146.723 40.856 146.271 40.692 145.735 40.692C145.199 40.692 144.743 40.856 144.367 41.184C143.999 41.504 143.815 41.912 143.815 42.408ZM150.039 45.168V42.432C150.039 41.568 150.343 40.856 150.951 40.296C151.567 39.728 152.335 39.444 153.255 39.444C154.159 39.444 154.919 39.732 155.535 40.308C156.151 40.876 156.459 41.584 156.459 42.432V45.168C156.459 46.016 156.151 46.728 155.535 47.304C154.919 47.872 154.159 48.156 153.255 48.156C152.335 48.156 151.567 47.872 150.951 47.304C150.343 46.744 150.039 46.032 150.039 45.168ZM151.335 42.408V45.18C151.335 45.668 151.519 46.08 151.887 46.416C152.263 46.744 152.719 46.908 153.255 46.908C153.791 46.908 154.243 46.744 154.611 46.416C154.979 46.08 155.163 45.668 155.163 45.18V42.408C155.163 41.912 154.979 41.504 154.611 41.184C154.243 40.856 153.791 40.692 153.255 40.692C152.719 40.692 152.263 40.856 151.887 41.184C151.519 41.504 151.335 41.912 151.335 42.408ZM161.18 48V39.432H163.436C164.484 39.432 165.26 39.644 165.764 40.068C166.276 40.492 166.532 41.108 166.532 41.916C166.532 42.46 166.408 42.928 166.16 43.32C165.912 43.704 165.544 44 165.056 44.208C164.576 44.416 163.98 44.52 163.268 44.52H162.26V48H161.18ZM160.136 46.368V45.588H164.24V46.368H160.136ZM160.136 44.52V43.608H162.884V44.52H160.136ZM163.112 43.608C163.6 43.608 164.012 43.556 164.348 43.452C164.692 43.348 164.956 43.176 165.14 42.936C165.324 42.696 165.416 42.368 165.416 41.952C165.416 41.408 165.248 41.004 164.912 40.74C164.576 40.476 164.052 40.344 163.34 40.344H162.26V43.608H163.112Z" fill="#605348"></path> <path d="M2.748 65.932L1.056 66.82L0.6 65.896L3.072 64.6H3.792V73H2.748V65.932ZM5.92228 70.348V69.412H9.11428V70.348H5.92228ZM15.899 73H14.639L11.831 69.772L14.399 66.76H15.635L13.079 69.772L15.899 73ZM11.663 66.76V73H10.655V66.76H11.663ZM17.1233 72.208C16.5073 71.576 16.1993 70.8 16.1993 69.88C16.1993 68.952 16.5073 68.18 17.1233 67.564C17.7473 66.94 18.5233 66.628 19.4513 66.628C20.3793 66.628 21.1553 66.94 21.7793 67.564C22.4033 68.18 22.7153 68.952 22.7153 69.88C22.7153 70.808 22.4033 71.584 21.7793 72.208C21.1473 72.824 20.3713 73.132 19.4513 73.132C18.5313 73.132 17.7553 72.824 17.1233 72.208ZM19.4513 72.124C20.0833 72.124 20.6113 71.912 21.0353 71.488C21.4593 71.048 21.6713 70.512 21.6713 69.88C21.6713 69.24 21.4593 68.708 21.0353 68.284C20.6113 67.852 20.0833 67.636 19.4513 67.636C18.8193 67.636 18.2953 67.852 17.8793 68.284C17.4553 68.708 17.2433 69.24 17.2433 69.88C17.2433 70.512 17.4553 71.048 17.8793 71.488C18.3033 71.912 18.8273 72.124 19.4513 72.124ZM24.9816 68.656V73H23.9736V66.76H24.9816L27.3696 70.912L29.7456 66.76H30.7536V73H29.7456V68.68L27.6816 72.28H27.0576L24.9816 68.656ZM33.3577 70.312V73H32.3497V66.76H33.3577V69.34H37.0777V66.76H38.0857V73H37.0777V70.312H33.3577ZM40.8351 72.412C40.8351 72.62 40.7671 72.792 40.6311 72.928C40.4951 73.064 40.3231 73.132 40.1151 73.132C39.9071 73.132 39.7351 73.064 39.5991 72.928C39.4631 72.792 39.3951 72.62 39.3951 72.412C39.3951 72.204 39.4631 72.032 39.5991 71.896C39.7351 71.76 39.9071 71.692 40.1151 71.692C40.3231 71.692 40.4951 71.764 40.6311 71.908C40.7671 72.044 40.8351 72.212 40.8351 72.412Z" fill="#605348"></path> <path d="M80.8654 73.156C79.9294 73.156 79.1494 72.844 78.5254 72.22C77.9014 71.596 77.5894 70.816 77.5894 69.88C77.5894 68.944 77.9014 68.164 78.5254 67.54C79.1494 66.916 79.9294 66.604 80.8654 66.604C81.8014 66.604 82.5814 66.916 83.2054 67.54C83.8374 68.164 84.1534 68.944 84.1534 69.88C84.1534 70.816 83.8374 71.596 83.2054 72.22C82.5814 72.844 81.8014 73.156 80.8654 73.156ZM80.8654 71.908C81.4414 71.908 81.9134 71.716 82.2814 71.332C82.6654 70.94 82.8574 70.456 82.8574 69.88C82.8574 69.304 82.6654 68.824 82.2814 68.44C81.9134 68.048 81.4414 67.852 80.8654 67.852C80.3054 67.852 79.8334 68.048 79.4494 68.44C79.0734 68.832 78.8854 69.312 78.8854 69.88C78.8854 70.448 79.0734 70.932 79.4494 71.332C79.8334 71.716 80.3054 71.908 80.8654 71.908ZM86.6662 73V67.96H84.4582V66.76H90.1222V67.96H87.9142V73H86.6662ZM95.9262 66.22L94.3542 67.024L93.7902 65.872L96.2982 64.6H97.2222V73H95.9262V66.22ZM99.0492 71.548L100.249 70.96C100.417 71.256 100.653 71.488 100.957 71.656C101.261 71.824 101.601 71.908 101.977 71.908C102.537 71.908 103.001 71.748 103.369 71.428C103.745 71.1 103.933 70.692 103.933 70.204V69.508C103.445 69.924 102.849 70.132 102.145 70.132C101.273 70.132 100.541 69.86 99.9492 69.316C99.3572 68.764 99.0612 68.084 99.0612 67.276C99.0612 66.476 99.3572 65.804 99.9492 65.26C100.541 64.716 101.273 64.444 102.145 64.444C103.017 64.444 103.749 64.716 104.341 65.26C104.933 65.804 105.229 66.472 105.229 67.264V70.192C105.229 71.04 104.917 71.748 104.293 72.316C103.685 72.876 102.913 73.156 101.977 73.156C101.329 73.156 100.745 73.016 100.225 72.736C99.7132 72.448 99.3212 72.052 99.0492 71.548ZM102.145 68.884C102.625 68.884 103.037 68.732 103.381 68.428C103.717 68.116 103.885 67.736 103.885 67.288C103.885 66.824 103.717 66.444 103.381 66.148C103.053 65.844 102.641 65.692 102.145 65.692C101.657 65.692 101.241 65.844 100.897 66.148C100.569 66.452 100.405 66.824 100.405 67.264C100.405 67.728 100.569 68.116 100.897 68.428C101.241 68.732 101.657 68.884 102.145 68.884ZM109.369 70.168V67.432C109.369 66.568 109.673 65.856 110.281 65.296C110.897 64.728 111.665 64.444 112.585 64.444C113.489 64.444 114.249 64.732 114.865 65.308C115.481 65.876 115.789 66.584 115.789 67.432V70.168C115.789 71.016 115.481 71.728 114.865 72.304C114.249 72.872 113.489 73.156 112.585 73.156C111.665 73.156 110.897 72.872 110.281 72.304C109.673 71.744 109.369 71.032 109.369 70.168ZM110.665 67.408V70.18C110.665 70.668 110.849 71.08 111.217 71.416C111.593 71.744 112.049 71.908 112.585 71.908C113.121 71.908 113.573 71.744 113.941 71.416C114.309 71.08 114.493 70.668 114.493 70.18V67.408C114.493 66.912 114.309 66.504 113.941 66.184C113.573 65.856 113.121 65.692 112.585 65.692C112.049 65.692 111.593 65.856 111.217 66.184C110.849 66.504 110.665 66.912 110.665 67.408ZM116.89 70.168V67.432C116.89 66.568 117.194 65.856 117.802 65.296C118.418 64.728 119.186 64.444 120.106 64.444C121.01 64.444 121.77 64.732 122.386 65.308C123.002 65.876 123.31 66.584 123.31 67.432V70.168C123.31 71.016 123.002 71.728 122.386 72.304C121.77 72.872 121.01 73.156 120.106 73.156C119.186 73.156 118.418 72.872 117.802 72.304C117.194 71.744 116.89 71.032 116.89 70.168ZM118.186 67.408V70.18C118.186 70.668 118.37 71.08 118.738 71.416C119.114 71.744 119.57 71.908 120.106 71.908C120.642 71.908 121.094 71.744 121.462 71.416C121.83 71.08 122.014 70.668 122.014 70.18V67.408C122.014 66.912 121.83 66.504 121.462 66.184C121.094 65.856 120.642 65.692 120.106 65.692C119.57 65.692 119.114 65.856 118.738 66.184C118.37 66.504 118.186 66.912 118.186 67.408ZM124.41 70.168V67.432C124.41 66.568 124.714 65.856 125.322 65.296C125.938 64.728 126.706 64.444 127.626 64.444C128.53 64.444 129.29 64.732 129.906 65.308C130.522 65.876 130.83 66.584 130.83 67.432V70.168C130.83 71.016 130.522 71.728 129.906 72.304C129.29 72.872 128.53 73.156 127.626 73.156C126.706 73.156 125.938 72.872 125.322 72.304C124.714 71.744 124.41 71.032 124.41 70.168ZM125.706 67.408V70.18C125.706 70.668 125.89 71.08 126.258 71.416C126.634 71.744 127.09 71.908 127.626 71.908C128.162 71.908 128.614 71.744 128.982 71.416C129.35 71.08 129.534 70.668 129.534 70.18V67.408C129.534 66.912 129.35 66.504 128.982 66.184C128.614 65.856 128.162 65.692 127.626 65.692C127.09 65.692 126.634 65.856 126.258 66.184C125.89 66.504 125.706 66.912 125.706 67.408ZM134.998 70.168V67.432C134.998 66.568 135.302 65.856 135.91 65.296C136.526 64.728 137.294 64.444 138.214 64.444C139.118 64.444 139.878 64.732 140.494 65.308C141.11 65.876 141.418 66.584 141.418 67.432V70.168C141.418 71.016 141.11 71.728 140.494 72.304C139.878 72.872 139.118 73.156 138.214 73.156C137.294 73.156 136.526 72.872 135.91 72.304C135.302 71.744 134.998 71.032 134.998 70.168ZM136.294 67.408V70.18C136.294 70.668 136.478 71.08 136.846 71.416C137.222 71.744 137.678 71.908 138.214 71.908C138.75 71.908 139.202 71.744 139.57 71.416C139.938 71.08 140.122 70.668 140.122 70.18V67.408C140.122 66.912 139.938 66.504 139.57 66.184C139.202 65.856 138.75 65.692 138.214 65.692C137.678 65.692 137.222 65.856 136.846 66.184C136.478 66.504 136.294 66.912 136.294 67.408ZM142.519 70.168V67.432C142.519 66.568 142.823 65.856 143.431 65.296C144.047 64.728 144.815 64.444 145.735 64.444C146.639 64.444 147.399 64.732 148.015 65.308C148.631 65.876 148.939 66.584 148.939 67.432V70.168C148.939 71.016 148.631 71.728 148.015 72.304C147.399 72.872 146.639 73.156 145.735 73.156C144.815 73.156 144.047 72.872 143.431 72.304C142.823 71.744 142.519 71.032 142.519 70.168ZM143.815 67.408V70.18C143.815 70.668 143.999 71.08 144.367 71.416C144.743 71.744 145.199 71.908 145.735 71.908C146.271 71.908 146.723 71.744 147.091 71.416C147.459 71.08 147.643 70.668 147.643 70.18V67.408C147.643 66.912 147.459 66.504 147.091 66.184C146.723 65.856 146.271 65.692 145.735 65.692C145.199 65.692 144.743 65.856 144.367 66.184C143.999 66.504 143.815 66.912 143.815 67.408ZM150.039 70.168V67.432C150.039 66.568 150.343 65.856 150.951 65.296C151.567 64.728 152.335 64.444 153.255 64.444C154.159 64.444 154.919 64.732 155.535 65.308C156.151 65.876 156.459 66.584 156.459 67.432V70.168C156.459 71.016 156.151 71.728 155.535 72.304C154.919 72.872 154.159 73.156 153.255 73.156C152.335 73.156 151.567 72.872 150.951 72.304C150.343 71.744 150.039 71.032 150.039 70.168ZM151.335 67.408V70.18C151.335 70.668 151.519 71.08 151.887 71.416C152.263 71.744 152.719 71.908 153.255 71.908C153.791 71.908 154.243 71.744 154.611 71.416C154.979 71.08 155.163 70.668 155.163 70.18V67.408C155.163 66.912 154.979 66.504 154.611 66.184C154.243 65.856 153.791 65.692 153.255 65.692C152.719 65.692 152.263 65.856 151.887 66.184C151.519 66.504 151.335 66.912 151.335 67.408ZM161.18 73V64.432H163.436C164.484 64.432 165.26 64.644 165.764 65.068C166.276 65.492 166.532 66.108 166.532 66.916C166.532 67.46 166.408 67.928 166.16 68.32C165.912 68.704 165.544 69 165.056 69.208C164.576 69.416 163.98 69.52 163.268 69.52H162.26V73H161.18ZM160.136 71.368V70.588H164.24V71.368H160.136ZM160.136 69.52V68.608H162.884V69.52H160.136ZM163.112 68.608C163.6 68.608 164.012 68.556 164.348 68.452C164.692 68.348 164.956 68.176 165.14 67.936C165.324 67.696 165.416 67.368 165.416 66.952C165.416 66.408 165.248 66.004 164.912 65.74C164.576 65.476 164.052 65.344 163.34 65.344H162.26V68.608H163.112Z" fill="#605348"></path> <path d="M5.148 92.012C5.148 91.588 4.976 91.228 4.632 90.932C4.28 90.628 3.864 90.476 3.384 90.476C2.952 90.476 2.568 90.604 2.232 90.86C1.896 91.108 1.644 91.448 1.476 91.88L0.504 91.412C0.752 90.812 1.132 90.34 1.644 89.996C2.156 89.644 2.736 89.468 3.384 89.468C4.184 89.468 4.856 89.712 5.4 90.2C5.952 90.688 6.228 91.28 6.228 91.976C6.228 92.424 6.088 92.868 5.808 93.308C5.536 93.74 5.092 94.252 4.476 94.844L2.232 96.992H6.348V98H0.6V97.22L3.78 94.148C4.276 93.66 4.628 93.264 4.836 92.96C5.044 92.648 5.148 92.332 5.148 92.012ZM7.68009 95.348V94.412H10.8721V95.348H7.68009ZM17.6568 98H16.3968L13.5888 94.772L16.1568 91.76H17.3928L14.8368 94.772L17.6568 98ZM13.4208 91.76V98H12.4128V91.76H13.4208ZM18.8811 97.208C18.2651 96.576 17.9571 95.8 17.9571 94.88C17.9571 93.952 18.2651 93.18 18.8811 92.564C19.5051 91.94 20.2811 91.628 21.2091 91.628C22.1371 91.628 22.9131 91.94 23.5371 92.564C24.1611 93.18 24.4731 93.952 24.4731 94.88C24.4731 95.808 24.1611 96.584 23.5371 97.208C22.9051 97.824 22.1291 98.132 21.2091 98.132C20.2891 98.132 19.5131 97.824 18.8811 97.208ZM21.2091 97.124C21.8411 97.124 22.3691 96.912 22.7931 96.488C23.2171 96.048 23.4291 95.512 23.4291 94.88C23.4291 94.24 23.2171 93.708 22.7931 93.284C22.3691 92.852 21.8411 92.636 21.2091 92.636C20.5771 92.636 20.0531 92.852 19.6371 93.284C19.2131 93.708 19.0011 94.24 19.0011 94.88C19.0011 95.512 19.2131 96.048 19.6371 96.488C20.0611 96.912 20.5851 97.124 21.2091 97.124ZM26.7394 93.656V98H25.7314V91.76H26.7394L29.1274 95.912L31.5034 91.76H32.5114V98H31.5034V93.68L29.4394 97.28H28.8154L26.7394 93.656ZM35.1155 95.312V98H34.1075V91.76H35.1155V94.34H38.8355V91.76H39.8435V98H38.8355V95.312H35.1155ZM42.5929 97.412C42.5929 97.62 42.5249 97.792 42.3889 97.928C42.2529 98.064 42.0809 98.132 41.8729 98.132C41.6649 98.132 41.4929 98.064 41.3569 97.928C41.2209 97.792 41.1529 97.62 41.1529 97.412C41.1529 97.204 41.2209 97.032 41.3569 96.896C41.4929 96.76 41.6649 96.692 41.8729 96.692C42.0809 96.692 42.2529 96.764 42.3889 96.908C42.5249 97.044 42.5929 97.212 42.5929 97.412Z" fill="#605348"></path> <path d="M80.8654 98.156C79.9294 98.156 79.1494 97.844 78.5254 97.22C77.9014 96.596 77.5894 95.816 77.5894 94.88C77.5894 93.944 77.9014 93.164 78.5254 92.54C79.1494 91.916 79.9294 91.604 80.8654 91.604C81.8014 91.604 82.5814 91.916 83.2054 92.54C83.8374 93.164 84.1534 93.944 84.1534 94.88C84.1534 95.816 83.8374 96.596 83.2054 97.22C82.5814 97.844 81.8014 98.156 80.8654 98.156ZM80.8654 96.908C81.4414 96.908 81.9134 96.716 82.2814 96.332C82.6654 95.94 82.8574 95.456 82.8574 94.88C82.8574 94.304 82.6654 93.824 82.2814 93.44C81.9134 93.048 81.4414 92.852 80.8654 92.852C80.3054 92.852 79.8334 93.048 79.4494 93.44C79.0734 93.832 78.8854 94.312 78.8854 94.88C78.8854 95.448 79.0734 95.932 79.4494 96.332C79.8334 96.716 80.3054 96.908 80.8654 96.908ZM86.6662 98V92.96H84.4582V91.76H90.1222V92.96H87.9142V98H86.6662ZM95.9262 91.22L94.3542 92.024L93.7902 90.872L96.2982 89.6H97.2222V98H95.9262V91.22ZM99.0492 96.548L100.249 95.96C100.417 96.256 100.653 96.488 100.957 96.656C101.261 96.824 101.601 96.908 101.977 96.908C102.537 96.908 103.001 96.748 103.369 96.428C103.745 96.1 103.933 95.692 103.933 95.204V94.508C103.445 94.924 102.849 95.132 102.145 95.132C101.273 95.132 100.541 94.86 99.9492 94.316C99.3572 93.764 99.0612 93.084 99.0612 92.276C99.0612 91.476 99.3572 90.804 99.9492 90.26C100.541 89.716 101.273 89.444 102.145 89.444C103.017 89.444 103.749 89.716 104.341 90.26C104.933 90.804 105.229 91.472 105.229 92.264V95.192C105.229 96.04 104.917 96.748 104.293 97.316C103.685 97.876 102.913 98.156 101.977 98.156C101.329 98.156 100.745 98.016 100.225 97.736C99.7132 97.448 99.3212 97.052 99.0492 96.548ZM102.145 93.884C102.625 93.884 103.037 93.732 103.381 93.428C103.717 93.116 103.885 92.736 103.885 92.288C103.885 91.824 103.717 91.444 103.381 91.148C103.053 90.844 102.641 90.692 102.145 90.692C101.657 90.692 101.241 90.844 100.897 91.148C100.569 91.452 100.405 91.824 100.405 92.264C100.405 92.728 100.569 93.116 100.897 93.428C101.241 93.732 101.657 93.884 102.145 93.884ZM109.369 95.168V92.432C109.369 91.568 109.673 90.856 110.281 90.296C110.897 89.728 111.665 89.444 112.585 89.444C113.489 89.444 114.249 89.732 114.865 90.308C115.481 90.876 115.789 91.584 115.789 92.432V95.168C115.789 96.016 115.481 96.728 114.865 97.304C114.249 97.872 113.489 98.156 112.585 98.156C111.665 98.156 110.897 97.872 110.281 97.304C109.673 96.744 109.369 96.032 109.369 95.168ZM110.665 92.408V95.18C110.665 95.668 110.849 96.08 111.217 96.416C111.593 96.744 112.049 96.908 112.585 96.908C113.121 96.908 113.573 96.744 113.941 96.416C114.309 96.08 114.493 95.668 114.493 95.18V92.408C114.493 91.912 114.309 91.504 113.941 91.184C113.573 90.856 113.121 90.692 112.585 90.692C112.049 90.692 111.593 90.856 111.217 91.184C110.849 91.504 110.665 91.912 110.665 92.408ZM116.89 95.168V92.432C116.89 91.568 117.194 90.856 117.802 90.296C118.418 89.728 119.186 89.444 120.106 89.444C121.01 89.444 121.77 89.732 122.386 90.308C123.002 90.876 123.31 91.584 123.31 92.432V95.168C123.31 96.016 123.002 96.728 122.386 97.304C121.77 97.872 121.01 98.156 120.106 98.156C119.186 98.156 118.418 97.872 117.802 97.304C117.194 96.744 116.89 96.032 116.89 95.168ZM118.186 92.408V95.18C118.186 95.668 118.37 96.08 118.738 96.416C119.114 96.744 119.57 96.908 120.106 96.908C120.642 96.908 121.094 96.744 121.462 96.416C121.83 96.08 122.014 95.668 122.014 95.18V92.408C122.014 91.912 121.83 91.504 121.462 91.184C121.094 90.856 120.642 90.692 120.106 90.692C119.57 90.692 119.114 90.856 118.738 91.184C118.37 91.504 118.186 91.912 118.186 92.408ZM124.41 95.168V92.432C124.41 91.568 124.714 90.856 125.322 90.296C125.938 89.728 126.706 89.444 127.626 89.444C128.53 89.444 129.29 89.732 129.906 90.308C130.522 90.876 130.83 91.584 130.83 92.432V95.168C130.83 96.016 130.522 96.728 129.906 97.304C129.29 97.872 128.53 98.156 127.626 98.156C126.706 98.156 125.938 97.872 125.322 97.304C124.714 96.744 124.41 96.032 124.41 95.168ZM125.706 92.408V95.18C125.706 95.668 125.89 96.08 126.258 96.416C126.634 96.744 127.09 96.908 127.626 96.908C128.162 96.908 128.614 96.744 128.982 96.416C129.35 96.08 129.534 95.668 129.534 95.18V92.408C129.534 91.912 129.35 91.504 128.982 91.184C128.614 90.856 128.162 90.692 127.626 90.692C127.09 90.692 126.634 90.856 126.258 91.184C125.89 91.504 125.706 91.912 125.706 92.408ZM134.998 95.168V92.432C134.998 91.568 135.302 90.856 135.91 90.296C136.526 89.728 137.294 89.444 138.214 89.444C139.118 89.444 139.878 89.732 140.494 90.308C141.11 90.876 141.418 91.584 141.418 92.432V95.168C141.418 96.016 141.11 96.728 140.494 97.304C139.878 97.872 139.118 98.156 138.214 98.156C137.294 98.156 136.526 97.872 135.91 97.304C135.302 96.744 134.998 96.032 134.998 95.168ZM136.294 92.408V95.18C136.294 95.668 136.478 96.08 136.846 96.416C137.222 96.744 137.678 96.908 138.214 96.908C138.75 96.908 139.202 96.744 139.57 96.416C139.938 96.08 140.122 95.668 140.122 95.18V92.408C140.122 91.912 139.938 91.504 139.57 91.184C139.202 90.856 138.75 90.692 138.214 90.692C137.678 90.692 137.222 90.856 136.846 91.184C136.478 91.504 136.294 91.912 136.294 92.408ZM142.519 95.168V92.432C142.519 91.568 142.823 90.856 143.431 90.296C144.047 89.728 144.815 89.444 145.735 89.444C146.639 89.444 147.399 89.732 148.015 90.308C148.631 90.876 148.939 91.584 148.939 92.432V95.168C148.939 96.016 148.631 96.728 148.015 97.304C147.399 97.872 146.639 98.156 145.735 98.156C144.815 98.156 144.047 97.872 143.431 97.304C142.823 96.744 142.519 96.032 142.519 95.168ZM143.815 92.408V95.18C143.815 95.668 143.999 96.08 144.367 96.416C144.743 96.744 145.199 96.908 145.735 96.908C146.271 96.908 146.723 96.744 147.091 96.416C147.459 96.08 147.643 95.668 147.643 95.18V92.408C147.643 91.912 147.459 91.504 147.091 91.184C146.723 90.856 146.271 90.692 145.735 90.692C145.199 90.692 144.743 90.856 144.367 91.184C143.999 91.504 143.815 91.912 143.815 92.408ZM150.039 95.168V92.432C150.039 91.568 150.343 90.856 150.951 90.296C151.567 89.728 152.335 89.444 153.255 89.444C154.159 89.444 154.919 89.732 155.535 90.308C156.151 90.876 156.459 91.584 156.459 92.432V95.168C156.459 96.016 156.151 96.728 155.535 97.304C154.919 97.872 154.159 98.156 153.255 98.156C152.335 98.156 151.567 97.872 150.951 97.304C150.343 96.744 150.039 96.032 150.039 95.168ZM151.335 92.408V95.18C151.335 95.668 151.519 96.08 151.887 96.416C152.263 96.744 152.719 96.908 153.255 96.908C153.791 96.908 154.243 96.744 154.611 96.416C154.979 96.08 155.163 95.668 155.163 95.18V92.408C155.163 91.912 154.979 91.504 154.611 91.184C154.243 90.856 153.791 90.692 153.255 90.692C152.719 90.692 152.263 90.856 151.887 91.184C151.519 91.504 151.335 91.912 151.335 92.408ZM161.18 98V89.432H163.436C164.484 89.432 165.26 89.644 165.764 90.068C166.276 90.492 166.532 91.108 166.532 91.916C166.532 92.46 166.408 92.928 166.16 93.32C165.912 93.704 165.544 94 165.056 94.208C164.576 94.416 163.98 94.52 163.268 94.52H162.26V98H161.18ZM160.136 96.368V95.588H164.24V96.368H160.136ZM160.136 94.52V93.608H162.884V94.52H160.136ZM163.112 93.608C163.6 93.608 164.012 93.556 164.348 93.452C164.692 93.348 164.956 93.176 165.14 92.936C165.324 92.696 165.416 92.368 165.416 91.952C165.416 91.408 165.248 91.004 164.912 90.74C164.576 90.476 164.052 90.344 163.34 90.344H162.26V93.608H163.112Z" fill="#605348"></path> <path d="M5.172 116.832C5.172 116.44 5 116.12 4.656 115.872C4.304 115.608 3.872 115.476 3.36 115.476C2.936 115.476 2.564 115.564 2.244 115.74C1.932 115.908 1.704 116.14 1.56 116.436L0.612 115.98C0.844 115.516 1.204 115.148 1.692 114.876C2.188 114.604 2.744 114.468 3.36 114.468C4.176 114.468 4.864 114.692 5.424 115.14C5.976 115.58 6.252 116.132 6.252 116.796C6.252 117.188 6.144 117.548 5.928 117.876C5.712 118.204 5.416 118.464 5.04 118.656C5.48 118.856 5.824 119.136 6.072 119.496C6.328 119.856 6.456 120.256 6.456 120.696C6.456 121.392 6.164 121.972 5.58 122.436C4.996 122.9 4.272 123.132 3.408 123.132C2.72 123.132 2.116 122.984 1.596 122.688C1.076 122.384 0.708 121.976 0.492 121.464L1.512 121.092C1.64 121.404 1.872 121.656 2.208 121.848C2.552 122.032 2.952 122.124 3.408 122.124C3.968 122.124 4.436 121.984 4.812 121.704C5.188 121.424 5.376 121.072 5.376 120.648C5.376 120.232 5.192 119.888 4.824 119.616C4.448 119.336 3.992 119.196 3.456 119.196H2.82V118.224H3.276C3.812 118.224 4.26 118.092 4.62 117.828C4.988 117.564 5.172 117.232 5.172 116.832ZM7.75041 120.348V119.412H10.9424V120.348H7.75041ZM17.7271 123H16.4671L13.6591 119.772L16.2271 116.76H17.4631L14.9071 119.772L17.7271 123ZM13.4911 116.76V123H12.4831V116.76H13.4911ZM18.9514 122.208C18.3354 121.576 18.0274 120.8 18.0274 119.88C18.0274 118.952 18.3354 118.18 18.9514 117.564C19.5754 116.94 20.3514 116.628 21.2794 116.628C22.2074 116.628 22.9834 116.94 23.6074 117.564C24.2314 118.18 24.5434 118.952 24.5434 119.88C24.5434 120.808 24.2314 121.584 23.6074 122.208C22.9754 122.824 22.1994 123.132 21.2794 123.132C20.3594 123.132 19.5834 122.824 18.9514 122.208ZM21.2794 122.124C21.9114 122.124 22.4394 121.912 22.8634 121.488C23.2874 121.048 23.4994 120.512 23.4994 119.88C23.4994 119.24 23.2874 118.708 22.8634 118.284C22.4394 117.852 21.9114 117.636 21.2794 117.636C20.6474 117.636 20.1234 117.852 19.7074 118.284C19.2834 118.708 19.0714 119.24 19.0714 119.88C19.0714 120.512 19.2834 121.048 19.7074 121.488C20.1314 121.912 20.6554 122.124 21.2794 122.124ZM26.8097 118.656V123H25.8017V116.76H26.8097L29.1977 120.912L31.5737 116.76H32.5817V123H31.5737V118.68L29.5097 122.28H28.8857L26.8097 118.656ZM35.1858 120.312V123H34.1778V116.76H35.1858V119.34H38.9058V116.76H39.9138V123H38.9058V120.312H35.1858ZM42.6632 122.412C42.6632 122.62 42.5952 122.792 42.4592 122.928C42.3232 123.064 42.1512 123.132 41.9432 123.132C41.7352 123.132 41.5632 123.064 41.4272 122.928C41.2912 122.792 41.2232 122.62 41.2232 122.412C41.2232 122.204 41.2912 122.032 41.4272 121.896C41.5632 121.76 41.7352 121.692 41.9432 121.692C42.1512 121.692 42.3232 121.764 42.4592 121.908C42.5952 122.044 42.6632 122.212 42.6632 122.412Z" fill="#605348"></path> <path d="M79.6232 123.156C78.6872 123.156 77.9072 122.844 77.2832 122.22C76.6592 121.596 76.3472 120.816 76.3472 119.88C76.3472 118.944 76.6592 118.164 77.2832 117.54C77.9072 116.916 78.6872 116.604 79.6232 116.604C80.5592 116.604 81.3392 116.916 81.9632 117.54C82.5952 118.164 82.9112 118.944 82.9112 119.88C82.9112 120.816 82.5952 121.596 81.9632 122.22C81.3392 122.844 80.5592 123.156 79.6232 123.156ZM79.6232 121.908C80.1992 121.908 80.6712 121.716 81.0392 121.332C81.4232 120.94 81.6152 120.456 81.6152 119.88C81.6152 119.304 81.4232 118.824 81.0392 118.44C80.6712 118.048 80.1992 117.852 79.6232 117.852C79.0632 117.852 78.5912 118.048 78.2072 118.44C77.8312 118.832 77.6432 119.312 77.6432 119.88C77.6432 120.448 77.8312 120.932 78.2072 121.332C78.5912 121.716 79.0632 121.908 79.6232 121.908ZM85.424 123V117.96H83.216V116.76H88.88V117.96H86.672V123H85.424ZM96.9281 117.024C96.9281 116.656 96.7761 116.344 96.4721 116.088C96.1681 115.824 95.8041 115.692 95.3801 115.692C94.9801 115.692 94.6281 115.808 94.3241 116.04C94.0201 116.272 93.7841 116.592 93.6161 117L92.4041 116.424C92.6681 115.816 93.0641 115.336 93.5921 114.984C94.1201 114.624 94.7161 114.444 95.3801 114.444C96.1881 114.444 96.8721 114.696 97.4321 115.2C98.0001 115.696 98.2841 116.292 98.2841 116.988C98.2841 117.428 98.1401 117.876 97.8521 118.332C97.5721 118.78 97.1201 119.3 96.4961 119.892L94.5521 121.752H98.3681V123H92.5481V122.028L95.6681 119.016C96.5081 118.2 96.9281 117.536 96.9281 117.024ZM103.781 117.024C103.781 116.656 103.629 116.344 103.325 116.088C103.021 115.824 102.657 115.692 102.233 115.692C101.833 115.692 101.481 115.808 101.177 116.04C100.873 116.272 100.637 116.592 100.469 117L99.2567 116.424C99.5207 115.816 99.9167 115.336 100.445 114.984C100.973 114.624 101.569 114.444 102.233 114.444C103.041 114.444 103.725 114.696 104.285 115.2C104.853 115.696 105.137 116.292 105.137 116.988C105.137 117.428 104.993 117.876 104.705 118.332C104.425 118.78 103.973 119.3 103.349 119.892L101.405 121.752H105.221V123H99.4007V122.028L102.521 119.016C103.361 118.2 103.781 117.536 103.781 117.024ZM109.369 120.168V117.432C109.369 116.568 109.673 115.856 110.281 115.296C110.897 114.728 111.665 114.444 112.585 114.444C113.489 114.444 114.249 114.732 114.865 115.308C115.481 115.876 115.789 116.584 115.789 117.432V120.168C115.789 121.016 115.481 121.728 114.865 122.304C114.249 122.872 113.489 123.156 112.585 123.156C111.665 123.156 110.897 122.872 110.281 122.304C109.673 121.744 109.369 121.032 109.369 120.168ZM110.665 117.408V120.18C110.665 120.668 110.849 121.08 111.217 121.416C111.593 121.744 112.049 121.908 112.585 121.908C113.121 121.908 113.573 121.744 113.941 121.416C114.309 121.08 114.493 120.668 114.493 120.18V117.408C114.493 116.912 114.309 116.504 113.941 116.184C113.573 115.856 113.121 115.692 112.585 115.692C112.049 115.692 111.593 115.856 111.217 116.184C110.849 116.504 110.665 116.912 110.665 117.408ZM116.89 120.168V117.432C116.89 116.568 117.194 115.856 117.802 115.296C118.418 114.728 119.186 114.444 120.106 114.444C121.01 114.444 121.77 114.732 122.386 115.308C123.002 115.876 123.31 116.584 123.31 117.432V120.168C123.31 121.016 123.002 121.728 122.386 122.304C121.77 122.872 121.01 123.156 120.106 123.156C119.186 123.156 118.418 122.872 117.802 122.304C117.194 121.744 116.89 121.032 116.89 120.168ZM118.186 117.408V120.18C118.186 120.668 118.37 121.08 118.738 121.416C119.114 121.744 119.57 121.908 120.106 121.908C120.642 121.908 121.094 121.744 121.462 121.416C121.83 121.08 122.014 120.668 122.014 120.18V117.408C122.014 116.912 121.83 116.504 121.462 116.184C121.094 115.856 120.642 115.692 120.106 115.692C119.57 115.692 119.114 115.856 118.738 116.184C118.37 116.504 118.186 116.912 118.186 117.408ZM124.41 120.168V117.432C124.41 116.568 124.714 115.856 125.322 115.296C125.938 114.728 126.706 114.444 127.626 114.444C128.53 114.444 129.29 114.732 129.906 115.308C130.522 115.876 130.83 116.584 130.83 117.432V120.168C130.83 121.016 130.522 121.728 129.906 122.304C129.29 122.872 128.53 123.156 127.626 123.156C126.706 123.156 125.938 122.872 125.322 122.304C124.714 121.744 124.41 121.032 124.41 120.168ZM125.706 117.408V120.18C125.706 120.668 125.89 121.08 126.258 121.416C126.634 121.744 127.09 121.908 127.626 121.908C128.162 121.908 128.614 121.744 128.982 121.416C129.35 121.08 129.534 120.668 129.534 120.18V117.408C129.534 116.912 129.35 116.504 128.982 116.184C128.614 115.856 128.162 115.692 127.626 115.692C127.09 115.692 126.634 115.856 126.258 116.184C125.89 116.504 125.706 116.912 125.706 117.408ZM134.998 120.168V117.432C134.998 116.568 135.302 115.856 135.91 115.296C136.526 114.728 137.294 114.444 138.214 114.444C139.118 114.444 139.878 114.732 140.494 115.308C141.11 115.876 141.418 116.584 141.418 117.432V120.168C141.418 121.016 141.11 121.728 140.494 122.304C139.878 122.872 139.118 123.156 138.214 123.156C137.294 123.156 136.526 122.872 135.91 122.304C135.302 121.744 134.998 121.032 134.998 120.168ZM136.294 117.408V120.18C136.294 120.668 136.478 121.08 136.846 121.416C137.222 121.744 137.678 121.908 138.214 121.908C138.75 121.908 139.202 121.744 139.57 121.416C139.938 121.08 140.122 120.668 140.122 120.18V117.408C140.122 116.912 139.938 116.504 139.57 116.184C139.202 115.856 138.75 115.692 138.214 115.692C137.678 115.692 137.222 115.856 136.846 116.184C136.478 116.504 136.294 116.912 136.294 117.408ZM142.519 120.168V117.432C142.519 116.568 142.823 115.856 143.431 115.296C144.047 114.728 144.815 114.444 145.735 114.444C146.639 114.444 147.399 114.732 148.015 115.308C148.631 115.876 148.939 116.584 148.939 117.432V120.168C148.939 121.016 148.631 121.728 148.015 122.304C147.399 122.872 146.639 123.156 145.735 123.156C144.815 123.156 144.047 122.872 143.431 122.304C142.823 121.744 142.519 121.032 142.519 120.168ZM143.815 117.408V120.18C143.815 120.668 143.999 121.08 144.367 121.416C144.743 121.744 145.199 121.908 145.735 121.908C146.271 121.908 146.723 121.744 147.091 121.416C147.459 121.08 147.643 120.668 147.643 120.18V117.408C147.643 116.912 147.459 116.504 147.091 116.184C146.723 115.856 146.271 115.692 145.735 115.692C145.199 115.692 144.743 115.856 144.367 116.184C143.999 116.504 143.815 116.912 143.815 117.408ZM150.039 120.168V117.432C150.039 116.568 150.343 115.856 150.951 115.296C151.567 114.728 152.335 114.444 153.255 114.444C154.159 114.444 154.919 114.732 155.535 115.308C156.151 115.876 156.459 116.584 156.459 117.432V120.168C156.459 121.016 156.151 121.728 155.535 122.304C154.919 122.872 154.159 123.156 153.255 123.156C152.335 123.156 151.567 122.872 150.951 122.304C150.343 121.744 150.039 121.032 150.039 120.168ZM151.335 117.408V120.18C151.335 120.668 151.519 121.08 151.887 121.416C152.263 121.744 152.719 121.908 153.255 121.908C153.791 121.908 154.243 121.744 154.611 121.416C154.979 121.08 155.163 120.668 155.163 120.18V117.408C155.163 116.912 154.979 116.504 154.611 116.184C154.243 115.856 153.791 115.692 153.255 115.692C152.719 115.692 152.263 115.856 151.887 116.184C151.519 116.504 151.335 116.912 151.335 117.408ZM161.18 123V114.432H163.436C164.484 114.432 165.26 114.644 165.764 115.068C166.276 115.492 166.532 116.108 166.532 116.916C166.532 117.46 166.408 117.928 166.16 118.32C165.912 118.704 165.544 119 165.056 119.208C164.576 119.416 163.98 119.52 163.268 119.52H162.26V123H161.18ZM160.136 121.368V120.588H164.24V121.368H160.136ZM160.136 119.52V118.608H162.884V119.52H160.136ZM163.112 118.608C163.6 118.608 164.012 118.556 164.348 118.452C164.692 118.348 164.956 118.176 165.14 117.936C165.324 117.696 165.416 117.368 165.416 116.952C165.416 116.408 165.248 116.004 164.912 115.74C164.576 115.476 164.052 115.344 163.34 115.344H162.26V118.608H163.112Z" fill="#605348"></path> <path d="M5.136 148V146.272H0.504V145.264L5.208 139.6H6.192V145.252H7.392V146.272H6.192V148H5.136ZM5.136 141.208L1.776 145.252H5.136V141.208ZM8.53556 145.348V144.412H11.7276V145.348H8.53556ZM18.5123 148H17.2523L14.4443 144.772L17.0123 141.76H18.2483L15.6923 144.772L18.5123 148ZM14.2763 141.76V148H13.2683V141.76H14.2763ZM19.7365 147.208C19.1205 146.576 18.8125 145.8 18.8125 144.88C18.8125 143.952 19.1205 143.18 19.7365 142.564C20.3605 141.94 21.1365 141.628 22.0645 141.628C22.9925 141.628 23.7685 141.94 24.3925 142.564C25.0165 143.18 25.3285 143.952 25.3285 144.88C25.3285 145.808 25.0165 146.584 24.3925 147.208C23.7605 147.824 22.9845 148.132 22.0645 148.132C21.1445 148.132 20.3685 147.824 19.7365 147.208ZM22.0645 147.124C22.6965 147.124 23.2245 146.912 23.6485 146.488C24.0725 146.048 24.2845 145.512 24.2845 144.88C24.2845 144.24 24.0725 143.708 23.6485 143.284C23.2245 142.852 22.6965 142.636 22.0645 142.636C21.4325 142.636 20.9085 142.852 20.4925 143.284C20.0685 143.708 19.8565 144.24 19.8565 144.88C19.8565 145.512 20.0685 146.048 20.4925 146.488C20.9165 146.912 21.4405 147.124 22.0645 147.124ZM27.5948 143.656V148H26.5868V141.76H27.5948L29.9828 145.912L32.3588 141.76H33.3668V148H32.3588V143.68L30.2948 147.28H29.6708L27.5948 143.656ZM35.9709 145.312V148H34.9629V141.76H35.9709V144.34H39.6909V141.76H40.6989V148H39.6909V145.312H35.9709ZM43.4483 147.412C43.4483 147.62 43.3803 147.792 43.2443 147.928C43.1083 148.064 42.9363 148.132 42.7283 148.132C42.5203 148.132 42.3483 148.064 42.2123 147.928C42.0763 147.792 42.0083 147.62 42.0083 147.412C42.0083 147.204 42.0763 147.032 42.2123 146.896C42.3483 146.76 42.5203 146.692 42.7283 146.692C42.9363 146.692 43.1083 146.764 43.2443 146.908C43.3803 147.044 43.4483 147.212 43.4483 147.412Z" fill="#605348"></path> <path d="M80.3967 148.156C79.4607 148.156 78.6807 147.844 78.0567 147.22C77.4327 146.596 77.1207 145.816 77.1207 144.88C77.1207 143.944 77.4327 143.164 78.0567 142.54C78.6807 141.916 79.4607 141.604 80.3967 141.604C81.3327 141.604 82.1127 141.916 82.7367 142.54C83.3687 143.164 83.6847 143.944 83.6847 144.88C83.6847 145.816 83.3687 146.596 82.7367 147.22C82.1127 147.844 81.3327 148.156 80.3967 148.156ZM80.3967 146.908C80.9727 146.908 81.4447 146.716 81.8127 146.332C82.1967 145.94 82.3887 145.456 82.3887 144.88C82.3887 144.304 82.1967 143.824 81.8127 143.44C81.4447 143.048 80.9727 142.852 80.3967 142.852C79.8367 142.852 79.3647 143.048 78.9807 143.44C78.6047 143.832 78.4167 144.312 78.4167 144.88C78.4167 145.448 78.6047 145.932 78.9807 146.332C79.3647 146.716 79.8367 146.908 80.3967 146.908ZM86.1974 148V142.96H83.9894V141.76H89.6534V142.96H87.4454V148H86.1974ZM97.7135 148V146.332H93.2135V145.084L97.7735 139.6H99.0095V145.084H100.15V146.332H99.0095V148H97.7135ZM97.7135 141.544L94.7735 145.084H97.7135V141.544ZM103.13 141.22L101.558 142.024L100.994 140.872L103.502 139.6H104.426V148H103.13V141.22ZM109.369 145.168V142.432C109.369 141.568 109.673 140.856 110.281 140.296C110.897 139.728 111.665 139.444 112.585 139.444C113.489 139.444 114.249 139.732 114.865 140.308C115.481 140.876 115.789 141.584 115.789 142.432V145.168C115.789 146.016 115.481 146.728 114.865 147.304C114.249 147.872 113.489 148.156 112.585 148.156C111.665 148.156 110.897 147.872 110.281 147.304C109.673 146.744 109.369 146.032 109.369 145.168ZM110.665 142.408V145.18C110.665 145.668 110.849 146.08 111.217 146.416C111.593 146.744 112.049 146.908 112.585 146.908C113.121 146.908 113.573 146.744 113.941 146.416C114.309 146.08 114.493 145.668 114.493 145.18V142.408C114.493 141.912 114.309 141.504 113.941 141.184C113.573 140.856 113.121 140.692 112.585 140.692C112.049 140.692 111.593 140.856 111.217 141.184C110.849 141.504 110.665 141.912 110.665 142.408ZM116.89 145.168V142.432C116.89 141.568 117.194 140.856 117.802 140.296C118.418 139.728 119.186 139.444 120.106 139.444C121.01 139.444 121.77 139.732 122.386 140.308C123.002 140.876 123.31 141.584 123.31 142.432V145.168C123.31 146.016 123.002 146.728 122.386 147.304C121.77 147.872 121.01 148.156 120.106 148.156C119.186 148.156 118.418 147.872 117.802 147.304C117.194 146.744 116.89 146.032 116.89 145.168ZM118.186 142.408V145.18C118.186 145.668 118.37 146.08 118.738 146.416C119.114 146.744 119.57 146.908 120.106 146.908C120.642 146.908 121.094 146.744 121.462 146.416C121.83 146.08 122.014 145.668 122.014 145.18V142.408C122.014 141.912 121.83 141.504 121.462 141.184C121.094 140.856 120.642 140.692 120.106 140.692C119.57 140.692 119.114 140.856 118.738 141.184C118.37 141.504 118.186 141.912 118.186 142.408ZM124.41 145.168V142.432C124.41 141.568 124.714 140.856 125.322 140.296C125.938 139.728 126.706 139.444 127.626 139.444C128.53 139.444 129.29 139.732 129.906 140.308C130.522 140.876 130.83 141.584 130.83 142.432V145.168C130.83 146.016 130.522 146.728 129.906 147.304C129.29 147.872 128.53 148.156 127.626 148.156C126.706 148.156 125.938 147.872 125.322 147.304C124.714 146.744 124.41 146.032 124.41 145.168ZM125.706 142.408V145.18C125.706 145.668 125.89 146.08 126.258 146.416C126.634 146.744 127.09 146.908 127.626 146.908C128.162 146.908 128.614 146.744 128.982 146.416C129.35 146.08 129.534 145.668 129.534 145.18V142.408C129.534 141.912 129.35 141.504 128.982 141.184C128.614 140.856 128.162 140.692 127.626 140.692C127.09 140.692 126.634 140.856 126.258 141.184C125.89 141.504 125.706 141.912 125.706 142.408ZM134.998 145.168V142.432C134.998 141.568 135.302 140.856 135.91 140.296C136.526 139.728 137.294 139.444 138.214 139.444C139.118 139.444 139.878 139.732 140.494 140.308C141.11 140.876 141.418 141.584 141.418 142.432V145.168C141.418 146.016 141.11 146.728 140.494 147.304C139.878 147.872 139.118 148.156 138.214 148.156C137.294 148.156 136.526 147.872 135.91 147.304C135.302 146.744 134.998 146.032 134.998 145.168ZM136.294 142.408V145.18C136.294 145.668 136.478 146.08 136.846 146.416C137.222 146.744 137.678 146.908 138.214 146.908C138.75 146.908 139.202 146.744 139.57 146.416C139.938 146.08 140.122 145.668 140.122 145.18V142.408C140.122 141.912 139.938 141.504 139.57 141.184C139.202 140.856 138.75 140.692 138.214 140.692C137.678 140.692 137.222 140.856 136.846 141.184C136.478 141.504 136.294 141.912 136.294 142.408ZM142.519 145.168V142.432C142.519 141.568 142.823 140.856 143.431 140.296C144.047 139.728 144.815 139.444 145.735 139.444C146.639 139.444 147.399 139.732 148.015 140.308C148.631 140.876 148.939 141.584 148.939 142.432V145.168C148.939 146.016 148.631 146.728 148.015 147.304C147.399 147.872 146.639 148.156 145.735 148.156C144.815 148.156 144.047 147.872 143.431 147.304C142.823 146.744 142.519 146.032 142.519 145.168ZM143.815 142.408V145.18C143.815 145.668 143.999 146.08 144.367 146.416C144.743 146.744 145.199 146.908 145.735 146.908C146.271 146.908 146.723 146.744 147.091 146.416C147.459 146.08 147.643 145.668 147.643 145.18V142.408C147.643 141.912 147.459 141.504 147.091 141.184C146.723 140.856 146.271 140.692 145.735 140.692C145.199 140.692 144.743 140.856 144.367 141.184C143.999 141.504 143.815 141.912 143.815 142.408ZM150.039 145.168V142.432C150.039 141.568 150.343 140.856 150.951 140.296C151.567 139.728 152.335 139.444 153.255 139.444C154.159 139.444 154.919 139.732 155.535 140.308C156.151 140.876 156.459 141.584 156.459 142.432V145.168C156.459 146.016 156.151 146.728 155.535 147.304C154.919 147.872 154.159 148.156 153.255 148.156C152.335 148.156 151.567 147.872 150.951 147.304C150.343 146.744 150.039 146.032 150.039 145.168ZM151.335 142.408V145.18C151.335 145.668 151.519 146.08 151.887 146.416C152.263 146.744 152.719 146.908 153.255 146.908C153.791 146.908 154.243 146.744 154.611 146.416C154.979 146.08 155.163 145.668 155.163 145.18V142.408C155.163 141.912 154.979 141.504 154.611 141.184C154.243 140.856 153.791 140.692 153.255 140.692C152.719 140.692 152.263 140.856 151.887 141.184C151.519 141.504 151.335 141.912 151.335 142.408ZM161.18 148V139.432H163.436C164.484 139.432 165.26 139.644 165.764 140.068C166.276 140.492 166.532 141.108 166.532 141.916C166.532 142.46 166.408 142.928 166.16 143.32C165.912 143.704 165.544 144 165.056 144.208C164.576 144.416 163.98 144.52 163.268 144.52H162.26V148H161.18ZM160.136 146.368V145.588H164.24V146.368H160.136ZM160.136 144.52V143.608H162.884V144.52H160.136ZM163.112 143.608C163.6 143.608 164.012 143.556 164.348 143.452C164.692 143.348 164.956 143.176 165.14 142.936C165.324 142.696 165.416 142.368 165.416 141.952C165.416 141.408 165.248 141.004 164.912 140.74C164.576 140.476 164.052 140.344 163.34 140.344H162.26V143.608H163.112Z" fill="#605348"></path> </svg> 