<?xml version="1.0" encoding="UTF-8"?> <svg xmlns="http://www.w3.org/2000/svg" width="205" height="169" viewBox="0 0 205 169" fill="none"> <path d="M0.5 8.5V1L90.5 0L193.5 3.5V45.5H203V51.5H205V56H202V69H204.5V73.5H202V87H204.5V91.5H202V104.5H204.5V109H202V122H204.5V126.5H202V140H204.5V144H202V157.5H195L163 162.5L120 167.5H108L90.5 169L3.5 164.5V149.857H0.5V145H3.5V131H0.5V126.5H3.5V112.5H0.5V108H3.5V94H0.5V89H3.5V75H0.5V71H3.5V56.5H0.5V52H3.5V38H0.5V33.5H3.5V11H2V8.5H0.5Z" fill="#8E8176" fill-opacity="0.5"></path> </svg> 