<?xml version="1.0" encoding="UTF-8"?> <svg xmlns="http://www.w3.org/2000/svg" width="202" height="256" viewBox="0 0 202 256" fill="none"> <path d="M15.5 4.5L0 5.5V12.5H1V14.5H2V36.5H0V40.5H2V54H0V58.5H2V72H0V76H2V89.5H0V94H2V107.5H0V111.5H2V125H0V129.5H2V143H0V147H1L2 148V170.5H0V174.5H2V188H0V192.5H2V206H0V210H2V223.5H0V228H2V241H0V248C0 248 40.5098 251.075 66.5 252.5C88.7479 253.72 101.222 254.614 123.5 255C154.157 255.532 202 253.5 202 253.5V57H200.5V51.5H196V11.5L127 5.5L120.5 6L56.5 0.5L15.5 3V4.5Z" fill="#8E8176" fill-opacity="0.5"></path> </svg> 