<?xml version="1.0" encoding="UTF-8"?> <svg xmlns="http://www.w3.org/2000/svg" width="256" height="100" viewBox="0 0 256 100" fill="none"> <path d="M142.541 23.4909H133.172V14C138.341 14 142.541 18.2545 142.541 23.4909Z" fill="#605348"></path> <path d="M104.844 28.291H95.3671V67.5637H86.3209C80.2901 67.5637 75.3363 62.5456 75.3363 56.4365V36.2547C75.3363 31.891 71.7824 28.291 67.4748 28.291H65.8594V55.6728C65.8594 67.0183 75.0132 76.291 86.3209 76.291H104.844V28.291Z" fill="#605348"></path> <path d="M114.32 28.291H123.797V76.291C123.797 81.5274 119.597 85.7819 114.32 85.7819V28.291Z" fill="#605348"></path> <path d="M133.172 28.291H142.649V76.291H133.172V28.291Z" fill="#605348"></path> <path d="M152.016 28.291V76.291H161.493V37.0183H170.539C176.569 37.0183 181.523 42.0365 181.523 48.1456V68.3274C181.523 72.691 185.077 76.291 189.385 76.291H191V48.9092C191 37.5637 181.846 28.291 170.539 28.291H152.016Z" fill="#605348"></path> </svg> 