<?xml version="1.0" standalone="no"?>
<!DOCTYPE svg PUBLIC "-//W3C//DTD SVG 1.1//EN" "http://www.w3.org/Graphics/SVG/1.1/DTD/svg11.dtd" >
<svg xmlns="http://www.w3.org/2000/svg" xmlns:xlink="http://www.w3.org/1999/xlink" version="1.1">
<metadata>
Created by FontForge 20190801 at Mon Apr 22 00:52:07 2019
 By root
Copyright (c) 2019 by Oleh Lishchuk. All rights reserved. |DCNT
</metadata>
<defs>
<font id="MazzardH-SemiBold" horiz-adv-x="600" >
  <font-face 
    font-family="Mazzard H SemiBold"
    font-weight="600"
    font-stretch="semi-condensed"
    units-per-em="1000"
    panose-1="0 0 0 0 0 0 0 0 0 0"
    ascent="755"
    descent="-245"
    x-height="520"
    cap-height="700"
    bbox="-108 -264 1191 1012"
    underline-thickness="50"
    underline-position="-225"
    unicode-range="U+000D-FB04"
  />
<missing-glyph horiz-adv-x="333" 
 />
    <glyph glyph-name="f_f" unicode="ff" horiz-adv-x="663" 
d="M89 412h-79v108h79v65q0 71 51 118q53 47 128 47h70v-119h-61q-27 0 -45 -18t-18 -45v-48h191v65q0 71 51 118q53 47 128 47h70v-119h-61q-27 0 -45 -18t-18 -45v-48h124v-108h-124v-412h-125v412h-191v-412h-125v412z" />
    <glyph glyph-name="fi" unicode="fi" horiz-adv-x="578" 
d="M214 568v-48h124v-108h-124v-412h-125v412h-79v108h79v65q0 71 51 118q53 47 128 47h70v-119h-61q-27 0 -45 -18t-18 -45zM525 0h-125v520h125v-520zM463 566q-35 0 -57.5 23t-22.5 57t23 56.5t57 22.5t56.5 -22.5t22.5 -56.5t-22.5 -57t-56.5 -23z" />
    <glyph glyph-name="fl" unicode="fl" horiz-adv-x="578" 
d="M214 568v-48h124v-108h-124v-412h-125v412h-79v108h79v65q0 71 51 118q53 47 128 47h70v-119h-61q-27 0 -45 -18t-18 -45zM525 0h-125v750h125v-750z" />
    <glyph glyph-name="f_f_i" unicode="ffi" horiz-adv-x="894" 
d="M89 0v412h-79v108h79v65q0 71 51 118q53 47 128 47h70v-119h-61q-27 0 -45 -18t-18 -45v-48h191v65q0 71 51 118q53 47 128 47h70v-119h-61q-27 0 -45 -18t-18 -45v-48h311v-520h-124v412h-187v-412h-125v412h-191v-412h-125zM722 589q-23 23 -23 57t23 56q23 23 57 23
t56 -23q23 -22 23 -56t-23 -57q-22 -23 -56 -23t-57 23z" />
    <glyph glyph-name="f_f_l" unicode="ffl" horiz-adv-x="894" 
d="M89 412h-79v108h79v65q0 71 51 118q53 47 128 47h70v-119h-61q-27 0 -45 -18t-18 -45v-48h191v65q0 71 51 118q53 47 128 47h70v-119h-61q-27 0 -45 -18t-18 -45v-48h124v-108h-124v-412h-125v412h-191v-412h-125v412zM841 0h-124v750h124v-750z" />
    <glyph glyph-name="afii10104_afii10104" unicode="&#x457;&#x457;" horiz-adv-x="463" 
d="M178 0h-124v520h124v-520zM-27 604q-22 22 -22 53t22 52q21 22 52 22t52 -22q22 -21 22 -52t-22 -53q-21 -21 -52 -21t-52 21zM410 0h-125v520h125v-520zM233 731q31 0 52 -21.5t21 -52.5t-21 -52.5t-52 -21.5q-32 0 -53.5 21.5t-21.5 52.5t21.5 52.5t53.5 21.5zM438 731
q32 0 53.5 -21.5t21.5 -52.5t-21.5 -52.5t-53.5 -21.5q-31 0 -52 21.5t-21 52.5t21 52.5t52 21.5z" />
    <glyph glyph-name=".notdef" horiz-adv-x="333" 
 />
    <glyph glyph-name="uni0000" horiz-adv-x="0" 
 />
    <glyph glyph-name="uni0000" horiz-adv-x="0" 
 />
    <glyph glyph-name="uni000D" unicode="&#xd;" horiz-adv-x="250" 
 />
    <glyph glyph-name="space" unicode=" " horiz-adv-x="258" 
 />
    <glyph glyph-name="exclam" unicode="!" horiz-adv-x="250" 
d="M46 64q0 33 22.5 55.5t55.5 22.5q34 0 56.5 -22.5t22.5 -55.5q0 -34 -22.5 -56.5t-56.5 -22.5q-33 0 -55.5 22.5t-22.5 56.5zM179 221h-107l-14 479h134z" />
    <glyph glyph-name="quotedbl" unicode="&#x22;" horiz-adv-x="392" 
d="M157 453h-97l-11 247h118zM333 453h-97l-11 247h118z" />
    <glyph glyph-name="numbersign" unicode="#" horiz-adv-x="701" 
d="M20 174l-1 102h147l27 148h-131l1 102h147l31 174h104l-31 -174h134l31 174h104l-31 -174h130l-1 -102h-146l-27 -148h130l1 -102h-148l-31 -174h-104l31 174h-134l-31 -174h-104l31 174h-129zM297 424l-27 -148h134l27 148h-134z" />
    <glyph glyph-name="dollar" unicode="$" horiz-adv-x="611" 
d="M260 -129v117q-84 12 -143.5 57.5t-78.5 109.5l134 40q8 -34 47.5 -57.5t92.5 -23.5q54 0 90 22.5t36 58.5q0 26 -25 49q-10 8 -29 17q-16 8 -56 21q-125 37 -169 60q-101 54 -101 161q0 84 54 141t143 68v117h92v-118q73 -12 126.5 -53.5t71.5 -99.5l-134 -39
q-8 28 -40 48t-73 20q-44 0 -75 -21.5t-31 -52.5q0 -39 64 -66q26 -11 115 -37q65 -18 104 -39q31 -16 50 -37q47 -49 47 -127q0 -91 -59.5 -150t-160.5 -70v-116h-92z" />
    <glyph glyph-name="percent" unicode="%" horiz-adv-x="828" 
d="M176 0l-64 53l541 647l65 -54zM29 538q0 75 51 126t126 51q76 0 126 -51q51 -51 51 -126q0 -76 -51 -127q-50 -50 -126 -50q-74 0 -126 50q-51 51 -51 127zM158 586q-20 -20 -20 -48t20 -48t48 -20t48 20t20 48t-20 48t-48 20t-48 -20zM622 340q76 0 126 -51
q51 -51 51 -127t-51 -127q-50 -50 -126 -50q-74 0 -126 50q-51 51 -51 127t51 127t126 51zM554 162q0 -28 20 -48t48 -20t48 20t20 48q0 29 -19.5 49t-48.5 20t-48.5 -20t-19.5 -49z" />
    <glyph glyph-name="ampersand" unicode="&#x26;" horiz-adv-x="707" 
d="M285 -15q-106 0 -176 64t-70 157q0 106 115 184q-50 74 -50 145q0 78 52 129q53 51 133 51t135 -50q54 -49 54 -124q0 -56 -32.5 -97.5t-99.5 -83.5l116 -119q24 61 24 128h125q0 -125 -57 -222l144 -147h-179l-49 50q-83 -65 -185 -65zM383 139l-132 135q-14 14 -17 18
q-65 -44 -65 -91q0 -39 34 -66t84 -27q53 0 96 31zM265 452q48 26 69 45t21 43q0 22 -18 37t-45 15t-44 -16t-17 -41q0 -34 34 -83z" />
    <glyph glyph-name="quotesingle" unicode="'" horiz-adv-x="216" 
d="M157 453h-97l-11 247h118z" />
    <glyph glyph-name="parenleft" unicode="(" horiz-adv-x="312" 
d="M172 782l16 18h114l-16 -21q-10 -12 -36 -62q-56 -102 -81 -236q-32 -167 -1 -336q18 -87 38 -137q46 -116 80 -162l16 -21h-114l-1 1q-78 89 -119 244q-29 114 -29 243q0 93 15 179q17 90 38 138q45 112 80 152z" />
    <glyph glyph-name="parenright" unicode=")" horiz-adv-x="312" 
d="M26 780l-16 20h114l16 -19q10 -11 36 -56q26 -43 45 -96q19 -50 36 -137q16 -83 16 -179q0 -173 -48 -304q-19 -53 -43 -96q-24 -45 -36 -60q-10 -17 -21 -27l-1 -1h-114l16 22q10 12 36 62q24 44 45 100q19 53 36 135q32 170 0 336q-15 83 -37 137q-43 111 -80 163z" />
    <glyph glyph-name="asterisk" unicode="*" horiz-adv-x="486" 
d="M210 452l-103 -87l-58 100l128 45l-128 45l58 100l103 -88l-25 133h116l-25 -133l103 88l58 -100l-128 -45l128 -45l-58 -100l-103 87l25 -132h-116z" />
    <glyph glyph-name="plus" unicode="+" 
d="M243 292h-184v114h184v184h114v-184h184v-114h-184v-184h-114v184z" />
    <glyph glyph-name="comma" unicode="," horiz-adv-x="232" 
d="M198 36q0 -99 -117 -177l-40 41q57 59 57 86q-27 5 -45.5 27.5t-18.5 51.5q0 32 22 54t56 22q38 0 62 -29.5t24 -75.5z" />
    <glyph glyph-name="hyphen" unicode="-" horiz-adv-x="400" 
d="M59 203v114h282v-114h-282z" />
    <glyph glyph-name="period" unicode="." horiz-adv-x="224" 
d="M34 64q0 33 22 55.5t56 22.5t56 -22.5t22 -55.5q0 -34 -22 -56.5t-56 -22.5t-56 22.5t-22 56.5z" />
    <glyph glyph-name="slash" unicode="/" horiz-adv-x="567" 
d="M113 -175h-113l454 974h113z" />
    <glyph glyph-name="zero" unicode="0" horiz-adv-x="628" 
d="M43 237v226q0 108 77 180q78 72 194 72t193 -72q78 -72 78 -180v-226q0 -108 -78 -180q-77 -72 -193 -72t-194 72q-77 72 -77 180zM173 465v-230q0 -53 40 -90q41 -36 101 -36t101 36q41 38 41 90v230q0 53 -41 89q-40 37 -101 37t-101 -37q-40 -36 -40 -89z" />
    <glyph glyph-name="one" unicode="1" horiz-adv-x="456" 
d="M219 541l-121 -60l-54 114l212 105h93v-700h-130v541z" />
    <glyph glyph-name="two" unicode="2" horiz-adv-x="580" 
d="M396 496q0 39 -34 67q-32 28 -79 28q-45 0 -80.5 -27.5t-53.5 -74.5l-120 57q34 78 102 123.5t152 45.5q105 0 175 -63q72 -63 72 -152q0 -54 -36 -112.5t-114 -133.5l-137 -130h293v-124h-493v97l257 245q96 93 96 154z" />
    <glyph glyph-name="three" unicode="3" horiz-adv-x="586" 
d="M395 505q0 36 -34 61t-87 25q-43 0 -75.5 -17.5t-47.5 -45.5l-118 56q31 60 96 95.5t146 35.5q109 0 182 -59q72 -58 72 -147q0 -87 -75 -146q93 -60 93 -163q0 -93 -76 -154t-189 -61q-93 0 -163 43q-70 44 -95 114l125 44q11 -34 47 -55.5t85 -21.5q56 0 94 27.5
t38 69.5q0 40 -37.5 66.5t-91.5 26.5h-53v117h36q54 0 91 25t37 64z" />
    <glyph glyph-name="four" unicode="4" horiz-adv-x="644" 
d="M397 0v134h-363v124l369 442h123v-442h89v-124h-89v-134h-129zM397 507l-208 -249h208v249z" />
    <glyph glyph-name="five" unicode="5" horiz-adv-x="603" 
d="M564 223q0 -101 -77 -170q-77 -68 -191 -68q-92 0 -162 48.5t-100 130.5l129 35q17 -42 53 -66t81 -24q57 0 94 33q39 33 39 81q0 52 -43 86q-41 34 -105 34h-195l36 357h381v-119h-274l-11 -120h70q117 0 196 -68q79 -67 79 -170z" />
    <glyph glyph-name="six" unicode="6" horiz-adv-x="604" 
d="M557 579l-120 -57q-38 69 -125 69q-60 0 -100 -36q-39 -36 -39 -89v-48q61 33 136 33q110 0 186 -68q75 -67 75 -167q0 -98 -76 -165q-75 -66 -187 -66t-188 67q-75 67 -75 166v246q0 107 77 179q78 72 193 72q80 0 144.5 -36.5t98.5 -99.5zM178 219q0 -47 37 -78.5
t92 -31.5t92 31t37 76q0 48 -37 79q-38 32 -92 32q-55 0 -92 -31.5t-37 -76.5z" />
    <glyph glyph-name="seven" unicode="7" horiz-adv-x="532" 
d="M116 0l254 581h-350v119h488v-125l-251 -575h-141z" />
    <glyph glyph-name="eight" unicode="8" horiz-adv-x="604" 
d="M303 -15q-113 0 -189 60q-75 61 -75 151q0 52 27 96t75 72q-87 58 -87 153q0 84 71 141q70 57 178 57q107 0 177 -58q71 -57 71 -141q0 -94 -87 -152q102 -62 102 -169q0 -89 -76 -150q-75 -60 -187 -60zM173 207q0 -42 37 -70t93 -28q55 0 91.5 28t36.5 69t-36.5 69
t-91.5 28q-56 0 -93 -27.5t-37 -68.5zM188 507q0 -36 33 -60.5t82 -24.5t81 24.5t32 60.5q0 35 -32.5 59.5t-80.5 24.5q-49 0 -82 -24.5t-33 -59.5z" />
    <glyph glyph-name="nine" unicode="9" horiz-adv-x="609" 
d="M39 126l119 57q17 -34 52 -54t80 -20q62 0 105 35q42 36 42 89v38q-62 -32 -133 -32q-109 0 -185 68q-75 69 -75 171t75 169q76 68 186 68q113 0 186 -69q75 -68 75 -169v-243q0 -106 -79 -178q-80 -71 -197 -71q-84 0 -151 38t-100 103zM432 476q0 49 -36.5 82t-90.5 33
t-90 -32.5t-36 -79.5q0 -50 36 -83t90 -33t90.5 32.5t36.5 80.5z" />
    <glyph glyph-name="colon" unicode=":" horiz-adv-x="224" 
d="M34 64q0 33 22 55.5t56 22.5t56 -22.5t22 -55.5q0 -34 -22 -56.5t-56 -22.5t-56 22.5t-22 56.5zM34 457q0 33 22 55.5t56 22.5t56 -22.5t22 -55.5q0 -34 -22 -56.5t-56 -22.5t-56 22.5t-22 56.5z" />
    <glyph glyph-name="semicolon" unicode=";" horiz-adv-x="224" 
d="M34 457q0 33 22 55.5t56 22.5t56 -22.5t22 -55.5q0 -34 -22 -56.5t-56 -22.5t-56 22.5t-22 56.5zM198 36q0 -99 -117 -177l-39 41q57 59 57 86q-28 5 -46.5 27.5t-18.5 51.5q0 32 22.5 54t55.5 22q38 0 62 -29.5t24 -75.5z" />
    <glyph glyph-name="less" unicode="&#x3c;" 
d="M531 75l-482 223v104l482 226v-125l-325 -153l325 -151v-124z" />
    <glyph glyph-name="equal" unicode="=" 
d="M59 409v114h482v-114h-482zM59 177v114h482v-114h-482z" />
    <glyph glyph-name="greater" unicode="&#x3e;" 
d="M551 402v-104l-482 -223v124l325 151l-325 153v125z" />
    <glyph glyph-name="question" unicode="?" horiz-adv-x="578" 
d="M404 494q0 41 -37 69t-91 28q-45 0 -80 -21.5t-47 -55.5l-129 36q24 74 92 119q68 46 161 46q112 0 185 -64q75 -63 75 -158q0 -44 -19 -83t-48 -62q-59 -46 -102 -60l-20 -6l-6 -61h-107l-14 132q30 8 65 22q32 13 57 27q27 16 46 41.5t19 50.5zM226 7q-22 22 -22 56
t22 56q23 23 57 23t56 -23q23 -22 23 -56t-23 -56q-22 -22 -56 -22t-57 22z" />
    <glyph glyph-name="at" unicode="@" horiz-adv-x="979" 
d="M489 715q123 2 230 -57t168 -157t58 -208q0 -111 -55 -182q-56 -71 -139 -71q-88 0 -134 70q-58 -70 -151 -70q-86 0 -145 63q-58 62 -58 157t58 157q59 63 145 63q70 0 126 -45v33h100v-275q0 -25 17.5 -42.5t43.5 -17.5q41 0 67.5 43t26.5 110q0 135 -104 233t-254 98
q-152 0 -255 -103q-102 -102 -102 -254t102 -255q102 -102 253 -102q86 0 150 35l31 -89q-86 -44 -186 -44q-190 0 -319 131q-129 130 -129 324t130 324q131 131 325 131zM480 140q47 0 79.5 34.5t32.5 85.5t-32.5 85.5t-79.5 34.5q-48 0 -80.5 -34.5t-32.5 -85.5
t32.5 -85.5t80.5 -34.5z" />
    <glyph glyph-name="A" unicode="A" horiz-adv-x="727" 
d="M150 0h-141l300 700h109l300 -700h-141l-55 132h-317zM470 255l-106 254l-107 -254h213z" />
    <glyph glyph-name="B" unicode="B" horiz-adv-x="682" 
d="M417 0h-359v700h339q93 0 154 -55q62 -54 62 -136q0 -85 -68 -141q98 -59 98 -168q0 -84 -65 -143q-64 -57 -161 -57zM417 298h-225v-174h225q37 0 61.5 25t24.5 62t-24.5 62t-61.5 25zM397 576h-205v-155h205q33 0 55 22t22 56q0 33 -22 55t-55 22z" />
    <glyph glyph-name="C" unicode="C" horiz-adv-x="765" 
d="M404 715q109 0 196 -54q87 -53 131 -143l-130 -49q-29 54 -81.5 85.5t-115.5 31.5q-96 0 -161 -68q-64 -67 -64 -168t64 -168t161 -67q63 0 115.5 31t81.5 85l130 -49q-43 -90 -131 -144q-88 -53 -196 -53q-155 0 -261 104q-104 106 -104 261q0 156 104 260
q105 105 261 105z" />
    <glyph glyph-name="D" unicode="D" horiz-adv-x="746" 
d="M342 0h-284v700h284q156 0 260 -101q105 -101 105 -249t-105 -249q-104 -101 -260 -101zM342 576h-150v-452h150q96 0 161 65q65 67 65 161q0 96 -65 161t-161 65z" />
    <glyph glyph-name="E" unicode="E" horiz-adv-x="613" 
d="M58 700h516v-124h-382v-160h327v-124h-327v-168h387v-124h-521v700z" />
    <glyph glyph-name="F" unicode="F" horiz-adv-x="603" 
d="M58 700h516v-124h-382v-160h327v-124h-327v-292h-134v700z" />
    <glyph glyph-name="G" unicode="G" horiz-adv-x="804" 
d="M410 715q110 0 198 -54q87 -52 133 -143l-130 -49q-30 55 -83 86t-118 31q-99 0 -165 -68t-66 -168q0 -101 64 -168t157 -67q71 0 130 41q58 40 81 108h-221v122h373q2 -30 2 -35q0 -154 -104 -261q-103 -105 -259 -105q-155 0 -259 104q-104 106 -104 261q0 157 106 260
q106 105 265 105z" />
    <glyph glyph-name="H" unicode="H" horiz-adv-x="728" 
d="M192 0h-134v700h134v-284h343v284h135v-700h-135v292h-343v-292z" />
    <glyph glyph-name="I" unicode="I" horiz-adv-x="250" 
d="M192 0h-134v700h134v-700z" />
    <glyph glyph-name="J" unicode="J" horiz-adv-x="582" 
d="M533 700v-444q0 -116 -80 -194q-80 -77 -201 -77q-75 0 -138 33t-100 90l112 72q18 -33 52 -52t76 -19q64 0 107 42q43 43 43 105v444h129z" />
    <glyph glyph-name="K" unicode="K" horiz-adv-x="655" 
d="M58 0v700h134v-312l264 312h170l-289 -342l309 -358h-170l-284 329v-329h-134z" />
    <glyph glyph-name="L" unicode="L" horiz-adv-x="569" 
d="M58 700h134v-576h353v-124h-487v700z" />
    <glyph glyph-name="M" unicode="M" horiz-adv-x="885" 
d="M192 0h-134v700h134l251 -442l250 442h134v-700h-134v446l-206 -367h-89l-206 366v-445z" />
    <glyph glyph-name="N" unicode="N" horiz-adv-x="733" 
d="M187 0h-129v700h119l369 -470v470h129v-700h-119l-369 469v-469z" />
    <glyph glyph-name="O" unicode="O" horiz-adv-x="809" 
d="M404 715q158 0 261 -105q105 -103 105 -260q0 -156 -105 -261q-104 -104 -261 -104q-155 0 -261 104q-104 106 -104 261q0 156 104 260q105 105 261 105zM179 350q0 -101 64 -168t161 -67t161 67q65 68 65 168t-65 168t-161 68t-161 -68q-64 -67 -64 -168z" />
    <glyph glyph-name="P" unicode="P" horiz-adv-x="652" 
d="M192 247v-247h-134v700h314q102 0 172 -65q70 -64 70 -161q0 -98 -70 -162q-70 -65 -172 -65h-180zM372 576h-180v-205h180q44 0 73 29.5t29 73.5t-29 73t-73 29z" />
    <glyph glyph-name="Q" unicode="Q" horiz-adv-x="809" 
d="M404 -15q-155 0 -261 104q-104 106 -104 261q0 156 104 260q105 105 261 105q158 0 261 -105q105 -103 105 -260q0 -131 -76 -228l81 -81l-91 -91l-86 87q-88 -52 -194 -52zM179 350q0 -101 64 -168t161 -67q50 0 95 20l-105 106l90 90l111 -110q35 58 35 129
q0 100 -65 168t-161 68t-161 -68q-64 -67 -64 -168z" />
    <glyph glyph-name="R" unicode="R" horiz-adv-x="675" 
d="M58 700h324q102 0 172 -65q70 -64 70 -161q0 -68 -36 -122.5t-97 -81.5l160 -270h-149l-147 247h-163v-247h-134v700zM382 576h-190v-205h190q44 0 73 29.5t29 73.5t-29 73t-73 29z" />
    <glyph glyph-name="S" unicode="S" horiz-adv-x="611" 
d="M545 558l-134 -39q-8 28 -40 48t-73 20q-44 0 -75 -21.5t-31 -52.5q0 -39 64 -66q26 -11 115 -37q65 -18 104 -39q31 -16 50 -37q47 -49 47 -127q0 -101 -73 -162q-72 -60 -187 -60q-104 0 -178 48q-74 50 -96 122l134 40q8 -34 47.5 -57.5t92.5 -23.5q54 0 90 22.5
t36 58.5q0 26 -25 49q-10 8 -29 17q-16 8 -56 21q-125 37 -169 60q-101 54 -101 161q0 95 66 153q68 59 172 59q92 0 160 -45q68 -44 89 -112z" />
    <glyph glyph-name="T" unicode="T" horiz-adv-x="647" 
d="M256 576h-232v124h599v-124h-232v-576h-135v576z" />
    <glyph glyph-name="U" unicode="U" horiz-adv-x="709" 
d="M526 281v419h134v-419q0 -126 -88 -211q-86 -85 -218 -85q-130 0 -218 85q-87 86 -87 211v419h134v-419q0 -74 49 -123t122 -49q74 0 123 49t49 123z" />
    <glyph glyph-name="V" unicode="V" horiz-adv-x="717" 
d="M413 0h-109l-295 700h141l209 -508l208 508h141z" />
    <glyph glyph-name="W" unicode="W" horiz-adv-x="1005" 
d="M356 0h-110l-237 700h138l153 -485l148 485h110l149 -485l152 485h137l-237 -700h-109l-147 468z" />
    <glyph glyph-name="X" unicode="X" horiz-adv-x="697" 
d="M269 357l-250 343h161l169 -233l169 233h160l-249 -343l259 -357h-160l-179 247l-179 -247h-161z" />
    <glyph glyph-name="Y" unicode="Y" horiz-adv-x="687" 
d="M275 286l-266 414h155l177 -288l183 288h154l-269 -410v-290h-134v286z" />
    <glyph glyph-name="Z" unicode="Z" horiz-adv-x="634" 
d="M600 124v-124h-561v103l370 473h-367v124h555v-103l-371 -473h374z" />
    <glyph glyph-name="bracketleft" unicode="[" horiz-adv-x="305" 
d="M163 -71h132v-104h-246v975h246v-104h-132v-767z" />
    <glyph glyph-name="backslash" unicode="\" horiz-adv-x="567" 
d="M113 799l454 -974h-113l-454 974h113z" />
    <glyph glyph-name="bracketright" unicode="]" horiz-adv-x="305" 
d="M255 -175h-245v104h131v767h-131v104h245v-975z" />
    <glyph glyph-name="asciicircum" unicode="^" 
d="M59 389l189 311h104l189 -309h-132l-109 174l-109 -176h-132z" />
    <glyph glyph-name="underscore" unicode="_" horiz-adv-x="258" 
d="M0 -163v113h258v-113h-258z" />
    <glyph glyph-name="grave" unicode="`" horiz-adv-x="339" 
d="M258 710l-219 93l56 110l204 -127z" />
    <glyph glyph-name="a" unicode="a" horiz-adv-x="622" 
d="M287 535q88 0 158 -56v41h124v-520h-124v41q-70 -56 -158 -56q-107 0 -181 78q-72 79 -72 197t72 196q73 79 181 79zM402 367q-40 43 -99 43q-60 0 -100 -43t-40 -107t40 -107t100 -43q59 0 99 43q41 44 41 107t-41 107z" />
    <glyph glyph-name="b" unicode="b" horiz-adv-x="622" 
d="M53 0v750h125v-271q70 56 157 56q108 0 181 -79q73 -77 73 -196q0 -118 -73 -197q-74 -78 -181 -78q-87 0 -157 56v-41h-125zM418 367q-40 43 -99 43t-99 -43t-40 -107t40 -107t99 -43t99 43q41 44 41 107t-41 107z" />
    <glyph glyph-name="c" unicode="c" horiz-adv-x="590" 
d="M566 363l-125 -37q-17 39 -52.5 61.5t-79.5 22.5q-62 0 -104 -43t-42 -107t42 -107t104 -43q44 0 79.5 22.5t52.5 61.5l125 -37q-30 -79 -99 -125.5t-158 -46.5q-117 0 -197 78q-78 79 -78 197t78 196q79 79 197 79q89 0 158 -46.5t99 -125.5z" />
    <glyph glyph-name="d" unicode="d" horiz-adv-x="622" 
d="M287 535q88 0 158 -56v271h124v-750h-124v41q-70 -56 -158 -56q-107 0 -181 78q-72 79 -72 197t72 196q73 79 181 79zM402 367q-40 43 -99 43q-60 0 -100 -43t-40 -107t40 -107t100 -43q59 0 99 43q41 44 41 107t-41 107z" />
    <glyph glyph-name="e" unicode="e" horiz-adv-x="604" 
d="M576 214h-413q14 -51 55.5 -82.5t96.5 -31.5q77 0 122 55l121 -35q-36 -63 -100.5 -99t-142.5 -36q-120 0 -201 78q-80 80 -80 197q0 118 78 196q79 79 195 79t194 -79q79 -79 79 -196q0 -19 -4 -46zM164 311h287q-15 49 -55 79t-91 30q-49 0 -88 -30t-53 -79z" />
    <glyph glyph-name="f" unicode="f" horiz-adv-x="347" 
d="M214 568v-48h124v-108h-124v-412h-125v412h-79v108h79v65q0 71 51 118q53 47 128 47h70v-119h-61q-27 0 -45 -18t-18 -45z" />
    <glyph glyph-name="g" unicode="g" horiz-adv-x="622" 
d="M287 535q88 0 158 -56v41h124v-506q0 -107 -75 -181q-74 -73 -183 -73q-85 0 -156 45q-71 44 -98 111l125 36q14 -30 49 -49t76 -19q57 0 98 38q40 37 40 92v27q-70 -56 -158 -56q-107 0 -181 78q-72 79 -72 197t72 196q73 79 181 79zM402 367q-40 43 -99 43
q-60 0 -100 -43t-40 -107t40 -107t100 -43q59 0 99 43q41 44 41 107t-41 107z" />
    <glyph glyph-name="h" unicode="h" horiz-adv-x="601" 
d="M53 0v750h125v-293q58 78 161 78q91 0 149 -58q60 -59 60 -145v-332h-124v297q0 51 -35 85t-88 34t-88 -34t-35 -85v-297h-125z" />
    <glyph glyph-name="i" unicode="i" horiz-adv-x="231" 
d="M178 0h-125v520h125v-520zM115 566q-34 0 -56.5 23t-22.5 57t22.5 56.5t56.5 22.5t57 -22.5t23 -56.5t-22.5 -57t-57.5 -23z" />
    <glyph glyph-name="j" unicode="j" horiz-adv-x="236" 
d="M59 520h125v-580q0 -71 -52 -117q-51 -48 -127 -48h-46v119h36q28 0 46 18t18 45v563zM121 566q-34 0 -56.5 23t-22.5 57t22.5 56.5t56.5 22.5t57 -22.5t23 -56.5t-22.5 -57t-57.5 -23z" />
    <glyph glyph-name="k" unicode="k" horiz-adv-x="533" 
d="M53 0v750h125v-453l174 223h151l-195 -251l216 -269h-153l-193 241v-241h-125z" />
    <glyph glyph-name="l" unicode="l" horiz-adv-x="231" 
d="M178 0h-125v750h125v-750z" />
    <glyph glyph-name="m" unicode="m" horiz-adv-x="914" 
d="M178 0h-125v520h125v-55q54 70 146 70q109 0 164 -85q55 85 166 85q90 0 148 -55q59 -56 59 -138v-342h-124v306q0 47 -31 78.5t-77 31.5t-77.5 -31.5t-31.5 -78.5v-306h-125v306q0 47 -31 78.5t-77 31.5t-77.5 -31.5t-31.5 -78.5v-306z" />
    <glyph glyph-name="n" unicode="n" horiz-adv-x="592" 
d="M53 0v520h125v-63q57 78 156 78q88 0 146 -58q59 -59 59 -145v-332h-125v297q0 51 -33.5 85t-83.5 34q-51 0 -85 -34t-34 -85v-297h-125z" />
    <glyph glyph-name="o" unicode="o" horiz-adv-x="618" 
d="M112 63q-78 79 -78 197t78 196q79 79 197 79t197 -79q79 -78 79 -196t-79 -197q-80 -78 -197 -78t-197 78zM205 367q-42 -43 -42 -107t42 -107t104 -43t104 43t42 107t-42 107t-104 43t-104 -43z" />
    <glyph glyph-name="p" unicode="p" horiz-adv-x="622" 
d="M178 -225h-125v745h125v-41q70 56 157 56q108 0 181 -79q73 -77 73 -196q0 -118 -73 -197q-74 -78 -181 -78q-87 0 -157 56v-266zM418 367q-40 43 -99 43t-99 -43t-40 -107t40 -107t99 -43t99 43q41 44 41 107t-41 107z" />
    <glyph glyph-name="q" unicode="q" horiz-adv-x="622" 
d="M287 535q88 0 158 -56v41h124v-745h-124v266q-70 -56 -158 -56q-107 0 -181 78q-72 79 -72 197t72 196q73 79 181 79zM402 367q-40 43 -99 43q-60 0 -100 -43t-40 -107t40 -107t100 -43q59 0 99 43q41 44 41 107t-41 107z" />
    <glyph glyph-name="r" unicode="r" horiz-adv-x="364" 
d="M178 520v-64q54 79 171 79v-139q-25 11 -51 11q-52 0 -86 -34.5t-34 -86.5v-286h-125v520h125z" />
    <glyph glyph-name="s" unicode="s" horiz-adv-x="475" 
d="M438 395l-117 -19q-17 51 -91 51q-32 0 -52.5 -12t-20.5 -33q0 -26 46 -42l107 -36q71 -25 103.5 -62t32.5 -94q0 -79 -56.5 -121t-149.5 -42t-149 40.5t-67 112.5l117 17q7 -28 33.5 -45t68.5 -17q37 0 60.5 13.5t23.5 37.5q0 31 -58 50l-107 34q-66 22 -95 56t-29 89
q0 79 54.5 120.5t146.5 41.5q84 0 136.5 -37t62.5 -103z" />
    <glyph glyph-name="t" unicode="t" horiz-adv-x="362" 
d="M10 411v109h74v102h125v-102h129v-109h-129v-229q0 -27 18 -45t46 -18h65v-119h-77q-74 0 -126 47q-51 47 -51 117v247h-74z" />
    <glyph glyph-name="u" unicode="u" horiz-adv-x="592" 
d="M53 188v332h125v-296q0 -51 33.5 -85.5t84.5 -34.5q50 0 84 34.5t34 85.5v296h125v-520h-125v63q-57 -78 -156 -78q-89 0 -147 58t-58 145z" />
    <glyph glyph-name="v" unicode="v" horiz-adv-x="565" 
d="M223 0l-214 520h129l145 -362l144 362h129l-214 -520h-119z" />
    <glyph glyph-name="w" unicode="w" horiz-adv-x="779" 
d="M291 0h-112l-170 520h126l99 -327l99 327h113l99 -327l99 327h125l-169 -520h-112l-98 313z" />
    <glyph glyph-name="x" unicode="x" horiz-adv-x="557" 
d="M401 0l-123 168l-122 -168h-147l195 267l-184 253h146l112 -154l113 154h146l-185 -253l195 -267h-146z" />
    <glyph glyph-name="y" unicode="y" horiz-adv-x="545" 
d="M195 -26l14 36l-200 510h129l133 -351l136 351h129l-235 -588q-33 -82 -87 -119.5t-140 -37.5h-20v119h20q89 0 121 80z" />
    <glyph glyph-name="z" unicode="z" horiz-adv-x="498" 
d="M34 0v92l253 314h-248v114h420v-92l-254 -314h259v-114h-430z" />
    <glyph glyph-name="braceleft" unicode="{" horiz-adv-x="341" 
d="M261 800h70v-104h-59q-26 0 -43 -17t-17 -42v-192q0 -53 -26.5 -86.5t-72.5 -45.5q46 -12 72.5 -46t26.5 -87v-192q0 -25 17 -42t43 -17h59v-104h-70q-70 0 -117 47q-46 46 -46 116v192q0 24 -20.5 44.5t-45.5 28.5l-22 7v105q10 2 30 11q58 26 58 69v192q0 70 46 116
q47 47 117 47z" />
    <glyph glyph-name="bar" unicode="|" horiz-adv-x="201" 
d="M152 -175h-103v975h103v-975z" />
    <glyph glyph-name="braceright" unicode="}" horiz-adv-x="341" 
d="M10 696v104h70q69 0 116 -47t47 -116v-192q0 -24 20.5 -44.5t45.5 -28.5l22 -7v-105q-10 -2 -31 -11q-57 -26 -57 -69v-192q0 -69 -47 -116t-116 -47h-70v104h60q25 0 42 17t17 42v192q0 53 26.5 87t72.5 46q-46 12 -72.5 45.5t-26.5 86.5v192q0 25 -17 42t-42 17h-60z
" />
    <glyph glyph-name="asciitilde" unicode="~" 
d="M379 264q-39 0 -95 30t-67 30q-20 0 -33 -15.5t-13 -37.5h-112q1 71 49 118q49 49 113 47q43 0 94 -30q53 -29 68 -29q20 0 33 15t13 38h112q-1 -70 -49 -118t-113 -48z" />
    <glyph glyph-name="exclamdown" unicode="&#xa1;" horiz-adv-x="250" 
d="M46 457q0 33 22.5 55.5t55.5 22.5q34 0 56.5 -22.5t22.5 -55.5q0 -34 -22.5 -56.5t-56.5 -22.5q-33 0 -55.5 22.5t-22.5 56.5zM58 -180l14 479h107l13 -479h-134z" />
    <glyph glyph-name="cent" unicode="&#xa2;" horiz-adv-x="590" 
d="M263 -29v107q-101 17 -165 91q-64 76 -64 181q0 106 64 180q64 75 165 92v107h92v-107q73 -12 129 -57t82 -112l-125 -37q-17 39 -52.5 61.5t-79.5 22.5q-62 0 -104 -43t-42 -107t42 -107t104 -43q44 0 79.5 22.5t52.5 61.5l125 -37q-26 -67 -82 -112t-129 -57v-107h-92z
" />
    <glyph glyph-name="sterling" unicode="&#xa3;" horiz-adv-x="594" 
d="M553 0h-523v124h79v170h-69v92h69v107q0 95 66 158q65 64 161 64q80 0 148 -47q67 -46 90 -119l-130 -36q-11 33 -41 55.5t-66 22.5q-41 0 -70 -28.5t-29 -68.5v-108h176v-92h-176v-170h315v-124z" />
    <glyph glyph-name="currency" unicode="&#xa4;" horiz-adv-x="576" 
d="M122 115l-73 72l74 73q-22 41 -22 90q0 50 24 93l-76 75l73 72l75 -76q41 22 90 22q50 0 91 -22l76 76l73 -72l-77 -76q23 -41 23 -92q0 -47 -21 -89l74 -74l-72 -72l-73 73q-43 -24 -94 -24q-50 0 -92 24zM371 350q0 35 -24 59.5t-60 24.5q-26 2 -46.5 -13.5t-29.5 -38
t-5.5 -49t22.5 -43.5q17 -19 43 -23t48.5 5t38 30t13.5 48z" />
    <glyph glyph-name="yen" unicode="&#xa5;" horiz-adv-x="687" 
d="M273 289l-264 411h155l177 -287l183 287h154l-269 -410v-1h129v-92h-129v-39h129v-92h-129v-66h-134v66h-129v92h129v39h-129v92h127z" />
    <glyph glyph-name="brokenbar" unicode="&#xa6;" horiz-adv-x="201" 
d="M152 800v-406h-103v406h103zM49 -175v406h103v-406h-103z" />
    <glyph glyph-name="section" unicode="&#xa7;" horiz-adv-x="470" 
d="M239 -190q-81 0 -140 45t-75 118l114 41q9 -45 36.5 -71.5t66.5 -26.5q36 0 60.5 22.5t24.5 56.5q0 53 -46 72l-122 56q-54 25 -84 68.5t-30 97.5q0 70 45 118q-45 48 -45 120q0 82 55 134q55 54 138 54q74 0 129.5 -42.5t72.5 -111.5l-113 -41q-8 40 -32.5 64.5
t-57.5 24.5q-31 0 -52 -22.5t-21 -57.5q0 -51 32 -65l128 -56q58 -26 90.5 -71t32.5 -99q0 -65 -48 -118q48 -48 48 -120q0 -83 -59 -136q-59 -54 -148 -54zM272 313l-87 37q-7 -3 -14.5 -22t-7.5 -38q0 -52 41 -69l93 -43q29 24 29 60q0 52 -54 75z" />
    <glyph glyph-name="dieresis" unicode="&#xa8;" horiz-adv-x="441" 
d="M39 778q0 31 21.5 52.5t53.5 21.5t53 -21t21 -53t-21 -53t-53 -21t-53.5 21t-21.5 53zM252 778q0 31 21.5 52.5t52.5 21.5q32 0 53.5 -21t21.5 -53t-21.5 -53t-53.5 -21q-31 0 -52.5 21t-21.5 53z" />
    <glyph glyph-name="copyright" unicode="&#xa9;" horiz-adv-x="795" 
d="M398 -8q-149 0 -254 105t-105 253t105 253q107 105 254 105q148 0 253 -105t105 -253t-105 -253t-253 -105zM90 350q0 -127 90 -217q92 -90 218 -90q127 0 217 90t90 217t-90 217q-90 91 -217 91q-128 0 -218 -90t-90 -218zM403 546q60 0 108.5 -28.5t72.5 -77.5l-78 -29
q-34 58 -103 58q-49 0 -83 -34q-33 -35 -33 -84q0 -51 33 -85t83 -34q69 0 103 57l78 -29q-25 -49 -73.5 -77.5t-107.5 -28.5q-84 0 -143 56q-57 57 -57 140q0 84 57 139q58 57 143 57z" />
    <glyph glyph-name="ordfeminine" unicode="&#xaa;" horiz-adv-x="428" 
d="M187 705q63 0 110 -44v39h99v-364h-99v39q-47 -44 -110 -44q-71 0 -120 54q-49 53 -49 133t49 133q49 54 120 54zM208 610q-36 0 -61.5 -26.5t-25.5 -64.5q0 -39 25.5 -66t61.5 -27q37 0 62 27t25 66q0 38 -25 64.5t-62 26.5z" />
    <glyph glyph-name="guillemotleft" unicode="&#xab;" horiz-adv-x="557" 
d="M224 65l-195 195l195 195l72 -72l-122 -123l122 -123zM446 65l-195 195l195 195l72 -72l-123 -123l123 -123z" />
    <glyph glyph-name="logicalnot" unicode="&#xac;" 
d="M432 154v139h-373v114h482v-253h-109z" />
    <glyph glyph-name="uni00AD" unicode="&#xad;" horiz-adv-x="400" 
d="M59 203v114h282v-114h-282z" />
    <glyph glyph-name="registered" unicode="&#xae;" horiz-adv-x="795" 
d="M398 -8q-149 0 -254 105t-105 253t105 253q107 105 254 105q148 0 253 -105t105 -253t-105 -253t-253 -105zM398 658q-128 0 -218 -90t-90 -218q0 -127 90 -217q92 -90 218 -90q127 0 217 90t90 217t-90 217q-90 91 -217 91zM328 159h-81v382h178q60 0 98 -37
q40 -36 40 -91q0 -77 -71 -114l83 -140h-90l-73 125h-84v-125zM425 467h-97v-108h97q23 0 38.5 15.5t15.5 38.5t-15.5 38.5t-38.5 15.5z" />
    <glyph glyph-name="overscore" unicode="&#xaf;" horiz-adv-x="389" 
d="M350 735h-311v101h311v-101z" />
    <glyph glyph-name="degree" unicode="&#xb0;" horiz-adv-x="412" 
d="M29 588q0 75 51 126t126 51q76 0 126 -51q51 -51 51 -126q0 -76 -51 -127q-50 -50 -126 -50q-74 0 -126 50q-51 51 -51 127zM158 636q-20 -20 -20 -48t20 -48t48 -20t48 20t20 48t-20 48t-48 20t-48 -20z" />
    <glyph glyph-name="plusminus" unicode="&#xb1;" 
d="M243 363h-184v114h184v184h114v-184h184v-114h-184v-153h-114v153zM59 48v114h482v-114h-482z" />
    <glyph glyph-name="twosuperior" unicode="&#xb2;" horiz-adv-x="320" 
d="M212 633q0 20 -16.5 33.5t-39.5 13.5q-49 0 -70 -54l-73 35q21 43 58.5 68.5t84.5 25.5q56 0 97 -35q40 -34 40 -84q0 -61 -83 -133l-67 -63h154v-75h-274v57l139 131q50 47 50 80z" />
    <glyph glyph-name="threesuperior" unicode="&#xb3;" horiz-adv-x="325" 
d="M214 636q0 19 -17 31.5t-43 12.5q-48 0 -65 -35l-69 24q18 39 55 62.5t84 23.5q58 0 97.5 -33.5t39.5 -84.5q0 -47 -48 -72q57 -25 57 -83q0 -52 -42 -87q-41 -35 -103 -35q-51 0 -90 24.5t-54 66.5l73 26q5 -19 23.5 -30.5t44.5 -11.5q29 0 48 14t19 35t-18.5 34.5
t-46.5 13.5h-30v59h20q28 0 46.5 12.5t18.5 32.5z" />
    <glyph glyph-name="acute" unicode="&#xb4;" horiz-adv-x="339" 
d="M81 710l-42 76l205 127l55 -110z" />
    <glyph glyph-name="mu" unicode="&#xb5;" horiz-adv-x="592" 
d="M258 -15q-44 0 -82 15v-225h-123v745h125v-296q0 -51 33.5 -85.5t84.5 -34.5q50 0 84 34.5t34 85.5v296h125v-520h-125v63q-57 -78 -156 -78z" />
    <glyph glyph-name="paragraph" unicode="&#xb6;" horiz-adv-x="683" 
d="M236 700h422v-93h-99v-782h-103v782h-118v-782h-102v473q-86 0 -144 57q-58 58 -58 144t58 143q58 58 144 58z" />
    <glyph glyph-name="middot" unicode="&#xb7;" horiz-adv-x="224" 
d="M56 294q-22 22 -22 56t22 56t56 22t56 -22t22 -56t-22 -56t-56 -22t-56 22z" />
    <glyph glyph-name="cedilla" unicode="&#xb8;" horiz-adv-x="311" 
d="M98 -88l21 88h92l-10 -44q3 -1 7.5 -2t16.5 -7t21.5 -14t17 -23t7.5 -33q0 -44 -36.5 -72.5t-92.5 -28.5q-54 0 -90 20l-13 6l14 65q25 -19 67 -19q25 0 42 8.5t17 21.5q0 12 -19 20.5t-42 11.5z" />
    <glyph glyph-name="onesuperior" unicode="&#xb9;" horiz-adv-x="242" 
d="M114 660l-67 -33l-29 66l118 57h56v-385h-78v295z" />
    <glyph glyph-name="ordmasculine" unicode="&#xba;" horiz-adv-x="425" 
d="M213 705q83 0 138 -54q56 -54 56 -133t-56 -133q-55 -54 -138 -54t-139 54t-56 133t56 133t139 54zM121 518q0 -38 26.5 -65t65.5 -27q38 0 64.5 27t26.5 65t-26.5 65t-64.5 27q-39 0 -65.5 -26.5t-26.5 -65.5z" />
    <glyph glyph-name="guillemotright" unicode="&#xbb;" horiz-adv-x="557" 
d="M333 455l195 -195l-195 -195l-72 72l122 123l-122 123zM111 455l195 -195l-195 -195l-72 72l122 123l-122 123z" />
    <glyph glyph-name="onequarter" unicode="&#xbc;" horiz-adv-x="806" 
d="M666 269l-102 -123h102v123zM666 0v72h-195v75l199 238h74v-239h47v-74h-47v-72h-78zM114 315v295l-67 -33l-29 66l118 57h56v-385h-78zM679 700l-492 -700h-107l492 700h107z" />
    <glyph glyph-name="onehalf" unicode="&#xbd;" horiz-adv-x="831" 
d="M114 315v295l-67 -33l-29 66l118 57h56v-385h-78zM679 700l-492 -700h-107l492 700h107zM723 268q0 20 -16.5 33.5t-39.5 13.5q-49 0 -70 -54l-72 35q19 43 57 68.5t85 25.5q56 0 97 -35t41 -84q0 -59 -84 -133l-67 -63h154v-75h-274v57l139 131q50 47 50 80z" />
    <glyph glyph-name="threequarters" unicode="&#xbe;" horiz-adv-x="881" 
d="M258 0h-107l492 700h107zM546 72v75l199 238h74v-239h47v-74h-47v-72h-78v72h-195zM160 310q-51 0 -90 24.5t-54 66.5l73 26q5 -19 23.5 -30.5t44.5 -11.5q29 0 48 14t19 35t-18.5 34.5t-46.5 13.5h-30v59h20q28 0 46.5 12.5t18.5 32.5q0 19 -17 31.5t-43 12.5
q-48 0 -65 -35l-69 24q18 39 55 62.5t84 23.5q58 0 97.5 -33.5t39.5 -84.5q0 -47 -48 -72q57 -25 57 -83q0 -52 -42 -87q-41 -35 -103 -35zM741 268l-102 -122h102v122z" />
    <glyph glyph-name="questiondown" unicode="&#xbf;" horiz-adv-x="569" 
d="M165 25q0 -41 36.5 -68.5t91.5 -27.5q46 0 80 21t46 56l130 -36q-24 -74 -93 -119q-68 -46 -161 -46q-111 0 -186 63q-74 63 -74 158q0 45 19 83.5t48.5 62.5t54.5 38t47 21l20 6l6 62h108l13 -133q-30 -8 -65 -22q-35 -15 -57 -28q-26 -16 -45 -41t-19 -50zM341 512
q23 -22 23 -56t-23 -57q-22 -22 -56 -22t-57 22q-22 23 -22 57t22 56q23 23 57 23t56 -23z" />
    <glyph glyph-name="Agrave" unicode="&#xc0;" horiz-adv-x="727" 
d="M150 0h-141l300 700h109l300 -700h-141l-55 132h-317zM470 255l-106 254l-107 -254h213zM409 759l-219 93l56 110l204 -127z" />
    <glyph glyph-name="Aacute" unicode="&#xc1;" horiz-adv-x="727" 
d="M150 0h-141l300 700h109l300 -700h-141l-55 132h-317zM470 255l-106 254l-107 -254h213zM531 852l-218 -93l-42 76l204 127z" />
    <glyph glyph-name="Acircumflex" unicode="&#xc2;" horiz-adv-x="727" 
d="M150 0h-141l300 700h109l300 -700h-141l-55 132h-317zM236 758l-51 70l175 127h7l174 -127l-50 -69l-128 74zM470 255l-106 254l-107 -254h213z" />
    <glyph glyph-name="Atilde" unicode="&#xc3;" horiz-adv-x="727" 
d="M205 132l-55 -132h-141l300 700h109l300 -700h-141l-55 132h-317zM292 777h-95q0 49 33 84t80 35q30 0 59 -20q29 -19 38 -19q11 0 19 10t8 24h95q0 -50 -32.5 -84.5t-79.5 -34.5q-31 0 -60 19q-28 19 -37 19q-11 0 -19.5 -9.5t-8.5 -23.5zM470 255l-106 254l-107 -254
h213z" />
    <glyph glyph-name="Adieresis" unicode="&#xc4;" horiz-adv-x="727" 
d="M205 132l-55 -132h-141l300 700h109l300 -700h-141l-55 132h-317zM470 255l-106 254l-107 -254h213zM396 827q0 32 21 53t53 21t53 -21t21 -53q0 -31 -21 -52.5t-53 -21.5t-53 21.5t-21 52.5zM258 901q31 0 52 -21t21 -53q0 -31 -21 -52.5t-52 -21.5q-32 0 -53.5 21
t-21.5 53t21.5 53t53.5 21z" />
    <glyph glyph-name="Aring" unicode="&#xc5;" horiz-adv-x="727" 
d="M205 132l-55 -132h-141l300 700h109l300 -700h-141l-55 132h-317zM364 983q47 0 82 -35t35 -83t-35 -83q-34 -34 -82 -34q-49 0 -83.5 34t-34.5 83t34 83q35 35 84 35zM470 255l-106 254l-107 -254h213zM396 865q2 20 -15 28.5t-34 0t-16 -28.5q-1 -20 16 -28t34 0.5
t15 27.5z" />
    <glyph glyph-name="AE" unicode="&#xc6;" horiz-adv-x="1026" 
d="M243 132l-81 -132h-153l439 700h539v-124h-352v-160h296v-124h-296v-168h357v-124h-492v132h-257zM319 255h181v293z" />
    <glyph glyph-name="Ccedilla" unicode="&#xc7;" horiz-adv-x="765" 
d="M39 350q0 156 104 260q105 105 261 105q109 0 196 -54q87 -53 131 -143l-130 -49q-29 54 -81.5 85.5t-115.5 31.5q-96 0 -161 -68q-64 -67 -64 -168t64 -168t161 -67q63 0 115.5 31t81.5 85l130 -49q-39 -79 -110.5 -130t-163.5 -64l-7 -32q3 -1 7.5 -2t16.5 -7t21 -14
t16.5 -23t7.5 -33q0 -44 -36.5 -72.5t-92.5 -28.5q-52 0 -90 20l-12 6l14 65q25 -19 66 -19q26 0 43 8.5t17 21.5q0 12 -18.5 20.5t-41.5 11.5l-21 2l17 75q-142 13 -234 116q-91 101 -91 247z" />
    <glyph glyph-name="Egrave" unicode="&#xc8;" horiz-adv-x="613" 
d="M58 700h516v-124h-382v-160h327v-124h-327v-168h387v-124h-521v700zM402 835l-41 -76l-219 93l56 110z" />
    <glyph glyph-name="Eacute" unicode="&#xc9;" horiz-adv-x="613" 
d="M58 700h516v-124h-382v-160h327v-124h-327v-168h387v-124h-521v700zM265 759l-42 76l204 127l56 -110z" />
    <glyph glyph-name="Ecircumflex" unicode="&#xca;" horiz-adv-x="613" 
d="M58 700h516v-124h-382v-160h327v-124h-327v-168h387v-124h-521v700zM187 758l-50 70l175 127h6l175 -127l-50 -69l-128 74z" />
    <glyph glyph-name="Edieresis" unicode="&#xcb;" horiz-adv-x="613" 
d="M58 700h516v-124h-382v-160h327v-124h-327v-168h387v-124h-521v700zM421 753q-31 0 -52 21.5t-21 52.5q0 32 21 53t52 21q32 0 53.5 -21t21.5 -53t-21.5 -53t-53.5 -21zM135 827q0 32 21 53t53 21t53 -21t21 -53q0 -31 -21.5 -52.5t-52.5 -21.5t-52.5 21.5t-21.5 52.5z
" />
    <glyph glyph-name="Igrave" unicode="&#xcc;" horiz-adv-x="250" 
d="M192 0h-134v700h134v-700zM170 759l-218 93l56 110l204 -127z" />
    <glyph glyph-name="Iacute" unicode="&#xcd;" horiz-adv-x="250" 
d="M192 0h-134v700h134v-700zM74 759l-41 76l204 127l56 -110z" />
    <glyph glyph-name="Icircumflex" unicode="&#xce;" horiz-adv-x="250" 
d="M192 0h-134v700h134v-700zM125 833l-128 -75l-50 70l174 127h7l175 -127l-51 -69z" />
    <glyph glyph-name="Idieresis" unicode="&#xcf;" horiz-adv-x="250" 
d="M192 0h-134v700h134v-700zM-56 827q0 32 21.5 53t53.5 21t53 -21t21 -53q0 -31 -21.5 -52.5t-52.5 -21.5q-32 0 -53.5 21.5t-21.5 52.5zM157 827q0 32 21.5 53t52.5 21q32 0 53.5 -21t21.5 -53t-21.5 -53t-53.5 -21q-31 0 -52.5 21.5t-21.5 52.5z" />
    <glyph glyph-name="Eth" unicode="&#xd0;" horiz-adv-x="767" 
d="M10 294v112h69v294h284q156 0 260 -101q105 -101 105 -249t-105 -249q-104 -101 -260 -101h-284v294h-69zM214 576v-170h190v-112h-190v-170h149q96 0 161 65t65 161t-65 161t-161 65h-149z" />
    <glyph glyph-name="Ntilde" unicode="&#xd1;" horiz-adv-x="733" 
d="M187 0h-129v700h119l369 -470v470h129v-700h-119l-369 469v-469zM295 777h-95q0 49 33 84q35 35 81 35q30 0 59 -20q28 -19 37 -19q11 0 19.5 10t8.5 24h95q0 -51 -33 -85t-80 -34q-31 0 -59 19t-37 19q-12 0 -20.5 -9.5t-8.5 -23.5z" />
    <glyph glyph-name="Ograve" unicode="&#xd2;" horiz-adv-x="809" 
d="M404 715q158 0 261 -105q105 -103 105 -260q0 -156 -105 -261q-104 -104 -261 -104q-155 0 -261 104q-104 106 -104 261q0 156 104 260q105 105 261 105zM179 350q0 -101 64 -168t161 -67t161 67q65 68 65 168t-65 168t-161 68t-161 -68q-64 -67 -64 -168zM450 759
l-219 93l56 110l204 -127z" />
    <glyph glyph-name="Oacute" unicode="&#xd3;" horiz-adv-x="809" 
d="M404 715q158 0 261 -105q105 -103 105 -260q0 -156 -105 -261q-104 -104 -261 -104q-155 0 -261 104q-104 106 -104 261q0 156 104 260q105 105 261 105zM179 350q0 -101 64 -168t161 -67t161 67q65 68 65 168t-65 168t-161 68t-161 -68q-64 -67 -64 -168zM353 759
l-41 76l204 127l56 -110z" />
    <glyph glyph-name="Ocircumflex" unicode="&#xd4;" horiz-adv-x="809" 
d="M404 715q158 0 261 -105q105 -103 105 -260q0 -156 -105 -261q-104 -104 -261 -104q-155 0 -261 104q-104 106 -104 261q0 156 104 260q105 105 261 105zM179 350q0 -101 64 -168t161 -67t161 67q65 68 65 168t-65 168t-161 68t-161 -68q-64 -67 -64 -168zM404 833
l-128 -75l-50 70l175 127h6l175 -127l-51 -69z" />
    <glyph glyph-name="Otilde" unicode="&#xd5;" horiz-adv-x="809" 
d="M404 715q158 0 261 -105q105 -103 105 -260q0 -156 -105 -261q-104 -104 -261 -104q-155 0 -261 104q-104 106 -104 261q0 156 104 260q105 105 261 105zM179 350q0 -101 64 -168t161 -67t161 67q65 68 65 168t-65 168t-161 68t-161 -68q-64 -67 -64 -168zM333 777h-95
q0 49 33 84t80 35q30 0 59 -20q29 -19 38 -19q11 0 19 10t8 24h95q0 -49 -33 -84q-32 -35 -79 -35q-32 0 -60 19t-37 19q-11 0 -19.5 -9.5t-8.5 -23.5z" />
    <glyph glyph-name="Odieresis" unicode="&#xd6;" horiz-adv-x="809" 
d="M404 715q158 0 261 -105q105 -103 105 -260q0 -156 -105 -261q-104 -104 -261 -104q-155 0 -261 104q-104 106 -104 261q0 156 104 260q105 105 261 105zM179 350q0 -101 64 -168t161 -67t161 67q65 68 65 168t-65 168t-161 68t-161 -68q-64 -67 -64 -168zM223 827
q0 32 21.5 53t53.5 21t53 -21t21 -53q0 -31 -21 -52.5t-53 -21.5t-53.5 21.5t-21.5 52.5zM436 827q0 32 21.5 53t52.5 21q32 0 53.5 -21t21.5 -53t-21.5 -53t-53.5 -21q-31 0 -52.5 21.5t-21.5 52.5z" />
    <glyph glyph-name="multiply" unicode="&#xd7;" 
d="M219 350l-151 150l81 81l151 -150l152 151l80 -80l-151 -152l151 -150l-80 -81l-152 151l-151 -151l-81 81z" />
    <glyph glyph-name="Oslash" unicode="&#xd8;" horiz-adv-x="809" 
d="M130 41l26 38q-117 103 -117 271q0 156 104 260q105 105 261 105q88 0 169 -38l27 38l81 -56l-27 -38q116 -107 116 -271q0 -156 -105 -261q-104 -104 -261 -104q-90 0 -167 39l-28 -39zM575 508l-262 -375q42 -18 91 -18q97 0 161 67q65 68 65 168q0 94 -55 158z
M235 191l261 376q-42 19 -92 19q-96 0 -161 -68q-64 -67 -64 -168q0 -94 56 -159z" />
    <glyph glyph-name="Ugrave" unicode="&#xd9;" horiz-adv-x="709" 
d="M526 281v419h134v-419q0 -126 -88 -211q-86 -85 -218 -85q-130 0 -218 85q-87 86 -87 211v419h134v-419q0 -74 49 -123t122 -49q74 0 123 49t49 123zM400 759l-219 93l56 110l204 -127z" />
    <glyph glyph-name="Uacute" unicode="&#xda;" horiz-adv-x="709" 
d="M526 281v419h134v-419q0 -126 -88 -211q-86 -85 -218 -85q-130 0 -218 85q-87 86 -87 211v419h134v-419q0 -74 49 -123t122 -49q74 0 123 49t49 123zM304 759l-42 76l204 127l56 -110z" />
    <glyph glyph-name="Ucircumflex" unicode="&#xdb;" horiz-adv-x="709" 
d="M526 281v419h134v-419q0 -126 -88 -211q-86 -85 -218 -85q-130 0 -218 85q-87 86 -87 211v419h134v-419q0 -74 49 -123t122 -49q74 0 123 49t49 123zM354 833l-128 -75l-50 70l175 127h6l175 -127l-50 -69z" />
    <glyph glyph-name="Udieresis" unicode="&#xdc;" horiz-adv-x="709" 
d="M526 281v419h134v-419q0 -126 -88 -211q-86 -85 -218 -85q-130 0 -218 85q-87 86 -87 211v419h134v-419q0 -74 49 -123t122 -49q74 0 123 49t49 123zM174 827q0 32 21 53t53 21t53 -21t21 -53q0 -31 -21 -52.5t-53 -21.5t-53 21.5t-21 52.5zM387 827q0 32 21 53t52 21
q32 0 53.5 -21t21.5 -53t-21.5 -53t-53.5 -21q-31 0 -52 21.5t-21 52.5z" />
    <glyph glyph-name="Yacute" unicode="&#xdd;" horiz-adv-x="687" 
d="M275 0v286l-266 414h155l177 -288l183 288h154l-269 -410v-290h-134zM512 852l-219 -93l-41 76l204 127z" />
    <glyph glyph-name="Thorn" unicode="&#xde;" horiz-adv-x="652" 
d="M58 0v700h134v-123h180q102 0 172 -65q70 -64 70 -162t-70 -162q-70 -65 -172 -65h-180v-123h-134zM372 453h-180v-206h180q44 0 73 29.5t29 73.5t-29 73.5t-73 29.5z" />
    <glyph glyph-name="germandbls" unicode="&#xdf;" horiz-adv-x="601" 
d="M273 640q-41 0 -68 -24t-27 -61v-555h-125v576q0 80 61 134q62 54 155 54q89 0 148 -49q60 -48 60 -120q0 -24 -11 -49.5t-19 -37t-28 -36.5q-37 -46 -1 -84q13 -13 46 -38t47 -38q62 -51 62 -145q0 -91 -67 -134t-213 -43v124q84 0 117 13.5t33 46.5q0 26 -17.5 47.5
t-43 38.5t-51 36.5t-43 51t-17.5 71.5q-1 37 19 73t40 61t18 38q0 21 -22 35t-53 14z" />
    <glyph glyph-name="agrave" unicode="&#xe0;" horiz-adv-x="622" 
d="M287 -15q-107 0 -181 78q-72 79 -72 197t72 196q73 79 181 79q88 0 158 -56v41h124v-520h-124v41q-70 -56 -158 -56zM203 367q-40 -43 -40 -107t40 -107t100 -43q59 0 99 43q41 44 41 107t-41 107q-40 43 -99 43q-60 0 -100 -43zM399 665l-42 -76l-218 93l56 110z" />
    <glyph glyph-name="aacute" unicode="&#xe1;" horiz-adv-x="622" 
d="M287 -15q-107 0 -181 78q-72 79 -72 197t72 196q73 79 181 79q88 0 158 -56v41h124v-520h-124v41q-70 -56 -158 -56zM203 367q-40 -43 -40 -107t40 -107t100 -43q59 0 99 43q41 44 41 107t-41 107q-40 43 -99 43q-60 0 -100 -43zM480 682l-219 -93l-41 76l204 127z" />
    <glyph glyph-name="acircumflex" unicode="&#xe2;" horiz-adv-x="622" 
d="M287 -15q-107 0 -181 78q-72 79 -72 197t72 196q73 79 181 79q88 0 158 -56v41h124v-520h-124v41q-70 -56 -158 -56zM203 367q-40 -43 -40 -107t40 -107t100 -43q59 0 99 43q41 44 41 107t-41 107q-40 43 -99 43q-60 0 -100 -43zM184 588l-50 70l174 127h7l175 -127
l-51 -69l-127 74z" />
    <glyph glyph-name="atilde" unicode="&#xe3;" horiz-adv-x="622" 
d="M287 -15q-107 0 -181 78q-72 79 -72 197t72 196q73 79 181 79q88 0 158 -56v41h124v-520h-124v41q-70 -56 -158 -56zM203 367q-40 -43 -40 -107t40 -107t100 -43q59 0 99 43q41 44 41 107t-41 107q-40 43 -99 43q-60 0 -100 -43zM241 607h-95q0 49 33 84t80 35
q28 0 59 -20q29 -19 38 -19q11 0 19 10t8 24h95q0 -49 -33 -84q-32 -35 -79 -35q-32 0 -60 19t-37 19q-11 0 -19.5 -9.5t-8.5 -23.5z" />
    <glyph glyph-name="adieresis" unicode="&#xe4;" horiz-adv-x="622" 
d="M287 535q88 0 158 -56v41h124v-520h-124v41q-70 -56 -158 -56q-107 0 -181 78q-72 79 -72 197t72 196q73 79 181 79zM402 367q-40 43 -99 43q-60 0 -100 -43t-40 -107t40 -107t100 -43q59 0 99 43q41 44 41 107t-41 107zM344 657q0 32 21.5 53t52.5 21q32 0 53.5 -21
t21.5 -53t-21.5 -53t-53.5 -21q-31 0 -52.5 21.5t-21.5 52.5zM131 657q0 32 21.5 53t53.5 21t53 -21t21 -53q0 -31 -21 -52.5t-53 -21.5t-53.5 21.5t-21.5 52.5z" />
    <glyph glyph-name="aring" unicode="&#xe5;" horiz-adv-x="622" 
d="M287 535q88 0 158 -56v41h124v-520h-124v41q-70 -56 -158 -56q-107 0 -181 78q-72 79 -72 197t72 196q73 79 181 79zM203 367q-40 -43 -40 -107t40 -107t100 -43q59 0 99 43q41 44 41 107t-41 107q-40 43 -99 43q-60 0 -100 -43zM229 612q-34 34 -34 83t34 83
q35 35 83 35t83 -35t35 -83t-35 -83q-34 -34 -83 -34t-83 34zM289 718q-9 -9 -9 -23t9 -23t23 -9t23 9q10 9 10 23t-10 23q-9 10 -23 10t-23 -10z" />
    <glyph glyph-name="ae" unicode="&#xe6;" horiz-adv-x="1015" 
d="M287 -15q-107 0 -181 78q-72 79 -72 197t72 196q73 79 181 79q91 0 158 -57v42h124v-43q68 58 163 58q109 0 184 -79t75 -196q0 -29 -4 -46h-413q14 -51 55.5 -82.5t96.5 -31.5q77 0 122 55l121 -35q-33 -63 -94.5 -99t-136.5 -36q-96 0 -169 60v-45h-124v42
q-67 -57 -158 -57zM203 367q-40 -43 -40 -107t40 -107t100 -43q59 0 99 43q41 44 41 107t-41 107q-40 43 -99 43q-60 0 -100 -43zM575 311h287q-14 49 -54 79t-92 30q-49 0 -87.5 -30t-53.5 -79z" />
    <glyph glyph-name="ccedilla" unicode="&#xe7;" horiz-adv-x="590" 
d="M251 -88l17 76q-102 13 -169 89q-65 77 -65 183q0 118 78 196q79 79 197 79q89 0 158 -46.5t99 -125.5l-125 -37q-17 39 -52.5 61.5t-79.5 22.5q-62 0 -104 -43t-42 -107t42 -107t104 -43q44 0 79.5 22.5t52.5 61.5l125 -37q-26 -66 -79.5 -110t-124.5 -57l-8 -34
q3 -1 7.5 -2t16.5 -7t21.5 -14t17 -23t7.5 -33q0 -44 -36.5 -72.5t-93.5 -28.5q-52 0 -90 20l-12 6l14 65q25 -19 66 -19q26 0 43 8.5t17 21.5q0 12 -18.5 20.5t-41.5 11.5z" />
    <glyph glyph-name="egrave" unicode="&#xe8;" horiz-adv-x="604" 
d="M576 214h-413q14 -51 55.5 -82.5t96.5 -31.5q77 0 122 55l121 -35q-36 -63 -100.5 -99t-142.5 -36q-120 0 -201 78q-80 80 -80 197q0 118 78 196q79 79 195 79t194 -79q79 -79 79 -196q0 -19 -4 -46zM164 311h287q-15 49 -55 79t-91 30q-49 0 -88 -30t-53 -79zM353 589
l-219 93l56 110l204 -127z" />
    <glyph glyph-name="eacute" unicode="&#xe9;" horiz-adv-x="604" 
d="M576 214h-413q14 -51 55.5 -82.5t96.5 -31.5q77 0 122 55l121 -35q-36 -63 -100.5 -99t-142.5 -36q-120 0 -201 78q-80 80 -80 197q0 118 78 196q79 79 195 79t194 -79q79 -79 79 -196q0 -19 -4 -46zM164 311h287q-15 49 -55 79t-91 30q-49 0 -88 -30t-53 -79zM256 589
l-41 76l204 127l56 -110z" />
    <glyph glyph-name="ecircumflex" unicode="&#xea;" horiz-adv-x="604" 
d="M576 214h-413q14 -51 55.5 -82.5t96.5 -31.5q77 0 122 55l121 -35q-36 -63 -100.5 -99t-142.5 -36q-120 0 -201 78q-80 80 -80 197q0 118 78 196q79 79 195 79t194 -79q79 -79 79 -196q0 -19 -4 -46zM164 311h287q-15 49 -55 79t-91 30q-49 0 -88 -30t-53 -79zM307 663
l-128 -75l-50 70l175 127h6l175 -127l-51 -69z" />
    <glyph glyph-name="edieresis" unicode="&#xeb;" horiz-adv-x="604" 
d="M576 214h-413q14 -51 55.5 -82.5t96.5 -31.5q77 0 122 55l121 -35q-36 -63 -100.5 -99t-142.5 -36q-120 0 -201 78q-80 80 -80 197q0 118 78 196q79 79 195 79t194 -79q79 -79 79 -196q0 -19 -4 -46zM164 311h287q-15 49 -55 79t-91 30q-49 0 -88 -30t-53 -79zM126 657
q0 32 21.5 53t53.5 21t53 -21t21 -53q0 -31 -21.5 -52.5t-52.5 -21.5q-32 0 -53.5 21.5t-21.5 52.5zM339 657q0 32 21.5 53t52.5 21q32 0 53.5 -21t21.5 -53t-21.5 -53t-53.5 -21q-31 0 -52.5 21.5t-21.5 52.5z" />
    <glyph glyph-name="igrave" unicode="&#xec;" horiz-adv-x="231" 
d="M178 0h-125v520h125v-520zM-42 682l55 110l205 -127l-41 -75z" />
    <glyph glyph-name="iacute" unicode="&#xed;" horiz-adv-x="231" 
d="M178 0h-125v520h125v-520zM7 665l204 127l56 -110l-219 -92z" />
    <glyph glyph-name="icircumflex" unicode="&#xee;" horiz-adv-x="231" 
d="M178 0h-125v520h125v-520zM-10 589l-51 69l173 127h7l173 -127l-52 -68l-124 73z" />
    <glyph glyph-name="idieresis" unicode="&#xef;" horiz-adv-x="232" 
d="M178 0h-124v520h124v-520zM-27 604q-22 22 -22 53t22 52q21 22 52 22t52 -22q22 -21 22 -52t-22 -53q-21 -21 -52 -21t-52 21zM154 604q-21 22 -21 53t21 52q22 22 53 22t52 -22q22 -21 22 -52t-22 -53q-21 -21 -52 -21t-53 21z" />
    <glyph glyph-name="eth" unicode="&#xf0;" horiz-adv-x="618" 
d="M309 535q55 0 107 -20q-38 75 -117 105l-49 -75l-76 48l30 47q-36 3 -77 3v122q88 0 150 -13l47 72l75 -48l-33 -51q111 -48 164.5 -159t54.5 -304q0 -119 -79 -198q-78 -79 -197 -79q-117 0 -197 78q-78 79 -78 197t78 196q79 79 197 79zM205 367q-42 -43 -42 -107
t42 -107t104 -43t104 43t42 107t-42 107t-104 43t-104 -43z" />
    <glyph glyph-name="ntilde" unicode="&#xf1;" horiz-adv-x="592" 
d="M53 0v520h125v-63q57 78 156 78q88 0 146 -58q59 -59 59 -145v-332h-125v297q0 51 -33.5 85t-83.5 34q-51 0 -85 -34t-34 -85v-297h-125zM230 607h-95q0 49 33 84t80 35q30 0 59 -20q29 -19 38 -19q11 0 19 10t8 24h95q0 -50 -32.5 -84.5t-79.5 -34.5q-32 0 -60 19
t-37 19q-11 0 -19.5 -9.5t-8.5 -23.5z" />
    <glyph glyph-name="ograve" unicode="&#xf2;" horiz-adv-x="618" 
d="M112 63q-78 79 -78 197t78 196q79 79 197 79t197 -79q79 -78 79 -196t-79 -197q-80 -78 -197 -78t-197 78zM205 367q-42 -43 -42 -107t42 -107t104 -43t104 43t42 107t-42 107t-104 43t-104 -43zM354 589l-218 93l56 110l204 -127z" />
    <glyph glyph-name="oacute" unicode="&#xf3;" horiz-adv-x="618" 
d="M112 63q-78 79 -78 197t78 196q79 79 197 79t197 -79q79 -78 79 -196t-79 -197q-80 -78 -197 -78t-197 78zM205 367q-42 -43 -42 -107t42 -107t104 -43t104 43t42 107t-42 107t-104 43t-104 -43zM258 589l-41 76l204 127l56 -110z" />
    <glyph glyph-name="ocircumflex" unicode="&#xf4;" horiz-adv-x="618" 
d="M112 63q-78 79 -78 197t78 196q79 79 197 79t197 -79q79 -78 79 -196t-79 -197q-80 -78 -197 -78t-197 78zM205 367q-42 -43 -42 -107t42 -107t104 -43t104 43t42 107t-42 107t-104 43t-104 -43zM309 663l-128 -75l-50 70l174 127h7l175 -127l-51 -69z" />
    <glyph glyph-name="otilde" unicode="&#xf5;" horiz-adv-x="618" 
d="M112 63q-78 79 -78 197t78 196q79 79 197 79t197 -79q79 -78 79 -196t-79 -197q-80 -78 -197 -78t-197 78zM205 367q-42 -43 -42 -107t42 -107t104 -43t104 43t42 107t-42 107t-104 43t-104 -43zM237 607h-95q0 49 33 84q35 35 81 35q30 0 59 -20q28 -19 38 -19
q11 0 19 10t8 24h95q0 -51 -33 -85t-80 -34q-31 0 -59 19t-37 19q-12 0 -20.5 -9.5t-8.5 -23.5z" />
    <glyph glyph-name="odieresis" unicode="&#xf6;" horiz-adv-x="618" 
d="M112 63q-78 79 -78 197t78 196q79 79 197 79t197 -79q79 -78 79 -196t-79 -197q-80 -78 -197 -78t-197 78zM205 367q-42 -43 -42 -107t42 -107t104 -43t104 43t42 107t-42 107t-104 43t-104 -43zM128 657q0 32 21.5 53t53.5 21t53 -21t21 -53q0 -31 -21.5 -52.5
t-52.5 -21.5q-32 0 -53.5 21.5t-21.5 52.5zM341 657q0 32 21.5 53t52.5 21q32 0 53.5 -21t21.5 -53t-21.5 -53t-53.5 -21q-31 0 -52.5 21.5t-21.5 52.5z" />
    <glyph glyph-name="divide" unicode="&#xf7;" 
d="M59 293v114h482v-114h-482zM243 90q-22 23 -22 57t22 56q23 23 57 23t56 -23q23 -22 23 -56t-23 -57q-22 -22 -56 -22t-57 22zM243 496q-22 23 -22 57t22 56q23 23 57 23t56 -23q23 -22 23 -56t-23 -57q-22 -22 -56 -22t-57 22z" />
    <glyph glyph-name="oslash" unicode="&#xf8;" horiz-adv-x="618" 
d="M309 535q63 0 116 -24l17 24l78 -56l-15 -22q80 -78 80 -197q0 -118 -79 -197q-80 -78 -197 -78q-67 0 -117 25l-16 -25l-79 56l16 23q-79 76 -79 196q0 118 78 196q79 79 197 79zM428 348l-162 -233q25 -5 43 -5q62 0 104 43t42 107q0 48 -27 88zM189 173l162 232
q-18 5 -42 5q-62 0 -104 -43t-42 -107q0 -47 26 -87z" />
    <glyph glyph-name="ugrave" unicode="&#xf9;" horiz-adv-x="592" 
d="M258 -15q-89 0 -147 58t-58 145v332h125v-296q0 -51 33.5 -85.5t84.5 -34.5q50 0 84 34.5t34 85.5v296h125v-520h-125v63q-57 -78 -156 -78zM383 665l-41 -76l-219 93l56 110z" />
    <glyph glyph-name="uacute" unicode="&#xfa;" horiz-adv-x="592" 
d="M53 188v332h125v-296q0 -51 33.5 -85.5t84.5 -34.5q50 0 84 34.5t34 85.5v296h125v-520h-125v63q-57 -78 -156 -78q-89 0 -147 58t-58 145zM464 682l-218 -93l-42 76l204 127z" />
    <glyph glyph-name="ucircumflex" unicode="&#xfb;" horiz-adv-x="592" 
d="M53 188v332h125v-296q0 -51 33.5 -85.5t84.5 -34.5q50 0 84 34.5t34 85.5v296h125v-520h-125v63q-57 -78 -156 -78q-89 0 -147 58t-58 145zM296 663l-128 -75l-50 70l175 127h7l174 -127l-50 -69z" />
    <glyph glyph-name="udieresis" unicode="&#xfc;" horiz-adv-x="592" 
d="M53 188v332h125v-296q0 -51 33.5 -85.5t84.5 -34.5q50 0 84 34.5t34 85.5v296h125v-520h-125v63q-57 -78 -156 -78q-89 0 -147 58t-58 145zM329 657q0 32 21 53t53 21t53 -21t21 -53q0 -31 -21.5 -52.5t-52.5 -21.5t-52.5 21.5t-21.5 52.5zM116 657q0 32 21 53t53 21
t53 -21t21 -53q0 -31 -21 -52.5t-53 -21.5t-53 21.5t-21 52.5z" />
    <glyph glyph-name="yacute" unicode="&#xfd;" horiz-adv-x="545" 
d="M209 10l-200 510h129l133 -351l136 351h129l-235 -588q-33 -82 -87 -119.5t-140 -37.5h-20v119h20q89 0 121 80zM222 589l-42 76l205 127l55 -110z" />
    <glyph glyph-name="thorn" unicode="&#xfe;" horiz-adv-x="622" 
d="M178 -225h-125v975h125v-271q70 56 157 56q108 0 181 -79q73 -77 73 -196q0 -118 -73 -197q-74 -78 -181 -78q-87 0 -157 56v-266zM418 367q-40 43 -99 43t-99 -43t-40 -107t40 -107t99 -43t99 43q41 44 41 107t-41 107z" />
    <glyph glyph-name="ydieresis" unicode="&#xff;" horiz-adv-x="545" 
d="M209 10l-200 510h129l133 -351l136 351h129l-235 -588q-33 -82 -87 -119.5t-140 -37.5h-20v119h20q89 0 121 80zM305 657q0 32 21 53t53 21t53.5 -21t21.5 -53q0 -31 -21.5 -52.5t-53.5 -21.5q-31 0 -52.5 21.5t-21.5 52.5zM167 583q-32 0 -53.5 21t-21.5 53t21.5 53
t53.5 21q31 0 52.5 -21t21.5 -53q0 -31 -21.5 -52.5t-52.5 -21.5z" />
    <glyph glyph-name="Amacron" unicode="&#x100;" horiz-adv-x="727" 
d="M150 0h-141l300 700h109l300 -700h-141l-55 132h-317zM208 784v102h311v-102h-311zM470 255l-106 254l-107 -254h213z" />
    <glyph glyph-name="amacron" unicode="&#x101;" horiz-adv-x="622" 
d="M287 535q88 0 158 -56v41h124v-520h-124v41q-70 -56 -158 -56q-107 0 -181 78q-72 79 -72 197t72 196q73 79 181 79zM203 367q-40 -43 -40 -107t40 -107t100 -43q59 0 99 43q41 44 41 107t-41 107q-40 43 -99 43q-60 0 -100 -43zM467 716v-102h-310v102h310z" />
    <glyph glyph-name="Abreve" unicode="&#x102;" horiz-adv-x="727" 
d="M205 132l-55 -132h-141l300 700h109l300 -700h-141l-55 132h-317zM201 910h96q0 -31 19 -52.5t48 -21.5t47 21t18 53h97q0 -68 -47 -115q-46 -46 -116 -46t-116 46t-46 115zM470 255l-106 254l-107 -254h213z" />
    <glyph glyph-name="abreve" unicode="&#x103;" horiz-adv-x="622" 
d="M287 -15q-107 0 -181 78q-72 79 -72 197t72 196q73 79 181 79q88 0 158 -56v41h124v-520h-124v41q-70 -56 -158 -56zM402 367q-40 43 -99 43q-60 0 -100 -43t-40 -107t40 -107t100 -43q59 0 99 43q41 44 41 107t-41 107zM149 740h97q0 -32 19 -53t48 -21q28 0 46.5 21
t18.5 53h97q0 -68 -47 -115q-46 -46 -116 -46q-71 0 -117 46t-46 115z" />
    <glyph glyph-name="Aogonek" unicode="&#x104;" horiz-adv-x="727" 
d="M150 0h-141l300 700h109l300 -700h-18l-17 -15q-12 -12 -27 -35q-16 -25 -16 -46q0 -15 10 -24.5t25 -9.5q25 0 43 18l6 6l42 -51l-16 -15q-12 -10 -41 -24q-30 -15 -61 -15q-45 0 -74 26t-29 66q0 26 15 56t32 47l15 16h-30l-55 132h-317zM470 255l-106 254l-107 -254
h213z" />
    <glyph glyph-name="aogonek" unicode="&#x105;" horiz-adv-x="622" 
d="M287 -15q-107 0 -181 78q-72 79 -72 197t72 196q73 79 181 79q88 0 158 -56v41h124v-520h-15q-51 -43 -59 -87q-1 -2 -1 -9q0 -15 10 -24.5t25 -9.5q25 0 43 18l6 6l42 -51l-16 -15q-12 -10 -41 -24q-30 -15 -61 -15q-45 0 -74 26t-29 66q0 26 14.5 55.5t32.5 47.5l15 16
h-16v41q-70 -56 -158 -56zM203 367q-40 -43 -40 -107t40 -107t100 -43q59 0 99 43q41 44 41 107t-41 107q-40 43 -99 43q-60 0 -100 -43z" />
    <glyph glyph-name="Cacute" unicode="&#x106;" horiz-adv-x="765" 
d="M404 715q109 0 196 -54q87 -53 131 -143l-130 -49q-29 54 -81.5 85.5t-115.5 31.5q-96 0 -161 -68q-64 -67 -64 -168t64 -168t161 -67q63 0 115.5 31t81.5 85l130 -49q-43 -90 -131 -144q-88 -53 -196 -53q-155 0 -261 104q-104 106 -104 261q0 156 104 260
q105 105 261 105zM351 759l-42 76l204 127l56 -110z" />
    <glyph glyph-name="cacute" unicode="&#x107;" horiz-adv-x="590" 
d="M566 363l-125 -37q-17 39 -52.5 61.5t-79.5 22.5q-62 0 -104 -43t-42 -107t42 -107t104 -43q44 0 79.5 22.5t52.5 61.5l125 -37q-30 -79 -99 -125.5t-158 -46.5q-117 0 -197 78q-78 79 -78 197t78 196q79 79 197 79q89 0 158 -46.5t99 -125.5zM256 589l-41 76l204 127
l56 -110z" />
    <glyph glyph-name="Ccircumflex" unicode="&#x108;" horiz-adv-x="765" 
d="M404 715q109 0 196 -54q87 -53 131 -143l-130 -49q-29 54 -81.5 85.5t-115.5 31.5q-96 0 -161 -68q-64 -67 -64 -168t64 -168t161 -67q63 0 115.5 31t81.5 85l130 -49q-43 -90 -131 -144q-88 -53 -196 -53q-155 0 -261 104q-104 106 -104 261q0 156 104 260
q105 105 261 105zM401 833l-127 -75l-51 70l175 127h7l174 -127l-50 -69z" />
    <glyph glyph-name="ccircumflex" unicode="&#x109;" horiz-adv-x="590" 
d="M566 363l-125 -37q-17 39 -52.5 61.5t-79.5 22.5q-62 0 -104 -43t-42 -107t42 -107t104 -43q44 0 79.5 22.5t52.5 61.5l125 -37q-30 -79 -99 -125.5t-158 -46.5q-117 0 -197 78q-78 79 -78 197t78 196q79 79 197 79q89 0 158 -46.5t99 -125.5zM307 663l-128 -75l-51 70
l175 127h7l175 -127l-51 -69z" />
    <glyph glyph-name="Cdotaccent" unicode="&#x10a;" horiz-adv-x="765" 
d="M404 715q109 0 196 -54q87 -53 131 -143l-130 -49q-29 54 -81.5 85.5t-115.5 31.5q-96 0 -161 -68q-64 -67 -64 -168t64 -168t161 -67q63 0 115.5 31t81.5 85l130 -49q-43 -90 -131 -144q-88 -53 -196 -53q-155 0 -261 104q-104 106 -104 261q0 156 104 260
q105 105 261 105zM323 832q0 34 22.5 56.5t55.5 22.5q34 0 56.5 -22.5t22.5 -56.5q0 -33 -22.5 -55.5t-56.5 -22.5q-33 0 -55.5 22.5t-22.5 55.5z" />
    <glyph glyph-name="cdotaccent" unicode="&#x10b;" horiz-adv-x="590" 
d="M566 363l-125 -37q-17 39 -52.5 61.5t-79.5 22.5q-62 0 -104 -43t-42 -107t42 -107t104 -43q44 0 79.5 22.5t52.5 61.5l125 -37q-30 -79 -99 -125.5t-158 -46.5q-117 0 -197 78q-78 79 -78 197t78 196q79 79 197 79q89 0 158 -46.5t99 -125.5zM229 662q0 34 22 56.5
t56 22.5t56 -22.5t22 -56.5q0 -33 -22 -55.5t-56 -22.5t-56 22.5t-22 55.5z" />
    <glyph glyph-name="Ccaron" unicode="&#x10c;" horiz-adv-x="765" 
d="M404 715q109 0 196 -54q87 -53 131 -143l-130 -49q-29 54 -81.5 85.5t-115.5 31.5q-96 0 -161 -68q-64 -67 -64 -168t64 -168t161 -67q63 0 115.5 31t81.5 85l130 -49q-43 -90 -131 -144q-88 -53 -196 -53q-155 0 -261 104q-104 106 -104 261q0 156 104 260
q105 105 261 105zM401 881l128 74l50 -69l-174 -127h-7l-175 127l51 70z" />
    <glyph glyph-name="ccaron" unicode="&#x10d;" horiz-adv-x="590" 
d="M566 363l-125 -37q-17 39 -52.5 61.5t-79.5 22.5q-62 0 -104 -43t-42 -107t42 -107t104 -43q44 0 79.5 22.5t52.5 61.5l125 -37q-30 -79 -99 -125.5t-158 -46.5q-117 0 -197 78q-78 79 -78 197t78 196q79 79 197 79q89 0 158 -46.5t99 -125.5zM307 711l127 74l51 -69
l-175 -127h-7l-175 127l51 70z" />
    <glyph glyph-name="Dcaron" unicode="&#x10e;" horiz-adv-x="746" 
d="M342 0h-284v700h284q156 0 260 -101q105 -101 105 -249t-105 -249q-104 -101 -260 -101zM342 576h-150v-452h150q96 0 161 65q65 67 65 161q0 95 -65 160q-64 66 -161 66zM258 759l-175 127l50 70l128 -75l128 74l50 -69l-174 -127h-7z" />
    <glyph glyph-name="dcaron" unicode="&#x10f;" horiz-adv-x="762" 
d="M287 535q91 0 158 -57v272h124v-750h-124v42q-67 -57 -158 -57q-107 0 -181 78q-72 79 -72 197t72 196q73 79 181 79zM618 703q0 26 18.5 44t45.5 18q31 0 50.5 -23t19.5 -58q0 -77 -95 -131l-1 -1l-32 32q47 36 47 55q-23 4 -38 22t-15 42zM304 410q-60 0 -100 -43
q-41 -44 -41 -107t41 -107q40 -43 100 -43t100 43q41 44 41 107t-41 107q-40 43 -100 43z" />
    <glyph glyph-name="Dcroat" unicode="&#x110;" horiz-adv-x="767" 
d="M10 294v112h69v294h284q156 0 260 -101q105 -101 105 -249t-105 -249q-104 -101 -260 -101h-284v294h-69zM214 576v-170h190v-112h-190v-170h149q96 0 161 65t65 161t-65 161t-161 65h-149z" />
    <glyph glyph-name="dslash" unicode="&#x111;" horiz-adv-x="623" 
d="M287 535q88 0 158 -56v100h-168v92h168v79h124v-79h49v-92h-49v-579h-124v41q-70 -56 -158 -56q-107 0 -181 78q-72 79 -72 197t72 196q73 79 181 79zM402 367q-40 43 -99 43q-60 0 -100 -43t-40 -107t40 -107t100 -43q59 0 99 43q41 44 41 107t-41 107z" />
    <glyph glyph-name="Emacron" unicode="&#x112;" horiz-adv-x="613" 
d="M58 700h516v-124h-382v-160h327v-124h-327v-168h387v-124h-521v700zM160 784v102h311v-102h-311z" />
    <glyph glyph-name="emacron" unicode="&#x113;" horiz-adv-x="604" 
d="M576 214h-413q14 -51 55.5 -82.5t96.5 -31.5q77 0 122 55l121 -35q-36 -63 -100.5 -99t-142.5 -36q-120 0 -201 78q-80 80 -80 197q0 118 78 196q79 79 195 79t194 -79q79 -79 79 -196q0 -19 -4 -46zM164 311h287q-15 49 -55 79t-91 30q-49 0 -88 -30t-53 -79zM462 614
h-310v102h310v-102z" />
    <glyph glyph-name="Ebreve" unicode="&#x114;" horiz-adv-x="613" 
d="M579 0h-521v700h516v-124h-382v-160h327v-124h-327v-168h387v-124zM315 749q-70 0 -116 46t-46 115h96q0 -31 19 -52.5t48 -21.5t47 21t18 53h97q0 -68 -47 -115q-46 -46 -116 -46z" />
    <glyph glyph-name="ebreve" unicode="&#x115;" horiz-adv-x="604" 
d="M576 214h-413q14 -51 55.5 -82.5t96.5 -31.5q77 0 122 55l121 -35q-36 -63 -100.5 -99t-142.5 -36q-120 0 -201 78q-80 80 -80 197q0 118 78 196q79 79 195 79t194 -79q79 -79 79 -196q0 -19 -4 -46zM164 311h287q-15 49 -55 79t-91 30q-49 0 -88 -30t-53 -79zM144 740
h97q0 -31 19 -52.5t48 -21.5t47 21t18 53h97q0 -68 -47 -115q-46 -46 -116 -46q-71 0 -117 46t-46 115z" />
    <glyph glyph-name="Edotaccent" unicode="&#x116;" horiz-adv-x="613" 
d="M58 700h516v-124h-382v-160h327v-124h-327v-168h387v-124h-521v700zM237 832q0 34 22.5 56.5t55.5 22.5q34 0 56.5 -22.5t22.5 -56.5q0 -33 -22.5 -55.5t-56.5 -22.5q-33 0 -55.5 22.5t-22.5 55.5z" />
    <glyph glyph-name="edotaccent" unicode="&#x117;" horiz-adv-x="604" 
d="M576 214h-413q14 -51 55.5 -82.5t96.5 -31.5q77 0 122 55l121 -35q-36 -63 -100.5 -99t-142.5 -36q-120 0 -201 78q-80 80 -80 197q0 118 78 196q79 79 195 79t194 -79q79 -79 79 -196q0 -19 -4 -46zM164 311h287q-15 49 -55 79t-91 30q-49 0 -88 -30t-53 -79zM229 662
q0 34 22.5 56.5t55.5 22.5q34 0 56.5 -22.5t22.5 -56.5q0 -33 -22.5 -55.5t-56.5 -22.5q-33 0 -55.5 22.5t-22.5 55.5z" />
    <glyph glyph-name="Eogonek" unicode="&#x118;" horiz-adv-x="613" 
d="M460 0h-402v700h516v-124h-382v-160h327v-124h-327v-168h387v-124h-26l-17 -15q-12 -12 -27 -35q-16 -25 -16 -46q0 -15 10 -24.5t25 -9.5q25 0 43 18l6 6l42 -51l-16 -15q-12 -10 -41 -24q-30 -15 -61 -15q-45 0 -74 26t-29 66q0 26 14.5 55.5t31.5 47.5z" />
    <glyph glyph-name="eogonek" unicode="&#x119;" horiz-adv-x="604" 
d="M34 260q0 118 78 196q79 79 195 79t194 -79q79 -79 79 -196q0 -19 -4 -46h-413q14 -51 55.5 -82.5t96.5 -31.5q77 0 122 55l121 -35q-60 -104 -181 -129q-50 -50 -50 -87q0 -15 10 -24.5t25 -9.5q26 0 44 18l6 6l42 -51l-16 -15q-12 -10 -41 -24q-31 -15 -62 -15
q-44 0 -73.5 26t-29.5 66q0 50 50 106q-107 10 -178 87q-70 76 -70 186zM305 420q-49 0 -88 -30t-53 -79h287q-15 49 -55 79t-91 30z" />
    <glyph glyph-name="Ecaron" unicode="&#x11a;" horiz-adv-x="613" 
d="M58 700h516v-124h-382v-160h327v-124h-327v-168h387v-124h-521v700zM312 759l-175 127l50 70l128 -75l128 74l50 -69l-175 -127h-6z" />
    <glyph glyph-name="ecaron" unicode="&#x11b;" horiz-adv-x="604" 
d="M576 214h-413q14 -51 55.5 -82.5t96.5 -31.5q77 0 122 55l121 -35q-36 -63 -100.5 -99t-142.5 -36q-120 0 -201 78q-80 80 -80 197q0 118 78 196q79 79 195 79t194 -79q79 -79 79 -196q0 -19 -4 -46zM164 311h287q-15 49 -55 79t-91 30q-49 0 -88 -30t-53 -79zM307 711
l127 74l51 -69l-175 -127h-6l-175 127l50 70z" />
    <glyph glyph-name="Gcircumflex" unicode="&#x11c;" horiz-adv-x="804" 
d="M410 715q110 0 198 -54q87 -52 133 -143l-130 -49q-30 55 -83 86t-118 31q-99 0 -165 -68t-66 -168q0 -101 64 -168t157 -67q71 0 130 41q58 40 81 108h-221v122h373q2 -30 2 -35q0 -154 -104 -261q-103 -105 -259 -105q-155 0 -259 104q-104 106 -104 261q0 157 106 260
q106 105 265 105zM401 833l-127 -75l-51 70l175 127h7l174 -127l-50 -69z" />
    <glyph glyph-name="gcircumflex" unicode="&#x11d;" horiz-adv-x="622" 
d="M287 535q88 0 158 -56v41h124v-506q0 -107 -75 -181q-74 -73 -183 -73q-85 0 -156 45q-71 44 -98 111l125 36q14 -30 49 -49t76 -19q57 0 98 38q40 37 40 92v27q-70 -56 -158 -56q-107 0 -181 78q-72 79 -72 197t72 196q73 79 181 79zM402 367q-40 43 -99 43
q-60 0 -100 -43t-40 -107t40 -107t100 -43q59 0 99 43q41 44 41 107t-41 107zM302 663l-127 -75l-51 70l175 127h7l174 -127l-50 -69z" />
    <glyph glyph-name="Gbreve" unicode="&#x11e;" horiz-adv-x="804" 
d="M410 715q110 0 198 -54q87 -52 133 -143l-130 -49q-30 55 -83 86t-118 31q-99 0 -165 -68t-66 -168q0 -101 64 -168t157 -67q71 0 130 41q58 40 81 108h-221v122h373q2 -30 2 -35q0 -154 -104 -261q-103 -105 -259 -105q-155 0 -259 104q-104 106 -104 261q0 157 106 260
q106 105 265 105zM239 910h96q0 -31 19 -52.5t48 -21.5t47 21t18 53h97q0 -68 -47 -115q-46 -46 -116 -46t-116 46t-46 115z" />
    <glyph glyph-name="gbreve" unicode="&#x11f;" horiz-adv-x="622" 
d="M287 -15q-107 0 -181 78q-72 79 -72 197t72 196q73 79 181 79q88 0 158 -56v41h124v-506q0 -107 -75 -181q-74 -73 -183 -73q-85 0 -156 45q-71 44 -98 111l125 36q14 -30 49 -49t76 -19q57 0 98 38q40 37 40 92v27q-70 -56 -158 -56zM402 367q-40 43 -99 43
q-60 0 -100 -43t-40 -107t40 -107t100 -43q59 0 99 43q41 44 41 107t-41 107zM140 740h96q0 -31 19 -52.5t48 -21.5t47 21t18 53h97q0 -68 -47 -115q-46 -46 -116 -46t-116 46t-46 115z" />
    <glyph glyph-name="Gdotaccent" unicode="&#x120;" horiz-adv-x="804" 
d="M410 715q110 0 198 -54q87 -52 133 -143l-130 -49q-30 55 -83 86t-118 31q-99 0 -165 -68t-66 -168q0 -101 64 -168t157 -67q71 0 130 41q58 40 81 108h-221v122h373q2 -30 2 -35q0 -154 -104 -261q-103 -105 -259 -105q-155 0 -259 104q-104 106 -104 261q0 157 106 260
q106 105 265 105zM323 832q0 34 22.5 56.5t55.5 22.5q34 0 56.5 -22.5t22.5 -56.5q0 -33 -22.5 -55.5t-56.5 -22.5q-33 0 -55.5 22.5t-22.5 55.5z" />
    <glyph glyph-name="gdotaccent" unicode="&#x121;" horiz-adv-x="622" 
d="M287 -15q-107 0 -181 78q-72 79 -72 197t72 196q73 79 181 79q88 0 158 -56v41h124v-506q0 -107 -75 -181q-74 -73 -183 -73q-85 0 -156 45q-71 44 -98 111l125 36q14 -30 49 -49t76 -19q57 0 98 38q40 37 40 92v27q-70 -56 -158 -56zM402 367q-40 43 -99 43
q-60 0 -100 -43t-40 -107t40 -107t100 -43q59 0 99 43q41 44 41 107t-41 107zM224 662q0 34 22.5 56.5t55.5 22.5q34 0 56.5 -22.5t22.5 -56.5q0 -33 -22.5 -55.5t-56.5 -22.5q-33 0 -55.5 22.5t-22.5 55.5z" />
    <glyph glyph-name="uni0122" unicode="&#x122;" horiz-adv-x="804" 
d="M410 715q110 0 198 -54q87 -52 133 -143l-130 -49q-30 55 -83 86t-118 31q-99 0 -165 -68t-66 -168q0 -101 64 -168t157 -67q71 0 130 41q58 40 81 108h-221v122h373q2 -30 2 -35q0 -154 -104 -261q-103 -105 -259 -105q-155 0 -259 104q-104 106 -104 261q0 157 106 260
q106 105 265 105zM484 -132q0 -77 -95 -131l-1 -1l-31 33q46 36 46 54q-22 5 -37.5 23t-15.5 41q0 26 18.5 44t45.5 18q31 0 50.5 -23t19.5 -58z" />
    <glyph glyph-name="uni0123" unicode="&#x123;" horiz-adv-x="622" 
d="M287 -15q-107 0 -181 78q-72 79 -72 197t72 196q73 79 181 79q88 0 158 -56v41h124v-506q0 -107 -75 -181q-74 -73 -183 -73q-85 0 -156 45q-71 44 -98 111l125 36q14 -30 49 -49t76 -19q57 0 98 38q40 37 40 92v27q-70 -56 -158 -56zM402 367q-40 43 -99 43
q-60 0 -100 -43t-40 -107t40 -107t100 -43q59 0 99 43q41 44 41 107t-41 107zM233 659q0 77 95 131l1 1l31 -33q-46 -36 -46 -55q23 -4 38 -21.5t15 -41.5q0 -26 -18.5 -44t-45.5 -18q-31 0 -50.5 22.5t-19.5 58.5z" />
    <glyph glyph-name="Hcircumflex" unicode="&#x124;" horiz-adv-x="728" 
d="M192 292v-292h-134v700h134v-284h343v284h135v-700h-135v292h-343zM236 758l-51 70l175 127h7l174 -127l-50 -69l-128 74z" />
    <glyph glyph-name="hcircumflex" unicode="&#x125;" horiz-adv-x="601" 
d="M178 297v-297h-125v750h125v-293q58 78 161 78q91 0 149 -58q60 -59 60 -145v-332h-124v297q0 51 -35 85t-88 34t-88 -34t-35 -85zM118 873l-127 -75l-51 70l175 127h7l174 -127l-50 -69z" />
    <glyph glyph-name="Hbar" unicode="&#x126;" horiz-adv-x="751" 
d="M672 700v-96h69v-111h-69v-493h-134v292h-343v-292h-135v493h-50v111h50v96h135v-96h343v96h134zM538 416v77h-343v-77h343z" />
    <glyph glyph-name="hbar" unicode="&#x127;" horiz-adv-x="602" 
d="M179 750v-79h167v-92h-167v-122q58 78 161 78q92 0 150 -58q60 -59 60 -145v-332h-125v297q0 51 -35 85t-88 34t-88 -34t-35 -85v-297h-125v579h-49v92h49v79h125z" />
    <glyph glyph-name="Itilde" unicode="&#x128;" horiz-adv-x="250" 
d="M192 0h-134v700h134v-700zM54 777h-95q0 49 33 84t80 35q30 0 59 -20q29 -19 38 -19q11 0 19 10t8 24h95q0 -49 -33 -84q-32 -35 -79 -35q-32 0 -60 19t-37 19q-11 0 -19.5 -9.5t-8.5 -23.5z" />
    <glyph glyph-name="itilde" unicode="&#x129;" horiz-adv-x="240" 
d="M183 0h-125v520h125v-520zM50 607h-95q0 49 33 84t79 35q30 0 59 -20q28 -19 37 -19q11 0 19 10t8 24h95q0 -51 -33 -85q-31 -34 -78 -34q-31 0 -59 19t-37 19q-11 0 -19.5 -9.5t-8.5 -23.5z" />
    <glyph glyph-name="Imacron" unicode="&#x12a;" horiz-adv-x="250" 
d="M192 0h-134v700h134v-700zM280 784h-310v102h310v-102z" />
    <glyph glyph-name="imacron" unicode="&#x12b;" horiz-adv-x="231" 
d="M178 0h-125v520h125v-520zM-39 614v102h309v-102h-309z" />
    <glyph glyph-name="Ibreve" unicode="&#x12c;" horiz-adv-x="250" 
d="M192 0h-134v700h134v-700zM-38 910h97q0 -32 19 -53t48 -21q28 0 46.5 21t18.5 53h97q0 -68 -47 -115q-46 -46 -116 -46q-71 0 -117 46t-46 115z" />
    <glyph glyph-name="ibreve" unicode="&#x12d;" horiz-adv-x="231" 
d="M178 0h-125v520h125v-520zM-46 740h96q0 -32 19 -53t48 -21q28 0 46 21t18 53h97q0 -69 -46 -115t-116 -46t-116 46t-46 115z" />
    <glyph glyph-name="Iogonek" unicode="&#x12e;" horiz-adv-x="250" 
d="M23 -119q0 26 14.5 55.5t32.5 47.5l16 16h-28v700h134v-700h-14l-17 -15q-12 -12 -27 -35q-16 -25 -16 -46q0 -30 30 -34q34 0 55 24l42 -51l-16 -15q-12 -10 -41 -24q-32 -15 -62 -15q-44 0 -73.5 26t-29.5 66z" />
    <glyph glyph-name="iogonek" unicode="&#x12f;" horiz-adv-x="231" 
d="M118 -211q-45 0 -74 26t-29 66q0 26 14.5 55.5t32.5 47.5l15 16h-24v520h125v-520h-8l-17 -15q-12 -12 -27 -35q-16 -25 -16 -46q0 -15 10 -24.5t25 -9.5q25 0 43 18l6 6l42 -51l-16 -15q-12 -10 -41 -24q-30 -15 -61 -15zM115 566q-34 0 -56.5 23t-22.5 57t22.5 56.5
t56.5 22.5q31 0 53.5 -19.5t25.5 -49.5q1 -2 1 -10q0 -34 -22.5 -57t-57.5 -23z" />
    <glyph glyph-name="Idot" unicode="&#x130;" horiz-adv-x="250" 
d="M192 0h-134v700h134v-700zM47 832q0 34 22.5 56.5t55.5 22.5q34 0 56 -22.5t22 -56.5q0 -33 -22 -55.5t-56 -22.5q-33 0 -55.5 22.5t-22.5 55.5z" />
    <glyph glyph-name="dotlessi" unicode="&#x131;" horiz-adv-x="231" 
d="M178 0h-125v520h125v-520z" />
    <glyph glyph-name="IJ" unicode="&#x132;" horiz-adv-x="832" 
d="M192 0h-134v700h134v-700zM784 700v-444q0 -116 -81 -194q-80 -77 -200 -77q-76 0 -138.5 32.5t-99.5 90.5l111 72q19 -33 53.5 -52t75.5 -19q63 0 107 42q43 43 43 105v444h129z" />
    <glyph glyph-name="ij" unicode="&#x133;" horiz-adv-x="467" 
d="M178 0h-125v520h125v-520zM115 566q-34 0 -56.5 23t-22.5 57t22.5 56.5t56.5 22.5t57 -22.5t23 -56.5t-22.5 -57t-57.5 -23zM290 520h124v-580q0 -71 -52 -117q-51 -48 -127 -48h-45v119h36q27 0 45.5 18t18.5 45v563zM295 589q-23 23 -23 57t23 56q23 23 57 23t56 -23
q23 -22 23 -56t-23 -57q-22 -23 -56 -23t-57 23z" />
    <glyph glyph-name="Jcircumflex" unicode="&#x134;" horiz-adv-x="582" 
d="M533 700v-444q0 -116 -80 -194q-80 -77 -201 -77q-75 0 -138 33t-100 90l112 72q18 -33 52 -52t76 -19q64 0 107 42q43 43 43 105v444h129zM464 833l-128 -75l-50 70l175 127h6l175 -127l-50 -69z" />
    <glyph glyph-name="jcircumflex" unicode="&#x135;" horiz-adv-x="236" 
d="M59 520h125v-580q0 -71 -52 -117q-51 -48 -127 -48h-46v119h36q28 0 46 18t18 45v563zM121 663l-128 -75l-50 70l174 127h7l175 -127l-51 -69z" />
    <glyph glyph-name="uni0136" unicode="&#x136;" horiz-adv-x="655" 
d="M58 0v700h134v-312l264 312h170l-289 -342l309 -358h-170l-284 329v-329h-134zM317 -177q-22 5 -37 23t-15 41q0 26 18 44t45 18q31 0 50.5 -23t19.5 -58q0 -77 -94 -131v-1h-1l-32 33q46 36 46 54z" />
    <glyph glyph-name="uni0137" unicode="&#x137;" horiz-adv-x="533" 
d="M178 0h-125v750h125v-453l174 223h151l-195 -251l216 -269h-153l-193 241v-241zM207 -113q0 26 18.5 44t45.5 18q31 0 50.5 -23t19.5 -58q0 -77 -95 -131l-1 -1l-31 33q46 36 46 54q-22 5 -37.5 23t-15.5 41z" />
    <glyph glyph-name="Lacute" unicode="&#x139;" horiz-adv-x="569" 
d="M545 0h-487v700h134v-576h353v-124zM31 835l204 127l56 -110l-218 -93z" />
    <glyph glyph-name="lacute" unicode="&#x13a;" horiz-adv-x="231" 
d="M178 0h-125v750h125v-750zM64 799l-41 76l204 127l56 -110z" />
    <glyph glyph-name="uni013B" unicode="&#x13b;" horiz-adv-x="569" 
d="M58 0v700h134v-576h353v-124h-487zM244 -113q0 26 18 44t46 18q30 0 50 -23t20 -58q0 -77 -95 -131l-1 -1l-32 33q45 35 47 54q-24 5 -38.5 22.5t-14.5 41.5z" />
    <glyph glyph-name="uni013C" unicode="&#x13c;" horiz-adv-x="231" 
d="M178 0h-125v750h125v-750zM182 -132q0 -77 -95 -131l-1 -1l-31 33q46 36 46 54q-22 5 -37 23t-15 41q0 26 18 44t45 18q31 0 50.5 -23t19.5 -58z" />
    <glyph glyph-name="Lcaron" unicode="&#x13d;" horiz-adv-x="569" 
d="M58 0v700h134v-576h353v-124h-487zM306 653q0 26 18.5 44t45.5 18q30 0 50 -23t20 -58q0 -77 -95 -131l-1 -1l-32 32q46 36 46 55q-22 4 -37 22t-15 42z" />
    <glyph glyph-name="lcaron" unicode="&#x13e;" horiz-adv-x="370" 
d="M178 0h-125v750h125v-750zM226 703q0 26 18.5 44t45.5 18q31 0 50.5 -23t19.5 -58q0 -77 -95 -131l-1 -1l-31 32q46 36 46 55q-22 4 -37.5 22t-15.5 42z" />
    <glyph glyph-name="Ldot" unicode="&#x13f;" horiz-adv-x="569" 
d="M58 0v700h134v-576h353v-124h-487zM466 294q-22 -22 -56 -22t-56 22t-22 56t22 56t56 22t56 -22t22 -56t-22 -56z" />
    <glyph glyph-name="ldot" unicode="&#x140;" horiz-adv-x="455" 
d="M178 0h-125v750h125v-750zM343 428q33 0 55.5 -22t22.5 -56t-22.5 -56t-55.5 -22q-34 0 -56.5 22t-22.5 56t22.5 56t56.5 22z" />
    <glyph glyph-name="Lslash" unicode="&#x141;" horiz-adv-x="610" 
d="M99 214l-33 -20l-56 97l89 55v354h134v-272l113 70l56 -97l-169 -104v-173h353v-124h-487v214z" />
    <glyph glyph-name="lslash" unicode="&#x142;" horiz-adv-x="234" 
d="M179 750v-311l55 31v-105l-55 -32v-333h-124v262l-55 -32v106l55 31v383h124z" />
    <glyph glyph-name="Nacute" unicode="&#x143;" horiz-adv-x="733" 
d="M58 0v700h119l369 -470v470h129v-700h-119l-369 469v-469h-129zM535 852l-219 -93l-41 76l204 127z" />
    <glyph glyph-name="nacute" unicode="&#x144;" horiz-adv-x="592" 
d="M178 297v-297h-125v520h125v-63q57 78 156 78q88 0 146 -58q59 -59 59 -145v-332h-125v297q0 51 -33.5 85t-83.5 34q-51 0 -85 -34t-34 -85zM469 682l-218 -93l-42 76l204 127z" />
    <glyph glyph-name="uni0145" unicode="&#x145;" horiz-adv-x="733" 
d="M187 0h-129v700h119l369 -470v470h129v-700h-119l-369 469v-469zM360 -177q-22 5 -37.5 23t-15.5 41q0 26 18.5 44t45.5 18q31 0 50.5 -23t19.5 -58q0 -77 -95 -131l-1 -1l-31 33q46 36 46 54z" />
    <glyph glyph-name="uni0146" unicode="&#x146;" horiz-adv-x="592" 
d="M178 0h-125v520h125v-63q57 78 156 78q88 0 146 -58q59 -59 59 -145v-332h-125v297q0 51 -33.5 85t-83.5 34q-51 0 -85 -34t-34 -85v-297zM292 -177q-22 5 -37 23t-15 41q0 26 18 44t45 18q31 0 50.5 -23t19.5 -58q0 -77 -94 -131q0 -1 -1 -1l-32 33q46 36 46 54z" />
    <glyph glyph-name="Ncaron" unicode="&#x147;" horiz-adv-x="733" 
d="M187 0h-129v700h119l369 -470v470h129v-700h-119l-369 469v-469zM363 759l-175 127l51 70l128 -75l127 74l51 -69l-175 -127h-7z" />
    <glyph glyph-name="ncaron" unicode="&#x148;" horiz-adv-x="592" 
d="M178 297v-297h-125v520h125v-63q57 78 156 78q88 0 146 -58q59 -59 59 -145v-332h-125v297q0 51 -33.5 85t-83.5 34q-51 0 -85 -34t-34 -85zM298 589l-175 127l50 70l128 -75l128 74l50 -69l-174 -127h-7z" />
    <glyph glyph-name="Eng" unicode="&#x14a;" horiz-adv-x="733" 
d="M546 700h129v-669q0 -117 -81 -193q-80 -78 -200 -78l2 124q59 0 101 37t48 93l-358 455v-469h-129v700h119l369 -470v470z" />
    <glyph glyph-name="eng" unicode="&#x14b;" horiz-adv-x="592" 
d="M53 0v520h125v-63q57 78 156 78q88 0 146 -58q59 -59 59 -145v-392q0 -72 -52 -118q-52 -47 -127 -47h-45v119h36q27 0 45 18t18 45v340q0 51 -33.5 85t-83.5 34q-51 0 -85 -34t-34 -85v-297h-125z" />
    <glyph glyph-name="Omacron" unicode="&#x14c;" horiz-adv-x="809" 
d="M404 715q158 0 261 -105q105 -103 105 -260q0 -156 -105 -261q-104 -104 -261 -104q-155 0 -261 104q-104 106 -104 261q0 156 104 260q105 105 261 105zM179 350q0 -101 64 -168t161 -67t161 67q65 68 65 168t-65 168t-161 68t-161 -68q-64 -67 -64 -168zM559 784h-310
v102h310v-102z" />
    <glyph glyph-name="omacron" unicode="&#x14d;" horiz-adv-x="618" 
d="M112 63q-78 79 -78 197t78 196q79 79 197 79t197 -79q79 -78 79 -196t-79 -197q-80 -78 -197 -78t-197 78zM205 367q-42 -43 -42 -107t42 -107t104 -43t104 43t42 107t-42 107t-104 43t-104 -43zM464 614h-310v102h310v-102z" />
    <glyph glyph-name="Obreve" unicode="&#x14e;" horiz-adv-x="809" 
d="M404 715q158 0 261 -105q105 -103 105 -260q0 -156 -105 -261q-104 -104 -261 -104q-155 0 -261 104q-104 106 -104 261q0 156 104 260q105 105 261 105zM179 350q0 -101 64 -168t161 -67t161 67q65 68 65 168t-65 168t-161 68t-161 -68q-64 -67 -64 -168zM241 910h97
q0 -31 19 -52.5t48 -21.5t47 21t18 53h97q0 -68 -47 -115q-46 -46 -116 -46q-71 0 -117 46t-46 115z" />
    <glyph glyph-name="obreve" unicode="&#x14f;" horiz-adv-x="618" 
d="M112 63q-78 79 -78 197t78 196q79 79 197 79t197 -79q79 -78 79 -196t-79 -197q-80 -78 -197 -78t-197 78zM205 367q-42 -43 -42 -107t42 -107t104 -43t104 43t42 107t-42 107t-104 43t-104 -43zM146 740h97q0 -32 19 -53t48 -21q28 0 46.5 21t18.5 53h96q0 -68 -47 -115
q-46 -46 -115 -46q-71 0 -117 46t-46 115z" />
    <glyph glyph-name="Ohungarumlaut" unicode="&#x150;" horiz-adv-x="809" 
d="M404 715q158 0 261 -105q105 -103 105 -260q0 -156 -105 -261q-104 -104 -261 -104q-155 0 -261 104q-104 106 -104 261q0 156 104 260q105 105 261 105zM179 350q0 -101 64 -168t161 -67t161 67q65 68 65 168t-65 168t-161 68t-161 -68q-64 -67 -64 -168zM304 748
l-62 59l143 170l87 -88zM510 748l-62 59l143 170l87 -88z" />
    <glyph glyph-name="ohungarumlaut" unicode="&#x151;" horiz-adv-x="618" 
d="M112 63q-78 79 -78 197t78 196q79 79 197 79t197 -79q79 -78 79 -196t-79 -197q-80 -78 -197 -78t-197 78zM205 367q-42 -43 -42 -107t42 -107t104 -43t104 43t42 107t-42 107t-104 43t-104 -43zM209 578l-63 59l144 170l87 -88zM415 578l-63 59l144 170l87 -88z" />
    <glyph glyph-name="OE" unicode="&#x152;" horiz-adv-x="1195" 
d="M404 -15q-155 0 -261 104q-104 106 -104 261q0 156 104 260q105 105 261 105q139 0 237 -82v67h515v-124h-381v-160h326v-124h-326v-168h386v-124h-520v67q-98 -82 -237 -82zM179 350q0 -101 64 -168t161 -67t161 67q65 68 65 168t-65 168t-161 68t-161 -68
q-64 -67 -64 -168z" />
    <glyph glyph-name="oe" unicode="&#x153;" horiz-adv-x="1025" 
d="M309 535q131 0 212 -95q80 95 209 95q117 0 193 -79q78 -78 78 -196q0 -29 -4 -46h-413q14 -51 55.5 -82.5t96.5 -31.5q77 0 122 55l121 -35q-34 -63 -98.5 -99t-142.5 -36q-136 0 -216 96q-80 -96 -213 -96q-117 0 -197 78q-78 79 -78 197t78 196q79 79 197 79zM205 153
q42 -43 104 -43t104 43t42 107t-42 107t-104 43t-104 -43t-42 -107t42 -107zM585 311h287q-14 49 -54 79t-92 30q-49 0 -87.5 -30t-53.5 -79z" />
    <glyph glyph-name="Racute" unicode="&#x154;" horiz-adv-x="675" 
d="M58 700h324q102 0 172 -65q70 -64 70 -161q0 -68 -36 -122.5t-97 -81.5l160 -270h-149l-147 247h-163v-247h-134v700zM382 576h-190v-205h190q44 0 73 29.5t29 73.5t-29 73t-73 29zM462 852l-219 -93l-41 76l204 127z" />
    <glyph glyph-name="racute" unicode="&#x155;" horiz-adv-x="364" 
d="M178 520v-64q54 79 171 79v-139q-25 11 -51 11q-52 0 -86 -34.5t-34 -86.5v-286h-125v520h125zM145 589l-42 76l204 127l56 -110z" />
    <glyph glyph-name="uni0156" unicode="&#x156;" horiz-adv-x="675" 
d="M58 700h324q102 0 172 -65q70 -64 70 -161q0 -68 -36 -122.5t-97 -81.5l160 -270h-149l-147 247h-163v-247h-134v700zM382 576h-190v-205h190q44 0 73 29.5t29 73.5t-29 73t-73 29zM341 -177q-22 5 -37.5 23t-15.5 41q0 26 18.5 44t45.5 18q31 0 50.5 -23t19.5 -58
q0 -77 -95 -131l-1 -1l-31 33q46 36 46 54z" />
    <glyph glyph-name="uni0157" unicode="&#x157;" horiz-adv-x="364" 
d="M178 520v-64q54 79 171 79v-139q-25 11 -51 11q-52 0 -86 -34.5t-34 -86.5v-286h-125v520h125zM187 -132q0 -77 -95 -131l-1 -1l-31 33q46 36 46 54q-24 5 -38.5 22.5t-14.5 41.5q0 26 18.5 44t45.5 18q31 0 50.5 -23t19.5 -58z" />
    <glyph glyph-name="Rcaron" unicode="&#x158;" horiz-adv-x="675" 
d="M192 0h-134v700h324q102 0 172 -65q70 -64 70 -161q0 -68 -36 -122.5t-97 -81.5l160 -270h-149l-147 247h-163v-247zM382 576h-190v-205h190q44 0 73 29.5t29 73.5t-29 73t-73 29zM290 759l-174 127l50 70l128 -75l127 74l51 -69l-175 -127h-7z" />
    <glyph glyph-name="rcaron" unicode="&#x159;" horiz-adv-x="364" 
d="M178 520v-64q54 79 171 79v-139q-25 11 -51 11q-52 0 -86 -34.5t-34 -86.5v-286h-125v520h125zM195 711l128 74l50 -69l-174 -127h-7l-175 127l50 70z" />
    <glyph glyph-name="Sacute" unicode="&#x15a;" horiz-adv-x="611" 
d="M545 558l-134 -39q-8 28 -40 48t-73 20q-44 0 -75 -21.5t-31 -52.5q0 -39 64 -66q26 -11 115 -37q65 -18 104 -39q31 -16 50 -37q47 -49 47 -127q0 -101 -73 -162q-72 -60 -187 -60q-104 0 -178 48q-74 50 -96 122l134 40q8 -34 47.5 -57.5t92.5 -23.5q54 0 90 22.5
t36 58.5q0 26 -25 49q-10 8 -29 17q-16 8 -56 21q-125 37 -169 60q-101 54 -101 161q0 95 66 153q68 59 172 59q92 0 160 -45q68 -44 89 -112zM254 759l-41 76l204 127l56 -110z" />
    <glyph glyph-name="sacute" unicode="&#x15b;" horiz-adv-x="475" 
d="M438 395l-117 -19q-17 51 -91 51q-32 0 -52.5 -12t-20.5 -33q0 -26 46 -42l107 -36q71 -25 103.5 -62t32.5 -94q0 -79 -56.5 -121t-149.5 -42t-149 40.5t-67 112.5l117 17q7 -28 33.5 -45t68.5 -17q37 0 60.5 13.5t23.5 37.5q0 31 -58 50l-107 34q-66 22 -95 56t-29 89
q0 79 54.5 120.5t146.5 41.5q84 0 136.5 -37t62.5 -103zM185 589l-42 76l204 127l56 -110z" />
    <glyph glyph-name="Scircumflex" unicode="&#x15c;" horiz-adv-x="611" 
d="M545 558l-134 -39q-8 28 -40 48t-73 20q-44 0 -75 -21.5t-31 -52.5q0 -39 64 -66q26 -11 115 -37q65 -18 104 -39q31 -16 50 -37q47 -49 47 -127q0 -101 -73 -162q-72 -60 -187 -60q-104 0 -178 48q-74 50 -96 122l134 40q8 -34 47.5 -57.5t92.5 -23.5q54 0 90 22.5
t36 58.5q0 26 -25 49q-10 8 -29 17q-16 8 -56 21q-125 37 -169 60q-101 54 -101 161q0 95 66 153q68 59 172 59q92 0 160 -45q68 -44 89 -112zM305 833l-128 -75l-51 70l175 127h7l175 -127l-51 -69z" />
    <glyph glyph-name="scircumflex" unicode="&#x15d;" horiz-adv-x="475" 
d="M438 395l-117 -19q-17 51 -91 51q-32 0 -52.5 -12t-20.5 -33q0 -26 46 -42l107 -36q71 -25 103.5 -62t32.5 -94q0 -79 -56.5 -121t-149.5 -42t-149 40.5t-67 112.5l117 17q7 -28 33.5 -45t68.5 -17q37 0 60.5 13.5t23.5 37.5q0 31 -58 50l-107 34q-66 22 -95 56t-29 89
q0 79 54.5 120.5t146.5 41.5q84 0 136.5 -37t62.5 -103zM235 663l-127 -75l-51 70l175 127h7l174 -127l-50 -69z" />
    <glyph glyph-name="Scedilla" unicode="&#x15e;" horiz-adv-x="611" 
d="M282 -90l-20 2l17 75q-89 7 -154.5 53.5t-86.5 114.5l134 40q8 -34 47.5 -57.5t92.5 -23.5q54 0 90 22.5t36 58.5q0 26 -25 49q-10 8 -29 17q-16 8 -56 21q-125 37 -169 60q-101 54 -101 161q0 95 66 153q68 59 172 59q92 0 160 -45q68 -44 89 -112l-134 -39
q-8 28 -40 48t-73 20q-44 0 -75 -21.5t-31 -52.5q0 -39 64 -66q26 -11 115 -37q65 -18 104 -39q31 -16 50 -37q47 -49 47 -127q0 -86 -54 -144t-146 -73l-7 -34q3 -1 7.5 -2t16.5 -7t21.5 -14t17 -23t7.5 -33q0 -44 -37 -72.5t-93 -28.5q-53 0 -89 20l-13 6l14 65
q25 -19 66 -19q25 0 42.5 8.5t17.5 21.5q0 12 -19 20.5t-42 11.5z" />
    <glyph glyph-name="scedilla" unicode="&#x15f;" horiz-adv-x="475" 
d="M24 138l117 17q7 -28 33.5 -45t68.5 -17q37 0 60.5 13.5t23.5 37.5q0 31 -58 50l-107 34q-66 22 -95 56t-29 89q0 79 54.5 120.5t146.5 41.5q84 0 136.5 -37t62.5 -103l-117 -19q-17 51 -91 51q-32 0 -52.5 -12t-20.5 -33q0 -26 46 -42l107 -36q71 -25 103.5 -62
t32.5 -94q0 -64 -37.5 -104t-105.5 -53l-8 -35q3 -1 7.5 -2t16.5 -7t21 -14t16.5 -23t7.5 -33q0 -44 -36.5 -72.5t-92.5 -28.5q-53 0 -89 20l-13 6l14 65q25 -19 66 -19q25 0 42.5 8.5t17.5 21.5q0 12 -19 20.5t-42 11.5l-20 2l17 74q-80 7 -127.5 46.5t-57.5 105.5z" />
    <glyph glyph-name="Scaron" unicode="&#x160;" horiz-adv-x="611" 
d="M545 558l-134 -39q-8 28 -40 48t-73 20q-44 0 -75 -21.5t-31 -52.5q0 -39 64 -66q26 -11 115 -37q65 -18 104 -39q31 -16 50 -37q47 -49 47 -127q0 -101 -73 -162q-72 -60 -187 -60q-104 0 -178 48q-74 50 -96 122l134 40q8 -34 47.5 -57.5t92.5 -23.5q54 0 90 22.5
t36 58.5q0 26 -25 49q-10 8 -29 17q-16 8 -56 21q-125 37 -169 60q-101 54 -101 161q0 95 66 153q68 59 172 59q92 0 160 -45q68 -44 89 -112zM305 881l127 74l51 -69l-175 -127h-7l-175 127l51 70z" />
    <glyph glyph-name="scaron" unicode="&#x161;" horiz-adv-x="475" 
d="M438 395l-117 -19q-17 51 -91 51q-32 0 -52.5 -12t-20.5 -33q0 -26 46 -42l107 -36q71 -25 103.5 -62t32.5 -94q0 -79 -56.5 -121t-149.5 -42t-149 40.5t-67 112.5l117 17q7 -28 33.5 -45t68.5 -17q37 0 60.5 13.5t23.5 37.5q0 31 -58 50l-107 34q-66 22 -95 56t-29 89
q0 79 54.5 120.5t146.5 41.5q84 0 136.5 -37t62.5 -103zM235 711l128 74l50 -69l-174 -127h-7l-175 127l51 70z" />
    <glyph glyph-name="uni0162" unicode="&#x162;" horiz-adv-x="647" 
d="M256 0v576h-232v124h599v-124h-232v-576h-135zM316 -177q-22 5 -37 23t-15 41q0 26 18 44t45 18q31 0 50.5 -23t19.5 -58q0 -77 -94 -131q0 -1 -1 -1l-32 33q46 36 46 54z" />
    <glyph glyph-name="uni0163" unicode="&#x163;" horiz-adv-x="362" 
d="M10 411v109h74v102h125v-102h129v-109h-129v-229q0 -27 18 -45t46 -18h65v-119h-77q-74 0 -126 47q-51 47 -51 117v247h-74zM280 -132q0 -77 -94 -131l-1 -1l-32 33q46 36 46 54q-22 5 -37 23t-15 41q0 26 18 44t45 18q31 0 50.5 -23t19.5 -58z" />
    <glyph glyph-name="Tcaron" unicode="&#x164;" horiz-adv-x="647" 
d="M24 700h599v-124h-232v-576h-135v576h-232v124zM327 759h-7l-175 127l51 70l127 -75l128 74l50 -69z" />
    <glyph glyph-name="tcaron" unicode="&#x165;" horiz-adv-x="388" 
d="M10 411v109h74v102h125v-102h129v-109h-129v-229q0 -27 18 -45t46 -18h65v-119h-77q-74 0 -126 47q-51 47 -51 117v247h-74zM378 671q0 -77 -94 -131v-1h-1l-32 32q46 36 46 55q-22 4 -37 22t-15 42q0 26 18 44t46 18q30 0 49.5 -23t19.5 -58z" />
    <glyph glyph-name="Tbar" unicode="&#x166;" horiz-adv-x="647" 
d="M510 262h-119v-262h-135v262h-118v123h118v191h-232v124h599v-124h-232v-191h119v-123z" />
    <glyph glyph-name="tbar" unicode="&#x167;" horiz-adv-x="362" 
d="M84 411h-74v109h74v102h125v-102h129v-109h-129v-88h89v-91h-89v-50q0 -27 18 -45t46 -18h65v-119h-77q-74 0 -126 47q-51 47 -51 117v68h-59v91h59v88z" />
    <glyph glyph-name="Utilde" unicode="&#x168;" horiz-adv-x="709" 
d="M526 281v419h134v-419q0 -126 -88 -211q-86 -85 -218 -85q-130 0 -218 85q-87 86 -87 211v419h134v-419q0 -74 49 -123t122 -49q74 0 123 49t49 123zM283 777h-95q0 49 33 84t80 35q30 0 59 -20q29 -19 38 -19q11 0 19 10t8 24h95q0 -50 -32.5 -84.5t-79.5 -34.5
q-32 0 -60 19t-37 19q-11 0 -19.5 -9.5t-8.5 -23.5z" />
    <glyph glyph-name="utilde" unicode="&#x169;" horiz-adv-x="592" 
d="M53 188v332h125v-296q0 -51 33.5 -85.5t84.5 -34.5q50 0 84 34.5t34 85.5v296h125v-520h-125v63q-57 -78 -156 -78q-89 0 -147 58t-58 145zM225 607h-95q0 49 33 84t80 35q30 0 59 -20q29 -19 38 -19q11 0 19 10t8 24h95q0 -50 -32.5 -84.5t-79.5 -34.5q-32 0 -60 19
t-37 19q-11 0 -19.5 -9.5t-8.5 -23.5z" />
    <glyph glyph-name="Umacron" unicode="&#x16a;" horiz-adv-x="709" 
d="M526 281v419h134v-419q0 -126 -88 -211q-86 -85 -218 -85q-130 0 -218 85q-87 86 -87 211v419h134v-419q0 -74 49 -123t122 -49q74 0 123 49t49 123zM510 784h-311v102h311v-102z" />
    <glyph glyph-name="umacron" unicode="&#x16b;" horiz-adv-x="592" 
d="M258 -15q-89 0 -147 58t-58 145v332h125v-296q0 -51 33.5 -85.5t84.5 -34.5q50 0 84 34.5t34 85.5v296h125v-520h-125v63q-57 -78 -156 -78zM452 716v-102h-311v102h311z" />
    <glyph glyph-name="Ubreve" unicode="&#x16c;" horiz-adv-x="709" 
d="M526 281v419h134v-419q0 -126 -88 -211q-86 -85 -218 -85q-130 0 -218 85q-87 86 -87 211v419h134v-419q0 -74 49 -123t122 -49q74 0 123 49t49 123zM192 910h96q0 -31 19 -52.5t48 -21.5t47 21t18 53h97q0 -68 -47 -115q-46 -46 -116 -46t-116 46t-46 115z" />
    <glyph glyph-name="ubreve" unicode="&#x16d;" horiz-adv-x="592" 
d="M53 188v332h125v-296q0 -51 33.5 -85.5t84.5 -34.5q50 0 84 34.5t34 85.5v296h125v-520h-125v63q-57 -78 -156 -78q-89 0 -147 58t-58 145zM134 740h96q0 -31 19 -52.5t48 -21.5t47 21t18 53h97q0 -68 -47 -115q-46 -46 -116 -46t-116 46t-46 115z" />
    <glyph glyph-name="Uring" unicode="&#x16e;" horiz-adv-x="709" 
d="M526 281v419h134v-419q0 -126 -88 -211q-86 -85 -218 -85q-130 0 -218 85q-87 86 -87 211v419h134v-419q0 -74 49 -123t122 -49q74 0 123 49t49 123zM271 782q-34 34 -34 83t34 83q35 35 83 35t83 -35t35 -83t-35 -83q-34 -34 -83 -34t-83 34zM322 865q-2 -19 15 -27.5
t34 -0.5t16 28q1 20 -16 28.5t-34 0t-15 -28.5z" />
    <glyph glyph-name="uring" unicode="&#x16f;" horiz-adv-x="592" 
d="M53 188v332h125v-296q0 -51 33.5 -85.5t84.5 -34.5q50 0 84 34.5t34 85.5v296h125v-520h-125v63q-57 -78 -156 -78q-89 0 -147 58t-58 145zM297 813q47 0 82 -35t35 -83t-35 -83q-34 -34 -82 -34q-49 0 -83.5 34t-34.5 83t34 83q35 35 84 35zM297 663q13 0 22.5 9.5
t9.5 22.5q0 21 -19.5 30t-36.5 -7q-15 -15 -6.5 -35t30.5 -20z" />
    <glyph glyph-name="Uhungarumlaut" unicode="&#x170;" horiz-adv-x="709" 
d="M526 281v419h134v-419q0 -126 -88 -211q-86 -85 -218 -85q-130 0 -218 85q-87 86 -87 211v419h134v-419q0 -74 49 -123t122 -49q74 0 123 49t49 123zM254 748l-62 59l143 170l87 -88zM460 748l-62 59l143 170l87 -88z" />
    <glyph glyph-name="uhungarumlaut" unicode="&#x171;" horiz-adv-x="592" 
d="M53 188v332h125v-296q0 -51 33.5 -85.5t84.5 -34.5q50 0 84 34.5t34 85.5v296h125v-520h-125v63q-57 -78 -156 -78q-89 0 -147 58t-58 145zM570 719l-168 -141l-62 59l143 170zM196 578l-62 59l143 170l87 -88z" />
    <glyph glyph-name="Uogonek" unicode="&#x172;" horiz-adv-x="709" 
d="M49 281v419h134v-419q0 -74 49 -123t122 -49q74 0 123 49t49 123v419h134v-419q0 -103 -62 -182t-160 -104q-55 -48 -55 -91q0 -15 10 -24.5t25 -9.5q25 0 43 18l6 6l42 -51l-16 -15q-12 -10 -41 -24q-30 -15 -61 -15q-45 0 -74 26t-29 66q0 51 48 104q-124 7 -206 91
q-81 84 -81 205z" />
    <glyph glyph-name="uogonek" unicode="&#x173;" horiz-adv-x="592" 
d="M53 188v332h125v-296q0 -51 33.5 -85.5t84.5 -34.5q50 0 84 34.5t34 85.5v296h125v-520h-10l-17 -15q-12 -12 -27 -35q-16 -25 -16 -46q0 -34 36 -34q25 0 43 18l6 6l42 -51l-16 -15q-12 -10 -41 -24q-32 -15 -62 -15q-44 0 -73.5 26t-29.5 66q0 26 15 55.5t33 47.5
l15 16h-23v63q-57 -78 -156 -78q-89 0 -147 58t-58 145z" />
    <glyph glyph-name="Wcircumflex" unicode="&#x174;" horiz-adv-x="1005" 
d="M356 0h-110l-237 700h138l153 -485l148 485h110l149 -485l152 485h137l-237 -700h-109l-147 468zM502 833l-127 -75l-51 70l175 127h7l174 -127l-50 -69z" />
    <glyph glyph-name="wcircumflex" unicode="&#x175;" horiz-adv-x="779" 
d="M179 0l-170 520h126l99 -327l99 327h113l99 -327l99 327h125l-169 -520h-112l-98 313l-99 -313h-112zM390 663l-128 -75l-51 70l175 127h7l174 -127l-50 -69z" />
    <glyph glyph-name="Ycircumflex" unicode="&#x176;" horiz-adv-x="687" 
d="M275 0v286l-266 414h155l177 -288l183 288h154l-269 -410v-290h-134zM216 758l-50 70l174 127h7l175 -127l-51 -69l-127 74z" />
    <glyph glyph-name="ycircumflex" unicode="&#x177;" horiz-adv-x="545" 
d="M209 10l-200 510h129l133 -351l136 351h129l-235 -588q-33 -82 -87 -119.5t-140 -37.5h-20v119h20q89 0 121 80zM145 588l-51 70l175 127h7l174 -127l-50 -69l-128 74z" />
    <glyph glyph-name="Ydieresis" unicode="&#x178;" horiz-adv-x="687" 
d="M275 286l-266 414h155l177 -288l183 288h154l-269 -410v-290h-134v286zM450 901q32 0 53.5 -21t21.5 -53t-21.5 -53t-53.5 -21q-31 0 -52.5 21.5t-21.5 52.5q0 32 21.5 53t52.5 21zM163 827q0 32 21.5 53t53.5 21t53 -21t21 -53q0 -31 -21 -52.5t-53 -21.5t-53.5 21.5
t-21.5 52.5z" />
    <glyph glyph-name="Zacute" unicode="&#x179;" horiz-adv-x="634" 
d="M600 124v-124h-561v103l370 473h-367v124h555v-103l-371 -473h374zM487 852l-218 -93l-42 76l204 127z" />
    <glyph glyph-name="zacute" unicode="&#x17a;" horiz-adv-x="498" 
d="M464 114v-114h-430v92l253 314h-248v114h420v-92l-254 -314h259zM417 682l-218 -93l-42 76l204 127z" />
    <glyph glyph-name="Zdotaccent" unicode="&#x17b;" horiz-adv-x="634" 
d="M600 0h-561v103l370 473h-367v124h555v-103l-371 -473h374v-124zM241 832q0 34 22.5 56.5t55.5 22.5q34 0 56.5 -22.5t22.5 -56.5q0 -33 -22.5 -55.5t-56.5 -22.5q-33 0 -55.5 22.5t-22.5 55.5z" />
    <glyph glyph-name="zdotaccent" unicode="&#x17c;" horiz-adv-x="498" 
d="M464 114v-114h-430v92l253 314h-248v114h420v-92l-254 -314h259zM249 584q-33 0 -55.5 22.5t-22.5 55.5q0 34 22.5 56.5t55.5 22.5q34 0 56.5 -22.5t22.5 -56.5q0 -33 -22.5 -55.5t-56.5 -22.5z" />
    <glyph glyph-name="Zcaron" unicode="&#x17d;" horiz-adv-x="634" 
d="M600 0h-561v103l370 473h-367v124h555v-103l-371 -473h374v-124zM322 759h-6l-175 127l50 70l128 -75l128 74l50 -69z" />
    <glyph glyph-name="zcaron" unicode="&#x17e;" horiz-adv-x="498" 
d="M464 114v-114h-430v92l253 314h-248v114h420v-92l-254 -314h259zM246 589l-175 127l50 70l128 -75l128 74l50 -69l-175 -127h-6z" />
    <glyph glyph-name="uni018F" unicode="&#x18f;" horiz-adv-x="809" 
d="M404 715q158 0 261 -105q105 -103 105 -260q0 -156 -105 -261q-104 -104 -261 -104q-155 0 -261 104q-104 106 -104 261q0 33 4 56h582q-18 81 -79 130q-61 50 -142 50q-107 0 -175 -83l-133 49q49 77 130 120t178 43zM404 115q80 0 138 46q61 47 80 121h-435
q19 -73 79 -121q59 -46 138 -46z" />
    <glyph glyph-name="florin" unicode="&#x192;" horiz-adv-x="373" 
d="M-38 -225h-70l21 119h60q28 0 49 18t26 45l67 376h-79l19 109h79l25 143q14 72 72 118q61 47 136 47h70l-21 -119h-61q-27 0 -48.5 -18t-25.5 -45l-23 -126h124l-19 -109h-124l-69 -393q-14 -72 -73 -118q-59 -47 -135 -47z" />
    <glyph glyph-name="uni01DD" unicode="&#x1dd;" horiz-adv-x="604" 
d="M28 306h413q-14 51 -55.5 82.5t-97.5 31.5q-76 0 -121 -55l-121 36q35 62 99.5 98t142.5 36q122 0 201 -79q81 -78 81 -196t-79 -197q-78 -78 -194 -78q-115 0 -195 78q-78 79 -78 197q0 29 4 46zM440 209h-287q14 -49 54 -79t92 -30q49 0 87.5 30t53.5 79z" />
    <glyph glyph-name="Aringacute" unicode="&#x1fa;" horiz-adv-x="727" 
d="M205 132l-55 -132h-141l297 693q-27 15 -43.5 42t-16.5 60q0 49 34 83q35 35 84 35q29 0 54 -13l180 112l56 -110l-177 -76q4 -12 4 -31q0 -33 -16.5 -60t-43.5 -42l297 -693h-141l-55 132h-317zM470 255l-106 254l-107 -254h213zM396 795q2 20 -15 28.5t-34 0t-16 -28.5
q-1 -20 16 -28t34 0.5t15 27.5z" />
    <glyph glyph-name="aringacute" unicode="&#x1fb;" horiz-adv-x="622" 
d="M287 535q88 0 158 -56v41h124v-520h-124v41q-70 -56 -158 -56q-107 0 -181 78q-72 79 -72 197t72 196q73 79 181 79zM203 367q-40 -43 -40 -107t40 -107t100 -43q59 0 99 43q41 44 41 107t-41 107q-40 43 -99 43q-60 0 -100 -43zM312 813q33 0 62 -17l172 107l56 -110
l-174 -74q2 -22 2 -24q0 -48 -35 -83q-34 -34 -83 -34t-83 34t-34 83t34 83.5t83 34.5zM289 718q-9 -9 -9 -23t9 -23t23 -9t23 9q10 9 10 23t-10 23q-9 10 -23 10t-23 -10z" />
    <glyph glyph-name="AEacute" unicode="&#x1fc;" horiz-adv-x="1026" 
d="M162 0h-153l439 700h539v-124h-352v-160h296v-124h-296v-168h357v-124h-492v132h-257zM319 255h181v293zM737 852l-218 -93l-42 76l204 127z" />
    <glyph glyph-name="aeacute" unicode="&#x1fd;" horiz-adv-x="1015" 
d="M287 -15q-107 0 -181 78q-72 79 -72 197t72 196q73 79 181 79q91 0 158 -57v42h124v-43q68 58 163 58q109 0 184 -79t75 -196q0 -29 -4 -46h-413q14 -51 55.5 -82.5t96.5 -31.5q77 0 122 55l121 -35q-33 -63 -94.5 -99t-136.5 -36q-96 0 -169 60v-45h-124v42
q-67 -57 -158 -57zM203 367q-40 -43 -40 -107t40 -107t100 -43q59 0 99 43q41 44 41 107t-41 107q-40 43 -99 43q-60 0 -100 -43zM575 311h287q-14 49 -54 79t-92 30q-49 0 -87.5 -30t-53.5 -79zM670 682l-219 -93l-41 76l204 127z" />
    <glyph glyph-name="Oslashacute" unicode="&#x1fe;" horiz-adv-x="809" 
d="M130 41l26 38q-117 103 -117 271q0 156 104 260q105 105 261 105q88 0 169 -38l27 38l81 -56l-27 -38q116 -107 116 -271q0 -156 -105 -261q-104 -104 -261 -104q-90 0 -167 39l-28 -39zM575 508l-262 -375q42 -18 91 -18q97 0 161 67q65 68 65 168q0 94 -55 158z
M235 191l261 376q-42 19 -92 19q-96 0 -161 -68q-64 -67 -64 -168q0 -94 56 -159zM353 759l-41 76l204 127l56 -110z" />
    <glyph glyph-name="oslashacute" unicode="&#x1ff;" horiz-adv-x="618" 
d="M309 535q63 0 116 -24l17 24l78 -56l-15 -22q80 -78 80 -197q0 -118 -79 -197q-80 -78 -197 -78q-67 0 -117 25l-16 -25l-79 56l16 23q-79 76 -79 196q0 118 78 196q79 79 197 79zM428 348l-162 -233q25 -5 43 -5q62 0 104 43t42 107q0 48 -27 88zM189 173l162 232
q-18 5 -42 5q-62 0 -104 -43t-42 -107q0 -47 26 -87zM258 589l-41 76l204 127l56 -110z" />
    <glyph glyph-name="uni0218" unicode="&#x218;" horiz-adv-x="611" 
d="M545 558l-134 -39q-8 28 -40 48t-73 20q-44 0 -75 -21.5t-31 -52.5q0 -39 64 -66q26 -11 115 -37q65 -18 104 -39q31 -16 50 -37q47 -49 47 -127q0 -101 -73 -162q-72 -60 -187 -60q-104 0 -178 48q-74 50 -96 122l134 40q8 -34 47.5 -57.5t92.5 -23.5q54 0 90 22.5
t36 58.5q0 26 -25 49q-10 8 -29 17q-16 8 -56 21q-125 37 -169 60q-101 54 -101 161q0 95 66 153q68 59 172 59q92 0 160 -45q68 -44 89 -112zM402 -132q0 -77 -95 -131l-1 -1l-31 33q46 36 46 54q-22 5 -37.5 23t-15.5 41q0 26 18.5 44t45.5 18q31 0 50.5 -23t19.5 -58z
" />
    <glyph glyph-name="uni0219" unicode="&#x219;" horiz-adv-x="475" 
d="M438 395l-117 -19q-17 51 -91 51q-32 0 -52.5 -12t-20.5 -33q0 -26 46 -42l107 -36q71 -25 103.5 -62t32.5 -94q0 -79 -56.5 -121t-149.5 -42t-149 40.5t-67 112.5l117 17q7 -28 33.5 -45t68.5 -17q37 0 60.5 13.5t23.5 37.5q0 31 -58 50l-107 34q-66 22 -95 56t-29 89
q0 79 54.5 120.5t146.5 41.5q84 0 136.5 -37t62.5 -103zM332 -132q0 -77 -95 -131l-1 -1l-31 33q46 36 46 54q-22 5 -37.5 23t-15.5 41q0 26 18.5 44t45.5 18q31 0 50.5 -23t19.5 -58z" />
    <glyph glyph-name="uni021A" unicode="&#x21a;" horiz-adv-x="647" 
d="M256 0v576h-232v124h599v-124h-232v-576h-135zM316 -177q-22 5 -37 23t-15 41q0 26 18 44t45 18q31 0 50.5 -23t19.5 -58q0 -77 -94 -131q0 -1 -1 -1l-32 33q46 36 46 54z" />
    <glyph glyph-name="uni021B" unicode="&#x21b;" horiz-adv-x="362" 
d="M10 411v109h74v102h125v-102h129v-109h-129v-229q0 -27 18 -45t46 -18h65v-119h-77q-74 0 -126 47q-51 47 -51 117v247h-74zM280 -132q0 -77 -94 -131l-1 -1l-32 33q46 36 46 54q-22 5 -37 23t-15 41q0 26 18 44t45 18q31 0 50.5 -23t19.5 -58z" />
    <glyph glyph-name="uni0237" unicode="&#x237;" horiz-adv-x="236" 
d="M59 520h125v-580q0 -71 -52 -117q-51 -48 -127 -48h-46v119h36q28 0 46 18t18 45v563z" />
    <glyph glyph-name="uni0259" unicode="&#x259;" horiz-adv-x="604" 
d="M28 306h413q-14 51 -55.5 82.5t-97.5 31.5q-76 0 -121 -55l-121 36q35 62 99.5 98t142.5 36q122 0 201 -79q81 -78 81 -196t-79 -197q-78 -78 -194 -78q-115 0 -195 78q-78 79 -78 197q0 29 4 46zM440 209h-287q14 -49 54 -79t92 -30q49 0 87.5 30t53.5 79z" />
    <glyph glyph-name="circumflex" unicode="&#x2c6;" horiz-adv-x="435" 
d="M218 783l-128 -74l-51 69l175 128h7l175 -128l-51 -68z" />
    <glyph glyph-name="caron" unicode="&#x2c7;" horiz-adv-x="435" 
d="M218 832l127 73l51 -68l-175 -128h-7l-175 128l51 69z" />
    <glyph glyph-name="breve" unicode="&#x2d8;" horiz-adv-x="404" 
d="M39 861h97q0 -32 19 -53.5t48 -21.5t47 21t18 54h97q0 -68 -47 -115q-46 -46 -116 -46q-71 0 -117 46t-46 115z" />
    <glyph glyph-name="dotaccent" unicode="&#x2d9;" horiz-adv-x="235" 
d="M118 861q33 0 55.5 -22t22.5 -56t-22.5 -56t-55.5 -22q-34 0 -56.5 22t-22.5 56t22.5 56t56.5 22z" />
    <glyph glyph-name="ring" unicode="&#x2da;" horiz-adv-x="314" 
d="M39 816q0 49 34 83q35 35 84 35q48 0 83 -35t35 -83q0 -49 -35 -84q-34 -34 -83 -34q-50 0 -84 34t-34 84zM134 839q-9 -9 -9 -23t9 -24q9 -9 23 -9t23 9q15 15 8.5 33.5t-23 22.5t-31.5 -9z" />
    <glyph glyph-name="ogonek" unicode="&#x2db;" horiz-adv-x="300" 
d="M86 -16l16 16h92l-17 -15q-12 -12 -27 -35q-16 -25 -16 -46q0 -34 36 -34q25 0 43 18l6 6l42 -51l-16 -15q-12 -10 -41 -24q-32 -15 -62 -15q-44 0 -73.5 26t-29.5 66q0 26 14.5 55.5t32.5 47.5z" />
    <glyph glyph-name="tilde" unicode="&#x2dc;" horiz-adv-x="411" 
d="M134 728h-95q0 48 33 83q35 35 81 35q30 0 59 -19t38 -19q11 0 19 9.5t8 23.5h95q0 -51 -33 -85t-80 -34q-31 0 -59 19q-29 20 -37 20q-12 0 -20.5 -9.5t-8.5 -23.5z" />
    <glyph glyph-name="hungarumlaut" unicode="&#x2dd;" horiz-adv-x="515" 
d="M102 698l-63 60l144 170l87 -88zM308 698l-62 60l143 170l87 -88z" />
    <glyph glyph-name="uni0394" unicode="&#x394;" horiz-adv-x="708" 
d="M699 0h-690l290 700h110zM509 123l-155 384l-154 -384h309z" />
    <glyph glyph-name="uni03A9" unicode="&#x3a9;" horiz-adv-x="809" 
d="M39 365q0 149 104 250q104 100 261 100t261 -101q105 -100 105 -251q0 -141 -94 -239h94v-124h-275v124q61 27 98 86.5t37 133.5q0 103 -65 173q-65 69 -161 69t-161 -69q-64 -67 -64 -170q0 -77 40 -138t106 -85v-124h-275v124h84q-95 101 -95 241z" />
    <glyph glyph-name="uni0400" unicode="&#x400;" horiz-adv-x="613" 
d="M58 700h516v-124h-382v-160h327v-124h-327v-168h387v-124h-521v700zM402 835l-41 -76l-219 93l56 110z" />
    <glyph glyph-name="uni0401" unicode="&#x401;" horiz-adv-x="613" 
d="M58 700h516v-124h-382v-160h327v-124h-327v-168h387v-124h-521v700zM421 753q-31 0 -52 21.5t-21 52.5q0 32 21 53t52 21q32 0 53.5 -21t21.5 -53t-21.5 -53t-53.5 -21zM135 827q0 32 21 53t53 21t53 -21t21 -53q0 -31 -21.5 -52.5t-52.5 -21.5t-52.5 21.5t-21.5 52.5z
" />
    <glyph glyph-name="uni0402" unicode="&#x402;" horiz-adv-x="867" 
d="M256 0v576h-232v124h599v-124h-232v-144q63 16 134 16q133 0 208.5 -61t75.5 -171q0 -115 -78 -173q-76 -58 -204 -58l2 124q72 0 108.5 24.5t36.5 80.5q0 110 -153 110q-57 0 -130 -17v-307h-135z" />
    <glyph glyph-name="uni0403" unicode="&#x403;" horiz-adv-x="544" 
d="M192 576v-576h-134v700h461v-124h-327zM447 852l-219 -93l-41 76l204 127z" />
    <glyph glyph-name="uni0404" unicode="&#x404;" horiz-adv-x="765" 
d="M404 715q109 0 196 -54q87 -53 131 -143l-130 -49q-29 54 -81.5 85.5t-115.5 31.5q-79 0 -139 -48q-60 -47 -79 -123h298v-122h-300q18 -79 78 -129q61 -49 142 -49q63 0 115.5 31t81.5 85l130 -49q-43 -90 -131 -144q-88 -53 -196 -53q-155 0 -261 104
q-104 106 -104 261q0 156 104 260q105 105 261 105z" />
    <glyph glyph-name="uni0405" unicode="&#x405;" horiz-adv-x="611" 
d="M545 558l-134 -39q-8 28 -40 48t-73 20q-44 0 -75 -21.5t-31 -52.5q0 -39 64 -66q26 -11 115 -37q65 -18 104 -39q31 -16 50 -37q47 -49 47 -127q0 -101 -73 -162q-72 -60 -187 -60q-104 0 -178 48q-74 50 -96 122l134 40q8 -34 47.5 -57.5t92.5 -23.5q54 0 90 22.5
t36 58.5q0 26 -25 49q-10 8 -29 17q-16 8 -56 21q-125 37 -169 60q-101 54 -101 161q0 95 66 153q68 59 172 59q92 0 160 -45q68 -44 89 -112z" />
    <glyph glyph-name="uni0406" unicode="&#x406;" horiz-adv-x="250" 
d="M192 0h-134v700h134v-700z" />
    <glyph glyph-name="uni0407" unicode="&#x407;" horiz-adv-x="250" 
d="M192 0h-134v700h134v-700zM-56 827q0 32 21.5 53t53.5 21t53 -21t21 -53q0 -31 -21.5 -52.5t-52.5 -21.5q-32 0 -53.5 21.5t-21.5 52.5zM157 827q0 32 21.5 53t52.5 21q32 0 53.5 -21t21.5 -53t-21.5 -53t-53.5 -21q-31 0 -52.5 21.5t-21.5 52.5z" />
    <glyph glyph-name="uni0408" unicode="&#x408;" horiz-adv-x="582" 
d="M533 700v-444q0 -116 -80 -194q-80 -77 -201 -77q-75 0 -138 33t-100 90l112 72q18 -33 52 -52t76 -19q64 0 107 42q43 43 43 105v444h129z" />
    <glyph glyph-name="uni0409" unicode="&#x409;" horiz-adv-x="1114" 
d="M39 0h-30v124h30q46 0 72 50q26 52 26 186v340h517v-248h179q103 0 173 -65q69 -64 69 -161t-70 -161q-70 -65 -172 -65h-313v576h-248v-216q0 -188 -63 -274t-170 -86zM654 328v-204h179q43 0 72.5 29t29.5 73t-29 73t-73 29h-179z" />
    <glyph glyph-name="uni040A" unicode="&#x40a;" horiz-adv-x="1130" 
d="M192 0h-134v700h134v-268h343v268h135v-268h179q102 0 172 -62q70 -61 70 -154t-70 -154q-70 -62 -172 -62h-314v308h-343v-308zM849 308h-179v-184h179q43 0 72.5 26.5t29.5 65.5q0 40 -29 66t-73 26z" />
    <glyph glyph-name="uni040B" unicode="&#x40b;" horiz-adv-x="867" 
d="M256 0v576h-232v124h599v-124h-232v-140q65 12 122 12q141 0 218.5 -61t77.5 -174v-213h-135v213q0 111 -161 111q-63 0 -122 -13v-311h-135z" />
    <glyph glyph-name="uni040C" unicode="&#x40c;" horiz-adv-x="655" 
d="M192 0h-134v700h134v-312l264 312h170l-289 -342l309 -358h-170l-284 329v-329zM490 852l-218 -93l-42 76l204 127z" />
    <glyph glyph-name="uni040D" unicode="&#x40d;" horiz-adv-x="733" 
d="M58 0v700h134v-475l359 475h124v-700h-135v472l-358 -472h-124zM454 835l-42 -76l-218 93l55 110z" />
    <glyph glyph-name="uni040E" unicode="&#x40e;" horiz-adv-x="698" 
d="M295 189l-286 511h148l209 -378l179 378h143l-236 -497q-50 -105 -114 -154t-150 -49h-67v124h57q70 0 117 65zM350 749q-80 0 -132 49t-52 123h106q0 -30 22 -50t55 -20q32 0 54 20t22 50h106q0 -74 -52 -123t-129 -49z" />
    <glyph glyph-name="uni040F" unicode="&#x40f;" horiz-adv-x="718" 
d="M58 0v700h134v-576h334v576h134v-700h-234v-170h-134v170h-234z" />
    <glyph glyph-name="uni0410" unicode="&#x410;" horiz-adv-x="727" 
d="M150 0h-141l300 700h109l300 -700h-141l-55 132h-317zM470 255l-106 254l-107 -254h213z" />
    <glyph glyph-name="uni0411" unicode="&#x411;" horiz-adv-x="657" 
d="M58 700h493v-124h-359v-125h180q103 0 173 -65q69 -64 69 -161t-70 -161q-68 -64 -172 -64h-314v700zM192 327v-203h180q43 0 72.5 29t29.5 72t-29 72.5t-73 29.5h-180z" />
    <glyph glyph-name="uni0412" unicode="&#x412;" horiz-adv-x="682" 
d="M417 0h-359v700h339q93 0 154 -55q62 -54 62 -136q0 -85 -68 -141q98 -59 98 -168q0 -84 -65 -143q-64 -57 -161 -57zM417 298h-225v-174h225q37 0 61.5 25t24.5 62t-24.5 62t-61.5 25zM397 576h-205v-155h205q33 0 55 22t22 56q0 33 -22 55t-55 22z" />
    <glyph glyph-name="uni0413" unicode="&#x413;" horiz-adv-x="544" 
d="M192 576v-576h-134v700h461v-124h-327z" />
    <glyph glyph-name="uni0414" unicode="&#x414;" horiz-adv-x="821" 
d="M154 0v-170h-134v294h81q69 27 69 233v343h522v-576h109v-294h-134v170h-513zM261 124h297v452h-253v-214q0 -148 -44 -238z" />
    <glyph glyph-name="uni0415" unicode="&#x415;" horiz-adv-x="613" 
d="M58 700h516v-124h-382v-160h327v-124h-327v-168h387v-124h-521v700z" />
    <glyph glyph-name="uni0416" unicode="&#x416;" horiz-adv-x="1014" 
d="M176 0h-167l289 358l-269 342h167l245 -313v313h134v-310l244 310h166l-269 -342l289 -358h-166l-264 327v-327h-134v329z" />
    <glyph glyph-name="uni0417" unicode="&#x417;" horiz-adv-x="647" 
d="M325 -15q-104 0 -179 46.5t-112 129.5l131 49q44 -95 159 -95q64 0 104 26.5t40 69.5q0 36 -28 61.5t-68 25.5h-133v123h131q36 0 59.5 22t23.5 55q0 39 -36 63.5t-94 24.5q-113 0 -153 -96l-131 49q37 83 110.5 129.5t175.5 46.5q117 0 192 -57q76 -57 76 -145
q0 -96 -82 -151q96 -60 96 -165q0 -92 -80 -152q-79 -60 -202 -60z" />
    <glyph glyph-name="uni0418" unicode="&#x418;" horiz-adv-x="733" 
d="M182 0h-124v700h134v-475l359 475h124v-700h-135v472z" />
    <glyph glyph-name="uni0419" unicode="&#x419;" horiz-adv-x="733" 
d="M540 472l-358 -472h-124v700h134v-475l359 475h124v-700h-135v472zM189 921h106q0 -30 22 -50t55 -20q32 0 54 20t22 50h106q0 -74 -52 -123t-129 -49q-80 0 -132 49t-52 123z" />
    <glyph glyph-name="uni041A" unicode="&#x41a;" horiz-adv-x="655" 
d="M58 0v700h134v-312l264 312h170l-289 -342l309 -358h-170l-284 329v-329h-134z" />
    <glyph glyph-name="uni041B" unicode="&#x41b;" horiz-adv-x="712" 
d="M39 0h-30v124h30q47 0 73 50q26 52 26 186v340h517v-700h-135v576h-248v-216q0 -188 -63 -274t-170 -86z" />
    <glyph glyph-name="uni041C" unicode="&#x41c;" horiz-adv-x="885" 
d="M192 0h-134v700h134l251 -442l250 442h134v-700h-134v446l-206 -367h-89l-206 366v-445z" />
    <glyph glyph-name="uni041D" unicode="&#x41d;" horiz-adv-x="728" 
d="M192 0h-134v700h134v-284h343v284h135v-700h-135v292h-343v-292z" />
    <glyph glyph-name="uni041E" unicode="&#x41e;" horiz-adv-x="809" 
d="M404 715q158 0 261 -105q105 -103 105 -260q0 -156 -105 -261q-104 -104 -261 -104q-155 0 -261 104q-104 106 -104 261q0 156 104 260q105 105 261 105zM179 350q0 -101 64 -168t161 -67t161 67q65 68 65 168t-65 168t-161 68t-161 -68q-64 -67 -64 -168z" />
    <glyph glyph-name="uni041F" unicode="&#x41f;" horiz-adv-x="728" 
d="M192 576v-576h-134v700h612v-700h-135v576h-343z" />
    <glyph glyph-name="uni0420" unicode="&#x420;" horiz-adv-x="652" 
d="M192 247v-247h-134v700h314q102 0 172 -65q70 -64 70 -161q0 -98 -70 -162q-70 -65 -172 -65h-180zM372 576h-180v-205h180q44 0 73 29.5t29 73.5t-29 73t-73 29z" />
    <glyph glyph-name="uni0421" unicode="&#x421;" horiz-adv-x="765" 
d="M404 715q109 0 196 -54q87 -53 131 -143l-130 -49q-29 54 -81.5 85.5t-115.5 31.5q-96 0 -161 -68q-64 -67 -64 -168t64 -168t161 -67q63 0 115.5 31t81.5 85l130 -49q-43 -90 -131 -144q-88 -53 -196 -53q-155 0 -261 104q-104 106 -104 261q0 156 104 260
q105 105 261 105z" />
    <glyph glyph-name="uni0422" unicode="&#x422;" horiz-adv-x="647" 
d="M256 576h-232v124h599v-124h-232v-576h-135v576z" />
    <glyph glyph-name="uni0423" unicode="&#x423;" horiz-adv-x="698" 
d="M295 189l-286 511h148l209 -378l179 378h143l-236 -497q-50 -105 -114 -154t-150 -49h-67v124h57q70 0 117 65z" />
    <glyph glyph-name="uni0424" unicode="&#x424;" horiz-adv-x="865" 
d="M365 645v70h135v-70q140 -2 232 -86q94 -84 94 -209t-94 -210q-92 -83 -232 -85v-70h-135v70q-139 1 -233 85q-93 86 -93 210q0 125 93 209t233 86zM500 516v-332q79 0 132 47q54 48 54 119t-53 118q-52 48 -133 48zM365 184v332q-81 0 -133 -48q-53 -47 -53 -118
t53 -119q55 -47 133 -47z" />
    <glyph glyph-name="uni0425" unicode="&#x425;" horiz-adv-x="697" 
d="M269 357l-250 343h161l169 -233l169 233h160l-249 -343l259 -357h-160l-179 247l-179 -247h-161z" />
    <glyph glyph-name="uni0426" unicode="&#x426;" horiz-adv-x="789" 
d="M58 0v700h134v-576h334v576h134v-576h110v-294h-135v170h-577z" />
    <glyph glyph-name="uni0427" unicode="&#x427;" horiz-adv-x="673" 
d="M336 252q-142 0 -222 62t-80 173v213h134v-213q0 -111 166 -111q75 0 147 18v306h134v-700h-134v269q-74 -17 -145 -17z" />
    <glyph glyph-name="uni0428" unicode="&#x428;" horiz-adv-x="1046" 
d="M58 0v700h134v-576h259v576h134v-576h269v576h134v-700h-930z" />
    <glyph glyph-name="uni0429" unicode="&#x429;" horiz-adv-x="1117" 
d="M58 700h134v-576h259v576h134v-576h269v576h134v-576h110v-294h-135v170h-905v700z" />
    <glyph glyph-name="uni042A" unicode="&#x42a;" horiz-adv-x="841" 
d="M247 0v576h-223v124h357v-248h180q102 0 172 -65q69 -64 69 -161q0 -96 -69 -161q-70 -65 -172 -65h-314zM381 328v-204h180q43 0 72.5 29t29.5 73t-29 73t-73 29h-180z" />
    <glyph glyph-name="uni042B" unicode="&#x42b;" horiz-adv-x="883" 
d="M372 0h-314v700h134v-248h180q103 0 173 -65q69 -64 69 -161t-70 -161q-70 -65 -172 -65zM825 0h-135v700h135v-700zM192 328v-204h180q44 0 73 29t29 73q0 42 -26.5 70.5t-66.5 31.5h-9h-180z" />
    <glyph glyph-name="uni042C" unicode="&#x42c;" horiz-adv-x="652" 
d="M58 0v700h134v-248h180q103 0 173 -65q69 -64 69 -161t-70 -161q-70 -65 -172 -65h-314zM192 328v-204h180q41 0 69.5 26.5t32.5 66.5q0 50 -27.5 80.5t-74.5 30.5h-180z" />
    <glyph glyph-name="uni042D" unicode="&#x42d;" horiz-adv-x="765" 
d="M34 182l130 49q29 -54 81.5 -85t115.5 -31q82 0 141 49q61 49 79 129h-271v122h269q-19 76 -80 123q-59 48 -138 48q-63 0 -115.5 -31.5t-81.5 -85.5l-130 49q45 91 132.5 144t194.5 53q157 0 260 -105q105 -103 105 -260q0 -156 -105 -261q-104 -104 -260 -104
q-107 0 -194.5 53t-132.5 144z" />
    <glyph glyph-name="uni042E" unicode="&#x42e;" horiz-adv-x="1063" 
d="M58 0v700h134v-284h107q23 132 121 215q100 84 239 84q157 0 260 -105q105 -103 105 -260q0 -156 -105 -261q-104 -104 -260 -104q-141 0 -242 86q-100 85 -120 221h-105v-292h-134zM659 115q96 0 160 67q65 68 65 168t-65 168t-160 68q-97 0 -162 -68q-64 -67 -64 -168
t64 -168t162 -67z" />
    <glyph glyph-name="uni042F" unicode="&#x42f;" horiz-adv-x="676" 
d="M337 248l-148 -248h-150l158 266q-66 25 -105 81t-39 127q0 96 69 161q70 65 172 65h324v-700h-135v248h-146zM294 372h189v204h-189q-44 0 -73 -29t-29 -73t29 -73t73 -29z" />
    <glyph glyph-name="uni0430" unicode="&#x430;" horiz-adv-x="622" 
d="M287 535q88 0 158 -56v41h124v-520h-124v41q-70 -56 -158 -56q-107 0 -181 78q-72 79 -72 197t72 196q73 79 181 79zM402 367q-40 43 -99 43q-60 0 -100 -43t-40 -107t40 -107t100 -43q59 0 99 43q41 44 41 107t-41 107z" />
    <glyph glyph-name="uni0431" unicode="&#x431;" horiz-adv-x="639" 
d="M39 374q0 174 79 265t248 109l174 17v-125l-172 -17q-193 -21 -206 -178q62 90 179 90q110 0 187 -80t77 -197q0 -116 -78 -195q-77 -78 -193 -78q-60 0 -112 23t-93.5 69t-65.5 122t-24 175zM335 109q60 0 100 43q41 44 41 108q0 63 -41 107t-100 44q-60 0 -101 -44
t-41 -107q0 -64 41 -108q40 -43 101 -43z" />
    <glyph glyph-name="uni0432" unicode="&#x432;" horiz-adv-x="551" 
d="M53 520h280q70 0 116 -37q49 -38 53 -93q1 -3 1 -12q0 -61 -46 -101q70 -42 70 -118q0 -70 -50 -115q-50 -44 -124 -44h-300v520zM177 218v-100h175q28 -3 40 23.5t0 53t-40 23.5h-175zM333 402h-156v-83h156q18 0 29.5 11.5t11.5 30.5q0 18 -11.5 29.5t-29.5 11.5z" />
    <glyph glyph-name="uni0433" unicode="&#x433;" horiz-adv-x="402" 
d="M177 401v-401h-124v520h340v-119h-216z" />
    <glyph glyph-name="uni0434" unicode="&#x434;" horiz-adv-x="670" 
d="M138 -150h-124v269h84q31 40 31 172v229h434v-401h93v-269h-124v150h-394v-150zM226 119h213v282h-186v-119q0 -96 -27 -163z" />
    <glyph glyph-name="uni0435" unicode="&#x435;" horiz-adv-x="604" 
d="M576 214h-413q14 -51 55.5 -82.5t96.5 -31.5q77 0 122 55l121 -35q-36 -63 -100.5 -99t-142.5 -36q-120 0 -201 78q-80 80 -80 197q0 118 78 196q79 79 195 79t194 -79q79 -79 79 -196q0 -19 -4 -46zM164 311h287q-15 49 -55 79t-91 30q-49 0 -88 -30t-53 -79z" />
    <glyph glyph-name="uni0436" unicode="&#x436;" horiz-adv-x="786" 
d="M157 0h-148l198 269l-175 251h145l154 -218v218h124v-218l154 218h145l-175 -251l197 -269h-147l-174 238v-238h-124v238z" />
    <glyph glyph-name="uni0437" unicode="&#x437;" horiz-adv-x="532" 
d="M24 141l125 32q23 -69 113 -69q48 0 80 19t32 48q0 19 -14 32t-35 13h-128v101h122q19 0 32 11.5t13 28.5q0 25 -28.5 42t-71.5 17q-89 0 -112 -69l-125 32q22 71 88 113.5t156 42.5q95 0 159 -46t64 -115q0 -63 -55 -105q64 -43 64 -115q0 -71 -68 -121
q-67 -48 -169 -48q-91 0 -156 42t-86 114z" />
    <glyph glyph-name="uni0438" unicode="&#x438;" horiz-adv-x="598" 
d="M421 310l-264 -310h-104v520h124v-313l264 313h104v-520h-124v310z" />
    <glyph glyph-name="uni0439" unicode="&#x439;" horiz-adv-x="598" 
d="M53 0v520h124v-313l264 313h104v-520h-124v310l-264 -310h-104zM122 738h101q0 -32 22 -53t55 -21q32 0 53 21t21 53h102q0 -72 -51 -122q-49 -49 -125 -49q-77 0 -127 49q-51 50 -51 122z" />
    <glyph glyph-name="uni043A" unicode="&#x43a;" horiz-adv-x="544" 
d="M177 255v-255h-124v520h124v-237l185 237h151l-195 -251l217 -269h-153z" />
    <glyph glyph-name="uni043B" unicode="&#x43b;" horiz-adv-x="592" 
d="M55 0h-41v119h32q32 0 47.5 36.5t15.5 128.5v236h430v-520h-124v401h-182v-144q0 -128 -47 -192.5t-131 -64.5z" />
    <glyph glyph-name="uni043C" unicode="&#x43c;" horiz-adv-x="695" 
d="M177 288v-288h-124v520h124l171 -294l170 294h124v-520h-124v288l-132 -228h-77z" />
    <glyph glyph-name="uni043D" unicode="&#x43d;" horiz-adv-x="598" 
d="M177 205v-205h-124v520h124v-196h244v196h124v-520h-124v205h-244z" />
    <glyph glyph-name="uni043E" unicode="&#x43e;" horiz-adv-x="618" 
d="M112 63q-78 79 -78 197t78 196q79 79 197 79t197 -79q79 -78 79 -196t-79 -197q-80 -78 -197 -78t-197 78zM205 367q-42 -43 -42 -107t42 -107t104 -43t104 43t42 107t-42 107t-104 43t-104 -43z" />
    <glyph glyph-name="uni043F" unicode="&#x43f;" horiz-adv-x="588" 
d="M177 401v-401h-124v520h482v-520h-124v401h-234z" />
    <glyph glyph-name="uni0440" unicode="&#x440;" horiz-adv-x="622" 
d="M178 -225h-125v745h125v-41q70 56 157 56q108 0 181 -79q73 -77 73 -196q0 -118 -73 -197q-74 -78 -181 -78q-87 0 -157 56v-266zM418 367q-40 43 -99 43t-99 -43t-40 -107t40 -107t99 -43t99 43q41 44 41 107t-41 107z" />
    <glyph glyph-name="uni0441" unicode="&#x441;" horiz-adv-x="590" 
d="M566 363l-125 -37q-17 39 -52.5 61.5t-79.5 22.5q-62 0 -104 -43t-42 -107t42 -107t104 -43q44 0 79.5 22.5t52.5 61.5l125 -37q-30 -79 -99 -125.5t-158 -46.5q-117 0 -197 78q-78 79 -78 197t78 196q79 79 197 79q89 0 158 -46.5t99 -125.5z" />
    <glyph glyph-name="uni0442" unicode="&#x442;" horiz-adv-x="489" 
d="M183 0v401h-173v119h469v-119h-172v-401h-124z" />
    <glyph glyph-name="uni0443" unicode="&#x443;" horiz-adv-x="545" 
d="M195 -26l14 36l-200 510h129l133 -351l136 351h129l-235 -588q-33 -82 -87 -119.5t-140 -37.5h-20v119h20q89 0 121 80z" />
    <glyph glyph-name="uni0444" unicode="&#x444;" horiz-adv-x="801" 
d="M487 -15h-16h-8v-210h-124v210h-8h-17q-118 0 -197 78q-78 79 -78 197t78 196q79 79 197 79h17h8v215h124v-215h8h16q118 0 196 -79q79 -78 79 -196t-79 -197q-78 -78 -196 -78zM314 411q-63 0 -105 -44q-41 -44 -41 -107q0 -64 41 -108q42 -43 105 -43q3 0 25 2v299
q-5 1 -25 1zM487 411q-19 0 -24 -1v-299q18 -2 24 -2q64 0 104 43q42 44 42 108t-42 107q-41 44 -104 44z" />
    <glyph glyph-name="uni0445" unicode="&#x445;" horiz-adv-x="557" 
d="M401 0l-123 168l-122 -168h-147l195 267l-184 253h146l112 -154l113 154h146l-185 -253l195 -267h-146z" />
    <glyph glyph-name="uni0446" unicode="&#x446;" horiz-adv-x="637" 
d="M53 0v520h124v-401h229v401h124v-401h92v-269h-124v150h-445z" />
    <glyph glyph-name="uni0447" unicode="&#x447;" horiz-adv-x="548" 
d="M34 354v166h129v-165q0 -58 88 -58q39 0 120 10v213h124v-520h-124v188q-84 -10 -127 -10q-97 0 -153 49q-57 49 -57 127z" />
    <glyph glyph-name="uni0448" unicode="&#x448;" horiz-adv-x="848" 
d="M53 0v520h124v-401h185v401h124v-401h185v401h124v-520h-742z" />
    <glyph glyph-name="uni0449" unicode="&#x449;" horiz-adv-x="902" 
d="M53 520h124v-401h185v401h124v-401h185v401h124v-401h92v-269h-124v150h-710v520z" />
    <glyph glyph-name="uni044A" unicode="&#x44a;" horiz-adv-x="659" 
d="M183 0v401h-174v119h298v-167h146q77 0 130 -51q52 -49 52 -126q0 -75 -52 -126q-53 -50 -130 -50h-270zM453 234h-146v-115h146q22 0 37.5 16.5t15.5 40.5q0 25 -15 41.5t-38 16.5z" />
    <glyph glyph-name="uni044B" unicode="&#x44b;" horiz-adv-x="738" 
d="M53 0v520h124v-167h147q76 0 129 -51q52 -49 52 -126q0 -75 -52 -126q-53 -50 -129 -50h-271zM685 0h-124v520h124v-520zM328 234h-5h-146v-115h146q22 0 37.5 16.5t15.5 40.5q0 23 -13.5 39.5t-34.5 18.5z" />
    <glyph glyph-name="uni044C" unicode="&#x44c;" horiz-adv-x="529" 
d="M324 0h-271v520h124v-167h147q76 0 129 -51q52 -49 52 -126q0 -75 -52 -126q-53 -50 -129 -50zM177 234v-115h146q22 0 37.5 16.5t15.5 40.5q0 23 -13.5 39.5t-34.5 18.5h-5h-146z" />
    <glyph glyph-name="uni044D" unicode="&#x44d;" horiz-adv-x="590" 
d="M24 156l125 37q17 -39 52.5 -61.5t79.5 -22.5q49 0 86.5 27.5t51.5 72.5h-191v110h188q-16 42 -52 67t-83 25q-45 0 -80 -22.5t-52 -61.5l-125 37q30 78 99 124.5t158 46.5q118 0 196 -79q79 -78 79 -196t-79 -197q-78 -78 -196 -78q-89 0 -158 46.5t-99 124.5z" />
    <glyph glyph-name="uni044E" unicode="&#x44e;" horiz-adv-x="839" 
d="M53 0v520h124v-196h95q19 93 92 152q74 59 171 59q117 0 193 -79q77 -79 77 -196t-77 -197q-76 -78 -193 -78q-101 0 -174 61t-91 159h-93v-205h-124zM635 367q-41 44 -100 44q-60 0 -101 -44q-40 -43 -40 -107q0 -65 40 -108t101 -43q60 0 100 43q41 44 41 108
q0 63 -41 107z" />
    <glyph glyph-name="uni044F" unicode="&#x44f;" horiz-adv-x="564" 
d="M174 0h-145l125 178q-52 19 -83.5 64t-31.5 102q0 76 52 125q52 51 130 51h290v-520h-124v167h-95zM169 344q0 -25 15 -41.5t37 -16.5h166v115h-166q-22 0 -37 -16.5t-15 -40.5z" />
    <glyph glyph-name="uni0450" unicode="&#x450;" horiz-adv-x="604" 
d="M576 214h-413q14 -51 55.5 -82.5t96.5 -31.5q77 0 122 55l121 -35q-36 -63 -100.5 -99t-142.5 -36q-120 0 -201 78q-80 80 -80 197q0 118 78 196q79 79 195 79t194 -79q79 -79 79 -196q0 -19 -4 -46zM164 311h287q-15 49 -55 79t-91 30q-49 0 -88 -30t-53 -79zM353 589
l-219 93l56 110l204 -127z" />
    <glyph glyph-name="uni0451" unicode="&#x451;" horiz-adv-x="604" 
d="M576 214h-413q14 -51 55.5 -82.5t96.5 -31.5q77 0 122 55l121 -35q-36 -63 -100.5 -99t-142.5 -36q-120 0 -201 78q-80 80 -80 197q0 118 78 196q79 79 195 79t194 -79q79 -79 79 -196q0 -19 -4 -46zM164 311h287q-15 49 -55 79t-91 30q-49 0 -88 -30t-53 -79zM126 657
q0 32 21.5 53t53.5 21t53 -21t21 -53q0 -31 -21.5 -52.5t-52.5 -21.5q-32 0 -53.5 21.5t-21.5 52.5zM339 657q0 32 21.5 53t52.5 21q32 0 53.5 -21t21.5 -53t-21.5 -53t-53.5 -21q-31 0 -52.5 21.5t-21.5 52.5z" />
    <glyph glyph-name="uni0452" unicode="&#x452;" horiz-adv-x="602" 
d="M179 750v-79h167v-92h-167v-122q58 78 161 78q92 0 150 -58q60 -59 60 -145v-392q0 -71 -52 -117q-51 -48 -127 -48h-46v119h36q27 0 45.5 18t18.5 45v340q0 51 -35 85t-88 34t-88 -34t-35 -85v-297h-125v579h-49v92h49v79h125z" />
    <glyph glyph-name="uni0453" unicode="&#x453;" horiz-adv-x="402" 
d="M177 401v-401h-124v520h340v-119h-216zM391 682l-218 -93l-42 76l204 127z" />
    <glyph glyph-name="uni0454" unicode="&#x454;" horiz-adv-x="590" 
d="M310 -15q-118 0 -197 78q-79 79 -79 197t79 196q79 79 197 79q87 0 157 -47q69 -46 100 -124l-125 -37q-17 39 -52.5 61.5t-79.5 22.5q-47 0 -83 -24.5t-53 -67.5h208v-110h-211q15 -45 53 -72.5t86 -27.5q44 0 79 22.5t53 61.5l125 -37q-31 -78 -100 -124
q-70 -47 -157 -47z" />
    <glyph glyph-name="uni0455" unicode="&#x455;" horiz-adv-x="475" 
d="M438 395l-117 -19q-17 51 -91 51q-32 0 -52.5 -12t-20.5 -33q0 -26 46 -42l107 -36q71 -25 103.5 -62t32.5 -94q0 -79 -56.5 -121t-149.5 -42t-149 40.5t-67 112.5l117 17q7 -28 33.5 -45t68.5 -17q37 0 60.5 13.5t23.5 37.5q0 31 -58 50l-107 34q-66 22 -95 56t-29 89
q0 79 54.5 120.5t146.5 41.5q84 0 136.5 -37t62.5 -103z" />
    <glyph glyph-name="uni0456" unicode="&#x456;" horiz-adv-x="231" 
d="M178 0h-125v520h125v-520zM115 566q-34 0 -56.5 23t-22.5 57t22.5 56.5t56.5 22.5t57 -22.5t23 -56.5t-22.5 -57t-57.5 -23z" />
    <glyph glyph-name="uni0457" unicode="&#x457;" horiz-adv-x="232" 
d="M178 0h-124v520h124v-520zM-27 604q-22 22 -22 53t22 52q21 22 52 22t52 -22q22 -21 22 -52t-22 -53q-21 -21 -52 -21t-52 21zM154 604q-21 22 -21 53t21 52q22 22 53 22t52 -22q22 -21 22 -52t-22 -53q-21 -21 -52 -21t-53 21z" />
    <glyph glyph-name="uni0458" unicode="&#x458;" horiz-adv-x="236" 
d="M59 520h125v-580q0 -71 -52 -117q-51 -48 -127 -48h-46v119h36q28 0 46 18t18 45v563zM121 566q-34 0 -56.5 23t-22.5 57t22.5 56.5t56.5 22.5t57 -22.5t23 -56.5t-22.5 -57t-57.5 -23z" />
    <glyph glyph-name="uni0459" unicode="&#x459;" horiz-adv-x="891" 
d="M55 0h-41v119h32q32 0 47.5 36.5t15.5 128.5v236h430v-167h146q77 0 130 -51q52 -49 52 -126q0 -75 -52 -126q-53 -50 -130 -50h-270v401h-182v-144q0 -128 -47 -192.5t-131 -64.5zM685 234h-146v-115h146q22 0 37.5 16.5t15.5 40.5q0 25 -15 41.5t-38 16.5z" />
    <glyph glyph-name="uni045A" unicode="&#x45a;" horiz-adv-x="896" 
d="M53 0v520h124v-182h244v182h124v-180h146q78 0 129 -48q52 -48 52 -121q0 -74 -52 -123q-51 -48 -129 -48h-270v219h-244v-219h-124zM545 222v-103h146q22 0 37 15t15 37t-15 36.5t-37 14.5h-146z" />
    <glyph glyph-name="uni045B" unicode="&#x45b;" horiz-adv-x="602" 
d="M179 750v-79h167v-92h-167v-122q58 78 161 78q92 0 150 -58q60 -59 60 -145v-332h-125v297q0 51 -35 85t-88 34t-88 -34t-35 -85v-297h-125v579h-49v92h49v79h125z" />
    <glyph glyph-name="uni045C" unicode="&#x45c;" horiz-adv-x="544" 
d="M177 255v-255h-124v520h124v-237l185 237h151l-195 -251l217 -269h-153zM432 682l-218 -93l-42 76l204 127z" />
    <glyph glyph-name="uni045D" unicode="&#x45d;" horiz-adv-x="598" 
d="M421 310l-264 -310h-104v520h124v-313l264 313h104v-520h-124v310zM386 665l-42 -76l-218 93l55 110z" />
    <glyph glyph-name="uni045E" unicode="&#x45e;" horiz-adv-x="545" 
d="M209 10l-200 510h129l133 -351l136 351h129l-235 -588q-33 -82 -87 -119.5t-140 -37.5h-20v119h20q89 0 121 80zM95 738h102q0 -32 22 -53t55 -21q32 0 53 21t21 53h102q0 -72 -51 -122q-49 -49 -125 -49q-78 0 -128 49q-51 50 -51 122z" />
    <glyph glyph-name="uni045F" unicode="&#x45f;" horiz-adv-x="583" 
d="M53 0v520h124v-401h229v401h124v-520h-179v-150h-124v150h-174z" />
    <glyph glyph-name="uni0490" unicode="&#x490;" horiz-adv-x="524" 
d="M192 576v-576h-134v700h307v147h134v-271h-307z" />
    <glyph glyph-name="uni0491" unicode="&#x491;" horiz-adv-x="408" 
d="M177 401v-401h-124v520h222v119h124v-238h-222z" />
    <glyph glyph-name="uni04D8" unicode="&#x4d8;" horiz-adv-x="809" 
d="M404 715q158 0 261 -105q105 -103 105 -260q0 -156 -105 -261q-104 -104 -261 -104q-155 0 -261 104q-104 106 -104 261q0 33 4 56h582q-18 81 -79 130q-61 50 -142 50q-107 0 -175 -83l-133 49q49 77 130 120t178 43zM404 115q80 0 138 46q61 47 80 121h-435
q19 -73 79 -121q59 -46 138 -46z" />
    <glyph glyph-name="uni04D9" unicode="&#x4d9;" horiz-adv-x="604" 
d="M28 306h413q-14 51 -55.5 82.5t-97.5 31.5q-76 0 -121 -55l-121 36q35 62 99.5 98t142.5 36q122 0 201 -79q81 -78 81 -196t-79 -197q-78 -78 -194 -78q-115 0 -195 78q-78 79 -78 197q0 29 4 46zM440 209h-287q14 -49 54 -79t92 -30q49 0 87.5 30t53.5 79z" />
    <glyph glyph-name="Wgrave" unicode="&#x1e80;" horiz-adv-x="1005" 
d="M356 0h-110l-237 700h138l153 -485l148 485h110l149 -485l152 485h137l-237 -700h-109l-147 468zM385 962l204 -127l-41 -76l-218 93z" />
    <glyph glyph-name="wgrave" unicode="&#x1e81;" horiz-adv-x="779" 
d="M179 0l-170 520h126l99 -327l99 327h113l99 -327l99 327h125l-169 -520h-112l-98 313l-99 -313h-112zM272 792l204 -127l-41 -76l-218 93z" />
    <glyph glyph-name="Wacute" unicode="&#x1e82;" horiz-adv-x="1005" 
d="M356 0h-110l-237 700h138l153 -485l148 485h110l149 -485l152 485h137l-237 -700h-109l-147 468zM670 852l-218 -93l-41 76l204 127z" />
    <glyph glyph-name="wacute" unicode="&#x1e83;" horiz-adv-x="779" 
d="M179 0l-170 520h126l99 -327l99 327h113l99 -327l99 327h125l-169 -520h-112l-98 313l-99 -313h-112zM557 682l-218 -93l-41 76l204 127z" />
    <glyph glyph-name="Wdieresis" unicode="&#x1e84;" horiz-adv-x="1005" 
d="M356 0h-110l-237 700h138l153 -485l148 485h110l149 -485l152 485h137l-237 -700h-109l-147 468zM397 901q31 0 52.5 -21t21.5 -53q0 -31 -21.5 -52.5t-52.5 -21.5q-32 0 -53.5 21t-21.5 53t21.5 53t53.5 21zM535 834q1 13 5 20q17 47 69 47q32 0 53.5 -21t21.5 -53
q0 -31 -21.5 -52.5t-53.5 -21.5q-35 0 -54.5 22.5t-19.5 58.5z" />
    <glyph glyph-name="wdieresis" unicode="&#x1e85;" horiz-adv-x="779" 
d="M179 0l-170 520h126l99 -327l99 327h113l99 -327l99 327h125l-169 -520h-112l-98 313l-99 -313h-112zM422 657q0 32 21 53t53 21t53.5 -21t21.5 -53q0 -31 -21.5 -52.5t-53.5 -21.5t-53 21.5t-21 52.5zM284 731q31 0 52.5 -21t21.5 -53q0 -31 -21.5 -52.5t-52.5 -21.5
q-32 0 -53.5 21t-21.5 53t21.5 53t53.5 21z" />
    <glyph glyph-name="Germandbls" unicode="&#x1e9e;" horiz-adv-x="662" 
d="M187 433v-433h-129v435q0 113 79 189t198 76h275v-88l-103 -172q53 -22 87 -81q35 -58 35 -123q0 -105 -89 -179q-88 -72 -221 -72v130q75 0 125 35t50 88t-52 89t-130 36l129 213h-107q-61 0 -105 -41q-42 -41 -42 -102z" />
    <glyph glyph-name="Ygrave" unicode="&#x1ef2;" horiz-adv-x="687" 
d="M275 0v286l-266 414h155l177 -288l183 288h154l-269 -410v-290h-134zM431 835l-42 -76l-218 93l56 110z" />
    <glyph glyph-name="ygrave" unicode="&#x1ef3;" horiz-adv-x="545" 
d="M209 10l-200 510h129l133 -351l136 351h129l-235 -588q-33 -82 -87 -119.5t-140 -37.5h-20v119h20q89 0 121 80zM318 589l-219 93l56 110l204 -127z" />
    <glyph glyph-name="figuredash" unicode="&#x2012;" 
d="M59 293v114h482v-114h-482z" />
    <glyph glyph-name="endash" unicode="&#x2013;" 
d="M59 203v114h482v-114h-482z" />
    <glyph glyph-name="emdash" unicode="&#x2014;" horiz-adv-x="1000" 
d="M59 203v114h882v-114h-882z" />
    <glyph glyph-name="quoteleft" unicode="&#x2018;" horiz-adv-x="232" 
d="M34 597q0 99 117 177l40 -41q-57 -59 -57 -86q27 -5 45.5 -27.5t18.5 -51.5q0 -32 -22 -54t-56 -22q-37 0 -61.5 29.5t-24.5 75.5z" />
    <glyph glyph-name="quoteright" unicode="&#x2019;" horiz-adv-x="232" 
d="M198 659q0 -99 -117 -177l-39 41q57 59 57 87q-28 5 -46.5 27t-18.5 52q0 32 22.5 54t55.5 22q38 0 62 -30t24 -76z" />
    <glyph glyph-name="quotesinglbase" unicode="&#x201a;" horiz-adv-x="232" 
d="M198 36q0 -99 -117 -177l-39 41q57 59 57 86q-28 5 -46.5 27.5t-18.5 51.5q0 32 22.5 54t55.5 22q38 0 62 -29.5t24 -75.5z" />
    <glyph glyph-name="quotereversed" unicode="&#x201b;" horiz-adv-x="232" 
d="M34 663q0 44 24.5 73t61.5 29q33 0 55.5 -22t22.5 -54q0 -30 -18.5 -52t-45.5 -27q0 -22 42 -64l15 -13l-40 -41q-40 27 -61 48q-56 58 -56 123z" />
    <glyph glyph-name="quotedblleft" unicode="&#x201c;" horiz-adv-x="424" 
d="M226 597q0 99 117 177l39 -41q-57 -59 -57 -86q28 -5 46.5 -27.5t18.5 -51.5q0 -32 -22.5 -54t-55.5 -22q-38 0 -62 29.5t-24 75.5zM34 597q0 99 117 177l40 -41q-57 -59 -57 -86q27 -5 45.5 -27.5t18.5 -51.5q0 -32 -22 -54t-56 -22q-37 0 -61.5 29.5t-24.5 75.5z" />
    <glyph glyph-name="quotedblright" unicode="&#x201d;" horiz-adv-x="424" 
d="M198 659q0 -99 -117 -177l-39 41q57 59 57 87q-28 5 -46.5 27t-18.5 52q0 32 22.5 54t55.5 22q38 0 62 -30t24 -76zM390 659q0 -99 -117 -177l-40 41q57 59 57 87q-27 5 -45.5 27t-18.5 52q0 32 22.5 54t55.5 22q37 0 61.5 -30t24.5 -76z" />
    <glyph glyph-name="quotedblbase" unicode="&#x201e;" horiz-adv-x="424" 
d="M198 36q0 -99 -117 -177l-39 41q57 59 57 86q-28 5 -46.5 27.5t-18.5 51.5q0 32 22.5 54t55.5 22q38 0 62 -29.5t24 -75.5zM390 36q0 -99 -117 -177l-40 41q57 58 57 86q-27 5 -45.5 27.5t-18.5 51.5q0 32 22 54t56 22q37 0 61.5 -29.5t24.5 -75.5z" />
    <glyph glyph-name="uni201F" unicode="&#x201f;" horiz-adv-x="424" 
d="M226 663q0 45 24 73.5t62 28.5q33 0 55.5 -22t22.5 -54q0 -30 -18.5 -52t-46.5 -27q0 -21 43 -64l14 -13l-39 -41q-40 27 -61 48q-56 58 -56 123zM34 663q0 44 24.5 73t61.5 29q33 0 55.5 -22t22.5 -54q0 -30 -18.5 -52t-45.5 -27q0 -22 42 -64l15 -13l-40 -41
q-40 27 -61 48q-56 58 -56 123z" />
    <glyph glyph-name="dagger" unicode="&#x2020;" horiz-adv-x="460" 
d="M19 400v97h160v203h102v-203h160v-97h-160v-500h-102v500h-160z" />
    <glyph glyph-name="daggerdbl" unicode="&#x2021;" horiz-adv-x="460" 
d="M179 103h-160v97h160v200h-160v97h160v203h102v-203h160v-97h-160v-200h160v-97h-160v-203h-102v203z" />
    <glyph glyph-name="bullet" unicode="&#x2022;" horiz-adv-x="378" 
d="M78 149q-44 44 -44 111t44 111t111 44t111 -44q45 -43 45 -111t-45 -111q-44 -44 -111 -44t-111 44z" />
    <glyph glyph-name="ellipsis" unicode="&#x2026;" horiz-adv-x="673" 
d="M34 64q0 33 22 55.5t56 22.5t56 -22.5t22 -55.5q0 -34 -22 -56.5t-56 -22.5t-56 22.5t-22 56.5zM258 64q0 33 22.5 55.5t55.5 22.5q34 0 56.5 -22.5t22.5 -55.5q0 -34 -22.5 -56.5t-56.5 -22.5q-33 0 -55.5 22.5t-22.5 56.5zM482 64q0 33 22.5 55.5t55.5 22.5
q34 0 56.5 -22.5t22.5 -55.5q0 -34 -22.5 -56.5t-56.5 -22.5q-33 0 -55.5 22.5t-22.5 56.5z" />
    <glyph glyph-name="perthousand" unicode="&#x2030;" horiz-adv-x="1220" 
d="M176 0l-64 53l541 647l65 -54zM29 538q0 75 51 126t126 51q76 0 126 -51q51 -51 51 -126q0 -76 -51 -127q-50 -50 -126 -50q-74 0 -126 50q-51 51 -51 127zM158 586q-20 -20 -20 -48t20 -48t48 -20t48 20t20 48t-20 48t-48 20t-48 -20zM622 340q76 0 126 -51
q51 -51 51 -127t-51 -127q-50 -50 -126 -50q-74 0 -126 50q-51 51 -51 127t51 127t126 51zM554 162q0 -28 20 -48t48 -20t48 20t20 48q0 29 -19.5 49t-48.5 20t-48.5 -20t-19.5 -49zM1014 340q76 0 126 -51q51 -51 51 -127t-51 -127q-50 -50 -126 -50q-74 0 -126 50
q-50 52 -50 127t50 127q51 51 126 51zM946 162q0 -28 20 -48t48 -20q29 -2 49.5 19.5t20 48.5t-20.5 49q-22 20 -49 20.5t-48.5 -20t-19.5 -49.5z" />
    <glyph glyph-name="guilsinglleft" unicode="&#x2039;" horiz-adv-x="335" 
d="M224 65l-195 195l195 195l72 -72l-122 -123l122 -123z" />
    <glyph glyph-name="guilsinglright" unicode="&#x203a;" horiz-adv-x="335" 
d="M111 455l195 -195l-195 -195l-72 72l122 123l-122 123z" />
    <glyph glyph-name="fraction" unicode="&#x2044;" horiz-adv-x="595" 
d="M102 0h-102l493 700h102z" />
    <glyph glyph-name="Euro" unicode="&#x20ac;" horiz-adv-x="824" 
d="M100 389h-81v91h101q37 104 130 170q94 65 213 65q108 0 195.5 -53t132.5 -144l-131 -49q-29 54 -81.5 85.5t-115.5 31.5q-125 0 -190 -106h211v-91h-243q-3 -19 -3 -39t3 -38h243v-92h-211q31 -49 81 -77t109 -28q63 0 115.5 31t81.5 85l131 -49q-45 -91 -132.5 -144
t-195.5 -53q-121 0 -213 64q-93 65 -130 171h-101v92h81q-2 32 -2 38q0 5 2 39z" />
    <glyph glyph-name="uni20B4" unicode="&#x20b4;" horiz-adv-x="639" 
d="M247 378h-213v91h374q32 26 32 50q0 27 -31 47.5t-75 20.5q-41 0 -73 -20t-40 -48l-134 39q21 68 89 112q68 45 160 45q102 0 170 -54q68 -53 68 -128q0 -34 -15 -64h45v-91h-145q-37 -24 -97 -55h242v-91h-387q-22 -22 -22 -44q0 -31 36.5 -52.5t88.5 -21.5
q53 0 92.5 23.5t47.5 57.5l134 -40q-22 -71 -97 -122q-73 -48 -177 -48q-113 0 -187 56q-73 55 -73 137q0 27 10 54h-36v91h123q32 25 90 55z" />
    <glyph glyph-name="uni2113" unicode="&#x2113;" horiz-adv-x="499" 
d="M113 190l-74 -33v128q34 15 74 36v239q0 87 47 146q48 59 120 59q70 0 118 -57q48 -56 48 -139q0 -166 -211 -308v-110q0 -44 45 -44q23 0 47 14t37 31l11 16l74 -73q-16 -20 -34 -38q-61 -69 -148 -72q-65 0 -110 49q-44 50 -44 123v33zM235 566v-162q90 80 90 160
q0 33 -13.5 56t-32.5 23t-31.5 -22t-12.5 -55z" />
    <glyph glyph-name="uni2116" unicode="&#x2116;" horiz-adv-x="1145" 
d="M187 469v-469h-129v700h119l369 -470v470h129v-700h-119zM911 361q-75 0 -127 50q-50 52 -50 126q0 75 50 127q51 51 127 51q75 0 125 -51q51 -51 51 -127q0 -75 -51 -126q-50 -50 -125 -50zM1076 195h-332v108h332v-108zM842 537q0 -28 20 -47.5t49 -19.5t48.5 19.5
t19.5 47.5q0 29 -19.5 49t-48.5 20t-49 -20t-20 -49z" />
    <glyph glyph-name="uni2117" unicode="&#x2117;" horiz-adv-x="795" 
d="M398 -8q-149 0 -254 105t-105 253t105 253q107 105 254 105q148 0 253 -105t105 -253t-105 -253t-253 -105zM398 658q-128 0 -218 -90t-90 -218q0 -127 90 -217q92 -90 218 -90q127 0 217 90t90 217t-90 217q-90 91 -217 91zM354 159h-80v382h172q60 0 98 -37
q40 -36 40 -91t-40 -92q-38 -37 -98 -37h-92v-125zM446 467h-92v-108h92q23 0 38.5 15.5t15.5 38.5t-15.5 38.5t-38.5 15.5z" />
    <glyph glyph-name="trademark" unicode="&#x2122;" horiz-adv-x="760" 
d="M417 350h-69v350h69l124 -217l124 217h69v-350h-69v223l-101 -184h-47l-100 182v-221zM122 350v284h-113v66h298v-66h-114v-284h-71z" />
    <glyph glyph-name="estimated" unicode="&#x212e;" horiz-adv-x="792" 
d="M753 350h-554v-248q87 -69 197 -69q89 0 164 45.5t117 124.5h44q-43 -96 -132 -153t-193 -57q-146 0 -252 104q-105 105 -105 253t104 252q105 105 253 105t252 -105q105 -104 105 -252zM199 598v-208h394v208q-87 69 -197 69t-197 -69z" />
    <glyph glyph-name="uni2150" unicode="&#x2150;" horiz-adv-x="834" 
d="M114 315v295l-67 -33l-29 66l118 57h56v-385h-78zM679 700l-492 -700h-107l492 700h107zM593 0l142 314h-190v71h273v-75l-138 -310h-87z" />
    <glyph glyph-name="uni2151" unicode="&#x2151;" horiz-adv-x="826" 
d="M661 315q-27 0 -45 -15.5t-18 -38.5t18 -39t46 -16t46 16t18 39t-18.5 38.5t-46.5 15.5zM517 69l68 32q22 -31 67 -31q34 0 55.5 17t21.5 43v40q-23 -38 -75 -38q-57 0 -97 37t-40 93q0 55 41 91q40 37 103 37t104 -37q42 -36 42 -90v-132q0 -58 -44 -97
q-43 -39 -109 -39q-45 0 -82 20.5t-55 53.5zM114 315v295l-67 -33l-29 66l118 57h56v-385h-78zM679 700l-492 -700h-107l492 700h107z" />
    <glyph glyph-name="uni2152" unicode="&#x2152;" horiz-adv-x="1101" 
d="M930 315q-31 0 -51.5 -18t-20.5 -45v-119q0 -27 20.5 -45t51.5 -18q30 0 51 18t21 45v119q0 27 -21 45t-51 18zM631 0v295l-68 -33l-28 66l118 57h56v-385h-78zM780 134v117q0 59 43 99t107 40t107 -40t43 -99v-117q0 -59 -43 -99t-107 -40t-107 40t-43 99zM114 315v295
l-67 -33l-29 66l118 57h56v-385h-78zM679 700l-492 -700h-107l492 700h107z" />
    <glyph glyph-name="onethird" unicode="&#x2153;" horiz-adv-x="828" 
d="M114 315v295l-67 -33l-29 66l118 57h56v-385h-78zM679 700l-492 -700h-107l492 700h107zM717 271q0 19 -17 31.5t-44 12.5q-49 0 -64 -35l-69 24q18 39 55 62.5t84 23.5q58 0 97 -33.5t39 -84.5q0 -46 -47 -72q57 -26 57 -83q0 -53 -42 -87q-41 -35 -103 -35
q-51 0 -90 24.5t-54 66.5l73 26q5 -19 23.5 -30.5t44.5 -11.5q29 0 48 14t19 35t-19 34.5t-47 13.5h-29v59h20q28 0 46.5 12.5t18.5 32.5z" />
    <glyph glyph-name="twothirds" unicode="&#x2154;" horiz-adv-x="906" 
d="M212 583q0 20 -16.5 33.5t-39.5 13.5q-49 0 -70 -54l-73 35q21 43 58.5 68.5t84.5 25.5q56 0 97 -35q40 -34 40 -84q0 -61 -83 -133l-67 -63h154v-75h-274v57l139 131q50 47 50 80zM265 0h-107l492 700h107zM794 271q0 19 -16.5 31.5t-43.5 12.5q-49 0 -64 -35l-69 24
q16 39 53.5 62.5t85.5 23.5q58 0 97 -33.5t39 -84.5q0 -46 -47 -72q57 -26 57 -83q0 -53 -42 -87q-43 -35 -104 -35q-51 0 -89.5 25.5t-53.5 65.5l72 26q5 -19 23.5 -30.5t44.5 -11.5q29 0 48.5 14.5t19.5 34.5q0 21 -19 34.5t-47 13.5h-29v59h19q28 0 46.5 12.5t18.5 32.5z
" />
    <glyph glyph-name="uni2155" unicode="&#x2155;" horiz-adv-x="833" 
d="M114 315v295l-67 -33l-29 66l118 57h56v-385h-78zM679 700l-492 -700h-107l492 700h107zM813 127q0 -57 -42 -94.5t-105 -37.5q-53 0 -93 28t-55 74l79 21q19 -48 69 -48q28 0 47 16.5t19 40.5q0 25 -22 41.5t-54 16.5h-108l20 200h212v-71h-148l-6 -58h50q59 0 97 -37
q40 -37 40 -92z" />
    <glyph glyph-name="uni2156" unicode="&#x2156;" horiz-adv-x="910" 
d="M212 583q0 20 -16.5 33.5t-39.5 13.5q-49 0 -70 -54l-73 35q21 43 58.5 68.5t84.5 25.5q56 0 97 -35q40 -34 40 -84q0 -61 -83 -133l-67 -63h154v-75h-274v57l139 131q50 47 50 80zM265 0h-107l492 700h107zM891 127q0 -57 -42 -94.5t-105 -37.5q-53 0 -93 28t-55 74
l78 21q21 -48 69 -48q28 0 47.5 16.5t19.5 40.5q0 25 -22 41.5t-54 16.5h-109l20 200h213v-71h-149l-6 -58h51q59 0 97 -37q40 -37 40 -92z" />
    <glyph glyph-name="uni2157" unicode="&#x2157;" horiz-adv-x="929" 
d="M214 586q0 19 -17 31.5t-43 12.5q-48 0 -65 -35l-69 24q18 39 55 62.5t84 23.5q58 0 97.5 -33.5t39.5 -84.5q0 -47 -48 -72q57 -25 57 -83q0 -52 -42 -87q-41 -35 -103 -35q-51 0 -90 24.5t-54 66.5l73 26q5 -19 23.5 -30.5t44.5 -11.5q29 0 48 14t19 35t-18.5 34.5
t-46.5 13.5h-30v59h20q28 0 46.5 12.5t18.5 32.5zM283 0h-107l492 700h107zM909 127q0 -57 -42 -94.5t-105 -37.5q-53 0 -93 28t-55 74l78 21q21 -48 69 -48q28 0 47.5 16.5t19.5 40.5q0 25 -22 41.5t-54 16.5h-109l20 200h213v-71h-148l-7 -58h51q59 0 97 -37
q40 -37 40 -92z" />
    <glyph glyph-name="uni2158" unicode="&#x2158;" horiz-adv-x="943" 
d="M298 0h-107l492 700h107zM18 387v75l199 238h74v-239h47v-74h-47v-72h-78v72h-195zM629 97l78 21q21 -48 69 -48q28 0 47.5 16.5t19.5 40.5q0 25 -22 41.5t-54 16.5h-109l20 200h212v-71h-148l-6 -58h51q59 0 97 -37q40 -37 40 -92q0 -57 -42 -94.5t-105 -37.5
q-53 0 -93 28t-55 74zM213 584l-103 -123h103v123z" />
    <glyph glyph-name="uni2159" unicode="&#x2159;" horiz-adv-x="827" 
d="M711 158q-18 15 -46 15t-46 -15q-18 -14 -18 -36t18 -37t46 -15t46 15q19 15 19 37t-19 36zM804 313l-70 -33q-20 35 -65 35q-31 0 -51.5 -17t-20.5 -43v-40q25 34 76 34q57 0 97 -37q41 -38 41 -91q0 -54 -41.5 -90t-104.5 -36q-62 0 -104 36q-42 37 -42 90v133
q0 58 43 97q44 39 107 39q45 0 81.5 -21t53.5 -56zM114 315v295l-67 -33l-29 66l118 57h56v-385h-78zM679 700l-492 -700h-107l492 700h107z" />
    <glyph glyph-name="uni215A" unicode="&#x215a;" horiz-adv-x="901" 
d="M804 122q0 22 -18 36.5t-46 14.5t-46.5 -14.5t-18.5 -36.5t18.5 -37t46.5 -15t46 14.5t18 37.5zM878 313l-70 -33q-20 35 -64 35q-31 0 -52 -17t-21 -43v-40q28 34 77 34q57 0 97 -37q41 -38 41 -91t-42 -90q-42 -36 -104 -36q-63 0 -105 36q-42 37 -42 90v133
q0 58 43 97q44 39 107 39q45 0 81.5 -21t53.5 -56zM311 442q0 -58 -43 -95q-41 -37 -105 -37q-53 0 -93 28t-55 74l79 21q20 -48 69 -48q28 0 47 16.5t19 40.5q0 25 -22 41.5t-54 16.5h-108l20 200h212v-71h-148l-6 -58h50q60 0 98 -37q40 -37 40 -92zM753 700l-492 -700
h-107l492 700h107z" />
    <glyph glyph-name="oneeighth" unicode="&#x215b;" horiz-adv-x="829" 
d="M597 118q0 -21 18.5 -34.5t47.5 -13.5q28 0 46.5 13.5t18.5 33.5t-18.5 33t-46.5 13q-29 0 -47.5 -13t-18.5 -32zM623 303q-16 -11 -16 -28t16 -29q16 -11 40 -11t40 11q16 12 16 29t-16 28q-16 12 -40 12t-40 -12zM526 282q0 46 39 77q38 31 98 31q59 0 97 -31
q40 -31 40 -78q0 -48 -44 -81q53 -35 53 -91q0 -49 -42 -82q-43 -32 -104 -32q-63 0 -105 33t-42 83q0 55 53 90q-43 30 -43 81zM114 315v295l-67 -33l-29 66l118 57h56v-385h-78zM679 700l-492 -700h-107l492 700h107z" />
    <glyph glyph-name="threeeighths" unicode="&#x215c;" horiz-adv-x="925" 
d="M612 111q0 55 53 90q-44 33 -44 81q0 46 39.5 77t97.5 31q59 0 98.5 -31t39.5 -78q0 -48 -44 -81q53 -35 53 -91q0 -49 -42 -81.5t-105 -32.5t-104.5 33t-41.5 83zM775 700l-492 -700h-107l492 700h107zM160 310q-51 0 -90 24.5t-54 66.5l73 26q5 -19 23.5 -30.5
t44.5 -11.5q29 0 48 14t19 35t-18.5 34.5t-46.5 13.5h-30v59h20q28 0 46.5 12.5t18.5 32.5q0 19 -17 31.5t-43 12.5q-48 0 -65 -35l-69 24q18 39 55 62.5t84 23.5q58 0 97.5 -33.5t39.5 -84.5q0 -47 -48 -72q57 -25 57 -83q0 -52 -42 -87q-41 -35 -103 -35zM693 118
q0 -21 18.5 -34.5t46.5 -13.5t47 13.5t19 33.5t-19 33t-47 13t-46.5 -13t-18.5 -32zM758 235q35 -2 49.5 19t0 42t-49.5 19q-24 0 -39.5 -11.5t-15.5 -28.5t15.5 -28.5t39.5 -11.5z" />
    <glyph glyph-name="fiveeighths" unicode="&#x215d;" horiz-adv-x="903" 
d="M672 118q0 -21 18.5 -34.5t46.5 -13.5t46.5 13.5t18.5 33.5t-18.5 33t-46.5 13t-46.5 -13t-18.5 -32zM697 303q-16 -11 -16 -28t16 -29q16 -11 40 -11t40 11q16 12 16 29t-16 28q-16 12 -40 12t-40 -12zM600 282q0 46 39.5 77t97.5 31q59 0 97 -31q40 -31 40 -78
q0 -49 -44 -81q54 -35 54 -91q0 -49 -42 -81.5t-105 -32.5t-105 33t-42 83q0 55 53 90q-43 30 -43 81zM311 442q0 -58 -43 -95q-41 -37 -105 -37q-53 0 -93 28t-55 74l79 21q20 -48 69 -48q28 0 47 16.5t19 40.5q0 25 -22 41.5t-54 16.5h-108l20 200h212v-71h-148l-6 -58h50
q60 0 98 -37q40 -37 40 -92zM753 700l-492 -700h-107l492 700h107z" />
    <glyph glyph-name="seveneighths" unicode="&#x215e;" horiz-adv-x="862" 
d="M630 118q0 -21 18.5 -34.5t47.5 -13.5q28 0 46.5 13.5t18.5 33.5t-18.5 33t-46.5 13q-29 0 -47.5 -13t-18.5 -32zM656 303q-16 -11 -16 -28t16 -29q16 -11 40 -11t40 11q16 12 16 29t-16 28q-16 12 -40 12t-40 -12zM559 282q0 46 39 77q38 31 98 31q59 0 97 -31
q40 -31 40 -78q0 -48 -44 -81q53 -35 53 -91q0 -49 -42 -82q-43 -32 -104 -32q-63 0 -105 33t-42 83q0 55 53 90q-43 30 -43 81zM58 315l142 314h-190v71h273v-75l-138 -310h-87zM712 700l-492 -700h-107l492 700h107z" />
    <glyph glyph-name="uni215F" unicode="&#x215f;" horiz-adv-x="679" 
d="M114 315v295l-67 -33l-29 66l118 57h56v-385h-78zM679 700l-492 -700h-107l492 700h107z" />
    <glyph glyph-name="arrowleft" unicode="&#x2190;" horiz-adv-x="703" 
d="M327 82l-268 268l268 268l75 -75l-131 -136h373v-114h-373l131 -136z" />
    <glyph glyph-name="arrowup" unicode="&#x2191;" horiz-adv-x="703" 
d="M84 375l268 267l267 -267l-75 -75l-136 130v-372h-113v372l-136 -130z" />
    <glyph glyph-name="arrowright" unicode="&#x2192;" horiz-adv-x="703" 
d="M376 618l268 -268l-268 -268l-75 75l131 136h-373v114h373l-131 136z" />
    <glyph glyph-name="arrowdown" unicode="&#x2193;" horiz-adv-x="703" 
d="M619 325l-267 -267l-268 267l75 75l136 -130v372h113v-372l136 130z" />
    <glyph glyph-name="uni2196" unicode="&#x2196;" horiz-adv-x="703" 
d="M145 178v379h378v-106l-188 -4l263 -263l-80 -81l-263 264l-4 -189h-106z" />
    <glyph glyph-name="uni2197" unicode="&#x2197;" horiz-adv-x="703" 
d="M220 557h378v-379h-106l-3 189l-264 -264l-80 81l263 263l-188 4v106z" />
    <glyph glyph-name="uni2198" unicode="&#x2198;" horiz-adv-x="703" 
d="M598 482v-379h-378v106l188 4l-263 263l80 81l264 -264l3 189h106z" />
    <glyph glyph-name="uni2199" unicode="&#x2199;" horiz-adv-x="703" 
d="M523 103h-378v379h106l4 -189l263 264l80 -81l-263 -263l188 -4v-106z" />
    <glyph glyph-name="emptyset" unicode="&#x2205;" horiz-adv-x="807" 
d="M404 715q90 0 169 -42l29 42h114l-67 -96q119 -108 119 -269q0 -151 -107 -258t-257 -107q-90 0 -170 42l-28 -42h-114l66 95q-119 110 -119 270q0 151 107 258t258 107zM218 165l295 423q-49 24 -109 24q-109 0 -186 -77t-77 -185q0 -105 77 -185zM404 88q109 0 185 76
q77 77 77 186q0 108 -76 185l-296 -423q50 -24 110 -24z" />
    <glyph glyph-name="product" unicode="&#x220f;" horiz-adv-x="649" 
d="M187 581v-756h-129v875h533v-875h-129v756h-275z" />
    <glyph glyph-name="summation" unicode="&#x2211;" horiz-adv-x="507" 
d="M477 -56v-119h-447v99l207 338l-207 339v99h447v-119h-295l194 -319l-194 -318h295z" />
    <glyph glyph-name="minus" unicode="&#x2212;" 
d="M59 293v114h482v-114h-482z" />
    <glyph glyph-name="integral" unicode="&#x222b;" horiz-adv-x="334" 
d="M10 -175v119h31q27 0 45.5 18t18.5 45v578q0 71 51 117q51 48 127 48h41v-119h-31q-27 0 -45.5 -18t-18.5 -45v-578q0 -70 -51 -117q-51 -48 -127 -48h-41z" />
    <glyph glyph-name="approxequal" unicode="&#x2248;" 
d="M379 365q-42 0 -94 29q-51 30 -68 30q-19 0 -32.5 -15t-13.5 -37h-112q0 69 48 117t114 48q44 0 95 -30t67 -30q19 0 32 15t13 38h113q-1 -70 -49 -118q-49 -47 -113 -47zM379 164q-42 0 -94 29q-51 30 -68 30q-19 0 -32.5 -15t-13.5 -37h-112q0 69 48 117t114 48
q44 0 95 -30t67 -30q19 0 32 15t13 38h113q-1 -71 -49 -118q-49 -47 -113 -47z" />
    <glyph glyph-name="notequal" unicode="&#x2260;" 
d="M386 409l-54 -118h209v-114h-263l-55 -119h-112l55 119h-107v114h160l55 118h-215v114h268l55 119h113l-55 -119h101v-114h-155z" />
    <glyph glyph-name="lessequal" unicode="&#x2264;" 
d="M541 189l-482 192v103l482 194v-122l-308 -124l308 -121v-122zM59 28v113h482v-113h-482z" />
    <glyph glyph-name="greaterequal" unicode="&#x2265;" 
d="M541 484v-103l-482 -192v122l308 121l-308 124v122zM59 141h482v-113h-482v113z" />
    <glyph glyph-name="uni23F4" unicode="&#x23f4;" horiz-adv-x="386" 
d="M296 133l-246 217l246 217v-434z" />
    <glyph glyph-name="uni23F5" unicode="&#x23f5;" horiz-adv-x="386" 
d="M90 567l246 -217l-246 -217v434z" />
    <glyph glyph-name="uni23F6" unicode="&#x23f6;" horiz-adv-x="454" 
d="M10 227l217 246l217 -246h-434z" />
    <glyph glyph-name="uni23F7" unicode="&#x23f7;" horiz-adv-x="454" 
d="M444 473l-217 -246l-217 246h434z" />
    <glyph glyph-name="filledbox" unicode="&#x25a0;" horiz-adv-x="816" 
d="M758 0h-700v700h700v-700z" />
    <glyph glyph-name="H22073" unicode="&#x25a1;" horiz-adv-x="816" 
d="M758 0h-700v700h700v-700zM656 102v496h-496v-496h496z" />
    <glyph glyph-name="uni25A2" unicode="&#x25a2;" horiz-adv-x="816" 
d="M758 0h-700v700h700v-700zM656 102v496h-496v-496h496z" />
    <glyph glyph-name="triagup" unicode="&#x25b2;" horiz-adv-x="892" 
d="M30 0l416 720l416 -720h-832z" />
    <glyph glyph-name="uni25B3" unicode="&#x25b3;" horiz-adv-x="892" 
d="M446 720l416 -720h-832zM208 102h477l-238 414z" />
    <glyph glyph-name="triagdn" unicode="&#x25bc;" horiz-adv-x="892" 
d="M862 700l-416 -719l-416 719h832z" />
    <glyph glyph-name="uni25BD" unicode="&#x25bd;" horiz-adv-x="892" 
d="M30 700h832l-416 -720zM447 185l238 413h-477z" />
    <glyph glyph-name="uni25C6" unicode="&#x25c6;" horiz-adv-x="800" 
d="M400 -20l-370 370l370 370l370 -370z" />
    <glyph glyph-name="uni25C7" unicode="&#x25c7;" horiz-adv-x="800" 
d="M400 -20l-370 370l370 370l370 -370zM400 124l226 226l-226 226l-226 -226z" />
    <glyph glyph-name="lozenge" unicode="&#x25ca;" horiz-adv-x="533" 
d="M30 350l202 350h69l202 -350l-202 -350h-69zM267 145l118 205l-118 205l-118 -205z" />
    <glyph glyph-name="circle" unicode="&#x25cb;" horiz-adv-x="807" 
d="M404 715q150 0 257 -107t107 -258t-107 -258t-257 -107q-151 0 -258 107t-107 258t107 258t258 107zM404 88q109 0 185 76q77 77 77 186q0 108 -77 185t-185 77q-109 0 -186 -77t-77 -185q0 -109 77 -186q76 -76 186 -76z" />
    <glyph glyph-name="H18533" unicode="&#x25cf;" horiz-adv-x="807" 
d="M404 715q150 0 257 -107t107 -258t-107 -258t-257 -107q-151 0 -258 107t-107 258t107 258t258 107z" />
    <glyph glyph-name="uni25D0" unicode="&#x25d0;" horiz-adv-x="807" 
d="M404 715q150 0 257 -107t107 -258t-107 -258t-257 -107q-151 0 -258 107t-107 258t107 258t258 107zM404 612v-524q109 0 185 76q77 77 77 186q0 108 -77 185t-185 77z" />
    <glyph glyph-name="uni25D1" unicode="&#x25d1;" horiz-adv-x="807" 
d="M661 608q107 -107 107 -258t-107 -258t-257 -107q-151 0 -258 107t-107 258t107 258t258 107q150 0 257 -107zM404 88v524q-109 0 -186 -77t-77 -185q0 -109 77 -186q76 -76 186 -76z" />
    <glyph glyph-name="uni25D2" unicode="&#x25d2;" horiz-adv-x="807" 
d="M661 92q-107 -107 -257 -107q-151 0 -258 107t-107 258t107 258t258 107q150 0 257 -107t107 -258t-107 -258zM141 350h525q0 108 -77 185t-185 77q-109 0 -186 -77t-77 -185z" />
    <glyph glyph-name="uni25D3" unicode="&#x25d3;" horiz-adv-x="807" 
d="M146 608q107 107 258 107q150 0 257 -107t107 -258t-107 -258t-257 -107q-151 0 -258 107t-107 258t107 258zM666 350h-525q0 -109 77 -186q76 -76 186 -76q109 0 185 76q77 77 77 186z" />
    <glyph glyph-name="uni25D4" unicode="&#x25d4;" horiz-adv-x="807" 
d="M404 715q150 0 257 -107t107 -258t-107 -258t-257 -107q-151 0 -258 107t-107 258t107 258t258 107zM404 88q109 0 185 76q77 77 77 186h-262v262q-109 0 -186 -77t-77 -185q0 -109 77 -186q76 -76 186 -76z" />
    <glyph glyph-name="uni25D5" unicode="&#x25d5;" horiz-adv-x="807" 
d="M404 715q150 0 257 -107t107 -258t-107 -258t-257 -107q-151 0 -258 107t-107 258t107 258t258 107zM141 350h263v262q-109 0 -186 -77t-77 -185z" />
    <glyph glyph-name="uni25D6" unicode="&#x25d6;" horiz-adv-x="462" 
d="M404 715v-730q-151 0 -258 107t-107 258t107 258t258 107z" />
    <glyph glyph-name="uni25D7" unicode="&#x25d7;" horiz-adv-x="462" 
d="M58 -15v730q151 0 258 -107t107 -258t-107 -258t-258 -107z" />
    <glyph glyph-name="uni25EF" unicode="&#x25ef;" horiz-adv-x="807" 
d="M404 715q150 0 257 -107t107 -258t-107 -258t-257 -107q-151 0 -258 107t-107 258t107 258t258 107zM404 88q109 0 185 76q77 77 77 186q0 108 -77 185t-185 77q-109 0 -186 -77t-77 -185q0 -109 77 -186q76 -76 186 -76z" />
    <glyph glyph-name="uni2639" unicode="&#x2639;" horiz-adv-x="790" 
d="M207 458q0 26 18 44t44 18q27 0 45 -18t18 -44q0 -27 -18 -45t-45 -18q-26 0 -44 18t-18 45zM460 458q0 26 18 44t44 18q27 0 45 -18t18 -44q0 -27 -18 -45t-45 -18q-26 0 -44 18t-18 45zM232 143h-40q0 79 58 131q59 53 145 53q85 0 144 -53t59 -131h-40q0 61 -47 102
t-116 41t-116 -41t-47 -102zM144 99q-104 104 -104 251t104 251t251 104t251 -104t104 -251t-104 -251t-251 -104t-251 104zM171 574q-93 -93 -93 -224t93 -224t224 -93t224 93t93 224t-93 224t-224 93t-224 -93z" />
    <glyph glyph-name="smileface" unicode="&#x263a;" horiz-adv-x="790" 
d="M207 458q0 26 18 44t44 18q27 0 45 -18t18 -44q0 -27 -18 -45t-45 -18q-26 0 -44 18t-18 45zM460 458q0 26 18 44t44 18q27 0 45 -18t18 -44q0 -27 -18 -45t-45 -18q-26 0 -44 18t-18 45zM192 297h40q0 -61 47 -102t116 -41t116 41t47 102h40q0 -79 -59 -132
q-58 -52 -144 -52q-87 0 -145 52t-58 132zM144 99q-104 104 -104 251t104 251t251 104t251 -104t104 -251t-104 -251t-251 -104t-251 104zM171 574q-93 -93 -93 -224t93 -224t224 -93t224 93t93 224t-93 224t-224 93t-224 -93z" />
    <glyph glyph-name="invsmileface" unicode="&#x263b;" horiz-adv-x="790" 
d="M207 458q0 -27 18 -45t44 -18q27 0 45 18t18 45q0 26 -18 44t-45 18q-26 0 -44 -18t-18 -44zM460 458q0 -27 18 -45t44 -18q27 0 45 18t18 45q0 26 -18 44t-45 18q-26 0 -44 -18t-18 -44zM232 297h-40q0 -80 58 -132t145 -52q86 0 144 52q59 53 59 132h-40
q0 -61 -47 -102t-116 -41t-116 41t-47 102zM144 99q-104 104 -104 251t104 251t251 104t251 -104t104 -251t-104 -251t-251 -104t-251 104z" />
    <glyph glyph-name="commaaccent" horiz-adv-x="231" 
d="M183 -132q0 -77 -95 -131l-1 -1l-32 33q46 36 46 54q-22 5 -37 23t-15 41q0 26 18 44t46 18q30 0 50 -23t20 -58z" />
    <glyph glyph-name="zero.fitted" 
d="M29 237v226q0 108 77 180q78 72 194 72t193 -72q78 -72 78 -180v-226q0 -108 -78 -180q-77 -72 -193 -72t-194 72q-77 72 -77 180zM159 465v-230q0 -53 40 -90q41 -36 101 -36t101 36q41 38 41 90v230q0 53 -41 89q-40 37 -101 37t-101 -37q-40 -36 -40 -89z" />
    <glyph glyph-name="one.fitted" 
d="M281 543l-140 -68l-54 114l231 111h92v-576h149v-124h-428v124h150v419z" />
    <glyph glyph-name="two.fitted" 
d="M406 496q0 39 -34 67q-32 28 -79 28q-45 0 -80.5 -27.5t-53.5 -74.5l-120 57q34 78 102 123.5t152 45.5q105 0 175 -63q72 -63 72 -152q0 -54 -36 -112.5t-114 -133.5l-137 -130h293v-124h-493v97l257 245q96 93 96 154z" />
    <glyph glyph-name="three.fitted" 
d="M402 505q0 36 -34 61t-87 25q-92 0 -124 -63l-117 56q31 60 96 95.5t146 35.5q109 0 182 -59q72 -58 72 -147q0 -87 -75 -146q93 -62 93 -163q0 -93 -76 -154t-189 -61q-93 0 -163 43q-70 44 -95 114l125 44q11 -34 47 -55.5t85 -21.5q56 0 94 27.5t38 69.5
q0 40 -37.5 66.5t-91.5 26.5h-53v117h36q54 0 91 25t37 64z" />
    <glyph glyph-name="four.fitted" 
d="M375 0v134h-343v124l349 442h123v-442h89v-124h-89v-134h-129zM375 502l-191 -244h191v244z" />
    <glyph glyph-name="five.fitted" 
d="M563 223q0 -101 -77 -170q-77 -68 -190 -68q-92 0 -162.5 48.5t-100.5 130.5l129 35q18 -42 53.5 -66t80.5 -24q56 0 94 33q39 33 39 81q0 52 -43 86q-41 34 -105 34h-195l36 357h381v-119h-273l-12 -120h71q116 0 195 -68q79 -67 79 -170z" />
    <glyph glyph-name="six.fitted" 
d="M555 580l-120 -58q-18 31 -51.5 50t-72.5 19q-59 0 -100 -36q-40 -36 -40 -89v-48q61 33 136 33q110 0 186 -68q76 -67 76 -167q0 -98 -76 -165q-75 -66 -187 -66q-113 0 -189 67q-75 67 -75 166v246q0 107 77 179q78 72 194 72q80 0 144 -36t98 -99zM176 219
q0 -48 37 -79t93 -31q55 0 91.5 31t36.5 76q0 47 -36.5 79t-91.5 32t-93 -32q-37 -31 -37 -76z" />
    <glyph glyph-name="seven.fitted" 
d="M151 0l253 581h-350v119h488v-125l-251 -575h-140z" />
    <glyph glyph-name="eight.fitted" 
d="M37 196q0 52 27 96t75 72q-87 58 -87 153q0 84 71 141t178 57t177 -58q71 -57 71 -141q0 -94 -87 -152q102 -62 102 -169q0 -90 -75 -150t-188 -60t-189 60q-75 61 -75 151zM172 207q0 -42 36.5 -70t92.5 -28q55 0 92 28t37 69t-37 69t-92 28q-56 0 -92.5 -27.5
t-36.5 -68.5zM186 507q0 -36 33 -60.5t82 -24.5t81.5 24.5t32.5 60.5q0 35 -32.5 59.5t-81.5 24.5t-82 -24.5t-33 -59.5z" />
    <glyph glyph-name="nine.fitted" 
d="M34 126l120 57q17 -34 52 -54t79 -20q62 0 105 35q42 36 42 88v40q-58 -33 -133 -33q-109 0 -185 68q-75 69 -75 171t75 169q76 68 186 68q112 0 186 -69q75 -68 75 -169v-244q0 -107 -79 -177q-80 -71 -197 -71q-82 0 -149.5 38.5t-101.5 102.5zM427 476q0 49 -36.5 82
t-90.5 33t-90 -32t-36 -80q0 -50 36 -83t90 -33t90.5 32.5t36.5 80.5z" />
    <glyph glyph-name="zero.sup" horiz-adv-x="342" 
d="M21 499v117q0 59 43 99t107 40t107 -40t43 -99v-117q0 -59 -43 -99t-107 -40t-107 40t-43 99zM171 680q-30 0 -50.5 -18t-20.5 -45v-119q0 -27 20.5 -45t50.5 -18q31 0 51.5 18t20.5 45v119q0 27 -20.5 45t-51.5 18z" />
    <glyph glyph-name="one.sup" horiz-adv-x="242" 
d="M114 660l-67 -33l-29 66l118 57h56v-385h-78v295z" />
    <glyph glyph-name="two.sup" horiz-adv-x="320" 
d="M212 633q0 20 -16.5 33.5t-39.5 13.5q-49 0 -70 -54l-73 35q21 43 58.5 68.5t84.5 25.5q56 0 97 -35q40 -34 40 -84q0 -61 -83 -133l-67 -63h154v-75h-274v57l139 131q50 47 50 80z" />
    <glyph glyph-name="three.sup" horiz-adv-x="325" 
d="M214 636q0 19 -17 31.5t-43 12.5q-48 0 -65 -35l-69 24q18 39 55 62.5t84 23.5q58 0 97.5 -33.5t39.5 -84.5q0 -47 -48 -72q57 -25 57 -83q0 -52 -42 -87q-41 -35 -103 -35q-51 0 -90 24.5t-54 66.5l73 26q5 -19 23.5 -30.5t44.5 -11.5q29 0 48 14t19 35t-18.5 34.5
t-46.5 13.5h-30v59h20q28 0 46.5 12.5t18.5 32.5z" />
    <glyph glyph-name="four.sup" horiz-adv-x="352" 
d="M213 365v72h-195v75l199 238h74v-239h47v-74h-47v-72h-78zM213 634l-103 -123h103v123z" />
    <glyph glyph-name="five.sup" horiz-adv-x="330" 
d="M311 492q0 -58 -43 -95q-41 -37 -105 -37q-53 0 -93 28t-55 74l79 21q20 -48 69 -48q28 0 47 16.5t19 40.5q0 25 -22 41.5t-54 16.5h-108l20 200h212v-71h-148l-6 -58h50q60 0 98 -37q40 -37 40 -92z" />
    <glyph glyph-name="six.sup" horiz-adv-x="331" 
d="M308 678l-70 -33q-21 35 -65 35q-31 0 -52 -17t-21 -43v-40q28 34 77 34q57 0 97 -37q41 -38 41 -91q0 -52 -42 -90q-42 -36 -104 -36q-61 0 -105 36q-42 38 -42 90v133q0 58 43 97t107 39q45 0 81.5 -20.5t54.5 -56.5zM233 487q0 22 -18 36.5t-46 14.5t-46.5 -14.5
t-18.5 -36.5t18.5 -37t46.5 -15t46 14.5t18 37.5z" />
    <glyph glyph-name="seven.sup" horiz-adv-x="299" 
d="M58 365l142 314h-190v71h273v-75l-138 -310h-87z" />
    <glyph glyph-name="eight.sup" horiz-adv-x="332" 
d="M20 476q0 55 53 90q-44 33 -44 81q0 46 39.5 77t97.5 31q59 0 97 -31q40 -31 40 -78q0 -50 -44 -80q54 -34 54 -92q0 -49 -42 -81.5t-105 -32.5t-104.5 33t-41.5 83zM101 483q0 -21 18.5 -34.5t46.5 -13.5t46.5 13.5t18.5 33.5t-18.5 33t-46.5 13t-46.5 -13t-18.5 -32z
M126 668q-16 -11 -16 -28t16 -29q16 -11 40 -11t40 11q16 12 16 29t-16 28q-16 12 -40 12t-40 -12z" />
    <glyph glyph-name="nine.sup" horiz-adv-x="329" 
d="M20 434l68 32q22 -31 67 -31q34 0 55.5 17t21.5 43v40q-23 -38 -75 -38q-57 0 -97 37t-40 93q0 55 41 91q41 37 104 37t103 -37q42 -36 42 -90v-132q0 -58 -44 -97t-109 -39q-45 0 -82.5 20.5t-54.5 53.5zM165 680q-28 0 -46 -15.5t-18 -38.5t18 -39t46 -16t46 16t18 39
t-18.5 38.5t-45.5 15.5z" />
    <glyph glyph-name="zero.sub" horiz-adv-x="342" 
d="M21 34v117q0 59 43 99t107 40t107 -40t43 -99v-117q0 -59 -43 -99t-107 -40t-107 40t-43 99zM171 215q-30 0 -50.5 -18t-20.5 -45v-119q0 -27 20.5 -45t50.5 -18q31 0 51.5 18t20.5 45v119q0 27 -20.5 45t-51.5 18z" />
    <glyph glyph-name="one.sub" horiz-adv-x="242" 
d="M114 195l-67 -33l-29 66l118 57h56v-385h-78v295z" />
    <glyph glyph-name="two.sub" horiz-adv-x="320" 
d="M212 168q0 20 -16.5 33.5t-39.5 13.5q-49 0 -70 -54l-73 35q21 43 58.5 68.5t84.5 25.5q56 0 97 -35q40 -34 40 -84q0 -61 -83 -133l-67 -63h154v-75h-274v57l139 131q50 47 50 80z" />
    <glyph glyph-name="three.sub" horiz-adv-x="325" 
d="M214 171q0 19 -17 31.5t-43 12.5q-48 0 -65 -35l-69 24q18 39 55 62.5t84 23.5q58 0 97.5 -33.5t39.5 -84.5q0 -46 -48 -72q57 -26 57 -83q0 -53 -42 -87q-41 -35 -103 -35q-51 0 -90 24.5t-54 66.5l73 26q5 -19 23.5 -30.5t44.5 -11.5q29 0 48 14t19 35t-18.5 34.5
t-46.5 13.5h-30v59h20q28 0 46.5 12.5t18.5 32.5z" />
    <glyph glyph-name="four.sub" horiz-adv-x="352" 
d="M213 -100v72h-195v75l199 238h74v-239h47v-74h-47v-72h-78zM213 169l-103 -123h103v123z" />
    <glyph glyph-name="five.sub" horiz-adv-x="330" 
d="M311 27q0 -57 -43 -94q-43 -38 -105 -38q-53 0 -93 28t-55 74l79 21q20 -48 69 -48q28 0 47 16.5t19 40.5q0 25 -22 41.5t-54 16.5h-108l20 200h212v-71h-148l-6 -58h50q60 0 98 -37q40 -37 40 -92z" />
    <glyph glyph-name="six.sub" horiz-adv-x="331" 
d="M308 213l-70 -33q-21 35 -65 35q-31 0 -52 -17t-21 -43v-40q28 34 77 34q57 0 97 -37q41 -38 41 -91t-42 -89q-41 -37 -104 -37q-62 0 -105 37q-42 36 -42 89v133q0 58 43 97t107 39q45 0 81.5 -20.5t54.5 -56.5zM233 22q0 22 -18 36.5t-46 14.5t-46.5 -14.5t-18.5 -36.5
t18.5 -37t46.5 -15t46 14.5t18 37.5z" />
    <glyph glyph-name="seven.sub" horiz-adv-x="299" 
d="M58 -100l142 314h-190v71h273v-75l-138 -310h-87z" />
    <glyph glyph-name="eight.sub" horiz-adv-x="332" 
d="M20 11q0 55 53 90q-44 33 -44 81q0 46 39.5 77t97.5 31q59 0 97 -31q40 -31 40 -78q0 -50 -44 -80q54 -35 54 -92q0 -49 -42 -81.5t-105 -32.5t-104.5 33t-41.5 83zM101 18q0 -21 18.5 -34.5t46.5 -13.5t46.5 13.5t18.5 33.5t-18.5 33t-46.5 13t-46.5 -13t-18.5 -32z
M126 203q-16 -11 -16 -28t16 -29q16 -11 40 -11t40 11q16 12 16 29t-16 28q-16 12 -40 12t-40 -12z" />
    <glyph glyph-name="nine.sub" horiz-adv-x="329" 
d="M20 -31l68 32q22 -31 67 -31q34 0 55.5 17t21.5 43v40q-23 -38 -75 -38q-57 0 -97 37t-40 93q0 55 41 91q41 37 104 37t103 -37q42 -36 42 -90v-132q0 -58 -44 -97t-109 -39q-45 0 -82.5 20.5t-54.5 53.5zM165 215q-28 0 -46 -15.5t-18 -38.5t18 -39t46 -16t46 16t18 39
t-18.5 38.5t-45.5 15.5z" />
    <glyph glyph-name="exclamdown.case" horiz-adv-x="250" 
d="M46 637q0 33 22.5 55.5t55.5 22.5q34 0 56.5 -22.5t22.5 -55.5q0 -34 -22.5 -56.5t-56.5 -22.5q-33 0 -55.5 22.5t-22.5 56.5zM58 0l14 479h107l13 -479h-134z" />
    <glyph glyph-name="questiondown.case" horiz-adv-x="569" 
d="M165 205q0 -41 36.5 -68.5t91.5 -27.5q46 0 80.5 21t46.5 56l129 -36q-23 -74 -93 -120q-69 -45 -161 -45q-111 0 -186 63q-74 63 -74 158q0 45 19 83.5t48.5 62.5t54.5 38t47 21l20 6l6 61h108l13 -132q-30 -8 -65 -22q-35 -15 -57 -28q-26 -16 -45 -41t-19 -50z
M341 692q23 -22 23 -56t-23 -57q-22 -22 -56 -22t-57 22q-22 23 -22 57t22 56q23 23 57 23t56 -23z" />
    <glyph glyph-name="dagger.case" horiz-adv-x="460" 
d="M19 400v97h160v203h102v-203h160v-97h-160v-400h-102v400h-160z" />
    <glyph glyph-name="daggerdbl.case" horiz-adv-x="460" 
d="M179 184h-160v97h160v138h-160v97h160v184h102v-184h160v-97h-160v-138h160v-97h-160v-184h-102v184z" />
    <glyph glyph-name="slash.case" horiz-adv-x="532" 
d="M113 -100h-113l419 899h113z" />
    <glyph glyph-name="backslash.case" horiz-adv-x="532" 
d="M113 799l419 -899h-113l-419 899h113z" />
    <glyph glyph-name="parenleft.case" horiz-adv-x="312" 
d="M172 784l16 16h114l-16 -20q-10 -14 -36 -57q-56 -94 -81 -218q-32 -154 -1 -310q17 -80 38 -126q46 -107 80 -150l16 -19h-114l-1 1q-79 84 -120 230q-28 100 -28 220q0 173 53 292q45 104 80 141z" />
    <glyph glyph-name="parenright.case" horiz-adv-x="312" 
d="M26 781l-16 19h114l16 -17q9 -9 36 -52q24 -39 45 -88q19 -47 36 -126q16 -77 16 -166q0 -158 -47 -281q-20 -51 -43 -88q-28 -45 -37 -56q-14 -18 -21 -25l-1 -1h-114l16 20q10 14 36 57q55 93 81 218q32 155 0 309q-13 67 -39.5 131t-38.5 83.5t-39 62.5z" />
    <glyph glyph-name="bracketleft.case" horiz-adv-x="305" 
d="M120 -101v1h-71v900h246v-104h-132v-693h132v-104h-175z" />
    <glyph glyph-name="bracketright.case" horiz-adv-x="305" 
d="M255 -100h-245v104h131v692h-131v104h245v-900z" />
    <glyph glyph-name="braceleft.case" horiz-adv-x="341" 
d="M261 800h70v-104h-59q-26 0 -43 -17t-17 -42v-154q0 -53 -26.5 -87t-72.5 -46q46 -12 72.5 -45.5t26.5 -86.5v-155q0 -25 17.5 -42t42.5 -17h59v-104h-70q-70 0 -117 47q-46 46 -46 116v155q0 24 -20.5 44.5t-45.5 28.5l-22 7v105q10 2 30 11q58 26 58 69v154
q0 70 46 116q47 47 117 47z" />
    <glyph glyph-name="braceright.case" horiz-adv-x="341" 
d="M10 696v104h70q69 0 116 -47t47 -116v-154q0 -24 20.5 -44.5t45.5 -28.5l22 -7v-105q-10 -2 -31 -11q-57 -26 -57 -69v-155q0 -69 -47 -116t-116 -47h-70v104h59q25 0 42.5 17t17.5 42v155q0 53 27 87.5t73 44.5q-47 11 -73.5 45.5t-26.5 87.5v154q0 25 -17 42t-42 17
h-60z" />
    <glyph glyph-name="guillemotleft.case" horiz-adv-x="557" 
d="M224 155l-195 195l195 195l72 -72l-122 -123l122 -123zM446 155l-195 195l195 195l72 -72l-123 -123l123 -123z" />
    <glyph glyph-name="guillemotright.case" horiz-adv-x="557" 
d="M333 545l195 -195l-195 -195l-72 72l122 123l-122 123zM111 545l195 -195l-195 -195l-72 72l122 123l-122 123z" />
    <glyph glyph-name="guilsinglleft.case" horiz-adv-x="335" 
d="M224 155l-195 195l195 195l72 -72l-122 -123l122 -123z" />
    <glyph glyph-name="guilsinglright.case" horiz-adv-x="335" 
d="M111 545l195 -195l-195 -195l-72 72l122 123l-122 123z" />
    <glyph glyph-name="hyphen.case" horiz-adv-x="400" 
d="M59 293v114h282v-114h-282z" />
    <glyph glyph-name="endash.case" 
d="M59 293v114h482v-114h-482z" />
    <glyph glyph-name="emdash.case" horiz-adv-x="1000" 
d="M59 293v114h882v-114h-882z" />
    <glyph glyph-name="bar.case" horiz-adv-x="201" 
d="M152 -100h-103v900h103v-900z" />
    <glyph glyph-name="brokenbar.case" horiz-adv-x="201" 
d="M152 800v-368h-103v368h103zM49 -100v369h103v-369h-103z" />
    <glyph glyph-name="zero.dnom" horiz-adv-x="342" 
d="M21 134v117q0 59 43 99t107 40t107 -40t43 -99v-117q0 -59 -43 -99t-107 -40t-107 40t-43 99zM171 315q-30 0 -50.5 -18t-20.5 -45v-119q0 -27 20.5 -45t50.5 -18q31 0 51.5 18t20.5 45v119q0 27 -20.5 45t-51.5 18z" />
    <glyph glyph-name="one.dnom" horiz-adv-x="242" 
d="M114 295l-67 -33l-29 66l118 57h56v-385h-78v295z" />
    <glyph glyph-name="two.dnom" horiz-adv-x="320" 
d="M212 268q0 20 -16.5 33.5t-39.5 13.5q-49 0 -70 -54l-73 35q21 43 58.5 68.5t84.5 25.5q56 0 97 -35q40 -34 40 -84q0 -61 -83 -133l-67 -63h154v-75h-274v57l139 131q50 47 50 80z" />
    <glyph glyph-name="three.dnom" horiz-adv-x="325" 
d="M214 271q0 19 -17 31.5t-43 12.5q-48 0 -65 -35l-69 24q18 39 55 62.5t84 23.5q58 0 97.5 -33.5t39.5 -84.5q0 -46 -48 -72q57 -26 57 -83q0 -53 -42 -87q-41 -35 -103 -35q-51 0 -90 24.5t-54 66.5l73 26q5 -19 23.5 -30.5t44.5 -11.5q29 0 48 14t19 35t-18.5 34.5
t-46.5 13.5h-30v59h20q28 0 46.5 12.5t18.5 32.5z" />
    <glyph glyph-name="four.dnom" horiz-adv-x="352" 
d="M213 0v72h-195v75l199 238h74v-239h47v-74h-47v-72h-78zM213 269l-103 -123h103v123z" />
    <glyph glyph-name="five.dnom" horiz-adv-x="330" 
d="M311 127q0 -58 -43 -95q-41 -37 -105 -37q-53 0 -93 28t-55 74l79 21q20 -48 69 -48q28 0 47 16.5t19 40.5q0 25 -22 41.5t-54 16.5h-108l20 200h212v-71h-148l-6 -58h50q60 0 98 -37q40 -37 40 -92z" />
    <glyph glyph-name="six.dnom" horiz-adv-x="331" 
d="M308 313l-70 -33q-21 35 -65 35q-31 0 -52 -17t-21 -43v-40q28 34 77 34q57 0 97 -37q41 -38 41 -91t-42 -90q-42 -36 -104 -36q-61 0 -105 36q-42 37 -42 90v133q0 58 43 97t107 39q45 0 81.5 -20.5t54.5 -56.5zM233 122q0 22 -18 36.5t-46 14.5t-46.5 -14.5
t-18.5 -36.5t18.5 -37t46.5 -15t46 14.5t18 37.5z" />
    <glyph glyph-name="seven.dnom" horiz-adv-x="299" 
d="M58 0l142 314h-190v71h273v-75l-138 -310h-87z" />
    <glyph glyph-name="eight.dnom" horiz-adv-x="332" 
d="M20 111q0 55 53 90q-44 33 -44 81q0 46 39.5 77t97.5 31q59 0 97 -31q40 -31 40 -78q0 -50 -44 -80q54 -34 54 -92q0 -49 -42 -81.5t-105 -32.5t-104.5 33t-41.5 83zM101 118q0 -21 18.5 -34.5t46.5 -13.5t46.5 13.5t18.5 33.5t-18.5 33t-46.5 13t-46.5 -13t-18.5 -32z
M126 303q-16 -11 -16 -28t16 -29q16 -11 40 -11t40 11q16 12 16 29t-16 28q-16 12 -40 12t-40 -12z" />
    <glyph glyph-name="nine.dnom" horiz-adv-x="329" 
d="M20 69l68 32q22 -31 67 -31q34 0 55.5 17t21.5 43v40q-23 -38 -75 -38q-57 0 -97 37t-40 93q0 55 41 91q41 37 104 37t103 -37q42 -36 42 -90v-132q0 -58 -44 -97t-109 -39q-45 0 -82.5 20.5t-54.5 53.5zM165 315q-28 0 -46 -15.5t-18 -38.5t18 -39t46 -16t46 16t18 39
t-18.5 38.5t-45.5 15.5z" />
    <glyph glyph-name="logo" horiz-adv-x="430" 
d="M20 518v102h23q71 0 121 -50t50 -121t-50 -121t-121 -50h-23v103q91 0 91 68q0 69 -91 69zM216 518v102h23q71 0 121 -50t50 -121t-50 -121t-121 -50h-23v103q92 0 92 68q0 69 -92 69zM53 216h-27v20h74v-20h-27v-116h-20v116zM139 160l-36 76h23l23 -50l24 50h23
l-36 -76v-60h-21v60zM228 100h-20v136h38q18 0 31 -12.5t13 -30.5t-13 -30.5t-31 -12.5h-18v-50zM246 216h-18v-46h18q10 0 16.5 6.5t6.5 16.5q0 9 -6.5 16t-16.5 7zM363 100h-60v136h60v-20h-39v-48h31v-20h-31v-28h39v-20z" />
    <glyph glyph-name="bullet.case" horiz-adv-x="378" 
d="M78 239q-44 44 -44 111t44 111t111 44t111 -44q45 -43 45 -111t-45 -111q-44 -44 -111 -44t-111 44z" />
    <glyph glyph-name="zero.num" horiz-adv-x="342" 
d="M21 449v117q0 59 43 99t107 40t107 -40t43 -99v-117q0 -59 -43 -99t-107 -40t-107 40t-43 99zM171 630q-30 0 -50.5 -18t-20.5 -45v-119q0 -27 20.5 -45t50.5 -18q31 0 51.5 18t20.5 45v119q0 27 -20.5 45t-51.5 18z" />
    <glyph glyph-name="one.num" horiz-adv-x="242" 
d="M114 610l-67 -33l-29 66l118 57h56v-385h-78v295z" />
    <glyph glyph-name="two.num" horiz-adv-x="320" 
d="M212 583q0 20 -16.5 33.5t-39.5 13.5q-49 0 -70 -54l-73 35q21 43 58.5 68.5t84.5 25.5q56 0 97 -35q40 -34 40 -84q0 -61 -83 -133l-67 -63h154v-75h-274v57l139 131q50 47 50 80z" />
    <glyph glyph-name="three.num" horiz-adv-x="325" 
d="M214 586q0 19 -17 31.5t-43 12.5q-48 0 -65 -35l-69 24q18 39 55 62.5t84 23.5q58 0 97.5 -33.5t39.5 -84.5q0 -47 -48 -72q57 -25 57 -83q0 -52 -42 -87q-41 -35 -103 -35q-51 0 -90 24.5t-54 66.5l73 26q5 -19 23.5 -30.5t44.5 -11.5q29 0 48 14t19 35t-18.5 34.5
t-46.5 13.5h-30v59h20q28 0 46.5 12.5t18.5 32.5z" />
    <glyph glyph-name="four.num" horiz-adv-x="352" 
d="M213 315v72h-195v75l199 238h74v-239h47v-74h-47v-72h-78zM213 584l-103 -123h103v123z" />
    <glyph glyph-name="five.num" horiz-adv-x="330" 
d="M311 442q0 -58 -43 -95q-41 -37 -105 -37q-53 0 -93 28t-55 74l79 21q20 -48 69 -48q28 0 47 16.5t19 40.5q0 25 -22 41.5t-54 16.5h-108l20 200h212v-71h-148l-6 -58h50q60 0 98 -37q40 -37 40 -92z" />
    <glyph glyph-name="six.num" horiz-adv-x="331" 
d="M308 628l-70 -33q-21 35 -65 35q-31 0 -52 -17t-21 -43v-40q28 34 77 34q57 0 97 -37q41 -38 41 -91q0 -52 -42 -90q-42 -36 -104 -36q-61 0 -105 36q-42 38 -42 90v133q0 58 43 97t107 39q45 0 81.5 -20.5t54.5 -56.5zM233 437q0 22 -18 36.5t-46 14.5t-46.5 -14.5
t-18.5 -36.5t18.5 -37t46.5 -15t46 14.5t18 37.5z" />
    <glyph glyph-name="seven.num" horiz-adv-x="299" 
d="M58 315l142 314h-190v71h273v-75l-138 -310h-87z" />
    <glyph glyph-name="eight.num" horiz-adv-x="332" 
d="M20 426q0 55 53 90q-44 33 -44 81q0 46 39.5 77t97.5 31q59 0 97 -31q40 -31 40 -78q0 -50 -44 -80q54 -34 54 -92q0 -49 -42 -81.5t-105 -32.5t-104.5 33t-41.5 83zM101 433q0 -21 18.5 -34.5t46.5 -13.5t46.5 13.5t18.5 33.5t-18.5 33t-46.5 13t-46.5 -13t-18.5 -32z
M126 618q-16 -11 -16 -28t16 -29q16 -11 40 -11t40 11q16 12 16 29t-16 28q-16 12 -40 12t-40 -12z" />
    <glyph glyph-name="nine.num" horiz-adv-x="329" 
d="M20 384l68 32q22 -31 67 -31q34 0 55.5 17t21.5 43v40q-23 -38 -75 -38q-57 0 -97 37t-40 93q0 55 41 91q41 37 104 37t103 -37q42 -36 42 -90v-132q0 -58 -44 -97t-109 -39q-45 0 -82.5 20.5t-54.5 53.5zM165 630q-28 0 -46 -15.5t-18 -38.5t18 -39t46 -16t46 16t18 39
t-18.5 38.5t-45.5 15.5z" />
    <glyph glyph-name="afii10021.1" horiz-adv-x="821" 
d="M801 0h-781v124h81q69 27 69 233v343h522v-576h109v-124zM261 124h297v452h-253v-214q0 -148 -44 -238z" />
    <glyph glyph-name="afii10040.1" horiz-adv-x="789" 
d="M58 700h134v-576h334v576h134v-576h110v-124h-712v700z" />
    <glyph glyph-name="afii10043.1" horiz-adv-x="1117" 
d="M58 0v700h134v-576h259v576h134v-576h269v576h134v-576h110v-124h-1040z" />
    <glyph glyph-name="germandbls.1" horiz-adv-x="583" 
d="M178 406v-406h-125v581q0 76 64 127q64 52 159 52h26v-123h-25q-43 0 -71 -18t-28 -44v-55h334v-92l-101 -151q66 -33 104.5 -99t38.5 -146q0 -116 -83 -194t-206 -78v124q71 0 117 43q47 42 47 106q0 63 -47 105q-46 43 -117 43v92l89 133h-176z" />
    <glyph glyph-name="R.1" horiz-adv-x="665" 
d="M58 700h324q104 0 172 -61q70 -61 70 -152q0 -113 -101 -176q66 -52 81 -133l37 -178h-132l-29 145q-10 48 -49 80t-88 32h-151v-257h-134v700zM382 576h-190v-195h190q43 0 72.5 28t29.5 69q0 42 -29 70t-73 28z" />
    <glyph glyph-name="Racute.1" horiz-adv-x="675" 
d="M192 0h-134v700h324q104 0 172 -61q70 -61 70 -152q0 -113 -101 -176q66 -52 81 -133l37 -178h-132l-29 145q-10 48 -49 80t-88 32h-151v-257zM382 576h-190v-195h190q43 0 72.5 28t29.5 69q0 42 -29 70t-73 28zM462 852l-219 -93l-41 76l204 127z" />
    <glyph glyph-name="Rcaron.1" horiz-adv-x="675" 
d="M192 257v-257h-134v700h324q104 0 172 -61q70 -61 70 -152q0 -113 -101 -176q66 -52 81 -133l37 -178h-132l-29 145q-10 48 -49 80t-88 32h-151zM382 576h-190v-195h190q43 0 72.5 28t29.5 69q0 42 -29 70t-73 28zM287 759h-7l-174 127l50 70l128 -75l127 74l51 -69z" />
    <glyph glyph-name="Rcommaaccent.1" horiz-adv-x="675" 
d="M192 0h-134v700h324q104 0 172 -61q70 -61 70 -152q0 -113 -101 -176q66 -52 81 -133l37 -178h-132l-29 145q-10 48 -49 80t-88 32h-151v-257zM382 576h-190v-195h190q43 0 72.5 28t29.5 69q0 42 -29 70t-73 28zM288 -113q0 26 18.5 44t45.5 18q31 0 50.5 -23t19.5 -58
q0 -77 -95 -131l-1 -1l-31 33q46 36 46 54q-22 5 -37.5 23t-15.5 41z" />
    <glyph glyph-name="u.1" horiz-adv-x="597" 
d="M53 234v286h125v-275q0 -58 35 -96.5t87 -38.5q51 0 85.5 39t34.5 96v275h124v-286q0 -105 -71 -178q-71 -71 -174 -71q-105 0 -176 71q-70 71 -70 178z" />
    <glyph glyph-name="uacute.1" horiz-adv-x="597" 
d="M53 234v286h125v-275q0 -58 35 -96.5t87 -38.5q51 0 85.5 39t34.5 96v275h124v-286q0 -105 -71 -178q-71 -71 -174 -71q-105 0 -176 71q-70 71 -70 178zM248 589l-42 76l204 127l56 -110z" />
    <glyph glyph-name="ubreve.1" horiz-adv-x="597" 
d="M53 234v286h125v-275q0 -58 35 -96.5t87 -38.5q51 0 85.5 39t34.5 96v275h124v-286q0 -105 -71 -178q-71 -71 -174 -71q-105 0 -176 71q-70 71 -70 178zM136 740h96q0 -31 19 -52.5t48 -21.5t47 21t18 53h97q0 -68 -47 -115q-46 -46 -116 -46t-116 46t-46 115z" />
    <glyph glyph-name="ucircumflex.1" horiz-adv-x="597" 
d="M53 234v286h125v-275q0 -58 35 -96.5t87 -38.5q51 0 85.5 39t34.5 96v275h124v-286q0 -105 -71 -178q-71 -71 -174 -71q-105 0 -176 71q-70 71 -70 178zM298 663l-127 -75l-51 70l175 127h7l174 -127l-50 -69z" />
    <glyph glyph-name="udieresis.1" horiz-adv-x="597" 
d="M53 234v286h125v-275q0 -58 35 -96.5t87 -38.5q51 0 85.5 39t34.5 96v275h124v-286q0 -105 -71 -178q-71 -71 -174 -71q-105 0 -176 71q-70 71 -70 178zM193 731q31 0 52 -21t21 -53q0 -31 -21 -52.5t-52 -21.5q-32 0 -53.5 21t-21.5 53t21.5 53t53.5 21zM331 657
q0 32 21 53t53 21t53 -21t21 -53q0 -31 -21.5 -52.5t-52.5 -21.5t-52.5 21.5t-21.5 52.5z" />
    <glyph glyph-name="ugrave.1" horiz-adv-x="597" 
d="M53 234v286h125v-275q0 -58 35 -96.5t87 -38.5q51 0 85.5 39t34.5 96v275h124v-286q0 -105 -71 -178q-71 -71 -174 -71q-105 0 -176 71q-70 71 -70 178zM344 589l-219 93l56 110l204 -127z" />
    <glyph glyph-name="uhungarumlaut.1" horiz-adv-x="597" 
d="M53 234v286h125v-275q0 -58 35 -96.5t87 -38.5q51 0 85.5 39t34.5 96v275h124v-286q0 -105 -71 -178q-71 -71 -174 -71q-105 0 -176 71q-70 71 -70 178zM198 578l-62 59l143 170l87 -88zM405 578l-63 59l143 170l87 -88z" />
    <glyph glyph-name="umacron.1" horiz-adv-x="597" 
d="M53 234v286h125v-275q0 -58 35 -96.5t87 -38.5q51 0 85.5 39t34.5 96v275h124v-286q0 -105 -71 -178q-71 -71 -174 -71q-105 0 -176 71q-70 71 -70 178zM454 614h-311v102h311v-102z" />
    <glyph glyph-name="uogonek.1" horiz-adv-x="597" 
d="M53 234v286h125v-275q0 -58 35 -96.5t87 -38.5q51 0 85.5 39t34.5 96v275h124v-286q0 -92 -54 -160q-54 -67 -140 -84q-49 -49 -49 -86q0 -34 36 -34q25 0 43 18l6 6l42 -51l-16 -15q-12 -10 -41 -24q-32 -15 -62 -15q-44 0 -73 26t-29 66q0 51 50 107q-88 13 -147 82
q-57 69 -57 164z" />
    <glyph glyph-name="uring.1" horiz-adv-x="597" 
d="M53 234v286h125v-275q0 -58 35 -96.5t87 -38.5q51 0 85.5 39t34.5 96v275h124v-286q0 -105 -71 -178q-71 -71 -174 -71q-105 0 -176 71q-70 71 -70 178zM299 813q47 0 82 -35t35 -83t-35 -83q-34 -34 -82 -34q-49 0 -83.5 34t-34.5 83t34 83q35 35 84 35zM299 663
q13 0 22.5 9.5t9.5 22.5q0 21 -19.5 30t-36.5 -7q-15 -15 -6.5 -35t30.5 -20z" />
    <glyph glyph-name="utilde.1" horiz-adv-x="597" 
d="M53 234v286h125v-275q0 -58 35 -96.5t87 -38.5q51 0 85.5 39t34.5 96v275h124v-286q0 -105 -71 -178q-71 -71 -174 -71q-105 0 -176 71q-70 71 -70 178zM227 607h-95q0 49 33 84t80 35q30 0 59 -20q29 -19 38 -19q11 0 19 10t8 24h95q0 -50 -32.5 -84.5t-79.5 -34.5
q-31 0 -60 19q-28 19 -37 19q-11 0 -19.5 -9.5t-8.5 -23.5z" />
    <glyph glyph-name="y.1" horiz-adv-x="545" 
d="M208 13l-199 507h129l132 -349l137 349h129l-298 -745h-123z" />
    <glyph glyph-name="yacute.1" horiz-adv-x="545" 
d="M208 13l-199 507h129l132 -349l137 349h129l-298 -745h-123zM440 682l-218 -93l-42 76l205 127z" />
    <glyph glyph-name="ycircumflex.1" horiz-adv-x="545" 
d="M115 -225l93 238l-199 507h129l132 -349l137 349h129l-298 -745h-123zM272 663l-127 -75l-51 70l175 127h7l174 -127l-50 -69z" />
    <glyph glyph-name="ydieresis.1" horiz-adv-x="545" 
d="M208 13l-199 507h129l132 -349l137 349h129l-298 -745h-123zM379 583q-31 0 -52.5 21.5t-21.5 52.5q0 32 21 53t53 21t53.5 -21t21.5 -53q0 -31 -21.5 -52.5t-53.5 -21.5zM167 583q-32 0 -53.5 21t-21.5 53t21.5 53t53.5 21q31 0 52.5 -21t21.5 -53q0 -31 -21.5 -52.5
t-52.5 -21.5z" />
    <glyph glyph-name="ygrave.1" horiz-adv-x="545" 
d="M208 13l-199 507h129l132 -349l137 349h129l-298 -745h-123zM318 589l-219 93l56 110l204 -127z" />
    <glyph glyph-name="afii10085.1" horiz-adv-x="545" 
d="M208 13l-199 507h129l132 -349l137 349h129l-298 -745h-123z" />
    <glyph glyph-name="afii10110.1" horiz-adv-x="545" 
d="M115 -225l93 238l-199 507h129l132 -349l137 349h129l-298 -745h-123zM95 738h102q0 -32 22 -53t55 -21q32 0 53 21t21 53h102q0 -72 -51 -122q-49 -49 -125 -49q-78 0 -128 49q-51 50 -51 122z" />
    <glyph glyph-name="g.1" horiz-adv-x="622" 
d="M287 535q88 0 158 -56v41h124v-506q0 -107 -75 -181q-74 -73 -183 -73q-49 0 -100 18l46 113q24 -7 50 -7q57 0 98 38q40 37 40 92v27q-70 -56 -158 -56q-107 0 -181 78q-72 79 -72 197t72 196q73 79 181 79zM203 367q-40 -43 -40 -107t40 -107t100 -43q59 0 99 43
q41 44 41 107t-41 107q-40 43 -99 43q-60 0 -100 -43z" />
    <glyph glyph-name="gbreve.1" horiz-adv-x="622" 
d="M287 -15q-107 0 -181 78q-72 79 -72 197t72 196q73 79 181 79q88 0 158 -56v41h124v-506q0 -107 -75 -181q-74 -73 -183 -73q-49 0 -100 18l46 113q24 -7 50 -7q57 0 98 38q40 37 40 92v27q-70 -56 -158 -56zM402 367q-40 43 -99 43q-60 0 -100 -43t-40 -107t40 -107
t100 -43q59 0 99 43q41 44 41 107t-41 107zM140 740h96q0 -31 19 -52.5t48 -21.5t47 21t18 53h97q0 -68 -47 -115q-46 -46 -116 -46t-116 46t-46 115z" />
    <glyph glyph-name="gcircumflex.1" horiz-adv-x="622" 
d="M287 -15q-107 0 -181 78q-72 79 -72 197t72 196q73 79 181 79q88 0 158 -56v41h124v-506q0 -107 -75 -181q-74 -73 -183 -73q-49 0 -100 18l46 113q24 -7 50 -7q57 0 98 38q40 37 40 92v27q-70 -56 -158 -56zM402 367q-40 43 -99 43q-60 0 -100 -43t-40 -107t40 -107
t100 -43q59 0 99 43q41 44 41 107t-41 107zM302 663l-127 -75l-51 70l175 127h7l174 -127l-50 -69z" />
    <glyph glyph-name="gcommaaccent.1" horiz-adv-x="622" 
d="M287 535q88 0 158 -56v41h124v-506q0 -107 -75 -181q-74 -73 -183 -73q-49 0 -100 18l46 113q24 -7 50 -7q57 0 98 38q40 37 40 92v27q-70 -56 -158 -56q-107 0 -181 78q-72 79 -72 197t72 196q73 79 181 79zM402 367q-40 43 -99 43q-60 0 -100 -43t-40 -107t40 -107
t100 -43q59 0 99 43q41 44 41 107t-41 107zM233 659q0 77 95 131l1 1l31 -33q-46 -36 -46 -55q23 -4 38 -21.5t15 -41.5q0 -26 -18.5 -44t-45.5 -18q-31 0 -50.5 22.5t-19.5 58.5z" />
    <glyph glyph-name="gdotaccent.1" horiz-adv-x="622" 
d="M287 535q88 0 158 -56v41h124v-506q0 -107 -75 -181q-74 -73 -183 -73q-49 0 -100 18l46 113q24 -7 50 -7q57 0 98 38q40 37 40 92v27q-70 -56 -158 -56q-107 0 -181 78q-72 79 -72 197t72 196q73 79 181 79zM402 367q-40 43 -99 43q-60 0 -100 -43t-40 -107t40 -107
t100 -43q59 0 99 43q41 44 41 107t-41 107zM224 662q0 34 22.5 56.5t55.5 22.5q34 0 56.5 -22.5t22.5 -56.5q0 -33 -22.5 -55.5t-56.5 -22.5q-33 0 -55.5 22.5t-22.5 55.5z" />
    <glyph glyph-name="t.1" horiz-adv-x="362" 
d="M10 411v68l126 143h73v-102h129v-109h-129v-229q0 -27 18 -45t46 -18h65v-119h-77q-74 0 -126 47q-51 47 -51 117v247h-74z" />
    <glyph glyph-name="tbar.1" horiz-adv-x="362" 
d="M84 411h-74v68l126 143h73v-102h129v-109h-129v-88h89v-91h-89v-50q0 -27 18 -45t46 -18h65v-119h-77q-74 0 -126 47q-51 47 -51 117v68h-59v91h59v88z" />
    <glyph glyph-name="tcaron.1" horiz-adv-x="388" 
d="M10 411v68l126 143h73v-102h129v-109h-129v-229q0 -27 18 -45t46 -18h65v-119h-77q-74 0 -126 47q-51 47 -51 117v247h-74zM378 671q0 -77 -94 -131v-1h-1l-32 32q46 36 46 55q-22 4 -37 22t-15 42q0 26 18 44t46 18q30 0 49.5 -23t19.5 -58z" />
    <glyph glyph-name="tcommaaccent.1" horiz-adv-x="362" 
d="M10 411v68l126 143h73v-102h129v-109h-129v-229q0 -27 18 -45t46 -18h65v-119h-77q-74 0 -126 47q-51 47 -51 117v247h-74zM280 -132q0 -77 -94 -131l-1 -1l-32 33q46 36 46 54q-22 5 -37 23t-15 41q0 26 18 44t45 18q31 0 50.5 -23t19.5 -58z" />
    <glyph glyph-name="uni021B.1" horiz-adv-x="362" 
d="M10 411v68l126 143h73v-102h129v-109h-129v-229q0 -27 18 -45t46 -18h65v-119h-77q-74 0 -126 47q-51 47 -51 117v247h-74zM280 -132q0 -77 -94 -131l-1 -1l-32 33q46 36 46 54q-22 5 -37 23t-15 41q0 26 18 44t45 18q31 0 50.5 -23t19.5 -58z" />
    </font>
</defs>
</svg>
